<svg width="178" height="23" viewBox="0 0 178 23" fill="none" xmlns="http://www.w3.org/2000/svg">
<g clip-path="url(#clip0_17852_6189)">
<path fill-rule="evenodd" clip-rule="evenodd" d="M23.6569 0.0302734H-6.10352e-05V2.91292H23.6569V0.0302734ZM21.3165 5.15059H2.33523V8.03322H21.3165V5.15059ZM10.3846 10.2717H13.2672V22.9302H10.3846V10.2717ZM7.50214 10.2717H4.61951V22.9302H7.50214V10.2717ZM16.1523 10.2717H19.0349V22.9302H16.1523V10.2717Z" fill="white"/>
<mask id="mask0_17852_6189" style="mask-type:luminance" maskUnits="userSpaceOnUse" x="31" y="4" width="147" height="15">
<path d="M177.687 4.03516H31.0731V18.9258H177.687V4.03516Z" fill="white"/>
</mask>
<g mask="url(#mask0_17852_6189)">
<path d="M38.7602 6.48618C35.8394 6.48618 33.6253 8.18843 33.6253 11.3581C33.6253 14.5278 35.9145 16.4649 38.995 16.4649C41.2396 16.4649 43.28 15.1735 43.6744 12.842C44.3342 13.1355 44.9799 13.429 45.6561 13.692C45.2452 17.5355 41.782 18.8715 38.6874 18.8715C34.2428 18.8692 31.0731 15.6854 31.0731 11.3558C31.0731 7.0262 34.3015 4.15234 38.8048 4.15234C42.1201 4.15234 45.0245 5.63388 45.7148 8.83176L43.6157 9.63945C42.9701 7.45353 40.6949 6.46974 38.7602 6.46974V6.48383V6.48618Z" fill="white"/>
<path d="M47.7693 11.5321C47.7693 6.95364 50.6901 4.03516 55.0901 4.03516C59.4901 4.03516 62.5002 6.99825 62.5002 11.3865C62.5002 15.7748 59.5653 18.8835 55.1488 18.8835C50.7324 18.8835 47.7552 15.9345 47.7552 11.5321H47.7693ZM55.1042 6.30796C52.1247 6.30796 50.2323 8.20039 50.2323 11.3255C50.2323 14.4506 52.1247 16.6365 55.1465 16.6365C58.1683 16.6365 60.0607 14.7441 60.0607 11.619C60.0607 8.49388 58.1236 6.30796 55.1019 6.30796H55.1042Z" fill="white"/>
<path d="M77.6253 18.413H65.6392V4.5625H67.9871V16.1237H77.6253V18.413Z" fill="white"/>
<path d="M78.4777 11.5321C78.4777 6.95364 81.3962 4.03516 85.8126 4.03516C90.2291 4.03516 93.2227 6.99825 93.2227 11.3865C93.2227 15.7748 90.2878 18.8835 85.8713 18.8835C81.4549 18.8835 78.4777 15.9345 78.4777 11.5321ZM85.8126 6.30796C82.8355 6.30796 80.9407 8.20039 80.9407 11.3255C80.9407 14.4506 82.8331 16.6365 85.8549 16.6365C88.8767 16.6365 90.7691 14.7441 90.7691 11.619C90.7691 8.49388 88.8321 6.30796 85.8103 6.30796H85.8126Z" fill="white"/>
<path d="M110.078 14.0415C110.078 17.8264 106.235 18.9276 103.169 18.9276C100.835 18.9276 96.7563 18.5895 95.9651 14.8492L98.0477 13.8513C98.9282 16.1688 101.114 16.4787 102.92 16.4787C104.549 16.4787 107.498 16.1406 107.498 14.2341C107.498 10.6699 96.0402 14.6144 96.0402 8.61546C96.0402 5.37297 99.8697 4.0957 102.936 4.0957C106.002 4.0957 109.304 5.12174 109.773 8.23275L107.822 9.00992C107.235 6.9273 104.991 6.26519 102.936 6.26519C100.999 6.26519 98.8131 7.02826 98.8131 8.39241C98.8131 11.6795 110.095 8.18814 110.095 14.0556L110.081 14.0415H110.078Z" fill="white"/>
<path d="M126.38 14.0415C126.38 17.8264 122.522 18.9276 119.47 18.9276C117.139 18.9276 113.058 18.5895 112.267 14.8492L114.349 13.8513C115.23 16.1688 117.416 16.4787 119.221 16.4787C120.851 16.4787 123.8 16.1406 123.8 14.2341C123.8 10.6699 112.342 14.6144 112.342 8.61546C112.342 5.37297 116.171 4.0957 119.238 4.0957C122.304 4.0957 125.605 5.12174 126.075 8.23275L124.124 9.00992C123.537 6.9273 121.292 6.26519 119.238 6.26519C117.301 6.26519 115.115 7.02826 115.115 8.39241C115.115 11.6795 126.397 8.18814 126.397 14.0556L126.382 14.0415H126.38Z" fill="white"/>
<path d="M142.341 18.413H129.385V4.5625H141.945V6.89635H131.719V10.1083H140.214V12.4845H131.719V16.1237H142.341V18.413Z" fill="white"/>
<path d="M144.999 13.2921V4.5625H147.347V12.7498C147.347 15.1846 148.756 16.5346 151.719 16.5346C154.682 16.5346 156.091 15.1846 156.091 12.7498V4.5625H158.439V13.2921C158.439 16.6379 155.915 18.9107 151.719 18.9107C147.523 18.9107 144.999 16.6356 144.999 13.2921Z" fill="white"/>
<path d="M169.838 14.29L174.71 4.5625H177.687V18.413H175.339V8.74417C174.386 10.5333 171.364 16.6379 170.409 18.4271H169.279L164.365 8.74417V18.3989H162.017V4.5625H164.98C165.933 6.39624 168.913 12.4704 169.852 14.29H169.838Z" fill="white"/>
</g>
</g>
<defs>
<clipPath id="clip0_17852_6189">
<rect width="177.7" height="23" fill="white"/>
</clipPath>
</defs>
</svg>
