<svg width="111" height="27" viewBox="0 0 111 27" fill="none" xmlns="http://www.w3.org/2000/svg">
<g clip-path="url(#clip0_17681_12526)">
<path d="M89.6074 22.401C89.6074 22.579 89.5031 22.7397 89.3454 22.8021C88.9833 22.9459 88.6303 23.0357 88.2348 23.0357C86.0447 23.0357 85.0968 20.7218 85.0968 16.094C85.0968 11.8113 86.3062 9.63555 88.0059 9.63555C88.48 9.63555 88.9779 9.76128 89.3983 10.0128C89.5267 10.0898 89.6074 10.233 89.6074 10.3892V22.401ZM72.7449 25.0043C70.0648 25.0043 64.4105 14.6088 64.4105 11.2242C64.4105 10.1536 64.9004 9.53195 65.7177 9.53195C68.594 9.53195 74.0849 20.3418 74.0849 23.2431C74.0849 24.4173 73.6276 25.0043 72.7449 25.0043ZM29.8021 10.1192C31.2075 10.1192 33.6684 12.1417 33.6682 16.1978C33.668 17.8431 32.667 18.9484 31.0649 17.6488C29.5975 16.4583 28.462 13.9818 28.462 12.1567C28.462 10.8789 28.9524 10.1192 29.8021 10.1192ZM10.6224 25.6951H10.5042C10.2808 25.6951 10.0995 25.5036 10.0995 25.2674V2.36162C10.0995 2.12553 10.2808 1.93403 10.5042 1.93403H10.9166C15.1983 1.93403 17.617 5.97477 17.617 13.5382C17.617 21.2054 14.8388 25.6951 10.6224 25.6951ZM107.325 15.2997L104.874 13.9181C102.946 12.8475 102.423 11.984 102.423 10.7752C102.423 9.80823 103.142 8.9448 104.58 8.9448C104.698 8.9448 104.85 8.96283 104.986 8.99876C105.079 9.02312 105.159 9.08445 105.214 9.16711L107.497 12.5972C108.041 13.4149 109.301 13.1927 109.531 12.2386L110.02 10.21C110.07 9.99293 110.112 9.74314 110.145 9.49713C110.231 8.85868 109.74 8.28866 109.094 8.28866H104.809C100.462 8.28866 97.7814 10.5681 97.7814 14.0563C97.7814 16.681 99.0888 18.3043 101.802 19.8238L103.959 21.0326C105.332 21.7923 105.92 22.3795 105.92 23.4157C105.92 24.8315 104.939 25.6259 103.501 25.6259C103.151 25.6259 102.931 25.5985 102.562 25.4941C102.472 25.4688 102.393 25.4121 102.34 25.3362L99.6442 21.5229C99.169 20.8508 98.1165 21.0801 97.9661 21.8886L97.3929 24.9663C97.3845 25.0133 97.3795 25.0994 97.377 25.2057C97.3726 25.3833 97.4187 25.5484 97.4959 25.6951H96.5492C96.3257 25.6951 96.1443 25.5036 96.1443 25.2674V1.26031C96.1443 0.965679 95.8689 0.759388 95.6058 0.856747L93.9109 0.850071C93.8307 0.839612 93.7496 0.83238 93.6665 0.83238H87.1865C86.9306 0.83238 86.7234 1.039 86.7234 1.29403V2.23644C86.7234 3.5218 87.7687 4.56392 89.058 4.56392H89.098C89.3289 4.56392 89.5198 4.73415 89.5565 4.96135C89.585 5.13727 89.6074 4.95089 89.6074 4.99675V8.79982C89.6074 9.12783 89.2744 9.331 89.0033 9.17079C88.1223 8.64949 87.0851 8.28866 85.6852 8.28866C81.7922 8.28866 78.938 11.3438 78.2585 15.9091C77.7023 11.2157 74.0151 8.28866 69.0515 8.28866C64.149 8.28866 60.6604 11.6237 60.1349 16.0042V14.6568C60.1349 14.4205 59.9535 14.2291 59.73 14.2291H51.4588C51.079 14.2291 50.9084 14.7322 51.2019 14.9871L53.1233 16.6565C53.2168 16.7378 53.2709 16.8589 53.2709 16.9869V22.9286C53.2709 23.9737 52.08 24.5064 51.3721 23.7764C46.6801 18.9396 43.2041 11.3499 43.2041 5.97489C43.2041 2.93565 44.4789 1.51956 46.0804 1.51956C47.1496 1.51956 48.9814 3.26044 50.7851 5.33576C53.1331 8.0373 57.3737 6.95214 58.2695 3.40852L58.5139 2.44241C58.5632 2.2468 58.4773 2.03939 58.3059 1.94927C55.9881 0.731014 53.3262 0 50.0025 0C42.7422 0 38.3499 5.04926 37.8587 11.5753C37.5545 11.0402 37.1534 10.5635 36.674 10.1498C35.6738 9.10202 34.2075 8.39202 32.5465 8.39202C28.8281 8.39202 26.2853 10.7675 25.1252 13.9523C25.1288 13.8031 25.1344 13.6554 25.1344 13.5037C25.1344 5.6294 20.1338 1.38148 11.5377 1.38148H0.404702C0.181143 1.38148 0 1.57297 0 1.80919V3.19778C0 4.4917 1.05216 5.54073 2.3501 5.54073H2.43024C2.69464 5.54073 2.90882 5.75425 2.90882 6.01782V22.1894C2.90882 22.4529 2.69464 22.6665 2.43024 22.6665C1.2505 22.6665 0.294097 23.6199 0.294097 24.7961V25.9715C0.294097 26.124 0.411065 26.2477 0.555491 26.2477H11.1127C17.8946 26.2477 22.6758 23.43 24.4125 18.2507C24.4473 20.573 25.4873 22.6189 26.75 24.0035C26.7514 24.0017 26.7532 23.9999 26.7548 23.9979C27.9423 25.4169 29.9492 26.2477 32.5664 26.2477H36.8514C37.4976 26.2477 37.9892 25.6776 37.9027 25.0391C37.8695 24.7931 37.8281 24.5434 37.7774 24.3262L37.2888 22.2978C37.059 21.3436 35.7985 21.1212 35.2544 21.9391L32.9723 25.3692C32.9172 25.4519 32.8371 25.5132 32.7442 25.5376C32.6074 25.5736 32.4555 25.5915 32.3378 25.5915C30.8997 25.5915 30.1805 24.7281 30.1805 23.7611C30.1805 22.5521 30.7034 21.6889 32.6319 20.6182L35.0832 19.2367C36.5982 18.3784 37.6239 17.3164 38.1357 16.0633C39.3709 22.0723 44.0957 26.2477 51.1792 26.2477C54.6004 26.2477 57.6463 25.124 59.9802 23.2C60.0784 23.1189 60.1349 22.9936 60.1349 22.8619V18.3584C60.704 23.2234 64.7244 26.2477 69.0843 26.2477C74.4174 26.2477 77.4102 23.2664 78.1495 19.231C78.4908 23.7965 80.8405 26.2477 83.9204 26.2477C85.6037 26.2477 87.3621 25.3262 88.9342 23.8514C89.1952 23.6064 89.6074 23.8003 89.6074 24.1696V25.82C89.6074 26.0562 89.7886 26.2477 90.0121 26.2477H97.517C97.644 26.2477 97.745 26.1501 97.7687 26.0232C97.9443 26.1616 98.1636 26.2477 98.4046 26.2477H103.305C107.325 26.2477 110.757 24.0373 110.757 20.4456C110.757 18.3043 109.581 16.5773 107.325 15.2997Z" fill="white"/>
</g>
<rect x="0.0994231" y="0.0994231" width="110.558" height="26.0488" stroke="#13141A" stroke-width="0.198846"/>
<defs>
<clipPath id="clip0_17681_12526">
<rect width="110.757" height="26.2477" fill="white"/>
</clipPath>
</defs>
</svg>
