<svg width="990" height="192" viewBox="0 0 990 192" fill="#fff" xmlns="http://www.w3.org/2000/svg">
<path fill-rule="evenodd" clip-rule="evenodd" d="M221.092 15.8537V0H0.908203V15.8536C17.9954 15.8536 31.8474 29.7055 31.8474 46.7928V145.208C31.8474 162.295 17.9954 176.147 0.908203 176.147V192H221.092V176.147C204.005 176.146 190.154 162.295 190.154 145.208V46.7929C190.154 29.7062 204.005 15.8546 221.092 15.8537ZM63.6395 15.8537C55.0959 15.8537 48.1699 22.7797 48.1699 31.3233V160.678C48.1699 169.221 55.0959 176.147 63.6395 176.147C72.1831 176.147 79.1091 169.221 79.1091 160.678V31.3233C79.1091 22.7796 72.1831 15.8537 63.6395 15.8537ZM95.4258 31.3233C95.4258 22.7797 102.352 15.8537 110.895 15.8537C119.439 15.8537 126.365 22.7796 126.365 31.3233V160.678C126.365 169.221 119.439 176.147 110.895 176.147C102.352 176.147 95.4258 169.221 95.4258 160.678V31.3233ZM158.181 15.8541C149.637 15.8541 142.711 22.78 142.711 31.3236V160.678C142.711 169.222 149.637 176.148 158.181 176.148C166.724 176.148 173.65 169.222 173.65 160.678V31.3236C173.65 22.78 166.724 15.8541 158.181 15.8541Z" fill="white"/>
<path d="M912.944 192C900.351 192 889.483 188.895 880.341 182.685C871.198 176.474 864.125 168.194 859.122 157.844C854.292 147.321 851.877 135.763 851.877 123.17C851.877 110.059 854.637 98.3288 860.157 87.9784C865.85 77.4555 873.872 69.1751 884.222 63.1374C894.745 56.9271 907.252 53.822 921.742 53.822C936.06 53.822 948.222 56.9271 958.227 63.1374C968.405 69.1751 976.168 77.4555 981.516 87.9784C987.036 98.3288 989.796 109.887 989.796 122.652V188.895H960.039V164.313H959.521C956.934 169.143 953.57 173.714 949.43 178.027C945.289 182.167 940.2 185.531 934.163 188.119C928.125 190.706 921.052 192 912.944 192ZM920.966 166.642C928.729 166.642 935.457 164.744 941.149 160.949C947.014 156.981 951.586 151.72 954.864 145.164C958.141 138.437 959.694 130.933 959.521 122.652C959.521 114.372 957.969 107.04 954.864 100.658C951.758 94.1024 947.36 88.9272 941.667 85.132C935.974 81.1644 929.16 79.1805 921.225 79.1805C912.944 79.1805 905.872 81.1644 900.006 85.132C894.141 88.9272 889.656 94.1024 886.551 100.658C883.446 107.213 881.893 114.631 881.893 122.911C881.893 131.019 883.446 138.437 886.551 145.164C889.656 151.72 894.055 156.981 899.748 160.949C905.613 164.744 912.686 166.642 920.966 166.642Z" fill="white"/>
<path d="M616.219 188.895V109.973C616.219 99.7951 618.634 90.4797 623.464 82.0269C628.294 73.4015 635.281 66.5875 644.424 61.5848C653.567 56.4096 664.521 53.822 677.286 53.822C683.496 53.822 689.448 54.5983 695.141 56.1509C700.833 57.7034 706.095 60.2048 710.925 63.6549C715.928 66.9325 720.154 71.0727 723.604 76.0754H723.863C727.313 71.0727 731.453 66.9325 736.284 63.6549C741.286 60.2048 746.634 57.7034 752.327 56.1509C758.192 54.5983 764.23 53.822 770.44 53.822C783.378 53.822 794.332 56.4096 803.302 61.5848C812.445 66.5875 819.432 73.4015 824.262 82.0269C829.092 90.4797 831.507 99.7951 831.507 109.973V188.895H802.009V109.973C802.009 104.28 800.542 99.1051 797.61 94.4474C794.85 89.7897 791.141 86.0808 786.483 83.3207C781.825 80.5606 776.478 79.1805 770.44 79.1805C764.575 79.1805 759.227 80.5606 754.397 83.3207C749.567 86.0808 745.685 89.7897 742.753 94.4474C739.992 99.1051 738.612 104.28 738.612 109.973V188.895H709.114V109.973C709.114 104.28 707.647 99.1051 704.715 94.4474C701.782 89.7897 697.901 86.0808 693.071 83.3207C688.413 80.5606 683.151 79.1805 677.286 79.1805C671.421 79.1805 666.073 80.5606 661.243 83.3207C656.585 86.0808 652.79 89.7897 649.858 94.4474C647.098 99.1051 645.717 104.28 645.717 109.973V188.895H616.219Z" fill="white"/>
<path d="M533.994 188.895V94.447C533.994 82.7165 537.272 73.5737 543.827 67.0184C550.555 60.2906 559.784 56.9268 571.514 56.9268H603.342V82.2853H576.948C572.808 82.2853 569.531 83.4928 567.115 85.9079C564.873 88.323 563.752 91.6006 563.752 95.7408V188.895H533.994Z" fill="white"/>
<path d="M444.451 191.999C430.823 191.999 418.748 188.98 408.225 182.943C397.702 176.732 389.335 168.452 383.125 158.102C377.087 147.579 374.068 135.848 374.068 122.91C374.068 109.972 377.087 98.3281 383.125 87.9777C389.335 77.4547 397.702 69.1744 408.225 63.1367C418.748 56.9264 430.823 53.8213 444.451 53.8213C457.907 53.8213 469.896 56.9264 480.419 63.1367C490.942 69.1744 499.222 77.3685 505.26 87.7189C511.47 98.0693 514.575 109.8 514.575 122.91C514.575 135.848 511.47 147.579 505.26 158.102C499.222 168.452 490.942 176.732 480.419 182.943C469.896 188.98 457.907 191.999 444.451 191.999ZM444.451 166.641C452.559 166.641 459.632 164.743 465.67 160.948C471.707 156.98 476.365 151.719 479.643 145.164C482.92 138.608 484.559 131.191 484.559 122.91C484.559 114.802 482.92 107.471 479.643 100.916C476.365 94.1879 471.707 88.9264 465.67 85.1313C459.632 81.1636 452.559 79.1798 444.451 79.1798C436.171 79.1798 429.012 81.1636 422.974 85.1313C417.109 88.9264 412.451 94.1016 409.001 100.657C405.723 107.212 404.085 114.63 404.085 122.91C404.085 131.018 405.723 138.436 409.001 145.164C412.451 151.719 417.109 156.98 422.974 160.948C429.012 164.743 436.171 166.641 444.451 166.641Z" fill="white"/>
<path d="M304.121 188.895V82.2858H281.092V56.9273H304.121V37.5202C304.121 25.7898 307.399 16.6469 313.954 10.0916C320.682 3.36388 329.911 0 341.642 0H376.833V25.3585H347.076C343.108 25.3585 339.917 26.5661 337.502 28.9812C335.086 31.3962 333.879 34.6739 333.879 38.814V56.9273H371.399V82.2858H333.879V188.895H304.121Z" fill="white"/>
</svg>
