<svg width="1553" height="1535" viewBox="0 0 1553 1535" fill="none" xmlns="http://www.w3.org/2000/svg">
<path d="M714.489 181.278C749.891 114.201 848.68 123.252 871.303 195.647L967.933 504.865C1003.78 619.583 998.985 743.155 954.347 854.748L889.566 1016.7C764.352 1329.74 461.171 1535 124.022 1535V1535C67.7235 1535 31.6236 1475.13 57.9016 1425.34L714.489 181.278Z" fill="url(#paint0_linear_1276_41993)"/>
<path d="M994.792 848.531C1018.17 792.157 1095.64 786.137 1127.44 838.224L1479.99 1415.62C1511.66 1467.5 1474.32 1534.04 1413.54 1534.04H1318.19C1208.46 1534.04 1106.33 1477.97 1047.42 1385.4L970.452 1264.45C914.241 1176.12 904.649 1065.93 944.752 969.212L994.792 848.531Z" fill="url(#paint1_linear_1276_41993)"/>
<path d="M829.071 1205.24C846.212 1177.12 890.88 1177.98 904.663 1207.89C942.509 1290.04 977.281 1349.39 1017.94 1410.25C1053.11 1462.88 1016.83 1534.04 953.54 1534.04H525.314C499.937 1534.04 492.158 1493.16 514.906 1481.92C636.187 1421.95 751.363 1332.76 829.071 1205.24Z" fill="url(#paint2_linear_1276_41993)"/>
<defs>
<linearGradient id="paint0_linear_1276_41993" x1="843.207" y1="436.84" x2="52.0313" y2="1940.82" gradientUnits="userSpaceOnUse">
<stop offset="0.168487" stop-color="#3958E3"/>
<stop offset="1" stop-color="#617EFD"/>
</linearGradient>
<linearGradient id="paint1_linear_1276_41993" x1="1080.04" y1="785.449" x2="1227.9" y2="1531.95" gradientUnits="userSpaceOnUse">
<stop stop-color="#1A3AC7"/>
<stop offset="1" stop-color="#4363F2"/>
</linearGradient>
<linearGradient id="paint2_linear_1276_41993" x1="951.673" y1="921.995" x2="1225.95" y2="1530.17" gradientUnits="userSpaceOnUse">
<stop stop-color="#1A3AC7"/>
<stop offset="1" stop-color="#4363F2"/>
</linearGradient>
</defs>
</svg>