<svg width="90" height="90" viewBox="0 0 90 90" fill="none" xmlns="http://www.w3.org/2000/svg">
<g clip-path="url(#clip0_17681_11859)">
<mask id="mask0_17681_11859" style="mask-type:luminance" maskUnits="userSpaceOnUse" x="0" y="0" width="90" height="90">
<path d="M90 0H0V90H90V0Z" fill="white"/>
</mask>
<g mask="url(#mask0_17681_11859)">
<mask id="mask1_17681_11859" style="mask-type:alpha" maskUnits="userSpaceOnUse" x="-1" y="-1" width="91" height="91">
<path d="M89.9165 44.9904C89.9165 69.8431 69.7692 89.9904 44.9165 89.9904C20.0637 89.9904 -0.0834961 69.8431 -0.0834961 44.9904C-0.0834961 20.1374 20.0637 -0.00976562 44.9165 -0.00976562C69.7692 -0.00976562 89.9165 20.1374 89.9165 44.9904Z" fill="#180101"/>
</mask>
<g mask="url(#mask1_17681_11859)">
<path d="M90 0H0V90H90V0Z" fill="white" fill-opacity="0.1"/>
<path fill-rule="evenodd" clip-rule="evenodd" d="M51.579 42.0493L54.7249 15.4782L61.202 14.6592C62.2571 14.5258 63.182 14.5459 63.9765 14.7196C64.7713 14.8933 65.4234 15.2222 65.9336 15.7061C66.4678 16.1869 66.8352 16.8259 67.0361 17.6232C67.2333 18.3959 67.2639 19.3268 67.1273 20.416L65.5269 33.7798C65.4148 34.8659 65.1526 35.8462 64.7394 36.721C64.3483 37.5682 63.8308 38.3067 63.1878 38.9364C62.5443 39.5662 61.7858 40.0733 60.912 40.458C60.0386 40.8427 59.0866 41.1002 58.0561 41.2303L51.579 42.0493ZM60.6612 19.2519L59.373 19.4147L57.2674 36.7685L58.5556 36.6056C58.8252 36.5715 59.0662 36.5037 59.2777 36.4022C59.4892 36.3007 59.6593 36.167 59.7878 36.0012C59.9408 35.8322 60.0631 35.6173 60.1548 35.3565C60.2709 35.0925 60.3474 34.8087 60.3838 34.5049L61.9977 20.9524C62.0341 20.6486 62.037 20.3741 62.0059 20.1288C61.9748 19.8834 61.9008 19.6933 61.7842 19.5585C61.6921 19.4206 61.5432 19.3273 61.3374 19.2785C61.1566 19.2266 60.9308 19.2177 60.6612 19.2519Z" fill="white"/>
<path fill-rule="evenodd" clip-rule="evenodd" d="M43.0655 16.9518L37.049 43.8862L42.2011 43.2345L43.554 36.5576L45.8032 36.2731L45.5872 42.8066L50.7393 42.1549L51.1254 15.9326L43.0655 16.9518ZM45.9533 31.7299L44.4945 31.9143L45.7925 25.506L46.1603 25.4594L45.9533 31.7299Z" fill="white"/>
<path d="M22.6311 19.5346L19.485 46.1061L24.2324 45.5055L25.6756 28.2356L26.0436 28.189L26.1462 45.2637L29.532 44.8354L33.7353 27.2165L34.1033 27.1699L31.4825 44.5887L36.1932 43.9931L39.3393 17.4219L32.6781 18.2642L29.1144 35.9145L28.7464 35.9611L29.3659 18.683L22.6311 19.5346Z" fill="white"/>
<path d="M79.4406 48.6648L79.0905 51.5133L73.938 52.165L74.3201 48.9757C74.4141 48.3408 74.3552 47.8744 74.1429 47.5774C73.9277 47.2555 73.5996 47.1225 73.1578 47.1786C72.6673 47.2403 72.2717 47.4649 71.9719 47.8519C71.6716 48.2389 71.4855 48.736 71.4126 49.3435L71.1897 51.1291C71.141 51.5337 71.1357 51.8835 71.1729 52.1781C71.2069 52.4481 71.3251 52.6947 71.528 52.9185C71.7309 53.1419 72.021 53.3669 72.3985 53.5935C72.7978 53.7923 73.3378 54.0231 74.0194 54.2857L75.193 54.6985C75.8468 54.9398 76.37 55.2348 76.7631 55.5841C77.1808 55.9302 77.4991 56.3761 77.7175 56.9215C77.9331 57.4426 78.0505 58.0759 78.0702 58.8213C78.114 59.5638 78.0784 60.4654 77.9634 61.527L77.8906 62.1345C77.6239 64.362 76.829 66.1575 75.506 67.5214C74.1797 68.8604 72.4493 69.6651 70.3146 69.9351C68.18 70.2051 66.623 69.816 65.6428 68.7683C64.6626 67.7206 64.3047 66.0708 64.5681 63.8191L64.9187 60.9706L70.0708 60.319L69.6568 63.5495C69.5873 64.1816 69.6585 64.6463 69.8704 64.9433C70.0823 65.2407 70.4214 65.3598 70.8878 65.3009C71.3783 65.2387 71.7755 65.0268 72.0786 64.6643C72.4063 64.2986 72.6064 63.8122 72.6792 63.2047L72.9201 61.2672C72.9475 60.8901 72.9439 60.5665 72.9099 60.2965C72.8727 60.0023 72.7663 59.7536 72.5912 59.5515C72.4129 59.3249 72.1367 59.1105 71.762 58.9088C71.3877 58.7067 70.8857 58.4834 70.2566 58.2391L68.9217 57.7347C68.268 57.4934 67.7321 57.1996 67.3144 56.8536C66.9184 56.4801 66.6107 56.0202 66.3923 55.4745C66.1706 54.9042 66.0376 54.2481 65.9938 53.506C65.9713 52.7361 66.0192 51.8328 66.137 50.7957L66.2327 50.0733C66.4872 47.9472 67.244 46.2438 68.5032 44.9625C69.7832 43.6542 71.4785 42.8663 73.5886 42.5996C75.6983 42.3329 77.2696 42.7326 78.3017 43.7986C79.3306 44.8398 79.7102 46.4618 79.4406 48.6648Z" fill="white"/>
<path fill-rule="evenodd" clip-rule="evenodd" d="M52.5625 45.6325L49.4161 72.2042L55.8933 71.3852C56.9238 71.2547 57.8757 70.9973 58.7495 70.6124C59.6234 70.2278 60.3818 69.7206 61.0249 69.091C61.6684 68.461 62.1855 67.7226 62.577 66.8758C62.9898 66.0007 63.2524 65.0205 63.3641 63.9344L64.9649 50.5702C65.1011 49.4812 65.0708 48.5501 64.8732 47.7778C64.6728 46.9804 64.3054 46.3414 63.7707 45.8603C63.261 45.3768 62.6089 45.0479 61.814 44.874C61.0192 44.7002 60.0946 44.6801 59.0396 44.8135L52.5625 45.6325ZM57.2105 49.5692L58.4984 49.4063C58.7684 49.372 58.9938 49.381 59.175 49.4329C59.3804 49.4816 59.5293 49.5749 59.6217 49.7132C59.7383 49.8478 59.8124 50.038 59.8435 50.283C59.8741 50.5285 59.8717 50.803 59.8353 51.1069L58.221 64.6593C58.1846 64.9633 58.1085 65.2472 57.9923 65.511C57.9007 65.7716 57.7784 65.9868 57.625 66.1558C57.4965 66.3214 57.3263 66.4552 57.1148 66.5567C56.9033 66.6581 56.6628 66.726 56.3928 66.76L55.105 66.9232L57.2105 49.5692Z" fill="white"/>
<path fill-rule="evenodd" clip-rule="evenodd" d="M34.8857 74.0415L40.9024 47.1069L48.962 46.0879L48.5763 72.3102L43.4238 72.9619L43.6398 66.4283L41.3906 66.713L40.0381 73.3898L34.8857 74.0415ZM42.3311 62.0698L43.7899 61.8853L43.9973 55.6148L43.6291 55.661L42.3311 62.0698Z" fill="white"/>
<path d="M25.0844 75.2811L28.2304 48.7099L33.3828 48.0586L30.773 70.0002L35.0053 69.4651L34.4689 74.0948L25.0844 75.2811Z" fill="white"/>
<path d="M13.6446 8.22729L20.4543 7.15723L15.3055 50.4456L24.4581 49.276L20.2988 85.0776L17.811 85.3918L19.8093 53.9756L10.6361 55.1477L13.6446 8.22729Z" fill="white"/>
</g>
</g>
</g>
<defs>
<clipPath id="clip0_17681_11859">
<rect width="90" height="90" fill="white"/>
</clipPath>
</defs>
</svg>
