<svg width="104" height="35" viewBox="0 0 104 35" fill="none" xmlns="http://www.w3.org/2000/svg">
    <g clip-path="url(#clip0_17852_6205)">
    <path fill-rule="evenodd" clip-rule="evenodd" d="M0.777748 31.1246C0.717313 31.064 0.717313 30.9661 0.777748 30.9057L5.2927 26.3907C5.37705 26.3062 5.38873 26.1738 5.32198 26.075C3.65411 23.6053 2.68024 20.6285 2.68024 17.4241C2.68024 8.87679 9.60919 1.94783 18.1565 1.94783C21.3609 1.94783 24.3378 2.92166 26.8074 4.58958C26.9063 4.65636 27.0389 4.64467 27.1232 4.56033L31.6382 0.0453406C31.6985 -0.0151135 31.7964 -0.0151135 31.8568 0.0453406L35.6871 3.87556C35.7475 3.93602 35.7475 4.03395 35.6871 4.09441L31.1415 8.6399C31.0582 8.72331 31.0459 8.85401 31.1105 8.95268C32.7052 11.3865 33.6327 14.297 33.6327 17.4241C33.6327 25.9715 26.7039 32.9002 18.1565 32.9002C15.0294 32.9002 12.1189 31.9727 9.6851 30.378C9.58641 30.3134 9.45573 30.3258 9.3723 30.4093L4.82681 34.9546C4.76637 35.0153 4.66837 35.0153 4.60793 34.9546L0.777748 31.1246ZM18.1565 27.174C16.5463 27.174 15.0273 26.7836 13.6889 26.0925C11.9564 25.1978 10.5265 23.7991 9.59331 22.0901C8.83657 20.7042 8.40644 19.1144 8.40644 17.4241C8.40644 12.0393 12.7717 7.67405 18.1565 7.67405C19.8468 7.67405 21.4366 8.10418 22.8225 8.86092C24.5315 9.79401 25.9302 11.2241 26.8249 12.9565C27.5163 14.295 27.9065 15.8139 27.9065 17.4241C27.9065 22.8089 23.5413 27.174 18.1565 27.174Z" fill="white"/>
    <path d="M89.2107 27.4952V7.50488H103.186V11.8456H94.6081V15.1964H102.785V19.5086H94.6081V23.1544H103.185V27.4952H89.2107Z" fill="white"/>
    <path d="M70.2859 27.4952V7.50488H79.3674C83.2226 7.50488 86.4495 10.3035 86.4495 14.5015C86.4495 17.4001 84.9504 19.6418 82.7084 20.7699L87.1921 27.4952H81.0807L77.7394 22.0121H75.6833V27.4952H70.2859ZM78.3393 12.4453H75.6833V17.1288H78.3393C80.1956 17.1288 81.1379 16.1578 81.1379 14.7585C81.1379 13.3592 80.1956 12.4453 78.3393 12.4453Z" fill="white"/>
    <path d="M57.9156 27.8517C51.5276 27.8517 47.5635 22.86 47.5635 17.4996C47.5635 12.1392 51.5276 7.14746 57.9156 7.14746C64.3036 7.14746 68.2677 12.1392 68.2677 17.4996C68.2677 22.86 64.3036 27.8517 57.9156 27.8517ZM57.9156 22.6331C60.967 22.6331 62.8494 20.194 62.8494 17.4996C62.8494 14.8052 60.967 12.3661 57.9156 12.3661C54.8642 12.3661 52.9818 14.8052 52.9818 17.4996C52.9818 20.194 54.8642 22.6331 57.9156 22.6331Z" fill="white"/>
    </g>
    <defs>
    <clipPath id="clip0_17852_6205">
    <rect width="102.535" height="35" fill="white" transform="translate(0.732422)"/>
    </clipPath>
    </defs>
    </svg>
    