<svg width="42" height="42" viewBox="0 0 42 42" fill="none" xmlns="http://www.w3.org/2000/svg">
<circle cx="21" cy="21" r="21" fill="white" fill-opacity="0.1"/>
<path d="M23.2194 18.9327C23.2194 20.1392 22.2438 21.1173 21.0407 21.1173V23.302C23.447 23.302 25.398 21.3456 25.398 18.9327C25.398 16.5199 23.447 14.5635 21.0407 14.5635C20.2475 14.5635 19.5025 14.7759 18.862 15.1484C17.5593 15.9033 16.6833 17.3153 16.6833 18.9327V29.8559L18.6423 31.8201L18.862 32.0405V18.9327C18.862 17.7263 19.8375 16.7481 21.0407 16.7481C22.2438 16.7481 23.2194 17.7263 23.2194 18.9327Z" fill="#E6DAFE"/>
<path d="M21.0413 10.1943C19.4539 10.1943 17.966 10.6202 16.684 11.3642C15.8632 11.8395 15.1281 12.4452 14.5053 13.1536C13.1495 14.694 12.3267 16.7176 12.3267 18.9328V25.4867L14.5053 27.6713V18.9328C14.5053 16.9923 15.3468 15.2483 16.684 14.0478C17.3127 13.4846 18.0507 13.04 18.8627 12.7534C19.5436 12.5104 20.2777 12.379 21.0413 12.379C24.6508 12.379 27.5774 15.3135 27.5774 18.9328C27.5774 22.5521 24.6508 25.4867 21.0413 25.4867V27.6713C25.8549 27.6713 29.756 23.7586 29.756 18.9328C29.756 14.1071 25.8549 10.1943 21.0413 10.1943Z" fill="#E6DAFE"/>
</svg>
