<svg width="50" height="50" viewBox="0 0 50 50" fill="none" xmlns="http://www.w3.org/2000/svg">
    <rect width="50" height="50" rx="4" fill="white" fill-opacity="0.08"/>
    <path opacity="0.5" d="M39.9524 28.4907C39.9651 28.5324 39.9731 28.5743 39.9766 28.6164C39.9818 28.6547 39.9996 28.6897 40.0302 28.7216C39.9694 28.8065 39.9232 28.8936 39.8919 28.9829C39.8622 29.0684 39.8273 29.1606 39.7871 29.2594C39.6065 29.5196 39.3877 29.695 39.1308 29.7858C38.8756 29.8728 38.616 29.8949 38.352 29.852C38.3351 29.8894 38.3121 29.9104 38.2829 29.9152C38.2031 29.8927 38.1387 29.886 38.0895 29.8953C38.0404 29.9045 37.9922 29.9165 37.9451 29.9312C37.9017 29.9476 37.8509 29.9606 37.7925 29.9702C37.7396 29.9777 37.665 29.9687 37.5686 29.9432C37.5314 29.9758 37.4934 29.9901 37.4547 29.9861C37.4198 29.9838 37.3838 29.9788 37.3468 29.9711C37.3153 29.9613 37.2812 29.9571 37.2445 29.9586C37.2096 29.9563 37.1737 29.976 37.1368 30.0178L36.6832 30.1704C36.6037 30.1074 36.5295 30.0626 36.4606 30.036C36.3934 30.0056 36.3391 29.9765 36.2976 29.9488C36.2562 29.9211 36.2308 29.8826 36.2216 29.8335C36.2161 29.786 36.2332 29.7083 36.273 29.6003C36.2936 29.5647 36.3177 29.5463 36.3451 29.5452C36.378 29.5421 36.405 29.5273 36.4259 29.5008C36.4631 29.4186 36.5013 29.3639 36.5406 29.3367C36.5853 29.3075 36.6323 29.2882 36.6814 29.2789C36.7306 29.2697 36.7825 29.2594 36.837 29.2481C36.8933 29.2331 36.9516 29.1987 37.0119 29.145C37.0834 29.1458 37.1674 29.1343 37.2637 29.1104C37.3654 29.0844 37.4588 29.0569 37.5438 29.0279C37.6592 29.0215 37.757 29.014 37.8374 29.0054C37.9215 28.9984 38 28.9889 38.0729 28.9769C38.1458 28.9649 38.2204 28.9491 38.2967 28.9297C38.3729 28.9102 38.4655 28.8845 38.5743 28.8528C38.5776 28.7958 38.5539 28.7536 38.5033 28.7262C38.4582 28.6968 38.4021 28.6715 38.3353 28.6502C38.2422 28.5677 38.145 28.499 38.0438 28.4443C37.948 28.3875 37.8328 28.3241 37.6979 28.2542C37.644 28.2343 37.6022 28.2221 37.5727 28.2178C37.5486 28.2114 37.514 28.1935 37.4688 28.1641C37.438 28.1726 37.4051 28.1757 37.3701 28.1734C37.3389 28.1728 37.304 28.1705 37.2653 28.1665C37.232 28.1605 37.1961 28.1555 37.1574 28.1515C37.1241 28.1454 37.0911 28.144 37.0582 28.1471C36.9919 28.0947 36.9482 28.0322 36.927 27.9596C36.9058 27.8871 36.8703 27.8215 36.8203 27.7629C36.8246 27.7334 36.8378 27.7191 36.8599 27.7201C36.8819 27.7211 36.8977 27.7012 36.9071 27.6605C36.8782 27.6249 36.8662 27.6016 36.8713 27.5903C36.8801 27.5808 36.8757 27.5608 36.858 27.5303C36.8999 27.4773 36.9432 27.4362 36.988 27.4069C37.0381 27.3756 37.0884 27.3489 37.1389 27.3267C37.1911 27.3009 37.2424 27.2768 37.2929 27.2547C37.3434 27.2325 37.3927 27.2031 37.4408 27.1664C37.5073 27.1784 37.5679 27.1788 37.6225 27.1675C37.6825 27.1542 37.7415 27.1381 37.7994 27.1193C38.0112 27.1881 38.2098 27.2711 38.3952 27.3684C38.5823 27.462 38.7625 27.566 38.9357 27.6803C39.1127 27.7962 39.2827 27.9226 39.4458 28.0593C39.6126 28.1977 39.7815 28.3415 39.9524 28.4907ZM36.345 30.7394C36.3122 30.792 36.2862 30.8297 36.2669 30.8525C36.2514 30.877 36.2385 30.9004 36.2284 30.9228C36.2183 30.9452 36.2075 30.9741 36.196 31.0094C36.1883 31.0464 36.1758 31.1037 36.1587 31.1814L36.135 31.2786L36.049 31.26C36.0286 31.2553 35.9893 31.2577 35.9309 31.2674C35.8763 31.2787 35.828 31.2861 35.786 31.2895C35.7202 31.2958 35.6554 31.3047 35.5917 31.3164C35.53 31.3335 35.4748 31.331 35.4263 31.3091C35.3838 31.2539 35.3547 31.2138 35.339 31.1887C35.3234 31.1636 35.3077 31.1385 35.2921 31.1135C35.2886 31.0714 35.287 31.0302 35.2872 30.9899C35.2875 30.9495 35.2859 30.9083 35.2824 30.8662C35.283 30.835 35.2831 30.8148 35.2828 30.8057C35.2824 30.7965 35.2812 30.7892 35.2792 30.7838C35.2809 30.7801 35.278 30.7765 35.2705 30.7731C35.2685 30.7677 35.2623 30.7514 35.2521 30.7243L35.2489 30.6419C35.2586 30.6103 35.2732 30.5832 35.2925 30.5604C35.3172 30.5356 35.3392 30.5118 35.3585 30.489C35.3673 30.4795 35.3769 30.4681 35.3874 30.4549C35.4033 30.4396 35.4129 30.4282 35.4163 30.4207L35.408 30.3495L35.4807 30.3082C35.5217 30.2772 35.5512 30.2568 35.5691 30.2469C35.5871 30.2371 35.6096 30.227 35.6367 30.2168L35.7049 30.2004C35.8074 30.2422 35.8938 30.27 35.964 30.2838C36.0224 30.3237 36.0576 30.3553 36.0695 30.3787C36.0831 30.3984 36.0959 30.4199 36.1078 30.4432C36.1354 30.4917 36.1585 30.5201 36.1772 30.5286L36.2892 30.5792L36.2401 30.6582L36.345 30.7394Z" fill="white"/>
    <path opacity="0.5" d="M12.3236 21.1269C12.3601 21.152 12.3931 21.1801 12.4226 21.2113C12.451 21.2384 12.4875 21.2549 12.532 21.2607C12.5375 21.3668 12.5562 21.4652 12.588 21.556C12.6187 21.6427 12.6495 21.7381 12.6804 21.842C12.7022 22.1632 12.6399 22.4414 12.4936 22.6765C12.3462 22.9076 12.1542 23.0899 11.9174 23.2235C11.9277 23.2639 11.9228 23.2952 11.9027 23.3175C11.8251 23.3503 11.7697 23.3859 11.7365 23.4245C11.7034 23.463 11.6727 23.5031 11.6447 23.5447C11.6206 23.5852 11.5885 23.6278 11.5483 23.6725C11.5111 23.712 11.4462 23.7523 11.3534 23.7932C11.3446 23.8427 11.3235 23.8782 11.2903 23.8996C11.2611 23.9199 11.2293 23.9388 11.1951 23.9561C11.1638 23.9684 11.1341 23.9867 11.1059 24.0111C11.0767 24.0315 11.0608 24.07 11.058 24.1266L10.7948 24.5356C10.6918 24.5361 10.6044 24.5477 10.5328 24.5702C10.4602 24.5888 10.3986 24.6002 10.3481 24.6045C10.2976 24.6088 10.253 24.5944 10.2145 24.5612C10.18 24.5271 10.1442 24.4545 10.1073 24.3435C10.101 24.3021 10.1085 24.2723 10.1296 24.254C10.1537 24.2306 10.1657 24.2018 10.1655 24.1674C10.1429 24.0786 10.1385 24.0109 10.1524 23.9644C10.1693 23.9128 10.1943 23.8677 10.2275 23.8291C10.2606 23.7906 10.2953 23.7495 10.3314 23.7058C10.3666 23.6582 10.391 23.5939 10.4047 23.513C10.4621 23.4682 10.5214 23.4058 10.5826 23.3257C10.6469 23.2405 10.7036 23.1594 10.7527 23.0823C10.8402 23.0041 10.9131 22.936 10.9714 22.8781C11.0338 22.8192 11.0901 22.7619 11.1403 22.706C11.1905 22.6502 11.2398 22.5903 11.2879 22.5264C11.3361 22.4625 11.3933 22.3835 11.4595 22.2892C11.4259 22.2418 11.3804 22.2234 11.3228 22.2338C11.2683 22.2391 11.2078 22.2545 11.1412 22.2801C11.0149 22.2737 10.8942 22.2809 10.7791 22.3017C10.667 22.3174 10.5353 22.3403 10.3838 22.3703C10.3284 22.3888 10.2875 22.4057 10.2613 22.421C10.2381 22.4312 10.1993 22.439 10.1448 22.4443C10.1257 22.4706 10.1016 22.494 10.0724 22.5144C10.0472 22.5337 10.018 22.554 9.98475 22.5754C9.95452 22.5917 9.92279 22.6106 9.88955 22.632C9.85932 22.6483 9.83214 22.6681 9.80801 22.6915C9.72213 22.6919 9.64775 22.6701 9.58489 22.6259C9.52202 22.5818 9.45215 22.5523 9.37529 22.5376C9.36 22.5114 9.36142 22.4917 9.37954 22.4784C9.39766 22.4652 9.39753 22.4394 9.37915 22.4011C9.33363 22.3913 9.30933 22.3803 9.30624 22.3682C9.30718 22.355 9.29095 22.342 9.25754 22.329C9.2572 22.2603 9.26548 22.2001 9.2824 22.1485C9.30232 22.0918 9.3253 22.0387 9.35132 21.989C9.37631 21.9354 9.40181 21.8837 9.42784 21.8341C9.45386 21.7844 9.4743 21.7298 9.48915 21.6701C9.54961 21.6374 9.59792 21.5993 9.63408 21.5557C9.67324 21.507 9.70987 21.4568 9.74396 21.4051C9.95574 21.3252 10.1661 21.265 10.3751 21.2246C10.583 21.1801 10.792 21.1482 11.002 21.129C11.2161 21.1087 11.4313 21.1011 11.6476 21.106C11.8679 21.11 12.0932 21.1169 12.3236 21.1269ZM10.8876 25.202C10.895 25.2646 10.8983 25.3111 10.8974 25.3414C10.9006 25.3707 10.9053 25.3974 10.9114 25.4216C10.9176 25.4458 10.9274 25.4756 10.9407 25.5109C10.958 25.5452 10.9846 25.5986 11.0203 25.6712L11.0632 25.7634L10.9831 25.8032C10.9639 25.8124 10.9342 25.8393 10.8941 25.884C10.8579 25.9276 10.8242 25.9642 10.7931 25.9936C10.7448 26.0403 10.6991 26.0886 10.6559 26.1383C10.6177 26.191 10.5724 26.2241 10.52 26.2375C10.4512 26.2206 10.4026 26.2072 10.3743 26.1973C10.3459 26.1873 10.3176 26.1774 10.2892 26.1674C10.2598 26.1362 10.2323 26.1045 10.2069 26.0723C10.1815 26.0401 10.1541 26.0084 10.1246 25.9773C10.1053 25.9521 10.0926 25.936 10.0865 25.929C10.0804 25.9219 10.0748 25.9169 10.0697 25.9139C10.0687 25.9098 10.0641 25.9089 10.0561 25.9109C10.051 25.9079 10.0358 25.8989 10.0105 25.8839L9.95558 25.8205C9.94329 25.7892 9.93758 25.7584 9.93844 25.7281C9.9423 25.6927 9.94467 25.6599 9.94552 25.6296C9.94647 25.6164 9.9469 25.6013 9.94681 25.5841C9.94973 25.5619 9.95016 25.5467 9.9481 25.5386L9.89631 25.4874L9.92774 25.4084C9.94062 25.3578 9.95106 25.3229 9.95904 25.3036C9.96703 25.2844 9.97854 25.2621 9.99357 25.2368L10.0372 25.1805C10.1452 25.1486 10.2314 25.1159 10.2959 25.0822C10.3676 25.0768 10.4156 25.0796 10.4399 25.0906C10.4632 25.0975 10.487 25.1065 10.5113 25.1175C10.564 25.1384 10.6004 25.1463 10.6205 25.1412L10.7416 25.1103L10.7527 25.2042L10.8876 25.202Z" fill="white"/>
    <path opacity="0.5" d="M14.3447 9.07088C14.3759 9.08439 14.4049 9.10071 14.4317 9.11985C14.4572 9.13611 14.4871 9.14315 14.5215 9.14098C14.5413 9.22007 14.57 9.29148 14.6073 9.35519C14.6433 9.41601 14.6806 9.4833 14.7191 9.55705C14.783 9.79587 14.7772 10.0147 14.7017 10.2135C14.6247 10.4094 14.5069 10.5752 14.3482 10.7108C14.362 10.7397 14.3629 10.764 14.3511 10.7838C14.2974 10.8199 14.2609 10.855 14.2416 10.8889C14.2223 10.9229 14.2052 10.9576 14.1902 10.9931C14.178 11.0272 14.1601 11.064 14.1364 11.1036C14.1143 11.1389 14.0712 11.1788 14.0074 11.2233C14.008 11.262 13.9974 11.2918 13.9755 11.3128C13.9565 11.3325 13.9354 11.3514 13.9122 11.3695C13.8904 11.3834 13.8707 11.4016 13.8531 11.4241C13.8341 11.4438 13.8278 11.4751 13.834 11.5182L13.6961 11.8653C13.6186 11.8809 13.5544 11.9025 13.5038 11.9301C13.4518 11.9548 13.4071 11.9725 13.3697 11.9832C13.3322 11.9939 13.2966 11.9896 13.2626 11.9703C13.2315 11.9497 13.1939 11.9003 13.1497 11.8221C13.1388 11.7918 13.14 11.7682 13.1532 11.7513C13.168 11.7302 13.1727 11.7067 13.1675 11.6808C13.1373 11.6172 13.124 11.5669 13.1277 11.5297C13.1328 11.4884 13.145 11.4507 13.1643 11.4167C13.1836 11.3828 13.2036 11.3467 13.2244 11.3085C13.2438 11.2674 13.2527 11.2153 13.2511 11.1523C13.2878 11.1101 13.3232 11.0543 13.3575 10.9849C13.3934 10.9112 13.4241 10.8417 13.4497 10.7764C13.5041 10.7045 13.549 10.6425 13.5844 10.5902C13.6227 10.5366 13.6566 10.4851 13.6863 10.4356C13.7159 10.3861 13.7441 10.3337 13.771 10.2785C13.7978 10.2232 13.8293 10.1552 13.8652 10.0743C13.8329 10.0436 13.7959 10.0364 13.754 10.0528C13.7137 10.0648 13.6704 10.0854 13.624 10.1145C13.5279 10.1284 13.438 10.1516 13.3543 10.1842C13.2722 10.2126 13.1763 10.2493 13.0666 10.2944C13.0276 10.3165 12.9993 10.3352 12.9818 10.3506C12.9658 10.3617 12.9377 10.3733 12.8974 10.3854C12.8869 10.4081 12.8722 10.4293 12.8532 10.4489C12.8371 10.4672 12.8181 10.4868 12.7962 10.5079C12.7758 10.5246 12.7547 10.5435 12.7328 10.5645C12.7124 10.5813 12.6949 10.6003 12.6802 10.6214C12.6155 10.6344 12.5562 10.6289 12.5023 10.605C12.4485 10.581 12.3915 10.5691 12.3314 10.5693C12.316 10.5519 12.3141 10.5368 12.3258 10.5242C12.3375 10.5115 12.3336 10.4921 12.3141 10.466C12.2784 10.4652 12.2584 10.4606 12.2543 10.4519C12.2531 10.4418 12.2389 10.4344 12.2118 10.4296C12.2014 10.3778 12.1988 10.3313 12.2039 10.2899C12.2105 10.2442 12.22 10.2008 12.2323 10.1595C12.2432 10.1154 12.2548 10.0727 12.267 10.0315C12.2793 9.9902 12.2867 9.94599 12.289 9.89882C12.3298 9.8653 12.3605 9.82943 12.3813 9.79121C12.4037 9.74873 12.4238 9.7055 12.4419 9.6615C12.5897 9.57003 12.7393 9.49363 12.8908 9.43228C13.0409 9.36805 13.1937 9.31317 13.3491 9.26764C13.5075 9.22075 13.6685 9.1832 13.8322 9.15502C13.9988 9.12546 14.1696 9.09741 14.3447 9.07088ZM13.8645 12.3537C13.8793 12.3998 13.8886 12.4344 13.8924 12.4573C13.8991 12.4789 13.9066 12.4984 13.9149 12.5157C13.9231 12.5331 13.9348 12.5541 13.9501 12.5787C13.9682 12.6019 13.9961 12.6383 14.0337 12.6877L14.0797 12.7509L14.0252 12.7927C14.0121 12.8024 13.9937 12.8271 13.97 12.8667C13.9492 12.9049 13.9293 12.9374 13.9101 12.9642C13.8807 13.0066 13.8533 13.0497 13.8281 13.0935C13.8072 13.1389 13.7779 13.1705 13.7404 13.1883C13.686 13.1858 13.6475 13.1829 13.6246 13.1796C13.6018 13.1762 13.579 13.1729 13.5561 13.1696C13.5293 13.1505 13.504 13.1306 13.4801 13.1101C13.4562 13.0896 13.4308 13.0698 13.404 13.0506C13.3857 13.0345 13.3738 13.0243 13.3681 13.0199C13.3625 13.0155 13.3575 13.0125 13.3533 13.011C13.3519 13.0081 13.3483 13.008 13.3426 13.0108C13.3383 13.0092 13.3255 13.0047 13.3042 12.9971L13.2535 12.9575C13.2396 12.9357 13.2308 12.9134 13.2269 12.8904C13.2246 12.8632 13.2215 12.8381 13.2177 12.8151C13.2165 12.805 13.2146 12.7936 13.212 12.7806C13.2109 12.7634 13.209 12.7519 13.2062 12.7462L13.1596 12.7152L13.1716 12.651C13.1739 12.611 13.1766 12.5832 13.1798 12.5675C13.1829 12.5518 13.1883 12.5333 13.1959 12.512L13.2205 12.4631C13.2971 12.4232 13.3573 12.3858 13.4009 12.3509C13.4541 12.3362 13.4907 12.3312 13.5107 12.3359C13.5292 12.3377 13.5485 12.341 13.5684 12.3456C13.6112 12.3537 13.6398 12.3542 13.6542 12.3474L13.7409 12.3062L13.7631 12.3753L13.8645 12.3537Z" fill="white"/>
    <path opacity="0.5" d="M38.9406 10.6757C38.9664 10.7228 38.9868 10.7712 39.0017 10.8211C39.0176 10.866 39.0481 10.9037 39.0931 10.9343C39.0413 11.0522 39.0078 11.1689 38.9927 11.2845C38.9787 11.3952 38.96 11.5152 38.9367 11.6446C38.7851 12.0042 38.566 12.2714 38.2793 12.4462C37.9936 12.616 37.6862 12.7087 37.357 12.7241C37.3461 12.7734 37.3237 12.8047 37.2898 12.8179C37.1879 12.811 37.1085 12.8193 37.0516 12.843C36.9946 12.8667 36.9396 12.8933 36.8865 12.923C36.8384 12.9538 36.7804 12.9824 36.7125 13.0088C36.6506 13.0314 36.5584 13.0395 36.4356 13.0332C36.399 13.082 36.3569 13.1089 36.3092 13.114C36.2665 13.1201 36.2219 13.1232 36.1753 13.1233C36.1348 13.1195 36.0926 13.1232 36.0488 13.1342C36.0061 13.1403 35.9678 13.1733 35.9339 13.233L35.4259 13.5323C35.314 13.4766 35.2132 13.4415 35.1233 13.4269C35.0345 13.4073 34.9616 13.3861 34.9046 13.3632C34.8476 13.3403 34.8072 13.3004 34.7836 13.2435C34.7648 13.1876 34.7657 13.0896 34.7863 12.9493C34.8021 12.9011 34.8264 12.8728 34.8592 12.8645C34.8981 12.8524 34.9268 12.8277 34.9454 12.7904C34.9693 12.6819 35.0014 12.6062 35.0419 12.5634C35.0884 12.5168 35.1401 12.4816 35.197 12.4579C35.2539 12.4343 35.3139 12.4087 35.3768 12.3812C35.4408 12.3487 35.5024 12.2924 35.5614 12.2124C35.6479 12.1952 35.7462 12.16 35.8562 12.1066C35.9722 12.0494 36.0778 11.9925 36.173 11.9359C36.3104 11.8989 36.4265 11.865 36.5212 11.8341C36.6209 11.8044 36.7131 11.773 36.798 11.7399C36.8828 11.7069 36.9687 11.6689 37.0558 11.626C37.1428 11.5831 37.2479 11.5287 37.371 11.4627C37.3604 11.3932 37.3212 11.3483 37.2532 11.3282C37.1913 11.3042 37.1173 11.2879 37.0313 11.2793C36.898 11.2034 36.7634 11.1453 36.6275 11.1051C36.4975 11.0609 36.3424 11.0139 36.1621 10.9638C36.0919 10.9535 36.0385 10.9495 36.0018 10.9518C35.9711 10.9502 35.9248 10.9374 35.8629 10.9134C35.8279 10.9316 35.789 10.9437 35.7463 10.9498C35.7085 10.957 35.6658 10.9631 35.6181 10.9682C35.5765 10.9693 35.5318 10.9724 35.4842 10.9775C35.4426 10.9786 35.4023 10.9853 35.3634 10.9974C35.2702 10.951 35.2016 10.8868 35.1576 10.8047C35.1136 10.7226 35.0541 10.6526 34.9789 10.5947C34.9766 10.558 34.9889 10.5374 35.0158 10.533C35.0426 10.5286 35.0565 10.5006 35.0575 10.4491C35.0136 10.4136 34.9933 10.3884 34.9966 10.3736C35.0048 10.3599 34.9943 10.3369 34.9652 10.3047C35.0023 10.2301 35.0441 10.1695 35.0906 10.1228C35.1431 10.0723 35.1969 10.0273 35.2522 9.98774C35.3085 9.94325 35.3643 9.90124 35.4196 9.86169C35.4748 9.82214 35.5268 9.7741 35.5754 9.71758C35.6587 9.71523 35.7318 9.7003 35.7947 9.67278C35.8637 9.64142 35.9307 9.60706 35.9959 9.56968C36.2687 9.59873 36.5293 9.64835 36.7776 9.71853C37.027 9.78379 37.2706 9.86329 37.5086 9.95705C37.7514 10.0519 37.9886 10.161 38.22 10.2844C38.4563 10.4088 38.6965 10.5393 38.9406 10.6757ZM35.1628 14.3044C35.1366 14.3762 35.1148 14.4283 35.0974 14.4607C35.0848 14.4941 35.0753 14.5256 35.0688 14.5552C35.0623 14.5848 35.0566 14.6223 35.0517 14.6678C35.0518 14.7144 35.0514 14.7867 35.0505 14.8848L35.0467 15.008L34.9382 15.0074C34.9124 15.0069 34.8656 15.0199 34.7977 15.0463C34.7348 15.0738 34.6784 15.095 34.6286 15.1099C34.5509 15.1342 34.475 15.1614 34.4011 15.1917C34.3311 15.228 34.264 15.2391 34.1999 15.225C34.1346 15.1692 34.0893 15.1282 34.0641 15.102C34.0388 15.0757 34.0136 15.0495 33.9883 15.0232C33.9734 14.9734 33.961 14.9241 33.951 14.8754C33.9411 14.8267 33.9287 14.7774 33.9138 14.7276C33.9066 14.6898 33.9016 14.6654 33.8988 14.6545C33.8961 14.6435 33.8928 14.635 33.8889 14.629C33.89 14.6241 33.8856 14.6205 33.8758 14.6183C33.8719 14.6123 33.8604 14.5943 33.8411 14.5642L33.8163 14.4656C33.8201 14.4251 33.8307 14.3886 33.8481 14.3563C33.8716 14.3201 33.8921 14.2858 33.9096 14.2534C33.9178 14.2397 33.9265 14.2235 33.9358 14.2049C33.9511 14.1824 33.9598 14.1662 33.962 14.1564L33.9339 14.0726L34.011 14.0043C34.0525 13.9565 34.0829 13.9244 34.102 13.9079C34.1211 13.8915 34.1458 13.8736 34.1759 13.8544L34.2538 13.8173C34.3881 13.8416 34.4993 13.8532 34.5875 13.8519C34.6681 13.8852 34.7186 13.9144 34.7389 13.9396C34.7603 13.9598 34.7812 13.9825 34.8015 14.0076C34.847 14.0591 34.8822 14.0875 34.9068 14.0929L35.0548 14.1255L35.0156 14.2332L35.1628 14.3044Z" fill="white"/>
    <g opacity="0.8">
    <path opacity="0.5" d="M23.0458 11.1103C23.9412 9.39475 26.4653 9.6242 27.0367 11.4731L27.6373 13.4167C28.198 15.2312 28.1229 17.1827 27.4244 18.9487L26.5841 21.0729C24.8248 25.5206 20.5271 28.4424 15.744 28.4424C14.9502 28.4424 14.4396 27.6 14.8069 26.8962L23.0458 11.1103Z" fill="white"/>
    <path opacity="0.5" d="M27.7537 19.4451C28.2256 18.2943 29.8071 18.1722 30.45 19.237L34.6845 26.2502C35.2625 27.2074 34.5732 28.4288 33.455 28.4288C31.4199 28.4288 29.5274 27.3837 28.4434 25.6613L28.2671 25.3811C27.1472 23.6015 26.956 21.3905 27.7537 19.4451Z" fill="white"/>
    <path opacity="0.5" d="M25.1875 24.5456C25.696 23.8763 26.8741 23.9084 27.2558 24.6572C27.359 24.8598 27.4619 25.0533 27.5654 25.2404C28.3415 26.6435 27.4443 28.429 25.8409 28.429H22.9492C22.3055 28.429 22.0604 27.2882 22.5979 26.9342C23.5592 26.3011 24.452 25.5136 25.1875 24.5456Z" fill="white"/>
    </g>
    <path opacity="0.5" d="M13.1611 42.0654C13.1611 41.9508 13.1504 41.8506 13.1289 41.7646C13.1146 41.6715 13.0967 41.5856 13.0752 41.5068C13.0609 41.4281 13.0501 41.3457 13.043 41.2598C13.0358 41.1738 13.0465 41.0736 13.0752 40.959C13.0537 40.8945 13.0322 40.8337 13.0107 40.7764C12.9893 40.7119 12.9678 40.6475 12.9463 40.583C12.9606 40.2607 13.0251 39.9707 13.1396 39.7129C13.2542 39.4479 13.3939 39.208 13.5586 38.9932C13.7233 38.7712 13.9023 38.5706 14.0957 38.3916C14.2891 38.2054 14.4753 38.0264 14.6543 37.8545C14.6901 37.8903 14.7152 37.8975 14.7295 37.876C14.751 37.8473 14.7939 37.8402 14.8584 37.8545C14.8656 37.8115 14.887 37.7578 14.9229 37.6934C14.9587 37.6289 15.0016 37.5716 15.0518 37.5215C15.109 37.4642 15.1699 37.4176 15.2344 37.3818C15.2988 37.346 15.3597 37.3317 15.417 37.3389C15.4886 37.2028 15.596 37.0846 15.7393 36.9844C15.8896 36.877 16.04 36.7731 16.1904 36.6729C16.3408 36.5726 16.4769 36.4616 16.5986 36.3398C16.7204 36.2181 16.7956 36.0677 16.8242 35.8887H17.0391C16.9531 35.7598 16.9137 35.6273 16.9209 35.4912C16.9281 35.348 16.971 35.2334 17.0498 35.1475C17.1357 35.0544 17.2503 34.9971 17.3936 34.9756C17.5368 34.9541 17.7015 34.9899 17.8877 35.083C17.9665 35.0973 18.0202 35.083 18.0488 35.04C18.0775 34.9971 18.124 34.9684 18.1885 34.9541C18.5179 35.0973 18.8115 35.2728 19.0693 35.4805C19.3271 35.6882 19.5599 35.9245 19.7676 36.1895C19.7533 36.2109 19.7354 36.2288 19.7139 36.2432C19.6995 36.2503 19.6852 36.2611 19.6709 36.2754C19.6566 36.2826 19.6458 36.2933 19.6387 36.3076C19.6387 36.3219 19.653 36.3398 19.6816 36.3613C19.9251 36.6693 20.1436 36.9987 20.3369 37.3496C20.5303 37.6934 20.7093 38.0586 20.874 38.4453C20.9098 38.7389 20.9206 39.0326 20.9062 39.3262C20.8919 39.6126 20.8525 39.917 20.7881 40.2393C20.7308 40.361 20.6628 40.4756 20.584 40.583C20.5124 40.6833 20.4336 40.7835 20.3477 40.8838C20.2617 40.9769 20.1758 41.0736 20.0898 41.1738C20.0039 41.2669 19.9251 41.3672 19.8535 41.4746L20.0361 41.9043C20.029 41.9616 20.0397 42.026 20.0684 42.0977C20.097 42.1621 20.1257 42.2301 20.1543 42.3018C20.1829 42.3662 20.2044 42.4307 20.2188 42.4951C20.2402 42.5596 20.2402 42.6133 20.2188 42.6562C20.2402 42.6992 20.2868 42.7135 20.3584 42.6992C20.3298 42.7135 20.3083 42.7422 20.2939 42.7852C20.2868 42.8281 20.3226 42.8424 20.4014 42.8281C20.387 42.9069 20.3548 42.9964 20.3047 43.0967C20.2546 43.1969 20.1901 43.29 20.1113 43.376C20.0326 43.4691 19.9359 43.5443 19.8213 43.6016C19.7139 43.666 19.5921 43.6982 19.4561 43.6982C19.3128 43.6266 19.1982 43.555 19.1123 43.4834C19.0335 43.4118 18.9368 43.3258 18.8223 43.2256L18.4248 42.291C17.902 42.5273 17.3434 42.7207 16.749 42.8711C16.1546 43.0143 15.5244 43.1038 14.8584 43.1396C14.5003 43.0394 14.1745 42.9033 13.8809 42.7314C13.5872 42.5596 13.3473 42.3376 13.1611 42.0654ZM15.9219 39.2295C15.6068 39.4873 15.3203 39.7881 15.0625 40.1318C14.8118 40.4756 14.6077 40.8516 14.4502 41.2598C14.5146 41.2956 14.5934 41.3171 14.6865 41.3242C14.7796 41.3314 14.8656 41.3457 14.9443 41.3672C15.3525 41.2526 15.7715 41.1452 16.2012 41.0449C16.638 40.9375 17.057 40.805 17.458 40.6475C17.2933 40.4469 17.1357 40.2536 16.9854 40.0674C16.8421 39.8812 16.7275 39.695 16.6416 39.5088C16.6631 39.4658 16.681 39.4157 16.6953 39.3584C16.7168 39.3011 16.7419 39.2438 16.7705 39.1865C16.7992 39.1292 16.8385 39.0791 16.8887 39.0361C16.9388 38.9932 17.0068 38.9717 17.0928 38.9717C17.2217 39.0218 17.3721 39.0505 17.5439 39.0576C17.723 39.0648 17.8841 39.0827 18.0273 39.1113C18.1706 39.2116 18.2959 39.3369 18.4033 39.4873C18.5107 39.6305 18.6182 39.7738 18.7256 39.917C18.8831 39.7738 19.0192 39.6162 19.1338 39.4443C19.2484 39.2653 19.3343 39.0648 19.3916 38.8428C19.3486 38.7282 19.2949 38.5993 19.2305 38.4561C19.166 38.3128 19.0908 38.1732 19.0049 38.0371C18.9261 37.901 18.833 37.7793 18.7256 37.6719C18.6253 37.5645 18.5143 37.4928 18.3926 37.457C18.3353 37.4427 18.2959 37.4535 18.2744 37.4893C18.2601 37.5179 18.2171 37.5215 18.1455 37.5C17.7588 37.7793 17.3721 38.055 16.9854 38.3271C16.5986 38.5921 16.2441 38.8929 15.9219 39.2295ZM27.416 36.8877C27.4303 37.0452 27.4554 37.1813 27.4912 37.2959C27.527 37.4105 27.5664 37.5215 27.6094 37.6289C27.6452 37.7292 27.6774 37.8294 27.7061 37.9297C27.7419 38.0228 27.7669 38.1374 27.7812 38.2734C27.724 38.4596 27.681 38.6315 27.6523 38.7891C27.6309 38.9466 27.6058 39.1113 27.5771 39.2832C27.4626 39.5339 27.3516 39.7559 27.2441 39.9492C27.1367 40.1426 27.0508 40.3109 26.9863 40.4541C26.9505 40.4899 26.9183 40.5329 26.8896 40.583C26.8682 40.626 26.8431 40.6725 26.8145 40.7227C26.8001 40.7441 26.7822 40.7764 26.7607 40.8193C26.7393 40.8623 26.7214 40.891 26.707 40.9053L26.4922 40.8301L26.4492 41.0986L26.2988 41.1416L26.1914 41.2705C26.0553 41.5068 25.9121 41.7074 25.7617 41.8721C25.6113 42.0296 25.4395 42.1729 25.2461 42.3018C25.0599 42.4235 24.8451 42.5381 24.6016 42.6455C24.3652 42.7529 24.0967 42.8711 23.7959 43C23.6742 42.9857 23.5667 42.9785 23.4736 42.9785C23.3877 42.9714 23.3053 42.9642 23.2266 42.957C23.0905 42.957 22.9222 42.9463 22.7217 42.9248C22.7002 42.8675 22.668 42.8281 22.625 42.8066C22.582 42.7852 22.5426 42.7744 22.5068 42.7744C22.3851 42.7171 22.292 42.6348 22.2275 42.5273C22.1702 42.4128 22.113 42.291 22.0557 42.1621C22.0199 42.0833 21.984 42.0117 21.9482 41.9473C21.9124 41.8757 21.873 41.804 21.8301 41.7324L22.0127 41.6787L21.7764 41.4209C21.762 41.3994 21.7441 41.3815 21.7227 41.3672C21.7012 41.3457 21.6833 41.3242 21.6689 41.3027L21.6582 41.1309C21.6367 40.6367 21.626 40.1855 21.626 39.7773C21.6331 39.362 21.6904 38.9932 21.7979 38.6709V38.5527C21.8193 38.3952 21.8408 38.2663 21.8623 38.166C21.8838 38.0586 21.9017 37.9583 21.916 37.8652C21.9375 37.7077 21.9697 37.5609 22.0127 37.4248C22.113 37.4033 22.1882 37.3639 22.2383 37.3066C22.2884 37.2422 22.3314 37.1849 22.3672 37.1348C22.4674 37.1276 22.5355 37.1419 22.5713 37.1777C22.6071 37.2135 22.6429 37.2708 22.6787 37.3496C22.7145 37.4141 22.7575 37.4857 22.8076 37.5645C22.8649 37.6432 22.9473 37.7041 23.0547 37.7471C23.069 37.8044 23.0869 37.8652 23.1084 37.9297C23.137 37.987 23.1657 38.0514 23.1943 38.123C23.2516 38.2448 23.3018 38.3737 23.3447 38.5098C23.3949 38.6387 23.4235 38.764 23.4307 38.8857C23.359 39.0218 23.3018 39.1794 23.2588 39.3584C23.223 39.5374 23.1979 39.7201 23.1836 39.9062C23.1764 40.0853 23.18 40.2607 23.1943 40.4326C23.2158 40.5973 23.248 40.737 23.291 40.8516L23.3555 40.9912L23.5381 40.9697C23.7529 40.9124 23.9463 40.8516 24.1182 40.7871C24.2972 40.7155 24.4619 40.6331 24.6123 40.54C24.7627 40.4469 24.9059 40.3395 25.042 40.2178C25.1781 40.0889 25.3213 39.9421 25.4717 39.7773C25.6221 39.6126 25.751 39.4264 25.8584 39.2188C25.973 39.0039 26.0661 38.7819 26.1377 38.5527C26.2165 38.3236 26.2738 38.098 26.3096 37.876C26.3525 37.6468 26.3812 37.432 26.3955 37.2314C26.5173 37.1885 26.5781 37.1025 26.5781 36.9736L26.5566 36.8555C26.528 36.8125 26.528 36.7624 26.5566 36.7051C26.5996 36.569 26.6999 36.4652 26.8574 36.3936C26.972 36.4652 27.0723 36.5439 27.1582 36.6299C27.2513 36.7158 27.3372 36.8018 27.416 36.8877ZM29.79 42.248C29.8258 42.4629 29.8115 42.6312 29.7471 42.7529C29.6898 42.8747 29.6038 42.9642 29.4893 43.0215C29.3818 43.0859 29.2565 43.1217 29.1133 43.1289C28.9701 43.1361 28.834 43.1289 28.7051 43.1074C28.6335 43.0072 28.569 42.8818 28.5117 42.7314C28.4544 42.5811 28.4007 42.4271 28.3506 42.2695C28.3005 42.1048 28.2539 41.9437 28.2109 41.7861C28.1751 41.6286 28.1429 41.4889 28.1143 41.3672C28.1501 41.2812 28.1715 41.1846 28.1787 41.0771C28.193 40.9626 28.2002 40.848 28.2002 40.7334C28.2074 40.6188 28.2109 40.5042 28.2109 40.3896C28.2181 40.2679 28.2288 40.1533 28.2432 40.0459C28.2933 39.7451 28.3649 39.4587 28.458 39.1865C28.5583 38.9144 28.637 38.6315 28.6943 38.3379C28.7087 38.2734 28.7015 38.2126 28.6729 38.1553C28.6514 38.098 28.6478 38.0443 28.6621 37.9941C28.6693 37.9655 28.6908 37.9476 28.7266 37.9404C28.7624 37.9261 28.7839 37.901 28.791 37.8652C28.8125 37.7865 28.8161 37.722 28.8018 37.6719C28.7946 37.6217 28.8089 37.5609 28.8447 37.4893C28.8805 37.432 28.9235 37.3496 28.9736 37.2422C29.0309 37.1276 29.0524 37.0094 29.0381 36.8877C29.1025 36.8447 29.1634 36.7946 29.2207 36.7373C29.278 36.68 29.3353 36.6299 29.3926 36.5869C29.457 36.5368 29.5251 36.4938 29.5967 36.458C29.6755 36.4222 29.7686 36.4043 29.876 36.4043C29.9333 36.4759 29.9691 36.5547 29.9834 36.6406C30.0049 36.7266 30.0228 36.8125 30.0371 36.8984C30.0586 36.9844 30.0872 37.0667 30.123 37.1455C30.1589 37.2171 30.2197 37.2744 30.3057 37.3174C30.3057 37.3747 30.3057 37.4463 30.3057 37.5322C30.3057 37.6182 30.3092 37.7041 30.3164 37.79C30.3236 37.8688 30.3379 37.944 30.3594 38.0156C30.388 38.0801 30.431 38.123 30.4883 38.1445C30.3594 38.4883 30.2376 38.8285 30.123 39.165C30.0156 39.5016 29.9261 39.8418 29.8545 40.1855C29.7829 40.5221 29.7363 40.8623 29.7148 41.2061C29.7005 41.5498 29.7256 41.8971 29.79 42.248ZM32.1963 43.4189C32.1605 43.4046 32.1211 43.3903 32.0781 43.376L31.9492 43.1396L31.7773 43.2686C31.7272 43.2399 31.6878 43.2113 31.6592 43.1826C31.6305 43.1611 31.5983 43.1325 31.5625 43.0967C31.4837 43.0394 31.4157 42.9821 31.3584 42.9248C31.3011 42.8604 31.2689 42.7995 31.2617 42.7422L31.251 42.6348L31.1436 42.6133C31.1077 42.513 31.0791 42.4414 31.0576 42.3984C31.0361 42.3483 31.0003 42.3089 30.9502 42.2803C30.9072 41.9222 30.9215 41.625 30.9932 41.3887C31.0648 41.1452 31.1722 40.8874 31.3154 40.6152C31.4014 40.5866 31.4766 40.5472 31.541 40.4971C31.6126 40.4469 31.6771 40.3968 31.7344 40.3467C31.7917 40.2965 31.849 40.2536 31.9062 40.2178C31.9635 40.1748 32.0173 40.1497 32.0674 40.1426L32.1641 40.0889C32.2858 39.9456 32.4326 39.8203 32.6045 39.7129C32.7764 39.5983 32.9554 39.4837 33.1416 39.3691C33.292 39.2832 33.4424 39.1937 33.5928 39.1006C33.7503 39.0003 33.89 38.8929 34.0117 38.7783C34.069 38.7855 34.1191 38.7747 34.1621 38.7461C34.1908 38.7103 34.2051 38.6637 34.2051 38.6064C34.2194 38.5921 34.2337 38.5814 34.248 38.5742C34.2695 38.5599 34.2874 38.5456 34.3018 38.5312C34.3519 38.4954 34.4199 38.4525 34.5059 38.4023C34.5918 38.3522 34.6491 38.2878 34.6777 38.209L34.9141 37.9834L34.5918 37.9941C34.4271 38.0013 34.2516 38.012 34.0654 38.0264C33.8864 38.0407 33.7324 38.055 33.6035 38.0693C33.4961 38.0837 33.3851 38.0944 33.2705 38.1016C33.1559 38.1016 33.0306 38.1051 32.8945 38.1123C32.6725 37.9691 32.5114 37.7578 32.4111 37.4785C32.318 37.1921 32.3145 36.9128 32.4004 36.6406C32.4505 36.6335 32.4935 36.6227 32.5293 36.6084C32.5651 36.5869 32.6009 36.569 32.6367 36.5547C32.7012 36.5475 32.7441 36.5475 32.7656 36.5547C32.7871 36.5618 32.8158 36.5654 32.8516 36.5654C33.0521 36.5296 33.2168 36.5081 33.3457 36.501C33.4818 36.4867 33.6071 36.4795 33.7217 36.4795C33.8434 36.4795 33.9616 36.4867 34.0762 36.501C34.1908 36.5081 34.3018 36.5296 34.4092 36.5654C34.6598 36.5654 34.9141 36.5547 35.1719 36.5332C35.4297 36.5117 35.6947 36.5296 35.9668 36.5869C36.1602 36.5225 36.3499 36.5046 36.5361 36.5332C36.7295 36.5618 36.8978 36.6478 37.041 36.791C37.0482 36.9128 37.0768 37.0059 37.127 37.0703C37.1842 37.1276 37.2559 37.1706 37.3418 37.1992C37.3991 37.4069 37.4027 37.5895 37.3525 37.7471C37.3096 37.9046 37.2344 38.0443 37.127 38.166C37.0195 38.2878 36.8906 38.3988 36.7402 38.499C36.597 38.5921 36.4538 38.6816 36.3105 38.7676C36.2676 38.832 36.2139 38.8857 36.1494 38.9287C36.0921 38.9645 36.0384 39.0111 35.9883 39.0684C35.752 39.3691 35.4798 39.6341 35.1719 39.8633C34.8711 40.0853 34.5596 40.3001 34.2373 40.5078C34.0081 40.6582 33.779 40.8122 33.5498 40.9697C33.3278 41.1201 33.113 41.2848 32.9053 41.4639L32.7979 41.5605L32.8945 41.668C32.9805 41.7539 33.0807 41.7969 33.1953 41.7969C33.2598 41.7969 33.3206 41.7897 33.3779 41.7754C33.4424 41.7539 33.5033 41.7324 33.5605 41.7109C33.6178 41.6966 33.668 41.6823 33.7109 41.668C33.7539 41.6465 33.7933 41.6357 33.8291 41.6357H33.9688C34.026 41.5999 34.0833 41.5713 34.1406 41.5498C34.1979 41.5283 34.2552 41.5104 34.3125 41.4961C34.3698 41.4818 34.4235 41.4674 34.4736 41.4531C34.5238 41.4388 34.5775 41.4137 34.6348 41.3779C34.7923 41.3779 34.9391 41.3564 35.0752 41.3135C35.2184 41.2705 35.3617 41.2204 35.5049 41.1631C35.5908 41.1273 35.6732 41.0951 35.752 41.0664C35.8379 41.0378 35.9238 41.0163 36.0098 41.002C36.0384 41.0378 36.0706 41.07 36.1064 41.0986C36.1494 41.1201 36.1888 41.1416 36.2246 41.1631C36.3177 41.2204 36.3678 41.2741 36.375 41.3242L36.4072 41.625L36.6113 41.4209C36.6973 41.4925 36.7438 41.5749 36.751 41.668C36.7581 41.7539 36.7474 41.8685 36.7188 42.0117C36.4896 42.2409 36.2031 42.4199 35.8594 42.5488C35.5156 42.6777 35.1504 42.8031 34.7637 42.9248C34.6849 42.9463 34.6025 42.9678 34.5166 42.9893C34.4378 43.0107 34.359 43.0358 34.2803 43.0645L34.291 42.8818L34.0547 43.0322C34.026 43.0537 34.001 43.0752 33.9795 43.0967C33.9652 43.1182 33.9508 43.1396 33.9365 43.1611C33.7503 43.2113 33.5964 43.2471 33.4746 43.2686C33.3529 43.29 33.2383 43.3115 33.1309 43.333C33.0091 43.3617 32.8945 43.3831 32.7871 43.3975C32.6797 43.4189 32.5651 43.4297 32.4434 43.4297C32.4076 43.4297 32.3682 43.4297 32.3252 43.4297C32.2822 43.4297 32.2393 43.4261 32.1963 43.4189Z" fill="white"/>
    </svg>
    