<svg width="46" height="46" viewBox="0 0 46 46" fill="none" xmlns="http://www.w3.org/2000/svg">
<rect width="46" height="46" rx="6" fill="#1A3EFF"/>
<g clip-path="url(#clip0_18216_16374)">
<path d="M44.25 23C44.25 11.0914 34.5961 1.4375 22.6875 1.4375C10.7789 1.4375 1.125 11.0914 1.125 23C1.125 34.9086 10.7789 44.5625 22.6875 44.5625C34.5961 44.5625 44.25 34.9086 44.25 23Z" fill="#1A3EFF"/>
<path d="M24.7668 26.5639H19.0772C16.6008 26.5639 15.1441 27.477 13.9433 28.6777C12.8262 29.7948 12.4301 31.1394 12.2976 32.1059C12.1982 32.8315 12.8062 33.389 13.5387 33.389H25.6089C25.9901 33.389 26.3558 33.2375 26.6253 32.9679L32.0733 27.5198C32.6347 26.9585 32.6347 26.0484 32.0733 25.4869L28.6582 22.0718C27.7528 21.1663 26.2043 21.8076 26.2043 23.0883V25.1264C26.2043 25.9202 25.5607 26.5639 24.7668 26.5639Z" fill="white"/>
<path d="M20.5577 19.4974H26.2473C28.7237 19.4974 30.1804 18.5843 31.3812 17.3834C32.4983 16.2665 32.8944 14.9218 33.0268 13.9555C33.1263 13.2298 32.5182 12.6724 31.7858 12.6724H19.7156C19.3344 12.6724 18.9688 12.8238 18.6991 13.0934L13.2512 18.5413C12.6898 19.1028 12.6898 20.0129 13.2512 20.5744L16.6662 23.9895C17.5718 24.895 19.1202 24.2537 19.1202 22.9729V20.9349C19.1202 20.141 19.7637 19.4974 20.5577 19.4974Z" fill="white"/>
</g>
<defs>
<clipPath id="clip0_18216_16374">
<rect width="43.125" height="46" fill="white" transform="translate(1.125)"/>
</clipPath>
</defs>
</svg>
