<svg width="20" height="20" viewBox="0 0 20 20" fill="none" xmlns="http://www.w3.org/2000/svg">
<path d="M16.9225 3.74659C15.6558 3.16549 14.2844 2.74373 12.8557 2.50004C12.8432 2.49965 12.8308 2.50196 12.8192 2.50682C12.8077 2.51168 12.7974 2.51896 12.7891 2.52816C12.6176 2.83746 12.4176 3.24047 12.2843 3.54977C10.769 3.32483 9.22803 3.32483 7.71275 3.54977C7.57941 3.2311 7.37941 2.83746 7.19845 2.52816C7.18893 2.50942 7.16035 2.50004 7.13178 2.50004C5.70317 2.74373 4.34123 3.16549 3.065 3.74659C3.05548 3.74659 3.04595 3.75596 3.03643 3.76534C0.445883 7.57996 -0.268423 11.2915 0.0839681 14.9655C0.0839681 14.9843 0.0934922 15.003 0.11254 15.0124C1.82687 16.2496 3.47454 16.9994 5.10315 17.4961C5.13173 17.5055 5.1603 17.4961 5.16982 17.4774C5.55078 16.9619 5.89365 16.4183 6.1889 15.8465C6.20795 15.8091 6.1889 15.7716 6.1508 15.7622C5.60793 15.556 5.09363 15.3123 4.58885 15.0311C4.55076 15.0124 4.55076 14.9562 4.57933 14.928C4.68409 14.8531 4.78886 14.7687 4.89362 14.6937C4.91267 14.675 4.94124 14.675 4.96029 14.6844C8.23657 16.1558 11.77 16.1558 15.0082 14.6844C15.0272 14.675 15.0558 14.675 15.0749 14.6937C15.1796 14.7781 15.2844 14.8531 15.3891 14.9374C15.4272 14.9655 15.4272 15.0218 15.3796 15.0405C14.8844 15.3311 14.3605 15.5654 13.8177 15.7716C13.7796 15.7809 13.7701 15.8278 13.7796 15.8559C14.0844 16.4276 14.4272 16.9713 14.7987 17.4867C14.8272 17.4961 14.8558 17.5055 14.8844 17.4961C16.5225 16.9994 18.1702 16.2496 19.8845 15.0124C19.9036 15.003 19.9131 14.9843 19.9131 14.9655C20.3321 10.7198 19.2178 7.03636 16.9606 3.76534C16.9511 3.75596 16.9416 3.74659 16.9225 3.74659ZM6.68415 12.7255C5.70317 12.7255 4.8841 11.8351 4.8841 10.7385C4.8841 9.64192 5.68412 8.75153 6.68415 8.75153C7.6937 8.75153 8.49372 9.6513 8.4842 10.7385C8.4842 11.8351 7.68418 12.7255 6.68415 12.7255ZM13.3224 12.7255C12.3414 12.7255 11.5224 11.8351 11.5224 10.7385C11.5224 9.64192 12.3224 8.75153 13.3224 8.75153C14.332 8.75153 15.132 9.6513 15.1225 10.7385C15.1225 11.8351 14.332 12.7255 13.3224 12.7255Z" fill="#A1A7BB"/>
</svg>
