<svg width="20" height="20" viewBox="0 0 20 20" fill="none" xmlns="http://www.w3.org/2000/svg">
<path d="M13.3333 1.66666H6.66667C3.75 1.66666 2.5 3.33332 2.5 5.83332V14.1667C2.5 16.6667 3.75 18.3333 6.66667 18.3333H13.3333C16.25 18.3333 17.5 16.6667 17.5 14.1667V5.83332C17.5 3.33332 16.25 1.66666 13.3333 1.66666ZM6.66667 10.2083H10C10.3417 10.2083 10.625 10.4917 10.625 10.8333C10.625 11.175 10.3417 11.4583 10 11.4583H6.66667C6.325 11.4583 6.04167 11.175 6.04167 10.8333C6.04167 10.4917 6.325 10.2083 6.66667 10.2083ZM13.3333 14.7917H6.66667C6.325 14.7917 6.04167 14.5083 6.04167 14.1667C6.04167 13.825 6.325 13.5417 6.66667 13.5417H13.3333C13.675 13.5417 13.9583 13.825 13.9583 14.1667C13.9583 14.5083 13.675 14.7917 13.3333 14.7917ZM15.4167 7.70832H13.75C12.4833 7.70832 11.4583 6.68332 11.4583 5.41666V3.74999C11.4583 3.40832 11.7417 3.12499 12.0833 3.12499C12.425 3.12499 12.7083 3.40832 12.7083 3.74999V5.41666C12.7083 5.99166 13.175 6.45832 13.75 6.45832H15.4167C15.7583 6.45832 16.0417 6.74166 16.0417 7.08332C16.0417 7.42499 15.7583 7.70832 15.4167 7.70832Z" fill="#A1A7BB"/>
</svg>
