<svg width="16" height="16" viewBox="0 0 16 16" fill="none" xmlns="http://www.w3.org/2000/svg">
<path d="M13.6666 6.79301H11.74C10.16 6.79301 8.87329 5.50634 8.87329 3.92634V1.99967C8.87329 1.63301 8.57329 1.33301 8.20663 1.33301H5.37996C3.32663 1.33301 1.66663 2.66634 1.66663 5.04634V10.953C1.66663 13.333 3.32663 14.6663 5.37996 14.6663H10.62C12.6733 14.6663 14.3333 13.333 14.3333 10.953V7.45967C14.3333 7.09301 14.0333 6.79301 13.6666 6.79301Z" fill="#606E85"/>
<path d="M10.5334 1.47365C10.2601 1.20032 9.78674 1.38699 9.78674 1.76699V4.09365C9.78674 5.06699 10.6134 5.87365 11.6201 5.87365C12.2534 5.88032 13.1334 5.88032 13.8867 5.88032C14.2667 5.88032 14.4667 5.43365 14.2001 5.16699C13.2401 4.20032 11.5201 2.46032 10.5334 1.47365Z" fill="#606E85"/>
</svg>
