<svg width="108" height="36" viewBox="0 0 108 36" fill="none" xmlns="http://www.w3.org/2000/svg">
<g clip-path="url(#clip0_17681_11699)">
<path d="M2.41837 4.1123L2.82144 4.17948L3.89627 4.78408L5.10546 5.45585L6.7177 6.32915L9.13608 7.67269L10.7483 8.54599L12.159 9.35211L13.7713 10.2254L14.9805 10.8972L16.1897 11.6361L17.1301 12.3751L18.0706 13.3156L18.8096 14.3232L19.4813 15.5324L19.8844 16.5401L20.2203 17.9508L20.3546 19.0928V31.3862L20.2203 32.2595L19.9516 33.0656L19.5485 33.7374L19.0783 34.342L18.3393 34.9466L17.3317 35.484L16.324 35.7527L15.7866 35.8199H15.1148L14.04 35.6183L13.0323 35.2153L11.2186 34.2076L9.6735 33.3343L8.39713 32.6625L6.85206 31.7892L5.71005 31.1847L4.16498 30.3114L2.88861 29.6396L1.34354 28.7663L0.067177 28.0945L0 28.0273V5.45585L1.4779 4.64972L2.41837 4.1123ZM2.55273 6.93374V26.6166L4.23215 27.4899L5.30699 28.0945L6.51617 28.7663L7.99407 29.5724L9.20326 30.2442L10.8155 31.1175L12.0247 31.7892L13.6369 32.6625L16.2568 34.1404L16.6599 34.2748L17.1301 34.2076L17.6004 33.8717L17.6676 33.4687L17.1301 33.1328L15.6523 32.3267L14.1072 31.4534L11.9575 30.3114L10.8827 29.7068L9.0689 28.6991L7.45665 27.8258L5.64287 26.8181L4.0978 25.9448L3.89627 25.7433V7.67269L2.75426 7.00092L2.55273 6.93374ZM5.91158 8.8147L5.97876 24.6685L6.91924 25.2059L8.53149 26.0792L10.0766 26.9525L11.5545 27.7586L13.0995 28.6319L14.9805 29.6396L16.0553 30.2442L17.3989 30.9831L17.7347 31.1175V29.8411L17.1973 29.5052L15.5851 28.6319L12.4278 26.8853L10.614 25.8777L9.00172 25.0044L8.06125 24.467L7.3223 24.0639L7.25512 23.4593V9.48647L6.04593 8.8147H5.91158ZM9.20326 10.6285L9.13608 12.2407V22.8547L9.20326 23.0562L10.7483 23.8624L11.9575 24.5341L13.5698 25.4074L15.1148 26.2807L16.8614 27.2212L17.6676 27.6915H17.7347V20.2348L17.5332 18.7569L17.063 17.3462L16.5256 16.2714L15.8538 15.1965L14.9805 14.1889L14.2415 13.5171L13.3011 12.8453L12.2262 12.2407L10.2781 11.1659L9.33761 10.6285H9.20326Z" fill="white"/>
<path d="M43.4636 6.73047H53.6074L54.9509 6.99918L56.1601 7.40224L57.5708 8.14119L58.5113 8.81296L59.5189 9.75344L60.2579 10.6939L60.8625 11.7016L61.3327 12.642L61.8701 14.2543L62.1388 15.7322L62.2732 17.8147L62.1388 19.6956L62.0045 20.6361L61.6686 21.9797L61.1984 23.256L60.4594 24.6667L59.922 25.4057L59.3174 26.1446L58.8472 26.6149L58.1754 27.1523L57.4364 27.6225L56.4288 28.1599L55.0181 28.6302L53.6745 28.8989L53.0028 28.9661H43.4636V6.73047ZM47.8973 10.4924V25.2042H50.8531L52.6669 25.137L53.6074 24.9354L54.5478 24.5324L55.4211 23.9278L56.2944 23.0545L56.7647 22.3155L57.1677 21.4422L57.5036 20.3674L57.7052 19.091L57.7723 17.2773L57.638 15.8665L57.3693 14.7245L56.9662 13.7169L56.5631 12.9779L56.0929 12.3733L55.4211 11.7016L54.4807 11.097L53.473 10.6939L52.5997 10.4924H47.8973Z" fill="white"/>
<path d="M89.2783 6.05859H94.1823V9.41745L93.9136 9.48462L91.0249 9.5518L90.4875 9.82051L90.1516 10.2236L90.0173 10.761L89.9501 12.9778L94.3838 12.9107L94.451 12.9778V16.3367H89.9501V28.8988L89.8829 28.966H85.8523L85.7851 17.5459L85.8523 16.3367H82.8293V12.9778L83.1652 12.9107L85.7851 12.9778L85.8523 9.61898L86.121 8.61132L86.5913 7.67084L87.1959 6.99907L87.9348 6.46166L88.6066 6.19295L89.2783 6.05859Z" fill="white"/>
<path d="M102.243 7.33594H102.445V12.9788H106.744V16.3377H102.445L102.512 24.4661L102.781 25.0035L103.184 25.3394L103.587 25.4737L106.61 25.5409L106.677 25.6081V28.8998L106.61 28.9669H102.109L101.034 28.7654L100.362 28.4967L99.6907 28.0936L99.0861 27.4219L98.6159 26.4814L98.3472 25.4066L98.28 24.5333V16.3377H95.3242L95.257 16.2705V12.9788L95.3242 12.9116H97.0708L98.28 12.9788V9.08254L99.0861 8.67948L101.504 7.67182L102.243 7.33594Z" fill="white"/>
<path d="M18.608 14.1201L18.8767 14.456L19.4813 15.5308L19.8844 16.5385L20.2203 17.9492L20.3546 19.0912V31.3846L20.2203 32.2579L19.9516 33.064L19.5485 33.7358L19.0783 34.3404L18.3393 34.945L17.3317 35.4824L16.324 35.7511L15.7866 35.8183H15.1148L14.04 35.6168L13.0323 35.2137L11.2186 34.2061L9.67348 33.3328L8.53147 32.7282L8.46429 32.3923L8.66583 31.5862L8.86736 30.1754L9.3376 30.2426L10.8827 31.1159L12.898 32.1907L14.4431 33.064L15.4507 33.6015L16.2568 34.0717L16.6599 34.2061L17.1301 34.1389L17.5332 33.8702L17.6004 33.4671L16.0553 32.5938L14.1743 31.5862L12.6293 30.7129L11.4873 30.1083L9.94219 29.235L9.06889 28.7647L8.93453 28.4288L9.20324 27.7571L9.67348 27.0853L9.74066 26.8838L10.2109 26.9509L12.0247 27.9586L13.6369 28.8319L15.182 29.7052L16.9286 30.6457L17.7347 31.1159L17.6676 29.8395L16.1225 28.9662L14.2415 27.9586L10.614 25.9433L9.67348 25.4059L9.6063 25.1372L9.94219 24.7341L10.2109 24.1967L10.4124 23.8608L10.7483 23.7936L11.9575 24.4654L13.5698 25.3387L15.1148 26.212L16.8614 27.1525L17.6676 27.6227V20.2332L17.466 18.7553L16.9958 17.3446L16.4584 16.2026L16.7271 16.2698L17.063 16.0683L17.7347 15.7995L17.9363 15.4637L18.205 14.7919L18.608 14.1201Z" fill="white"/>
<path d="M9.60632 0.0126953L9.94221 0.0798724L11.9575 1.15471L14.1072 2.36389L17.063 3.97614L19.0111 5.05097L20.6234 5.92428L22.5715 6.99911L23.5791 7.67088L24.4525 8.40983L25.3258 9.28313L26.0647 10.2908L26.6693 11.3656L27.0724 12.3733L27.3411 13.3138L27.4754 13.9855L27.5426 14.7245V27.5553L27.4082 28.3614L26.938 29.4362L26.2662 30.3095L25.5945 30.847L24.9227 31.25L24.0494 31.5859H23.8479L23.9822 31.25L24.5196 30.3767L24.7883 29.5034L24.8555 29.1675L24.9227 19.2925V16.6726L24.7883 15.3291L24.5868 14.2542L24.1166 12.9779L23.4448 11.7015L22.6387 10.6267L22.1684 10.0893L21.631 9.61901L20.7577 8.94724L19.7501 8.34265L17.8019 7.26782L16.1897 6.39452L15.1148 5.78992L13.5026 4.91662L11.9575 4.04332L9.80785 2.90131L8.73302 2.29672L7.52384 1.62494L7.25513 1.42341L7.79254 1.08753L9.47197 0.147049L9.60632 0.0126953Z" fill="white"/>
<path d="M6.11314 2.02832L6.5162 2.16267L7.65821 2.76727L9.1361 3.57339L10.2109 4.17799L11.9575 5.11846L13.5026 5.99177L15.3836 6.99942L18.5409 8.74603L19.8844 9.55215L20.7577 10.2911L21.2952 10.7613L21.8997 11.4331L22.6387 12.5079L23.1761 13.5156L23.6463 14.7248L23.9151 16.0011L23.9822 16.8744V29.3694L23.8479 30.3099L23.5792 31.0488L23.1761 31.7206L22.5715 32.3923L22.1013 32.7954L21.4295 33.1985L20.5562 33.5344H20.2875L20.4218 33.2657L20.8921 32.5267L21.228 31.6534L21.2952 31.3175V17.6134L21.0936 16.4714L20.6234 15.0607L19.9516 13.7843L19.2127 12.7766L18.4065 11.9033L17.6676 11.2988L16.9958 10.8285L15.8538 10.1567L14.2416 9.28344L10.4796 7.20095L9.27046 6.52918L7.79256 5.72306L5.97878 4.7154L4.36653 3.8421L3.69476 3.50622L3.96347 3.23751L5.17266 2.56574L6.11314 2.02832Z" fill="white"/>
<path d="M65.0945 12.9121H69.058L69.1923 12.9793V14.8602L69.8641 13.9198L70.5359 13.3823L71.2748 13.0465L71.5435 12.9793L72.6184 12.9121H74.1634L74.365 12.9793V16.3381L71.6779 16.4053L71.0061 16.6068L70.3343 17.0771L69.7969 17.7489L69.461 18.4878L69.2595 19.1596L69.1923 20.1001V28.9002L69.1251 28.9674H65.0273V12.9793L65.0945 12.9121Z" fill="white"/>
<path d="M76.6492 12.9121L80.747 12.9793V28.9002L80.6798 28.9674H76.582V12.9793L76.6492 12.9121Z" fill="white"/>
<path d="M10.0094 8.34277L10.614 8.47713L12.1591 9.35043L13.7713 10.2237L14.9805 10.8955L16.1897 11.6344L17.1302 12.3734L18.0707 13.3139L18.6081 14.0528L18.5409 14.3887L18.1378 15.0605L17.8691 15.7322L17.6676 15.9338L16.7943 16.2697H16.5928L16.2569 15.9338L15.7195 15.1277L14.9134 14.1872L14.2416 13.5826L13.3011 12.9108L12.2263 12.3062L10.2781 11.2314L9.2033 10.6268V23.0545L9.60636 23.1889L10.614 23.7263L10.3453 23.995L10.0766 24.5996L9.87507 24.9355H9.74072L9.60636 25.3386L8.66588 24.8683L7.25517 24.0622L7.18799 23.4576V15.3292L7.32234 11.2986L7.52387 11.3657L7.4567 11.5001L7.65823 11.4329L7.7254 11.6344L7.85976 11.5673L7.99411 11.836L8.33 11.2314H8.46435L8.73306 10.8283L8.93459 10.4924L9.06895 9.88785L9.2033 9.75349L9.40483 9.28325L9.80789 8.67866L10.0094 8.34277Z" fill="white"/>
<path d="M0.671771 13.9863H0.806125V14.1207L1.20919 14.0535L2.41837 14.6581L2.55273 14.7925V26.6156L2.95579 26.75L4.70239 27.6904L6.24747 28.5637L7.99407 29.5042L9.0689 30.1088L8.86737 30.176L8.73302 31.5867L8.53149 32.3928V32.6616L8.1956 32.5272L6.91924 31.8554L5.37416 30.9821L3.62756 30.0416L2.14967 29.2355L0.940479 28.5637L0 28.0263V14.5237L0.335885 14.3894L0.671771 13.9863Z" fill="white"/>
<path d="M6.11314 2.02832L6.5162 2.16267L7.65821 2.76727L9.1361 3.57339L10.2109 4.17799L11.9575 5.11846L13.5026 5.99177L15.3836 6.99942L18.5409 8.74603L19.8844 9.55215L20.7577 10.2911L21.2952 10.7613L21.8997 11.4331L22.0341 11.9033L21.7654 12.5751L21.1608 13.7843L20.9593 14.3889L20.8249 14.6576L20.5562 14.7248L20.3547 14.5233L19.8173 13.5828L19.2127 12.7766L18.4065 11.9033L17.6676 11.2988L16.9958 10.8285L15.8538 10.1567L14.2416 9.28344L10.4796 7.20095L9.27046 6.52918L7.79256 5.72306L5.97878 4.7154L4.36653 3.8421L3.69476 3.50622L3.96347 3.23751L5.17266 2.56574L6.11314 2.02832Z" fill="white"/>
<path d="M2.41837 4.1123L2.82144 4.17948L3.89627 4.78408L5.10546 5.45585L5.97876 5.92608L5.91158 6.06044L5.57569 6.12762L5.03828 6.53068L4.70239 7.40398H4.56804L4.36651 8.07575L4.0978 8.41164L4.03062 8.61317L3.96345 9.82235L3.89627 12.3751H3.82909V7.67269L2.6199 7.00092L2.55273 14.7935L1.20919 14.1217H0.806125V13.9873L0.470239 14.256L0.201531 14.5247H0V5.45585L1.47789 4.64972L2.41837 4.1123Z" fill="white"/>
<path d="M9.60632 0.0126953L9.94221 0.0798724L11.9575 1.15471L14.1072 2.36389L17.063 3.97614L19.0111 5.05097L19.6829 5.45404L19.6157 5.78992L19.2798 6.66322L19.1455 7.06629H19.0111V7.26782L18.6752 7.40217V7.53653L18.0706 7.40217L16.1897 6.39452L15.1148 5.78992L13.5026 4.91662L11.9575 4.04332L9.80785 2.90131L8.73302 2.29672L7.52384 1.62494L7.25513 1.42341L7.79254 1.08753L9.47197 0.147049L9.60632 0.0126953Z" fill="white"/>
<path d="M5.71012 17.21H5.84447L5.91165 17.5458V24.6666L6.31471 24.801L7.85979 25.6743L9.74074 26.6819L9.94228 26.8835H9.74074L9.67357 27.1522L9.2705 27.7568L9.0018 28.4285L9.06897 28.6972L8.73309 28.5629L7.18802 27.7568L5.57577 26.8163L4.2994 26.1445L3.82916 25.7414V17.9489L4.03069 17.6802H4.23222L4.2994 17.5458H4.83682L5.71012 17.21Z" fill="white"/>
<path d="M6.11314 2.02832L6.5162 2.16267L7.65821 2.76727L9.1361 3.57339L10.2109 4.17799L11.9575 5.11846L13.5026 5.99177L14.1072 6.32765L13.9057 6.39483L13.8385 6.93224V7.53684L13.5026 7.80555L13.4354 7.9399V8.74603L13.0324 8.61167L9.40481 6.59636L7.79256 5.72306L5.97878 4.7154L4.36653 3.8421L3.69476 3.50622L3.96347 3.23751L5.17266 2.56574L6.11314 2.02832Z" fill="white"/>
<path d="M12.2935 9.55273L12.6965 9.61991L14.2416 10.4932L15.4508 11.165L16.4584 11.8368L17.1974 12.4413L18.0707 13.3146L18.6081 14.0536L18.5409 14.3895L18.1379 15.0613L17.8692 15.733L17.6676 15.9346L16.7943 16.2704H16.5928L16.2569 15.9346L15.7195 15.1284L14.9134 14.188L14.2416 13.5834L13.3011 12.9116L12.2263 12.307L11.6889 11.9711V11.8368L11.4202 11.7024L11.6217 10.9635L11.8232 10.6276L12.0248 10.2245L12.0919 9.75427L12.2935 9.55273Z" fill="white"/>
<path d="M26.2662 10.8301H26.4006L26.938 11.9721L27.2739 12.9797L27.4754 13.9874L27.5426 14.7263V27.5572L27.4754 27.9602H27.4082L27.2739 27.5572L27.0723 26.751L26.8708 25.2731L26.8036 24.3327L26.5349 22.8548L26.1319 19.5631L25.9303 17.4806L25.7288 16.7417L25.6616 15.4653V13.1813L25.8632 12.1736L25.9975 11.9049L26.1319 10.9644L26.2662 10.8301Z" fill="white"/>
<path d="M76.5147 6.39551H80.8812L80.9484 7.53752V10.5605L80.814 10.6277H76.5147L76.4475 10.5605V6.46268L76.5147 6.39551Z" fill="white"/>
<path d="M9.74069 26.8838L10.2109 26.951L12.0247 27.9586L13.637 28.8319L15.182 29.7052L16.9286 30.6457L17.1973 30.7801L17.2645 31.3847L17.3989 32.7954L17.1973 33.0641H16.8615L15.3164 32.1908L13.4354 31.1831L11.8904 30.3098L10.1438 29.3693L9.06892 28.7647L8.93457 28.4289L9.20328 27.7571L9.67352 27.0853L9.74069 26.8838Z" fill="white"/>
<path d="M2.88867 26.8838L3.9635 27.2869L5.91163 28.3617L7.38953 29.1678L9.06896 30.1083L8.86742 30.1755L8.73307 31.5862L8.53154 32.3923V32.661L8.19565 32.5267L6.91929 31.8549L5.37422 30.9816L3.62761 30.0411L2.28407 29.3022L2.14972 29.1006L2.28407 27.8914L2.55278 27.2197L2.61996 27.0181L2.88867 26.8838Z" fill="white"/>
<path d="M19.683 5.4541L20.7578 5.99152L21.967 6.66329L23.109 7.33506L23.9151 7.93965L24.4525 8.40989L24.5869 9.28319L24.5197 10.2908L24.1167 11.097L23.6464 11.6344L23.3105 11.5L22.6388 10.6267L22.1685 10.0893L21.6311 9.61908L20.7578 8.94731L19.7502 8.34272L18.2051 7.46941L18.3394 7.40224L18.6753 7.53659V7.40224L19.0112 7.26788V7.06635L19.1456 6.99917L19.4143 6.0587L19.683 5.4541Z" fill="white"/>
<path d="M9.00173 14.9941H9.06891L9.13608 15.5987L9.20326 20.9057V23.0554L9.60632 23.1897L10.614 23.7272L10.3453 23.9959L10.0766 24.6005L9.87503 24.9363H9.74068L9.60632 25.3394L8.66585 24.8692L7.25513 24.063V19.0248L7.45666 18.6889L7.65819 18.4202L7.85972 18.353L7.9269 18.0843H8.06125V17.6812L8.39714 17.0095L8.66585 16.1362L8.86738 15.33L9.00173 14.9941Z" fill="white"/>
<path d="M0.671771 13.9863H0.806125V14.1207L1.20919 14.0535L2.41837 14.6581L2.55273 14.7925V17.8826L2.14967 18.42L1.94813 18.8903L1.41072 19.6292L1.14201 20.301L0.537416 21.443L0.134354 21.9804H0V14.5237L0.335885 14.3894L0.671771 13.9863Z" fill="white"/>
<path d="M10.5469 23.7939L10.8156 23.8611L12.3607 24.6672L13.4355 25.2718L15.2493 26.2795L16.66 27.0856L16.5929 27.8917L16.66 28.2948L16.7944 28.9666L16.66 29.1681L16.3242 29.1009L14.5104 28.0933L12.8981 27.22L11.6889 26.5482L10.0095 25.6077L9.60645 25.339L9.67362 25.0703L9.94233 24.7344L10.211 24.197L10.4126 23.8611L10.5469 23.7939Z" fill="white"/>
<path d="M9.60632 0.0126953L9.94221 0.0798724L11.9575 1.15471L14.1072 2.36389L14.5774 2.6326L14.3087 2.69978L13.9728 2.90131H13.7041L13.5698 3.17002L13.0324 3.64026L12.8308 3.97614L12.4278 4.1105V4.24485L12.0919 4.1105L10.5468 3.30437L9.00173 2.43107L7.38948 1.55777L7.25513 1.42341L7.79254 1.08753L9.47197 0.147049L9.60632 0.0126953Z" fill="white"/>
<path d="M8.86742 30.1748L9.33766 30.242L10.8827 31.1153L12.898 32.1901L13.2339 32.4588L13.5698 32.6604L13.5026 32.9291L13.3011 32.9962V33.1306H13.1667V34.0711L12.6965 34.6085L12.4278 34.7428L11.756 34.407L11.2186 34.2054L9.67354 33.3321L8.53153 32.7275L8.46436 32.3916L8.66589 31.5855L8.86742 30.1748Z" fill="white"/>
<path d="M13.8386 6.32812L14.376 6.46248L15.9883 7.33578L17.5333 8.20908L18.4738 8.7465L18.541 8.94803L17.6677 10.6946L17.4661 10.8962L16.8616 10.7618L16.1898 10.3587L14.5104 9.41827L13.4355 8.81368L13.3683 8.67932V7.94037L13.6371 7.60449L13.7714 7.53731V6.66401H13.9058L13.8386 6.32812Z" fill="white"/>
<path d="M2.3512 7.73828H2.41837L2.48555 8.20852L2.55273 9.68642V14.7919L1.20919 14.1201H0.806125V13.9857L0.470239 14.2545L0.201531 14.5232H0V10.8956L1.00766 10.0895H1.14201L1.34354 9.41771L1.81378 8.88029L2.01531 8.14134L2.21684 7.80546L2.3512 7.73828Z" fill="white"/>
<path d="M24.99 19.3604L25.1243 19.4947L25.1915 20.7711L25.393 21.9131L25.5946 23.391L25.7289 23.4582L26.1992 26.4811L26.3335 27.8918L26.6022 28.6308L26.6694 29.101V29.6384L26.535 29.9743L26.1992 30.3774L25.393 30.982L24.5869 31.385L24.0495 31.5866H23.848L23.9823 31.2507L24.5197 30.3774L24.7884 29.5041L24.8556 29.1682L24.9228 25.2048L24.99 19.3604Z" fill="white"/>
<path d="M13.1667 32.46L13.5025 32.5271L15.1148 33.4004L16.2568 34.0722L16.6599 34.2066H17.3988V34.3409L17.7347 34.4753L18.1378 34.8112V35.0799L17.1301 35.5501L16.324 35.7516L15.7866 35.8188H15.1148L14.04 35.6173L13.0323 35.2142L11.6216 34.4081L11.7559 34.3409L12.4277 34.6768L12.6964 34.5424L13.0995 34.0722V33.3333L13.1667 33.1317H13.301V32.9974L13.5025 32.863L13.5697 32.6615L13.1667 32.5271V32.46Z" fill="white"/>
<path d="M7.72522 7.06641L8.39699 7.26794L10.0092 8.14124L10.3451 8.40995H10.0092L9.47183 9.28325L9.20312 9.82067L9.06876 10.2237L8.93441 10.5596L8.73288 10.9627L8.39699 11.2986L8.19546 11.5673L7.99393 11.9032L7.7924 11.6344L7.65805 11.7016L7.59087 11.5001H7.45652V11.3657L7.32216 11.2986V13.1795L7.25498 15.3292H7.18781V12.6421L7.25498 9.48478L6.9191 9.35043L6.65039 9.08172V8.27559L6.98628 7.60382L7.72522 7.06641Z" fill="white"/>
<path d="M5.84451 24.667L6.18039 24.7342L7.79264 25.6075L9.33771 26.4808L9.94231 26.8167L9.74078 26.8838L9.6736 27.1525L9.27054 27.7571L9.00183 28.4289L9.06901 28.6976L8.73312 28.5633L7.18805 27.7571L5.5758 26.8167L5.44144 26.6151L5.37427 25.6746L5.50862 25.1372L5.84451 24.667Z" fill="white"/>
<path d="M5.7773 11.8359H5.84447L5.91165 12.5749V17.546H5.84447V17.2101L4.83682 17.6132H4.2994L3.96352 17.8147L3.82916 17.949V16.3368L4.03069 14.8589L4.23222 14.3215L4.50093 13.381L5.03835 12.4405L5.37423 12.1046L5.7773 11.8359Z" fill="white"/>
<path d="M6.11314 2.02832L6.5162 2.16267L7.65821 2.76727L9.1361 3.57339L9.33764 3.77492H8.39716L8.06127 3.97645L7.79256 4.11081L7.52385 4.44669L7.32232 4.84976V5.25282V5.45435L5.71007 4.58105L4.50089 3.90928L3.69476 3.50622L3.96347 3.23751L5.17266 2.56574L6.11314 2.02832Z" fill="white"/>
<path d="M16.7942 12.2393L17.063 12.3064L18.0706 13.3141L18.608 14.053L18.5409 14.3889L18.1378 15.0607L17.8691 15.7325L17.6676 15.934L16.7942 16.2699H16.5927L16.2568 15.934L15.7194 15.1279L14.9805 14.2546L15.1148 14.1202H15.3835V13.9859L15.8538 13.5828H15.9881V13.2469L16.1897 12.911L16.4584 12.508L16.7271 12.3736L16.7942 12.2393Z" fill="white"/>
<path d="M9.74069 26.8838L10.2109 26.951L12.0247 27.9586L12.495 28.2273L12.7637 28.5632L12.9652 29.1678L12.898 29.7724L12.6293 30.1083L12.495 30.5785L12.0919 30.4442L9.06892 28.7647L8.93457 28.4289L9.20328 27.7571L9.67352 27.0853L9.74069 26.8838Z" fill="white"/>
<path d="M19.683 5.4541L20.7578 5.99152L21.967 6.66329L22.3029 6.99917V7.87248L21.8998 8.47707L21.6311 8.81295L21.228 8.94731L20.6235 8.88013L19.7502 8.34271L18.2051 7.46941L18.3394 7.40224L18.6753 7.53659V7.40224L19.0112 7.26788V7.06635L19.1456 6.99917L19.4143 6.0587L19.683 5.4541Z" fill="white"/>
<path d="M2.88867 26.8838L3.9635 27.2869L5.91163 28.3617L5.97881 28.496L5.57575 28.4289L5.37422 28.496L5.30704 28.6976L5.10551 28.8319L4.90398 30.0411L4.76962 30.4442L4.97115 30.7129L4.63527 30.5785L2.88867 29.638L2.28407 29.3022L2.14972 29.1006L2.28407 27.8914L2.55278 27.2197L2.61996 27.0181L2.88867 26.8838Z" fill="white"/>
<path d="M21.6982 26.8838L21.8997 27.0853L22.1684 28.4289L22.37 29.8396L22.6387 30.5114L22.9746 30.7801L23.2433 30.9144L23.3104 31.0488V31.519L22.8402 32.1236L22.3028 32.661L21.5638 33.1313L20.7577 33.4671L20.2875 33.5343L20.4218 33.2656L20.8921 32.5267L21.228 31.6534L21.2951 31.3175L21.3623 27.2869L21.5638 27.0181H21.6982V26.8838Z" fill="white"/>
<path d="M8.39714 3.70801H9.20326L9.6735 3.90954L11.2186 4.71566L11.1514 4.85002H11.017L10.9499 5.05155L10.6812 5.11873L10.4796 5.7905L10.0094 6.32791L9.74068 6.59662L9.80785 6.73098L9.40479 6.59662L7.79254 5.72332L7.38948 5.45461L7.25513 5.11873L7.3223 4.71566L7.65819 4.17825L7.9269 3.90954L8.19561 3.84236L8.39714 3.70801Z" fill="white"/>
<path d="M9.00173 21.1738L9.13608 21.241L9.20326 23.0548L9.60632 23.1891L10.614 23.7266L10.3453 23.9953L10.0766 24.5999L9.87503 24.9357H9.74068L9.60632 25.3388L8.66585 24.8686L7.25513 24.0624V23.0548L7.3223 22.6517L7.59101 22.5174L7.72537 22.383L7.85972 22.4502V22.2487L8.46431 21.6441H8.59867L8.66585 21.3754L9.00173 21.1738Z" fill="white"/>
<path d="M0.671771 13.9863H0.806125V14.1207L1.20919 14.0535L2.41837 14.6581L2.55273 14.7925V15.5986L1.7466 15.8001L1.67943 16.0688L1.20919 16.7406L0.873302 17.6811L0.537416 18.2185L0.335885 18.6887L0.268708 18.8231L0 18.7559V14.5237L0.335885 14.3894L0.671771 13.9863Z" fill="white"/>
<path d="M18.4737 8.74609L19.2126 9.14916L19.9516 9.6194L20.3546 9.95528L20.4218 10.224L20.2874 10.4255L20.0859 11.2316L19.75 12.0378L19.4141 12.2393L18.8096 12.3065L17.8691 11.4332L17.1301 10.8958L17.2645 10.8286L17.5332 10.7614L17.9363 10.0896L18.4065 9.0148L18.4737 8.74609Z" fill="white"/>
<path d="M10.5469 23.7939L10.8156 23.8611L12.3607 24.6672L13.0325 25.0703L12.7638 26.2795L12.6294 26.481L12.5622 26.6154L12.4279 26.7497L11.9576 26.6826L10.0095 25.6077L9.60645 25.339L9.67362 25.0703L9.94233 24.7344L10.211 24.197L10.4126 23.8611L10.5469 23.7939Z" fill="white"/>
<path d="M5.71002 5.99219H6.11308L6.78485 6.39525L6.6505 6.46243L6.44897 6.39525L6.24744 6.99984L5.97873 7.33573L5.37414 8.61209L5.1726 8.94798L5.03825 9.48539L4.70236 10.2243L4.56801 10.1572L4.43366 10.7618H4.23213L4.03059 11.3664L3.96342 12.2397H3.89624V9.82128L3.96342 8.61209L4.16495 8.20903L4.36648 7.87314L4.56801 7.40291H4.70236L4.83672 6.79831L5.10543 6.39525L5.71002 5.99219Z" fill="white"/>
<path d="M12.4951 1.55762L12.8982 1.69197L14.1074 2.36374L14.5776 2.63245L14.3089 2.69963L13.973 2.90116H13.7043L13.57 3.16987L13.0326 3.64011L12.831 3.97599L12.428 4.11035V4.2447L12.0921 4.11035L11.0172 3.50575V3.3714L10.7485 3.23704V3.03551H10.8829L10.9501 2.69963L11.3531 2.02786L11.6218 1.82633H11.8234V1.69197L12.4951 1.55762Z" fill="white"/>
<path d="M3.9635 4.98438L4.97116 5.38744L5.97882 5.92485L5.91164 6.05921L5.57575 6.12638L5.03834 6.52945L4.70245 7.40275H4.5681L4.36657 8.07452L4.09786 8.4104L4.03068 8.61194L3.9635 9.82112L3.89633 12.3739H3.82915V7.67146L3.49327 7.46993L3.22456 7.20122L2.88867 6.99969L2.95585 6.6638L3.0902 6.32792L3.22456 5.7905L3.49327 5.45461L3.6948 5.32026L3.82915 5.05155L3.9635 4.98438Z" fill="white"/>
<path d="M7.32237 29.2354L7.59108 29.3025L9.06897 30.1087L8.86744 30.1758L8.73308 31.5865L8.53155 32.3927V32.6614L8.19567 32.527L6.9193 31.8553L6.71777 31.7209L6.85213 30.3774L7.05366 29.8399L7.18801 29.3697L7.32237 29.2354Z" fill="white"/>
<path d="M7.72522 7.06641L8.39699 7.26794L9.40465 7.80535L9.20312 8.00688H9.06876L8.93441 8.34277L8.59853 8.74583L8.32982 9.4176L7.99393 9.82067L7.85958 10.1566L7.72522 10.2237L7.52369 10.6268L7.45652 10.4924V9.95502H7.32216L7.25498 9.48478L6.9191 9.35043L6.65039 9.08172V8.27559L6.98628 7.60382L7.72522 7.06641Z" fill="white"/>
<path d="M17.1974 30.8477L17.7348 31.1164V30.982L18.0707 31.1164L18.2722 31.3851L18.6081 32.4599L18.8096 33.3332L18.944 33.6019L19.1455 33.8034L19.2127 34.1393L18.8768 34.4752L18.3394 34.9455L18.1379 35.0126L17.9363 34.6767L17.3989 34.3409V34.2065L17.1302 34.1393L17.5333 33.8706L17.6004 33.4676L16.9958 33.1317L17.3317 32.7958L17.1974 31.1164V30.8477Z" fill="white"/>
<path d="M23.1761 13.7178L23.3104 13.8521L23.7135 14.9941L23.915 16.0018L23.9822 16.8751V18.353L23.915 22.2493H23.8478L23.7135 21.376L23.512 20.0324V19.8981H23.3776L23.2433 19.4278L23.1761 18.7561L23.2433 17.7484L23.0417 17.0766V15.5987L22.9745 14.6583H23.1089V13.9865L23.1761 13.7178Z" fill="white"/>
<path d="M17.8692 4.51367L18.2722 4.64803L19.6829 5.45415L19.6158 5.79004L19.2799 6.66334L19.1455 7.0664H19.0112V7.26793L18.6753 7.40229V7.53664L18.0707 7.40229L16.9958 6.79769L17.1302 6.73051L17.1974 6.32745L17.5333 5.99157L17.8692 5.52133L18.0035 5.05109V4.7152L17.8692 4.51367Z" fill="white"/>
<path d="M7.79258 25.8096L8.26282 25.8767L9.74072 26.6829L9.94225 26.8844H9.74072L9.67354 27.1531L9.27048 27.7577L9.00177 28.4295L9.06895 28.6982L8.73306 28.5638L7.32234 27.8249L7.18799 27.6234V27.2875L7.4567 26.75L7.52387 26.5485H7.65823L7.79258 25.8096Z" fill="white"/>
<path d="M5.7773 11.8359H5.84447L5.91165 12.5749V14.523H5.84447L5.7773 14.12L5.57577 14.3215L5.23988 14.7246L4.83682 15.3963L4.36658 15.9337L4.03069 16.2024L3.89634 16.8742H3.82916V16.3368L4.03069 14.8589L4.23222 14.3215L4.50093 13.381L5.03835 12.4405L5.37423 12.1046L5.7773 11.8359Z" fill="white"/>
<path d="M10.7484 8.74609L11.2186 8.81327L12.2934 9.41786L12.4278 9.55222L12.1591 9.75375L12.0247 10.4255L11.756 10.7614L11.4873 11.6347L11.6888 11.8362L11.6217 11.9706L9.94224 11.0301L9.87506 10.8286L10.0766 10.4927L10.4797 9.55222L10.614 9.0148L10.7484 8.74609Z" fill="white"/>
<path d="M11.1515 4.7832L11.4874 4.85038L11.9576 5.11909L12.0248 5.45497L12.2263 5.3878L12.3607 5.58933V5.79086H12.2263L12.1591 6.12674L11.7561 6.93287H11.6217L11.6889 7.20158L11.5545 7.47029H11.4202L11.353 7.67182L9.80794 6.79851L9.67358 6.52981H9.80794L9.87512 6.32828H10.0095L10.1438 6.05957L10.4125 5.79086L10.6141 5.25344L10.8156 5.05191L11.1515 4.7832Z" fill="white"/>
<path d="M5.71012 17.21H5.84447L5.91165 17.5458V20.7032H5.84447L5.7773 19.2253L5.57577 19.1581L4.97117 19.494H4.63529V19.6283L3.96352 19.5612L3.89634 19.8299L3.82916 19.2253V17.9489L4.03069 17.6802H4.23222L4.2994 17.5458H4.83682L5.71012 17.21Z" fill="white"/>
<path d="M24.3853 8.47754L24.654 8.61189L25.3258 9.28366L25.4602 9.61955L25.393 10.3585L25.1243 11.0303L24.654 12.6425L24.5197 13.3143H24.251L23.6464 12.0379L23.3777 11.5677L23.7136 11.5005L24.1166 10.9631L24.4525 10.2913L24.5197 9.28366L24.3853 8.47754Z" fill="white"/>
<path d="M21.8997 11.5674L22.2356 11.9033L22.5043 12.4407L22.4371 12.9781L22.1013 13.9858L21.9669 14.7919L21.7654 15.4637L21.3623 15.7995L21.0264 16.1354L20.489 14.7919L20.5562 14.6575L20.8249 14.5904L21.0264 14.1201L21.228 13.5155L21.5638 12.8437L21.8997 12.0376L21.9669 11.7689L21.8997 11.5674Z" fill="white"/>
<path d="M22.1685 6.86523L22.5716 6.99959L23.3777 7.537L23.2434 7.94007V9.08208L22.9747 9.68667L22.7059 9.82102H22.0342H21.8326L21.2281 9.28361L20.7578 8.94772L20.8922 8.88055L21.4968 8.81337L21.8326 8.47748L22.2357 7.87289V6.99959L22.1685 6.86523Z" fill="white"/>
<path d="M25.2587 26.5488L25.393 26.8175L25.5274 27.4221L25.5946 29.1016L25.7961 29.8405L26.0648 30.3107L25.9304 30.5795L25.2587 31.0497L24.5869 31.3856L24.0495 31.5871H23.848L23.9823 31.2512L24.5197 30.3779L24.7884 29.5046L24.99 28.4298L25.0571 26.7504L25.1243 26.9519H25.2587V26.5488Z" fill="white"/>
<path d="M2.14967 12.2393L2.41837 12.3064L2.48555 12.911L2.55273 13.0454V14.792L1.20919 14.1202H0.806125V13.9859L0.470239 14.2546L0.201531 14.5233H0V13.1797L0.537416 12.911L1.20919 13.1126L1.61225 13.2469L1.7466 13.1126L1.94813 13.1797L2.08249 12.7095L2.14967 12.2393Z" fill="white"/>
<path d="M9.60632 0.0126953L9.94221 0.0798724L10.5468 0.415758L10.3453 0.482935L10.0766 0.617289L9.6735 1.02035V1.42341L9.47197 1.82648L9.33762 2.43107L9.60632 2.69978L9.27044 2.56542L8.12843 1.96083L7.25513 1.49059L7.52384 1.22188L9.13608 0.348581L9.60632 0.0126953Z" fill="white"/>
<path d="M7.45668 2.90137L8.12846 3.03572L9.33764 3.70749L9.20329 3.77467H8.39716L8.06128 3.9762L7.79257 4.11055L7.52386 4.44644L7.32233 4.8495V5.25256V5.4541L6.38185 4.91668L6.2475 4.58079L6.38185 4.31209L6.44903 3.84185L6.85209 3.23725L7.25515 2.96854L7.45668 2.90137Z" fill="white"/>
<path d="M10.0094 4.24512L10.4796 4.31229L11.2186 4.71536L11.1514 4.84971H11.0171L10.9499 5.05124L10.6812 5.11842L10.4796 5.79019L10.0094 6.32761L9.74069 6.59631L9.80787 6.73067L9.4048 6.59631L8.80021 6.26043L8.73303 5.99172L8.80021 5.85737H8.93456L9.00174 5.58866L9.4048 5.05124L9.67351 4.64818L9.87504 4.581L9.94222 4.31229L10.0094 4.24512Z" fill="white"/>
<path d="M12.4951 1.55762L12.8982 1.69197L13.2341 1.8935L13.0326 1.96068V2.09503H12.831V2.22939H12.5623V2.43092L12.2936 2.4981L12.2264 2.90116L11.689 3.77446L11.0844 3.57293L11.0172 3.3714L10.7485 3.23704V3.03551H10.8829L10.9501 2.69963L11.3531 2.02786L11.6218 1.82633H11.8234V1.69197L12.4951 1.55762Z" fill="white"/>
<path d="M16.66 27.085L17.3318 27.4208L17.6005 27.6224L17.802 28.8987L17.7348 29.5705L17.4661 29.7049L16.5928 29.2346L16.7272 28.9659L16.5928 28.2941L16.5256 27.8911V27.488L16.66 27.085Z" fill="white"/>
<path d="M8.39714 3.70801H9.20326L9.47197 3.84236L8.66585 4.3126L8.32996 4.98437L8.26278 5.45461V5.92485L7.45666 5.52179L7.25513 5.25308V4.85002L7.59101 4.24542L7.9269 3.90954L8.19561 3.84236L8.39714 3.70801Z" fill="white"/>
<path d="M11.6888 5.05176L11.9575 5.18611L12.0919 5.45482H12.2934L12.3606 5.79071H12.2262L12.159 6.12659L11.756 6.93272H11.6216L11.6888 7.20142L11.5544 7.47013H11.4201L11.3529 7.67166L10.5468 7.20142L10.4796 6.99989L10.6811 6.93272L10.8155 6.59683L11.0842 6.32812L11.4873 5.58917L11.6888 5.05176Z" fill="white"/>
<path d="M10.211 0.416016L10.8156 0.55037L12.0248 1.22214L11.8904 1.28932L11.6217 1.15496H11.0843L10.4125 1.35649L10.0766 1.75956L9.8751 2.29697L9.74075 2.76721H9.60639L9.27051 2.36415L9.53922 1.49085L9.60639 1.35649V1.02061L9.8751 0.684724L10.211 0.416016Z" fill="white"/>
<path d="M7.72522 7.06641L8.26264 7.20076L8.12829 7.26794L7.99393 7.60382L7.59087 8.27559L7.52369 8.61148L7.32216 8.88019H7.05345V9.35043H6.9191L6.65039 9.08172V8.27559L6.98628 7.60382L7.72522 7.06641Z" fill="white"/>
<path d="M6.11314 2.02832L6.5162 2.16267L6.65055 2.22985L6.58338 2.36421L6.11314 2.43138L5.50854 2.76727L4.90395 3.23751L4.70242 3.64057V3.8421L5.0383 4.04363L4.90395 4.11081L3.82912 3.57339L3.69476 3.43904L4.56806 2.90162L6.11314 2.02832Z" fill="white"/>
<path d="M9.60632 0.0126953V0.214226L8.53149 0.885997L8.19561 1.62494V1.82648L8.32996 1.89365L8.26278 2.02801L7.25513 1.49059L7.52384 1.22188L9.13608 0.348581L9.60632 0.0126953Z" fill="white"/>
<path d="M21.1608 32.46L21.631 32.5943L21.6982 32.9302L21.2951 33.2661L20.5562 33.5348H20.2875L20.4218 33.2661L20.8249 32.6615L21.1608 32.46Z" fill="white"/>
<path d="M20.7578 8.88086H21.4296V9.08239L21.6311 9.14957L21.0937 9.21674L20.7578 8.88086Z" fill="white"/>
</g>
<rect x="0.107483" y="0.107483" width="107.268" height="35.6844" stroke="#13141A" stroke-width="0.214967"/>
<defs>
<clipPath id="clip0_17681_11699">
<rect width="107.483" height="35.8994" fill="white"/>
</clipPath>
</defs>
</svg>
