<svg width="326" height="1148" viewBox="0 0 326 1148" fill="none" xmlns="http://www.w3.org/2000/svg">
<rect x="38" y="87.5981" width="250.275" height="224.11" rx="22.7523" fill="#212228"/>
<rect x="38.5688" y="88.167" width="249.138" height="222.972" rx="22.1835" stroke="white" stroke-opacity="0.3" stroke-width="1.13761" stroke-dasharray="6.83 6.83"/>
<rect x="56.2021" y="163.82" width="102.385" height="125.138" rx="13.6514" fill="white" fill-opacity="0.08"/>
<rect x="67.5781" y="212.738" width="79.633" height="4.55046" rx="2.27523" fill="white" fill-opacity="0.16"/>
<rect x="67.5781" y="221.839" width="65.9817" height="4.55046" rx="2.27523" fill="white" fill-opacity="0.16"/>
<rect x="167.688" y="163.82" width="102.385" height="125.138" rx="13.6514" fill="white" fill-opacity="0.08"/>
<rect x="179.064" y="212.738" width="79.633" height="4.55046" rx="2.27523" fill="white" fill-opacity="0.16"/>
<rect x="179.064" y="221.839" width="65.9817" height="4.55046" rx="2.27523" fill="white" fill-opacity="0.16"/>
<rect x="67.5781" y="230.94" width="40.9541" height="4.55046" rx="2.27523" fill="white" fill-opacity="0.16"/>
<rect x="179.064" y="230.94" width="40.9541" height="4.55046" rx="2.27523" fill="white" fill-opacity="0.16"/>
<rect x="106.257" y="266.206" width="40.9541" height="4.55046" rx="2.27523" fill="white" fill-opacity="0.16"/>
<rect x="217.743" y="266.206" width="40.9541" height="4.55046" rx="2.27523" fill="white" fill-opacity="0.16"/>
<path d="M84.0984 200.022V186.931H86.0735V198.322H92.0053V200.022H84.0984ZM105.12 193.477C105.12 194.874 104.865 196.076 104.353 197.082C103.842 198.083 103.141 198.855 102.25 199.396C101.364 199.933 100.356 200.201 99.2267 200.201C98.0932 200.201 97.0811 199.933 96.1905 199.396C95.3042 198.855 94.6053 198.081 94.0939 197.075C93.5826 196.07 93.3269 194.87 93.3269 193.477C93.3269 192.079 93.5826 190.879 94.0939 189.878C94.6053 188.872 95.3042 188.101 96.1905 187.564C97.0811 187.023 98.0932 186.752 99.2267 186.752C100.356 186.752 101.364 187.023 102.25 187.564C103.141 188.101 103.842 188.872 104.353 189.878C104.865 190.879 105.12 192.079 105.12 193.477ZM103.164 193.477C103.164 192.411 102.992 191.514 102.646 190.786C102.306 190.053 101.837 189.499 101.24 189.124C100.648 188.745 99.9767 188.555 99.2267 188.555C98.4725 188.555 97.7992 188.745 97.2069 189.124C96.6145 189.499 96.1458 190.053 95.8006 190.786C95.4597 191.514 95.2892 192.411 95.2892 193.477C95.2892 194.542 95.4597 195.441 95.8006 196.174C96.1458 196.903 96.6145 197.457 97.2069 197.836C97.7992 198.211 98.4725 198.399 99.2267 198.399C99.9767 198.399 100.648 198.211 101.24 197.836C101.837 197.457 102.306 196.903 102.646 196.174C102.992 195.441 103.164 194.542 103.164 193.477ZM118.149 186.931V200.022H116.333L109.679 190.421H109.558V200.022H107.583V186.931H109.411L116.071 196.545H116.193V186.931H118.149ZM129.889 191.067C129.766 190.679 129.6 190.332 129.391 190.025C129.186 189.714 128.941 189.45 128.656 189.232C128.37 189.011 128.044 188.843 127.678 188.727C127.316 188.612 126.917 188.555 126.482 188.555C125.745 188.555 125.08 188.745 124.488 189.124C123.896 189.503 123.427 190.059 123.082 190.792C122.741 191.521 122.57 192.414 122.57 193.47C122.57 194.531 122.743 195.428 123.088 196.161C123.433 196.894 123.906 197.45 124.507 197.83C125.108 198.209 125.792 198.399 126.559 198.399C127.271 198.399 127.891 198.254 128.419 197.964C128.952 197.674 129.363 197.265 129.653 196.737C129.947 196.204 130.094 195.578 130.094 194.857L130.605 194.953H126.86V193.323H132.005V194.813C132.005 195.912 131.771 196.867 131.302 197.676C130.838 198.482 130.194 199.104 129.372 199.543C128.553 199.982 127.616 200.201 126.559 200.201C125.374 200.201 124.335 199.928 123.44 199.383C122.549 198.838 121.855 198.064 121.356 197.063C120.857 196.057 120.608 194.864 120.608 193.483C120.608 192.439 120.753 191.502 121.043 190.671C121.333 189.84 121.74 189.134 122.264 188.555C122.792 187.971 123.412 187.526 124.124 187.219C124.84 186.908 125.622 186.752 126.47 186.752C127.177 186.752 127.835 186.857 128.445 187.066C129.058 187.274 129.604 187.571 130.081 187.954C130.563 188.338 130.961 188.794 131.276 189.322C131.592 189.846 131.805 190.428 131.916 191.067H129.889Z" fill="#00B471"/>
<path d="M197.026 190.348C196.958 189.743 196.677 189.274 196.183 188.942C195.688 188.605 195.066 188.437 194.316 188.437C193.779 188.437 193.315 188.522 192.923 188.692C192.531 188.859 192.226 189.089 192.009 189.383C191.796 189.673 191.689 190.003 191.689 190.374C191.689 190.685 191.761 190.953 191.906 191.179C192.055 191.405 192.249 191.594 192.488 191.748C192.731 191.897 192.991 192.023 193.268 192.125C193.545 192.223 193.811 192.304 194.067 192.368L195.345 192.7C195.763 192.803 196.191 192.941 196.63 193.116C197.069 193.29 197.476 193.521 197.851 193.806C198.226 194.092 198.528 194.445 198.759 194.867C198.993 195.289 199.11 195.794 199.11 196.382C199.11 197.124 198.918 197.782 198.535 198.357C198.156 198.933 197.604 199.386 196.879 199.719C196.159 200.051 195.288 200.217 194.265 200.217C193.285 200.217 192.437 200.062 191.721 199.751C191.005 199.44 190.445 198.999 190.04 198.428C189.635 197.852 189.411 197.17 189.369 196.382H191.35C191.389 196.855 191.542 197.249 191.81 197.565C192.083 197.876 192.43 198.108 192.852 198.261C193.278 198.411 193.745 198.485 194.252 198.485C194.81 198.485 195.307 198.398 195.742 198.223C196.18 198.044 196.526 197.797 196.777 197.482C197.028 197.162 197.154 196.789 197.154 196.363C197.154 195.975 197.043 195.658 196.822 195.411C196.604 195.163 196.308 194.959 195.933 194.797C195.563 194.635 195.143 194.492 194.674 194.369L193.127 193.947C192.079 193.661 191.248 193.241 190.634 192.688C190.025 192.134 189.72 191.401 189.72 190.489C189.72 189.734 189.925 189.076 190.334 188.513C190.743 187.951 191.297 187.514 191.996 187.203C192.695 186.888 193.483 186.73 194.361 186.73C195.247 186.73 196.029 186.886 196.707 187.197C197.389 187.508 197.926 187.936 198.318 188.482C198.71 189.023 198.914 189.645 198.931 190.348H197.026ZM201.47 200V186.909H203.446V192.598H209.972V186.909H211.953V200H209.972V194.292H203.446V200H201.47ZM226.201 193.455C226.201 194.852 225.946 196.054 225.434 197.06C224.923 198.061 224.222 198.832 223.331 199.374C222.445 199.911 221.437 200.179 220.308 200.179C219.174 200.179 218.162 199.911 217.272 199.374C216.385 198.832 215.686 198.059 215.175 197.053C214.664 196.048 214.408 194.848 214.408 193.455C214.408 192.057 214.664 190.857 215.175 189.856C215.686 188.85 216.385 188.079 217.272 187.542C218.162 187.001 219.174 186.73 220.308 186.73C221.437 186.73 222.445 187.001 223.331 187.542C224.222 188.079 224.923 188.85 225.434 189.856C225.946 190.857 226.201 192.057 226.201 193.455ZM224.245 193.455C224.245 192.389 224.073 191.492 223.728 190.763C223.387 190.031 222.918 189.477 222.321 189.102C221.729 188.722 221.058 188.533 220.308 188.533C219.554 188.533 218.88 188.722 218.288 189.102C217.696 189.477 217.227 190.031 216.882 190.763C216.541 191.492 216.37 192.389 216.37 193.455C216.37 194.52 216.541 195.419 216.882 196.152C217.227 196.881 217.696 197.435 218.288 197.814C218.88 198.189 219.554 198.376 220.308 198.376C221.058 198.376 221.729 198.189 222.321 197.814C222.918 197.435 223.387 196.881 223.728 196.152C224.073 195.419 224.245 194.52 224.245 193.455ZM228.664 200V186.909H233.33C234.344 186.909 235.186 187.084 235.855 187.433C236.528 187.783 237.031 188.266 237.363 188.884C237.696 189.498 237.862 190.207 237.862 191.013C237.862 191.814 237.694 192.519 237.357 193.129C237.025 193.734 236.522 194.205 235.848 194.541C235.179 194.878 234.338 195.046 233.324 195.046H229.789V193.346H233.145C233.784 193.346 234.304 193.254 234.704 193.071C235.109 192.888 235.405 192.621 235.593 192.272C235.78 191.923 235.874 191.503 235.874 191.013C235.874 190.518 235.778 190.09 235.586 189.728C235.399 189.366 235.103 189.089 234.698 188.897C234.297 188.701 233.771 188.603 233.119 188.603H230.639V200H228.664ZM235.126 194.094L238.361 200H236.111L232.94 194.094H235.126ZM239.62 188.609V186.909H249.751V188.609H245.667V200H243.698V188.609H239.62Z" fill="#EE5F67"/>
<rect x="78.9546" width="168.367" height="39.8165" rx="13.6514" fill="white" fill-opacity="0.1"/>
<path d="M113.901 17.6008H112.403C112.315 17.1702 112.16 16.7919 111.939 16.4659C111.721 16.1399 111.456 15.8662 111.142 15.6449C110.832 15.4195 110.488 15.2505 110.109 15.1378C109.731 15.0251 109.337 14.9687 108.926 14.9687C108.178 14.9687 107.499 15.1579 106.892 15.5362C106.288 15.9145 105.807 16.4719 105.449 17.2084C105.095 17.9449 104.918 18.8485 104.918 19.919C104.918 20.9896 105.095 21.8931 105.449 22.6296C105.807 23.3661 106.288 23.9235 106.892 24.3018C107.499 24.6801 108.178 24.8693 108.926 24.8693C109.337 24.8693 109.731 24.813 110.109 24.7003C110.488 24.5876 110.832 24.4206 111.142 24.1992C111.456 23.9738 111.721 23.6981 111.939 23.3721C112.16 23.0421 112.315 22.6638 112.403 22.2372H113.901C113.788 22.8691 113.583 23.4345 113.285 23.9336C112.987 24.4326 112.617 24.8572 112.174 25.2074C111.731 25.5535 111.234 25.8171 110.683 25.9982C110.136 26.1793 109.55 26.2699 108.926 26.2699C107.872 26.2699 106.934 26.0123 106.113 25.4971C105.292 24.982 104.646 24.2495 104.175 23.2997C103.704 22.3499 103.469 21.223 103.469 19.919C103.469 18.615 103.704 17.4881 104.175 16.5383C104.646 15.5885 105.292 14.856 106.113 14.3409C106.934 13.8257 107.872 13.5682 108.926 13.5682C109.55 13.5682 110.136 13.6587 110.683 13.8398C111.234 14.0209 111.731 14.2866 112.174 14.6367C112.617 14.9828 112.987 15.4054 113.285 15.9045C113.583 16.3995 113.788 16.9649 113.901 17.6008ZM117.551 20.5227V26.1008H116.127V13.7372H117.551V18.277H117.672C117.89 17.798 118.216 17.4177 118.65 17.136C119.089 16.8502 119.672 16.7074 120.401 16.7074C121.033 16.7074 121.586 16.8341 122.061 17.0877C122.536 17.3372 122.904 17.7216 123.166 18.2407C123.431 18.7559 123.564 19.4119 123.564 20.2088V26.1008H122.14V20.3054C122.14 19.5689 121.948 18.9994 121.566 18.5969C121.188 18.1904 120.662 17.9872 119.99 17.9872C119.524 17.9872 119.105 18.0858 118.735 18.283C118.368 18.4802 118.079 18.768 117.865 19.1463C117.656 19.5246 117.551 19.9834 117.551 20.5227ZM129.938 26.294C129.101 26.294 128.366 26.0948 127.734 25.6964C127.106 25.2979 126.615 24.7405 126.261 24.0241C125.911 23.3077 125.736 22.4706 125.736 21.5128C125.736 20.5469 125.911 19.7037 126.261 18.9833C126.615 18.2629 127.106 17.7035 127.734 17.305C128.366 16.9066 129.101 16.7074 129.938 16.7074C130.775 16.7074 131.507 16.9066 132.135 17.305C132.767 17.7035 133.258 18.2629 133.608 18.9833C133.962 19.7037 134.139 20.5469 134.139 21.5128C134.139 22.4706 133.962 23.3077 133.608 24.0241C133.258 24.7405 132.767 25.2979 132.135 25.6964C131.507 26.0948 130.775 26.294 129.938 26.294ZM129.938 25.0142C130.574 25.0142 131.097 24.8512 131.507 24.5252C131.918 24.1992 132.222 23.7706 132.419 23.2393C132.616 22.7081 132.715 22.1326 132.715 21.5128C132.715 20.893 132.616 20.3154 132.419 19.7802C132.222 19.2449 131.918 18.8122 131.507 18.4822C131.097 18.1522 130.574 17.9872 129.938 17.9872C129.302 17.9872 128.779 18.1522 128.368 18.4822C127.958 18.8122 127.654 19.2449 127.457 19.7802C127.259 20.3154 127.161 20.893 127.161 21.5128C127.161 22.1326 127.259 22.7081 127.457 23.2393C127.654 23.7706 127.958 24.1992 128.368 24.5252C128.779 24.8512 129.302 25.0142 129.938 25.0142ZM140.081 26.294C139.244 26.294 138.51 26.0948 137.878 25.6964C137.25 25.2979 136.759 24.7405 136.405 24.0241C136.055 23.3077 135.88 22.4706 135.88 21.5128C135.88 20.5469 136.055 19.7037 136.405 18.9833C136.759 18.2629 137.25 17.7035 137.878 17.305C138.51 16.9066 139.244 16.7074 140.081 16.7074C140.918 16.7074 141.651 16.9066 142.279 17.305C142.911 17.7035 143.402 18.2629 143.752 18.9833C144.106 19.7037 144.283 20.5469 144.283 21.5128C144.283 22.4706 144.106 23.3077 143.752 24.0241C143.402 24.7405 142.911 25.2979 142.279 25.6964C141.651 26.0948 140.918 26.294 140.081 26.294ZM140.081 25.0142C140.717 25.0142 141.24 24.8512 141.651 24.5252C142.061 24.1992 142.365 23.7706 142.562 23.2393C142.76 22.7081 142.858 22.1326 142.858 21.5128C142.858 20.893 142.76 20.3154 142.562 19.7802C142.365 19.2449 142.061 18.8122 141.651 18.4822C141.24 18.1522 140.717 17.9872 140.081 17.9872C139.445 17.9872 138.922 18.1522 138.512 18.4822C138.101 18.8122 137.797 19.2449 137.6 19.7802C137.403 20.3154 137.304 20.893 137.304 21.5128C137.304 22.1326 137.403 22.7081 137.6 23.2393C137.797 23.7706 138.101 24.1992 138.512 24.5252C138.922 24.8512 139.445 25.0142 140.081 25.0142ZM153.026 18.9048L151.746 19.267C151.666 19.0537 151.547 18.8465 151.39 18.6452C151.237 18.44 151.028 18.2709 150.762 18.1381C150.496 18.0053 150.156 17.9389 149.742 17.9389C149.174 17.9389 148.702 18.0697 148.323 18.3313C147.949 18.5889 147.762 18.9169 147.762 19.3153C147.762 19.6695 147.891 19.9492 148.148 20.1545C148.406 20.3597 148.808 20.5308 149.356 20.6676L150.732 21.0057C151.561 21.2069 152.179 21.5148 152.585 21.9293C152.992 22.3398 153.195 22.8691 153.195 23.517C153.195 24.0483 153.042 24.5232 152.736 24.9417C152.434 25.3603 152.012 25.6903 151.468 25.9318C150.925 26.1733 150.293 26.294 149.573 26.294C148.627 26.294 147.844 26.0888 147.224 25.6782C146.605 25.2677 146.212 24.6681 146.047 23.8792L147.4 23.5412C147.528 24.0402 147.772 24.4145 148.13 24.664C148.492 24.9136 148.965 25.0383 149.549 25.0383C150.213 25.0383 150.74 24.8975 151.13 24.6157C151.525 24.33 151.722 23.9879 151.722 23.5895C151.722 23.2675 151.609 22.9978 151.384 22.7805C151.159 22.5592 150.812 22.3942 150.346 22.2855L148.8 21.9233C147.951 21.722 147.327 21.4101 146.929 20.9875C146.534 20.5609 146.337 20.0277 146.337 19.3878C146.337 18.8646 146.484 18.4017 146.778 17.9993C147.076 17.5968 147.48 17.2809 147.991 17.0515C148.506 16.8221 149.09 16.7074 149.742 16.7074C150.659 16.7074 151.38 16.9086 151.903 17.3111C152.43 17.7135 152.805 18.2448 153.026 18.9048ZM159.227 26.294C158.334 26.294 157.563 26.0968 156.915 25.7024C156.271 25.304 155.774 24.7486 155.424 24.0362C155.078 23.3198 154.905 22.4867 154.905 21.5369C154.905 20.5871 155.078 19.75 155.424 19.0255C155.774 18.2971 156.261 17.7296 156.885 17.3231C157.513 16.9126 158.245 16.7074 159.083 16.7074C159.565 16.7074 160.042 16.7879 160.513 16.9488C160.984 17.1098 161.413 17.3714 161.799 17.7336C162.186 18.0918 162.493 18.5667 162.723 19.1584C162.952 19.75 163.067 20.4784 163.067 21.3437V21.9474H155.919V20.7159H161.618C161.618 20.1927 161.513 19.7258 161.304 19.3153C161.099 18.9048 160.805 18.5808 160.423 18.3434C160.044 18.1059 159.598 17.9872 159.083 17.9872C158.515 17.9872 158.024 18.1281 157.61 18.4098C157.199 18.6875 156.883 19.0497 156.662 19.4964C156.44 19.9432 156.33 20.4221 156.33 20.9332V21.7542C156.33 22.4545 156.45 23.0482 156.692 23.5351C156.937 24.0181 157.277 24.3863 157.712 24.6399C158.147 24.8894 158.652 25.0142 159.227 25.0142C159.602 25.0142 159.94 24.9619 160.242 24.8572C160.547 24.7486 160.811 24.5876 161.032 24.3743C161.254 24.1569 161.425 23.8873 161.546 23.5653L162.922 23.9517C162.777 24.4185 162.534 24.829 162.192 25.1832C161.849 25.5334 161.427 25.807 160.924 26.0042C160.421 26.1974 159.855 26.294 159.227 26.294ZM170.015 29.5781V16.8281H171.392V18.3011H171.561C171.665 18.1401 171.81 17.9349 171.996 17.6853C172.185 17.4318 172.454 17.2064 172.804 17.0092C173.159 16.808 173.638 16.7074 174.241 16.7074C175.022 16.7074 175.71 16.9026 176.306 17.2929C176.902 17.6833 177.366 18.2367 177.7 18.9531C178.034 19.6695 178.201 20.5147 178.201 21.4886C178.201 22.4706 178.034 23.3218 177.7 24.0422C177.366 24.7586 176.904 25.314 176.312 25.7084C175.72 26.0988 175.038 26.294 174.265 26.294C173.67 26.294 173.193 26.1954 172.835 25.9982C172.476 25.797 172.201 25.5696 172.008 25.316C171.814 25.0585 171.665 24.8451 171.561 24.6761H171.44V29.5781H170.015ZM171.416 21.4645C171.416 22.1648 171.519 22.7825 171.724 23.3178C171.929 23.8491 172.229 24.2656 172.623 24.5674C173.018 24.8653 173.501 25.0142 174.072 25.0142C174.668 25.0142 175.165 24.8572 175.563 24.5433C175.966 24.2254 176.268 23.7987 176.469 23.2635C176.674 22.7242 176.777 22.1245 176.777 21.4645C176.777 20.8125 176.676 20.2249 176.475 19.7017C176.278 19.1745 175.978 18.7579 175.575 18.452C175.177 18.1421 174.676 17.9872 174.072 17.9872C173.493 17.9872 173.006 18.1341 172.611 18.4279C172.217 18.7177 171.919 19.1241 171.718 19.6473C171.517 20.1665 171.416 20.7722 171.416 21.4645ZM180.375 26.1008V16.8281H181.751V18.2287H181.848C182.017 17.7699 182.323 17.3976 182.765 17.1118C183.208 16.8261 183.707 16.6832 184.263 16.6832C184.367 16.6832 184.498 16.6852 184.655 16.6893C184.812 16.6933 184.931 16.6993 185.011 16.7074V18.1562C184.963 18.1442 184.852 18.126 184.679 18.1019C184.51 18.0737 184.331 18.0596 184.142 18.0596C183.691 18.0596 183.289 18.1542 182.934 18.3434C182.584 18.5285 182.307 18.7861 182.101 19.1161C181.9 19.4421 181.799 19.8144 181.799 20.2329V26.1008H180.375ZM190.185 26.294C189.348 26.294 188.613 26.0948 187.981 25.6964C187.353 25.2979 186.862 24.7405 186.508 24.0241C186.158 23.3077 185.983 22.4706 185.983 21.5128C185.983 20.5469 186.158 19.7037 186.508 18.9833C186.862 18.2629 187.353 17.7035 187.981 17.305C188.613 16.9066 189.348 16.7074 190.185 16.7074C191.022 16.7074 191.754 16.9066 192.382 17.305C193.014 17.7035 193.505 18.2629 193.855 18.9833C194.209 19.7037 194.386 20.5469 194.386 21.5128C194.386 22.4706 194.209 23.3077 193.855 24.0241C193.505 24.7405 193.014 25.2979 192.382 25.6964C191.754 26.0948 191.022 26.294 190.185 26.294ZM190.185 25.0142C190.821 25.0142 191.344 24.8512 191.754 24.5252C192.165 24.1992 192.469 23.7706 192.666 23.2393C192.863 22.7081 192.962 22.1326 192.962 21.5128C192.962 20.893 192.863 20.3154 192.666 19.7802C192.469 19.2449 192.165 18.8122 191.754 18.4822C191.344 18.1522 190.821 17.9872 190.185 17.9872C189.549 17.9872 189.026 18.1522 188.615 18.4822C188.205 18.8122 187.901 19.2449 187.704 19.7802C187.506 20.3154 187.408 20.893 187.408 21.5128C187.408 22.1326 187.506 22.7081 187.704 23.2393C187.901 23.7706 188.205 24.1992 188.615 24.5252C189.026 24.8512 189.549 25.0142 190.185 25.0142ZM196.561 16.8281H197.986V26.777C197.986 27.3485 197.887 27.8435 197.69 28.2621C197.497 28.6806 197.203 29.0046 196.809 29.234C196.418 29.4634 195.925 29.5781 195.33 29.5781C195.281 29.5781 195.233 29.5781 195.185 29.5781C195.137 29.5781 195.088 29.5781 195.04 29.5781V28.25C195.088 28.25 195.133 28.25 195.173 28.25C195.213 28.25 195.257 28.25 195.306 28.25C195.74 28.25 196.058 28.1212 196.259 27.8636C196.461 27.6101 196.561 27.2478 196.561 26.777V16.8281ZM197.262 15.2826C196.984 15.2826 196.744 15.1881 196.543 14.9989C196.346 14.8098 196.247 14.5824 196.247 14.3167C196.247 14.0511 196.346 13.8237 196.543 13.6346C196.744 13.4454 196.984 13.3508 197.262 13.3508C197.539 13.3508 197.777 13.4454 197.974 13.6346C198.175 13.8237 198.276 14.0511 198.276 14.3167C198.276 14.5824 198.175 14.8098 197.974 14.9989C197.777 15.1881 197.539 15.2826 197.262 15.2826ZM204.483 26.294C203.59 26.294 202.819 26.0968 202.171 25.7024C201.527 25.304 201.03 24.7486 200.68 24.0362C200.334 23.3198 200.161 22.4867 200.161 21.5369C200.161 20.5871 200.334 19.75 200.68 19.0255C201.03 18.2971 201.517 17.7296 202.141 17.3231C202.769 16.9126 203.501 16.7074 204.338 16.7074C204.821 16.7074 205.298 16.7879 205.769 16.9488C206.24 17.1098 206.669 17.3714 207.055 17.7336C207.441 18.0918 207.749 18.5667 207.979 19.1584C208.208 19.75 208.323 20.4784 208.323 21.3437V21.9474H201.175V20.7159H206.874C206.874 20.1927 206.769 19.7258 206.56 19.3153C206.355 18.9048 206.061 18.5808 205.679 18.3434C205.3 18.1059 204.854 17.9872 204.338 17.9872C203.771 17.9872 203.28 18.1281 202.865 18.4098C202.455 18.6875 202.139 19.0497 201.918 19.4964C201.696 19.9432 201.586 20.4221 201.586 20.9332V21.7542C201.586 22.4545 201.706 23.0482 201.948 23.5351C202.193 24.0181 202.533 24.3863 202.968 24.6399C203.403 24.8894 203.908 25.0142 204.483 25.0142C204.858 25.0142 205.196 24.9619 205.497 24.8572C205.803 24.7486 206.067 24.5876 206.288 24.3743C206.51 24.1569 206.681 23.8873 206.801 23.5653L208.178 23.9517C208.033 24.4185 207.789 24.829 207.447 25.1832C207.105 25.5334 206.683 25.807 206.18 26.0042C205.677 26.1974 205.111 26.294 204.483 26.294ZM214.257 26.294C213.388 26.294 212.639 26.0888 212.011 25.6782C211.383 25.2677 210.901 24.7023 210.562 23.9819C210.224 23.2615 210.055 22.4384 210.055 21.5128C210.055 20.571 210.228 19.7399 210.575 19.0195C210.925 18.2951 211.412 17.7296 212.035 17.3231C212.663 16.9126 213.396 16.7074 214.233 16.7074C214.885 16.7074 215.472 16.8281 215.996 17.0696C216.519 17.3111 216.948 17.6491 217.282 18.0838C217.616 18.5184 217.823 19.0255 217.903 19.6051H216.479C216.37 19.1825 216.129 18.8082 215.754 18.4822C215.384 18.1522 214.885 17.9872 214.257 17.9872C213.702 17.9872 213.215 18.1321 212.796 18.4219C212.382 18.7076 212.058 19.1121 211.824 19.6353C211.595 20.1545 211.48 20.7642 211.48 21.4645C211.48 22.1808 211.593 22.8047 211.818 23.3359C212.048 23.8672 212.37 24.2797 212.784 24.5735C213.203 24.8673 213.694 25.0142 214.257 25.0142C214.627 25.0142 214.963 24.9498 215.265 24.821C215.567 24.6922 215.823 24.5071 216.032 24.2656C216.241 24.0241 216.39 23.7344 216.479 23.3963H217.903C217.823 23.9436 217.624 24.4366 217.306 24.8753C216.992 25.31 216.575 25.6561 216.056 25.9137C215.541 26.1672 214.941 26.294 214.257 26.294ZM224.019 16.8281V18.0355H219.213V16.8281H224.019ZM220.614 14.6065H222.039V23.4446C222.039 23.847 222.097 24.1489 222.214 24.3501C222.334 24.5473 222.487 24.6801 222.673 24.7486C222.862 24.813 223.061 24.8451 223.27 24.8451C223.427 24.8451 223.556 24.8371 223.657 24.821C223.757 24.8009 223.838 24.7848 223.898 24.7727L224.188 26.0525C224.091 26.0888 223.956 26.125 223.783 26.1612C223.61 26.2014 223.391 26.2216 223.125 26.2216C222.723 26.2216 222.328 26.135 221.942 25.962C221.56 25.7889 221.242 25.5253 220.988 25.1711C220.739 24.817 220.614 24.3702 220.614 23.8309V14.6065Z" fill="white"/>
<rect x="121.046" y="105.798" width="85.3211" height="32.9908" rx="11.3761" fill="white" fill-opacity="0.1"/>
<path d="M140.963 126.624H137.597V115.715H141.113C142.171 115.715 143.076 115.933 143.829 116.37C144.582 116.803 145.159 117.427 145.56 118.24C145.962 119.049 146.162 120.019 146.162 121.148C146.162 122.285 145.96 123.263 145.555 124.083C145.15 124.9 144.561 125.528 143.787 125.969C143.012 126.406 142.071 126.624 140.963 126.624ZM138.918 125.452H140.878C141.78 125.452 142.528 125.278 143.121 124.93C143.714 124.582 144.156 124.087 144.447 123.444C144.738 122.801 144.884 122.036 144.884 121.148C144.884 120.267 144.74 119.509 144.452 118.874C144.165 118.234 143.735 117.744 143.163 117.403C142.592 117.059 141.88 116.887 141.027 116.887H138.918V125.452ZM151.638 126.794C150.85 126.794 150.17 126.62 149.598 126.272C149.03 125.921 148.591 125.431 148.282 124.802C147.977 124.17 147.824 123.435 147.824 122.597C147.824 121.759 147.977 121.02 148.282 120.381C148.591 119.738 149.021 119.238 149.571 118.879C150.125 118.517 150.772 118.336 151.51 118.336C151.936 118.336 152.357 118.407 152.773 118.549C153.188 118.691 153.566 118.922 153.907 119.241C154.248 119.557 154.52 119.976 154.722 120.498C154.925 121.02 155.026 121.663 155.026 122.427V122.959H148.719V121.873H153.747C153.747 121.411 153.655 120.999 153.47 120.637C153.289 120.275 153.03 119.989 152.693 119.779C152.359 119.57 151.965 119.465 151.51 119.465C151.01 119.465 150.576 119.589 150.211 119.838C149.848 120.083 149.57 120.402 149.374 120.797C149.179 121.191 149.081 121.613 149.081 122.064V122.789C149.081 123.407 149.188 123.93 149.401 124.36C149.617 124.786 149.918 125.111 150.301 125.335C150.685 125.555 151.13 125.665 151.638 125.665C151.968 125.665 152.267 125.619 152.533 125.527C152.803 125.431 153.035 125.289 153.231 125.101C153.426 124.909 153.577 124.671 153.684 124.387L154.898 124.728C154.77 125.14 154.555 125.502 154.254 125.814C153.952 126.123 153.579 126.365 153.135 126.539C152.691 126.709 152.192 126.794 151.638 126.794ZM156.938 129.692V118.442H158.153V119.742H158.302C158.394 119.6 158.522 119.419 158.685 119.199C158.852 118.975 159.09 118.776 159.399 118.602C159.712 118.424 160.134 118.336 160.667 118.336C161.356 118.336 161.963 118.508 162.489 118.852C163.014 119.197 163.424 119.685 163.719 120.317C164.014 120.949 164.161 121.695 164.161 122.554C164.161 123.421 164.014 124.172 163.719 124.808C163.424 125.44 163.016 125.93 162.494 126.278C161.972 126.622 161.37 126.794 160.688 126.794C160.163 126.794 159.742 126.707 159.426 126.533C159.11 126.356 158.866 126.155 158.696 125.932C158.526 125.704 158.394 125.516 158.302 125.367H158.195V129.692H156.938ZM158.174 122.533C158.174 123.151 158.265 123.696 158.446 124.168C158.627 124.637 158.891 125.005 159.239 125.271C159.587 125.534 160.013 125.665 160.518 125.665C161.043 125.665 161.482 125.527 161.833 125.25C162.189 124.969 162.455 124.593 162.632 124.12C162.814 123.645 162.904 123.116 162.904 122.533C162.904 121.958 162.815 121.439 162.638 120.978C162.464 120.513 162.199 120.145 161.844 119.875C161.492 119.602 161.05 119.465 160.518 119.465C160.006 119.465 159.577 119.595 159.229 119.854C158.881 120.109 158.618 120.468 158.44 120.93C158.263 121.388 158.174 121.922 158.174 122.533ZM169.403 126.794C168.664 126.794 168.016 126.619 167.458 126.267C166.904 125.916 166.471 125.424 166.159 124.792C165.85 124.16 165.695 123.421 165.695 122.576C165.695 121.723 165.85 120.979 166.159 120.344C166.471 119.708 166.904 119.215 167.458 118.863C168.016 118.511 168.664 118.336 169.403 118.336C170.141 118.336 170.788 118.511 171.342 118.863C171.899 119.215 172.332 119.708 172.641 120.344C172.954 120.979 173.11 121.723 173.11 122.576C173.11 123.421 172.954 124.16 172.641 124.792C172.332 125.424 171.899 125.916 171.342 126.267C170.788 126.619 170.141 126.794 169.403 126.794ZM169.403 125.665C169.964 125.665 170.425 125.521 170.788 125.234C171.15 124.946 171.418 124.568 171.592 124.099C171.766 123.63 171.853 123.123 171.853 122.576C171.853 122.029 171.766 121.519 171.592 121.047C171.418 120.575 171.15 120.193 170.788 119.902C170.425 119.611 169.964 119.465 169.403 119.465C168.842 119.465 168.38 119.611 168.018 119.902C167.655 120.193 167.387 120.575 167.213 121.047C167.039 121.519 166.952 122.029 166.952 122.576C166.952 123.123 167.039 123.63 167.213 124.099C167.387 124.568 167.655 124.946 168.018 125.234C168.38 125.521 168.842 125.665 169.403 125.665ZM180.824 120.275L179.695 120.594C179.624 120.406 179.519 120.223 179.381 120.046C179.246 119.864 179.061 119.715 178.827 119.598C178.593 119.481 178.292 119.422 177.927 119.422C177.426 119.422 177.009 119.538 176.675 119.769C176.345 119.996 176.18 120.285 176.18 120.637C176.18 120.949 176.293 121.196 176.52 121.377C176.748 121.558 177.103 121.709 177.586 121.83L178.8 122.128C179.532 122.306 180.077 122.578 180.436 122.943C180.794 123.305 180.974 123.772 180.974 124.344C180.974 124.813 180.839 125.232 180.569 125.601C180.302 125.971 179.93 126.262 179.45 126.475C178.971 126.688 178.413 126.794 177.778 126.794C176.943 126.794 176.252 126.613 175.705 126.251C175.159 125.889 174.812 125.36 174.667 124.664L175.86 124.366C175.974 124.806 176.188 125.136 176.504 125.356C176.824 125.576 177.241 125.687 177.756 125.687C178.342 125.687 178.807 125.562 179.152 125.314C179.5 125.062 179.674 124.76 179.674 124.408C179.674 124.124 179.574 123.886 179.376 123.694C179.177 123.499 178.871 123.353 178.459 123.258L177.096 122.938C176.346 122.76 175.796 122.485 175.444 122.112C175.096 121.736 174.922 121.265 174.922 120.701C174.922 120.239 175.052 119.831 175.311 119.476C175.574 119.12 175.931 118.842 176.382 118.639C176.837 118.437 177.351 118.336 177.927 118.336C178.736 118.336 179.372 118.513 179.834 118.868C180.299 119.223 180.629 119.692 180.824 120.275ZM182.866 126.624V118.442H184.123V126.624H182.866ZM183.505 117.079C183.26 117.079 183.049 116.995 182.871 116.828C182.697 116.661 182.61 116.461 182.61 116.226C182.61 115.992 182.697 115.791 182.871 115.624C183.049 115.457 183.26 115.374 183.505 115.374C183.75 115.374 183.96 115.457 184.134 115.624C184.311 115.791 184.4 115.992 184.4 116.226C184.4 116.461 184.311 116.661 184.134 116.828C183.96 116.995 183.75 117.079 183.505 117.079ZM189.984 118.442V119.508H185.744V118.442H189.984ZM186.979 116.482H188.237V124.28C188.237 124.635 188.288 124.902 188.391 125.079C188.498 125.253 188.633 125.37 188.796 125.431C188.963 125.488 189.139 125.516 189.323 125.516C189.462 125.516 189.575 125.509 189.664 125.495C189.753 125.477 189.824 125.463 189.877 125.452L190.133 126.581C190.048 126.613 189.929 126.645 189.776 126.677C189.623 126.713 189.43 126.731 189.195 126.731C188.84 126.731 188.492 126.654 188.151 126.502C187.814 126.349 187.533 126.116 187.31 125.804C187.09 125.491 186.979 125.097 186.979 124.621V116.482Z" fill="white"/>
<path d="M162.494 76.8653C162.85 77.2207 163.426 77.2207 163.781 76.8653L169.573 71.0735C169.928 70.7181 169.928 70.1419 169.573 69.7865C169.218 69.4311 168.641 69.4311 168.286 69.7865L163.138 74.9347L157.989 69.7865C157.634 69.4311 157.058 69.4311 156.702 69.7865C156.347 70.1419 156.347 70.7181 156.702 71.0735L162.494 76.8653ZM162.228 43.231L162.228 76.2218L164.048 76.2218L164.048 43.231L162.228 43.231Z" fill="#BCBCC3"/>
<path d="M162.494 357.874C162.85 358.23 163.426 358.23 163.781 357.874L169.573 352.083C169.928 351.727 169.928 351.151 169.573 350.796C169.218 350.44 168.641 350.44 168.286 350.796L163.138 355.944L157.989 350.796C157.634 350.44 157.058 350.44 156.702 350.796C156.347 351.151 156.347 351.727 156.702 352.083L162.494 357.874ZM162.228 316.231L162.228 357.231L164.048 357.231L164.048 316.231L162.228 316.231Z" fill="#BCBCC3"/>
<path d="M107.481 161.457C107.747 161.723 108.179 161.723 108.446 161.457L112.79 157.113C113.056 156.846 113.056 156.414 112.79 156.148C112.523 155.881 112.091 155.881 111.824 156.148L107.963 160.009L104.102 156.148C103.835 155.881 103.403 155.881 103.137 156.148C102.87 156.414 102.87 156.846 103.137 157.113L107.481 161.457ZM107.963 122.864L107.963 122.181L107.281 122.181L107.281 122.864L107.963 122.864ZM119.908 122.181L107.963 122.181L107.963 123.547L119.908 123.547L119.908 122.181ZM107.281 122.864L107.281 160.974L108.646 160.974L108.646 122.864L107.281 122.864Z" fill="#BCBCC3"/>
<path d="M222.777 160.888C222.51 161.155 222.078 161.155 221.811 160.888L217.467 156.544C217.201 156.278 217.201 155.845 217.467 155.579C217.734 155.312 218.166 155.312 218.433 155.579L222.294 159.44L226.155 155.579C226.422 155.312 226.854 155.312 227.12 155.579C227.387 155.845 227.387 156.278 227.12 156.544L222.777 160.888ZM222.294 122.864L222.294 122.181L222.976 122.181L222.976 122.864L222.294 122.864ZM207.505 122.181L222.294 122.181L222.294 123.547L207.505 123.547L207.505 122.181ZM222.976 122.864L222.976 160.405L221.611 160.405L221.611 122.864L222.976 122.864Z" fill="#BCBCC3"/>
<rect x="139.816" y="89.3025" width="3.41284" height="45.5046" rx="1.70642" transform="rotate(-90 139.816 89.3025)" fill="#3961FB"/>
<circle cx="163.138" cy="87.5961" r="6.25688" transform="rotate(-90 163.138 87.5961)" fill="#2E3038"/>
<circle cx="163.137" cy="87.5961" r="2.84404" transform="rotate(-90 163.137 87.5961)" fill="white"/>
<rect x="139.816" y="312.449" width="3.41284" height="45.5046" rx="1.70642" transform="rotate(-90 139.816 312.449)" fill="#3961FB"/>
<circle cx="163.138" cy="310.743" r="6.25688" transform="rotate(-90 163.138 310.743)" fill="#2E3038"/>
<circle cx="163.137" cy="310.743" r="2.84404" transform="rotate(-90 163.137 310.743)" fill="white"/>
<rect x="37.7246" y="923.597" width="250.275" height="224.11" rx="22.7523" fill="#212228"/>
<rect x="38.2934" y="924.166" width="249.138" height="222.972" rx="22.1835" stroke="white" stroke-opacity="0.3" stroke-width="1.13761" stroke-dasharray="6.83 6.83"/>
<rect x="70.7158" y="1097.65" width="184.294" height="32.9908" rx="11.3761" fill="white" fill-opacity="0.08"/>
<rect x="77.5405" y="835.998" width="172.917" height="39.8165" rx="13.6514" fill="white" fill-opacity="0.1"/>
<path d="M111.594 853.498H110.097C110.009 853.068 109.854 852.689 109.632 852.363C109.415 852.037 109.15 851.764 108.836 851.542C108.526 851.317 108.182 851.148 107.803 851.035C107.425 850.923 107.031 850.866 106.62 850.866C105.871 850.866 105.193 851.055 104.586 851.434C103.982 851.812 103.501 852.369 103.143 853.106C102.789 853.842 102.612 854.746 102.612 855.816C102.612 856.887 102.789 857.791 103.143 858.527C103.501 859.264 103.982 859.821 104.586 860.199C105.193 860.578 105.871 860.767 106.62 860.767C107.031 860.767 107.425 860.71 107.803 860.598C108.182 860.485 108.526 860.318 108.836 860.097C109.15 859.871 109.415 859.596 109.632 859.27C109.854 858.94 110.009 858.561 110.097 858.135H111.594C111.482 858.767 111.277 859.332 110.979 859.831C110.681 860.33 110.311 860.755 109.868 861.105C109.425 861.451 108.928 861.715 108.377 861.896C107.829 862.077 107.244 862.167 106.62 862.167C105.566 862.167 104.628 861.91 103.807 861.395C102.986 860.879 102.34 860.147 101.869 859.197C101.398 858.247 101.163 857.12 101.163 855.816C101.163 854.512 101.398 853.386 101.869 852.436C102.34 851.486 102.986 850.753 103.807 850.238C104.628 849.723 105.566 849.466 106.62 849.466C107.244 849.466 107.829 849.556 108.377 849.737C108.928 849.918 109.425 850.184 109.868 850.534C110.311 850.88 110.681 851.303 110.979 851.802C111.277 852.297 111.482 852.862 111.594 853.498ZM115.245 849.635V861.998H113.821V849.635H115.245ZM121.622 862.191C120.785 862.191 120.05 861.992 119.418 861.594C118.79 861.195 118.299 860.638 117.945 859.922C117.595 859.205 117.42 858.368 117.42 857.41C117.42 856.444 117.595 855.601 117.945 854.881C118.299 854.16 118.79 853.601 119.418 853.202C120.05 852.804 120.785 852.605 121.622 852.605C122.459 852.605 123.191 852.804 123.819 853.202C124.451 853.601 124.942 854.16 125.292 854.881C125.646 855.601 125.824 856.444 125.824 857.41C125.824 858.368 125.646 859.205 125.292 859.922C124.942 860.638 124.451 861.195 123.819 861.594C123.191 861.992 122.459 862.191 121.622 862.191ZM121.622 860.912C122.258 860.912 122.781 860.749 123.191 860.423C123.602 860.097 123.906 859.668 124.103 859.137C124.3 858.606 124.399 858.03 124.399 857.41C124.399 856.79 124.3 856.213 124.103 855.678C123.906 855.142 123.602 854.71 123.191 854.38C122.781 854.05 122.258 853.885 121.622 853.885C120.986 853.885 120.463 854.05 120.052 854.38C119.642 854.71 119.338 855.142 119.141 855.678C118.943 856.213 118.845 856.79 118.845 857.41C118.845 858.03 118.943 858.606 119.141 859.137C119.338 859.668 119.642 860.097 120.052 860.423C120.463 860.749 120.986 860.912 121.622 860.912ZM134.566 854.802L133.287 855.164C133.206 854.951 133.087 854.744 132.93 854.543C132.778 854.337 132.568 854.168 132.303 854.036C132.037 853.903 131.697 853.836 131.282 853.836C130.715 853.836 130.242 853.967 129.864 854.229C129.489 854.486 129.302 854.814 129.302 855.213C129.302 855.567 129.431 855.847 129.689 856.052C129.946 856.257 130.349 856.428 130.896 856.565L132.272 856.903C133.102 857.104 133.719 857.412 134.126 857.827C134.532 858.237 134.736 858.767 134.736 859.414C134.736 859.946 134.583 860.421 134.277 860.839C133.975 861.258 133.552 861.588 133.009 861.829C132.466 862.071 131.834 862.191 131.113 862.191C130.168 862.191 129.385 861.986 128.765 861.576C128.145 861.165 127.753 860.566 127.588 859.777L128.94 859.439C129.069 859.938 129.312 860.312 129.671 860.562C130.033 860.811 130.506 860.936 131.089 860.936C131.753 860.936 132.281 860.795 132.671 860.513C133.065 860.227 133.263 859.885 133.263 859.487C133.263 859.165 133.15 858.895 132.924 858.678C132.699 858.457 132.353 858.292 131.886 858.183L130.341 857.821C129.491 857.62 128.868 857.308 128.469 856.885C128.075 856.458 127.878 855.925 127.878 855.285C127.878 854.762 128.024 854.299 128.318 853.897C128.616 853.494 129.021 853.178 129.532 852.949C130.047 852.72 130.63 852.605 131.282 852.605C132.2 852.605 132.92 852.806 133.444 853.209C133.971 853.611 134.345 854.142 134.566 854.802ZM140.768 862.191C139.874 862.191 139.104 861.994 138.456 861.6C137.812 861.201 137.315 860.646 136.965 859.934C136.619 859.217 136.445 858.384 136.445 857.434C136.445 856.485 136.619 855.647 136.965 854.923C137.315 854.195 137.802 853.627 138.426 853.221C139.053 852.81 139.786 852.605 140.623 852.605C141.106 852.605 141.583 852.685 142.054 852.846C142.525 853.007 142.953 853.269 143.34 853.631C143.726 853.989 144.034 854.464 144.263 855.056C144.493 855.647 144.607 856.376 144.607 857.241V857.845H137.46V856.613H143.159C143.159 856.09 143.054 855.623 142.845 855.213C142.639 854.802 142.346 854.478 141.963 854.241C141.585 854.003 141.138 853.885 140.623 853.885C140.056 853.885 139.565 854.026 139.15 854.307C138.74 854.585 138.424 854.947 138.202 855.394C137.981 855.841 137.87 856.32 137.87 856.831V857.652C137.87 858.352 137.991 858.946 138.232 859.433C138.478 859.916 138.818 860.284 139.253 860.537C139.687 860.787 140.192 860.912 140.768 860.912C141.142 860.912 141.48 860.859 141.782 860.755C142.088 860.646 142.352 860.485 142.573 860.272C142.794 860.054 142.965 859.785 143.086 859.463L144.463 859.849C144.318 860.316 144.074 860.727 143.732 861.081C143.39 861.431 142.967 861.704 142.464 861.902C141.961 862.095 141.396 862.191 140.768 862.191ZM155.323 862.191C154.486 862.191 153.751 861.992 153.119 861.594C152.492 861.195 152.001 860.638 151.646 859.922C151.296 859.205 151.121 858.368 151.121 857.41C151.121 856.444 151.296 855.601 151.646 854.881C152.001 854.16 152.492 853.601 153.119 853.202C153.751 852.804 154.486 852.605 155.323 852.605C156.16 852.605 156.893 852.804 157.52 853.202C158.152 853.601 158.643 854.16 158.993 854.881C159.348 855.601 159.525 856.444 159.525 857.41C159.525 858.368 159.348 859.205 158.993 859.922C158.643 860.638 158.152 861.195 157.52 861.594C156.893 861.992 156.16 862.191 155.323 862.191ZM155.323 860.912C155.959 860.912 156.482 860.749 156.893 860.423C157.303 860.097 157.607 859.668 157.804 859.137C158.001 858.606 158.1 858.03 158.1 857.41C158.1 856.79 158.001 856.213 157.804 855.678C157.607 855.142 157.303 854.71 156.893 854.38C156.482 854.05 155.959 853.885 155.323 853.885C154.687 853.885 154.164 854.05 153.753 854.38C153.343 854.71 153.039 855.142 152.842 855.678C152.645 856.213 152.546 856.79 152.546 857.41C152.546 858.03 152.645 858.606 152.842 859.137C153.039 859.668 153.343 860.097 153.753 860.423C154.164 860.749 154.687 860.912 155.323 860.912ZM161.699 865.476V852.726H163.076V854.199H163.245C163.35 854.038 163.494 853.832 163.68 853.583C163.869 853.329 164.138 853.104 164.489 852.907C164.843 852.705 165.322 852.605 165.925 852.605C166.706 852.605 167.394 852.8 167.99 853.19C168.586 853.581 169.05 854.134 169.385 854.851C169.719 855.567 169.886 856.412 169.886 857.386C169.886 858.368 169.719 859.219 169.385 859.94C169.05 860.656 168.588 861.211 167.996 861.606C167.404 861.996 166.722 862.191 165.949 862.191C165.354 862.191 164.877 862.093 164.519 861.896C164.161 861.694 163.885 861.467 163.692 861.213C163.498 860.956 163.35 860.743 163.245 860.574H163.124V865.476H161.699ZM163.1 857.362C163.1 858.062 163.203 858.68 163.408 859.215C163.613 859.747 163.913 860.163 164.307 860.465C164.702 860.763 165.185 860.912 165.756 860.912C166.352 860.912 166.849 860.755 167.247 860.441C167.65 860.123 167.952 859.696 168.153 859.161C168.358 858.622 168.461 858.022 168.461 857.362C168.461 856.71 168.36 856.122 168.159 855.599C167.962 855.072 167.662 854.655 167.259 854.349C166.861 854.04 166.36 853.885 165.756 853.885C165.177 853.885 164.69 854.032 164.295 854.325C163.901 854.615 163.603 855.022 163.402 855.545C163.201 856.064 163.1 856.67 163.1 857.362ZM175.947 862.191C175.053 862.191 174.282 861.994 173.634 861.6C172.991 861.201 172.494 860.646 172.143 859.934C171.797 859.217 171.624 858.384 171.624 857.434C171.624 856.485 171.797 855.647 172.143 854.923C172.494 854.195 172.98 853.627 173.604 853.221C174.232 852.81 174.965 852.605 175.802 852.605C176.285 852.605 176.762 852.685 177.233 852.846C177.703 853.007 178.132 853.269 178.518 853.631C178.905 853.989 179.213 854.464 179.442 855.056C179.671 855.647 179.786 856.376 179.786 857.241V857.845H172.638V856.613H178.337C178.337 856.09 178.233 855.623 178.023 855.213C177.818 854.802 177.524 854.478 177.142 854.241C176.764 854.003 176.317 853.885 175.802 853.885C175.234 853.885 174.743 854.026 174.329 854.307C173.918 854.585 173.602 854.947 173.381 855.394C173.16 855.841 173.049 856.32 173.049 856.831V857.652C173.049 858.352 173.17 858.946 173.411 859.433C173.657 859.916 173.997 860.284 174.431 860.537C174.866 860.787 175.371 860.912 175.947 860.912C176.321 860.912 176.659 860.859 176.961 860.755C177.267 860.646 177.53 860.485 177.752 860.272C177.973 860.054 178.144 859.785 178.265 859.463L179.641 859.849C179.496 860.316 179.253 860.727 178.911 861.081C178.569 861.431 178.146 861.704 177.643 861.902C177.14 862.095 176.574 862.191 175.947 862.191ZM181.953 861.998V852.726H183.33V854.126H183.426C183.595 853.667 183.901 853.295 184.344 853.009C184.787 852.724 185.286 852.581 185.841 852.581C185.946 852.581 186.077 852.583 186.234 852.587C186.391 852.591 186.509 852.597 186.59 852.605V854.054C186.541 854.042 186.431 854.024 186.258 853.999C186.089 853.971 185.91 853.957 185.72 853.957C185.27 853.957 184.867 854.052 184.513 854.241C184.163 854.426 183.885 854.684 183.68 855.014C183.479 855.34 183.378 855.712 183.378 856.13V861.998H181.953ZM191.007 862.216C190.42 862.216 189.886 862.105 189.407 861.884C188.929 861.658 188.548 861.334 188.267 860.912C187.985 860.485 187.844 859.97 187.844 859.366C187.844 858.835 187.949 858.404 188.158 858.074C188.367 857.74 188.647 857.479 188.997 857.289C189.347 857.1 189.733 856.959 190.156 856.867C190.583 856.77 191.011 856.694 191.442 856.637C192.005 856.565 192.462 856.511 192.812 856.474C193.166 856.434 193.424 856.368 193.585 856.275C193.75 856.183 193.833 856.022 193.833 855.792V855.744C193.833 855.148 193.67 854.686 193.344 854.356C193.022 854.026 192.533 853.861 191.877 853.861C191.196 853.861 190.663 854.009 190.277 854.307C189.89 854.605 189.619 854.923 189.462 855.261L188.11 854.778C188.351 854.215 188.673 853.776 189.075 853.462C189.482 853.144 189.925 852.923 190.404 852.798C190.887 852.669 191.361 852.605 191.828 852.605C192.126 852.605 192.468 852.641 192.855 852.713C193.245 852.782 193.621 852.925 193.983 853.142C194.35 853.359 194.654 853.687 194.895 854.126C195.137 854.565 195.257 855.152 195.257 855.889V861.998H193.833V860.743H193.76C193.664 860.944 193.503 861.159 193.277 861.389C193.052 861.618 192.752 861.813 192.378 861.974C192.003 862.135 191.547 862.216 191.007 862.216ZM191.225 860.936C191.788 860.936 192.263 860.825 192.649 860.604C193.04 860.382 193.334 860.097 193.531 859.747C193.732 859.396 193.833 859.028 193.833 858.642V857.338C193.772 857.41 193.639 857.477 193.434 857.537C193.233 857.593 192.999 857.644 192.734 857.688C192.472 857.728 192.217 857.764 191.967 857.797C191.722 857.825 191.522 857.849 191.369 857.869C190.999 857.917 190.653 857.996 190.331 858.104C190.013 858.209 189.756 858.368 189.558 858.581C189.365 858.791 189.269 859.076 189.269 859.439C189.269 859.934 189.452 860.308 189.818 860.562C190.188 860.811 190.657 860.936 191.225 860.936ZM201.89 852.726V853.933H197.085V852.726H201.89ZM198.486 850.504H199.91V859.342C199.91 859.745 199.969 860.046 200.085 860.248C200.206 860.445 200.359 860.578 200.544 860.646C200.733 860.71 200.932 860.743 201.142 860.743C201.299 860.743 201.428 860.735 201.528 860.718C201.629 860.698 201.709 860.682 201.77 860.67L202.059 861.95C201.963 861.986 201.828 862.022 201.655 862.059C201.482 862.099 201.263 862.119 200.997 862.119C200.594 862.119 200.2 862.033 199.814 861.859C199.431 861.686 199.113 861.423 198.86 861.069C198.61 860.714 198.486 860.268 198.486 859.728V850.504ZM204.033 861.998V852.726H205.458V861.998H204.033ZM204.758 851.18C204.48 851.18 204.241 851.086 204.04 850.896C203.842 850.707 203.744 850.48 203.744 850.214C203.744 849.949 203.842 849.721 204.04 849.532C204.241 849.343 204.48 849.248 204.758 849.248C205.036 849.248 205.273 849.343 205.47 849.532C205.671 849.721 205.772 849.949 205.772 850.214C205.772 850.48 205.671 850.707 205.47 850.896C205.273 851.086 205.036 851.18 204.758 851.18ZM211.835 862.191C210.998 862.191 210.263 861.992 209.631 861.594C209.003 861.195 208.512 860.638 208.158 859.922C207.808 859.205 207.633 858.368 207.633 857.41C207.633 856.444 207.808 855.601 208.158 854.881C208.512 854.16 209.003 853.601 209.631 853.202C210.263 852.804 210.998 852.605 211.835 852.605C212.672 852.605 213.404 852.804 214.032 853.202C214.664 853.601 215.155 854.16 215.505 854.881C215.859 855.601 216.036 856.444 216.036 857.41C216.036 858.368 215.859 859.205 215.505 859.922C215.155 860.638 214.664 861.195 214.032 861.594C213.404 861.992 212.672 862.191 211.835 862.191ZM211.835 860.912C212.471 860.912 212.994 860.749 213.404 860.423C213.815 860.097 214.119 859.668 214.316 859.137C214.513 858.606 214.612 858.03 214.612 857.41C214.612 856.79 214.513 856.213 214.316 855.678C214.119 855.142 213.815 854.71 213.404 854.38C212.994 854.05 212.471 853.885 211.835 853.885C211.199 853.885 210.676 854.05 210.265 854.38C209.855 854.71 209.551 855.142 209.354 855.678C209.156 856.213 209.058 856.79 209.058 857.41C209.058 858.03 209.156 858.606 209.354 859.137C209.551 859.668 209.855 860.097 210.265 860.423C210.676 860.749 211.199 860.912 211.835 860.912ZM219.636 856.42V861.998H218.211V852.726H219.588V854.174H219.708C219.926 853.704 220.256 853.325 220.698 853.039C221.141 852.75 221.713 852.605 222.413 852.605C223.041 852.605 223.59 852.734 224.061 852.991C224.532 853.245 224.898 853.631 225.16 854.15C225.421 854.665 225.552 855.317 225.552 856.106V861.998H224.127V856.203C224.127 855.474 223.938 854.907 223.56 854.5C223.182 854.09 222.662 853.885 222.002 853.885C221.548 853.885 221.141 853.983 220.783 854.18C220.429 854.378 220.149 854.665 219.944 855.044C219.739 855.422 219.636 855.881 219.636 856.42Z" fill="white"/>
<path d="M162.219 915.139C162.574 915.495 163.15 915.495 163.506 915.139L169.298 909.348C169.653 908.992 169.653 908.416 169.298 908.06C168.942 907.705 168.366 907.705 168.011 908.06L162.862 913.209L157.714 908.06C157.359 907.705 156.782 907.705 156.427 908.06C156.072 908.416 156.072 908.992 156.427 909.348L162.219 915.139ZM161.952 879.23L161.952 914.496L163.772 914.496L163.772 879.23L161.952 879.23Z" fill="#BCBCC3"/>
<path d="M162.38 1094.72C162.646 1094.99 163.078 1094.99 163.345 1094.72L167.689 1090.38C167.955 1090.11 167.955 1089.68 167.689 1089.41C167.422 1089.15 166.99 1089.15 166.723 1089.41L162.862 1093.27L159.001 1089.41C158.735 1089.15 158.302 1089.15 158.036 1089.41C157.769 1089.68 157.769 1090.11 158.036 1090.38L162.38 1094.72ZM162.18 1065.8L162.18 1094.24L163.545 1094.24L163.545 1065.8L162.18 1065.8Z" fill="#BCBCC3"/>
<rect x="111.67" y="937.247" width="102.385" height="125.138" rx="13.6514" fill="white" fill-opacity="0.08"/>
<path d="M138.445 960.359H140.688L144.108 966.31H144.249L147.669 960.359H149.912L145.163 968.31V973.449H143.194V968.31L138.445 960.359ZM162.481 966.904C162.481 968.302 162.225 969.503 161.714 970.509C161.202 971.511 160.501 972.282 159.611 972.823C158.724 973.36 157.716 973.628 156.587 973.628C155.454 973.628 154.441 973.36 153.551 972.823C152.665 972.282 151.966 971.508 151.454 970.503C150.943 969.497 150.687 968.297 150.687 966.904C150.687 965.506 150.943 964.307 151.454 963.305C151.966 962.3 152.665 961.528 153.551 960.991C154.441 960.45 155.454 960.18 156.587 960.18C157.716 960.18 158.724 960.45 159.611 960.991C160.501 961.528 161.202 962.3 161.714 963.305C162.225 964.307 162.481 965.506 162.481 966.904ZM160.525 966.904C160.525 965.839 160.352 964.942 160.007 964.213C159.666 963.48 159.197 962.926 158.601 962.551C158.008 962.172 157.337 961.982 156.587 961.982C155.833 961.982 155.16 962.172 154.567 962.551C153.975 962.926 153.506 963.48 153.161 964.213C152.82 964.942 152.65 965.839 152.65 966.904C152.65 967.969 152.82 968.868 153.161 969.601C153.506 970.33 153.975 970.884 154.567 971.263C155.16 971.638 155.833 971.826 156.587 971.826C157.337 971.826 158.008 971.638 158.601 971.263C159.197 970.884 159.666 970.33 160.007 969.601C160.352 968.868 160.525 967.969 160.525 966.904ZM173.361 960.359H175.343V968.969C175.343 969.885 175.128 970.697 174.697 971.404C174.267 972.107 173.662 972.661 172.882 973.066C172.102 973.467 171.188 973.667 170.14 973.667C169.096 973.667 168.184 973.467 167.404 973.066C166.624 972.661 166.019 972.107 165.589 971.404C165.158 970.697 164.943 969.885 164.943 968.969V960.359H166.918V968.809C166.918 969.401 167.048 969.927 167.308 970.388C167.572 970.848 167.945 971.21 168.427 971.474C168.908 971.734 169.479 971.864 170.14 971.864C170.805 971.864 171.378 971.734 171.859 971.474C172.345 971.21 172.716 970.848 172.972 970.388C173.231 969.927 173.361 969.401 173.361 968.809V960.359ZM178.215 973.449V960.359H182.881C183.895 960.359 184.737 960.533 185.406 960.883C186.079 961.232 186.582 961.716 186.914 962.334C187.247 962.947 187.413 963.657 187.413 964.462C187.413 965.263 187.244 965.969 186.908 966.578C186.575 967.183 186.073 967.654 185.399 967.991C184.73 968.327 183.889 968.496 182.874 968.496H179.34V966.795H182.695C183.335 966.795 183.854 966.704 184.255 966.52C184.66 966.337 184.956 966.071 185.144 965.721C185.331 965.372 185.425 964.952 185.425 964.462C185.425 963.968 185.329 963.54 185.137 963.177C184.95 962.815 184.653 962.538 184.249 962.346C183.848 962.15 183.322 962.052 182.67 962.052H180.19V973.449H178.215ZM184.677 967.543L187.911 973.449H185.661L182.491 967.543H184.677Z" fill="white"/>
<path d="M145.136 1000.45V984.449H150.839C152.084 984.449 153.115 984.676 153.933 985.129C154.75 985.582 155.362 986.202 155.769 986.989C156.175 987.77 156.378 988.65 156.378 989.629C156.378 990.614 156.172 991.499 155.761 992.285C155.354 993.067 154.74 993.686 153.917 994.145C153.099 994.598 152.071 994.824 150.831 994.824H146.909V992.778H150.612C151.399 992.778 152.037 992.642 152.526 992.371C153.016 992.095 153.375 991.72 153.604 991.246C153.834 990.772 153.948 990.233 153.948 989.629C153.948 989.025 153.834 988.489 153.604 988.02C153.375 987.551 153.013 987.184 152.519 986.918C152.029 986.653 151.383 986.52 150.581 986.52H147.55V1000.45H145.136ZM161.356 993.324V1000.45H159.021V988.449H161.263V990.403H161.411C161.687 989.767 162.119 989.257 162.708 988.871C163.302 988.486 164.049 988.293 164.95 988.293C165.768 988.293 166.484 988.465 167.099 988.809C167.713 989.147 168.19 989.653 168.528 990.324C168.867 990.996 169.036 991.827 169.036 992.817V1000.45H166.7V993.098C166.7 992.228 166.474 991.548 166.021 991.059C165.567 990.564 164.945 990.317 164.153 990.317C163.612 990.317 163.13 990.434 162.708 990.668C162.291 990.903 161.961 991.246 161.716 991.699C161.476 992.147 161.356 992.689 161.356 993.324ZM172.356 1000.45V984.449H174.771V998.371H182.021V1000.45H172.356Z" fill="#00B471"/>
<path d="M131.85 1119.48L128.867 1108.57H130.21L132.49 1117.45H132.596L134.919 1108.57H136.41L138.733 1117.45H138.839L141.119 1108.57H142.461L139.478 1119.48H138.115L135.707 1110.78H135.622L133.214 1119.48H131.85ZM143.937 1119.48V1111.29H145.194V1119.48H143.937ZM144.576 1109.93C144.331 1109.93 144.12 1109.85 143.942 1109.68C143.768 1109.51 143.681 1109.31 143.681 1109.08C143.681 1108.84 143.768 1108.64 143.942 1108.48C144.12 1108.31 144.331 1108.23 144.576 1108.23C144.821 1108.23 145.03 1108.31 145.204 1108.48C145.382 1108.64 145.471 1108.84 145.471 1109.08C145.471 1109.31 145.382 1109.51 145.204 1109.68C145.03 1109.85 144.821 1109.93 144.576 1109.93ZM151.055 1111.29V1112.36H146.814V1111.29H151.055ZM148.05 1109.33H149.307V1117.13C149.307 1117.49 149.359 1117.75 149.462 1117.93C149.568 1118.11 149.703 1118.22 149.867 1118.28C150.034 1118.34 150.209 1118.37 150.394 1118.37C150.532 1118.37 150.646 1118.36 150.735 1118.35C150.824 1118.33 150.895 1118.32 150.948 1118.3L151.204 1119.43C151.118 1119.47 150.999 1119.5 150.847 1119.53C150.694 1119.57 150.501 1119.58 150.266 1119.58C149.911 1119.58 149.563 1119.51 149.222 1119.35C148.885 1119.2 148.604 1118.97 148.381 1118.66C148.16 1118.34 148.05 1117.95 148.05 1117.47V1109.33ZM154.378 1114.55V1119.48H153.121V1108.57H154.378V1112.57H154.485C154.677 1112.15 154.964 1111.82 155.348 1111.57C155.735 1111.31 156.25 1111.19 156.893 1111.19C157.45 1111.19 157.938 1111.3 158.357 1111.52C158.776 1111.74 159.101 1112.08 159.332 1112.54C159.567 1113 159.684 1113.57 159.684 1114.28V1119.48H158.427V1114.36C158.427 1113.71 158.258 1113.21 157.921 1112.86C157.587 1112.5 157.123 1112.32 156.53 1112.32C156.118 1112.32 155.749 1112.4 155.422 1112.58C155.099 1112.75 154.844 1113.01 154.655 1113.34C154.471 1113.67 154.378 1114.08 154.378 1114.55ZM165.073 1119.65C164.391 1119.65 163.789 1119.48 163.267 1119.13C162.745 1118.78 162.337 1118.29 162.042 1117.66C161.747 1117.02 161.6 1116.27 161.6 1115.41C161.6 1114.55 161.747 1113.8 162.042 1113.17C162.337 1112.54 162.747 1112.05 163.273 1111.71C163.798 1111.36 164.405 1111.19 165.094 1111.19C165.627 1111.19 166.048 1111.28 166.357 1111.45C166.669 1111.63 166.907 1111.83 167.071 1112.05C167.237 1112.27 167.367 1112.45 167.459 1112.59H167.566V1108.57H168.823V1119.48H167.609V1118.22H167.459C167.367 1118.37 167.236 1118.56 167.065 1118.78C166.895 1119.01 166.652 1119.21 166.335 1119.39C166.019 1119.56 165.599 1119.65 165.073 1119.65ZM165.244 1118.52C165.748 1118.52 166.174 1118.39 166.522 1118.12C166.87 1117.86 167.134 1117.49 167.316 1117.02C167.497 1116.55 167.587 1116 167.587 1115.39C167.587 1114.78 167.498 1114.24 167.321 1113.78C167.143 1113.32 166.881 1112.96 166.533 1112.71C166.185 1112.45 165.755 1112.32 165.244 1112.32C164.711 1112.32 164.267 1112.45 163.912 1112.73C163.56 1113 163.296 1113.37 163.118 1113.83C162.944 1114.29 162.857 1114.81 162.857 1115.39C162.857 1115.97 162.946 1116.5 163.123 1116.97C163.305 1117.45 163.571 1117.82 163.922 1118.1C164.278 1118.38 164.718 1118.52 165.244 1118.52ZM171.3 1119.48V1111.29H172.514V1112.53H172.6C172.749 1112.13 173.019 1111.8 173.409 1111.55C173.8 1111.29 174.24 1111.17 174.73 1111.17C174.823 1111.17 174.938 1111.17 175.077 1111.17C175.215 1111.18 175.32 1111.18 175.391 1111.19V1112.47C175.348 1112.46 175.251 1112.44 175.098 1112.42C174.949 1112.39 174.791 1112.38 174.624 1112.38C174.226 1112.38 173.871 1112.47 173.559 1112.63C173.25 1112.8 173.005 1113.02 172.823 1113.31C172.646 1113.6 172.557 1113.93 172.557 1114.3V1119.48H171.3ZM179.289 1119.67C178.77 1119.67 178.3 1119.57 177.877 1119.38C177.455 1119.18 177.119 1118.89 176.87 1118.52C176.622 1118.14 176.498 1117.69 176.498 1117.15C176.498 1116.69 176.59 1116.31 176.775 1116.01C176.959 1115.72 177.206 1115.49 177.515 1115.32C177.824 1115.16 178.165 1115.03 178.538 1114.95C178.914 1114.86 179.292 1114.8 179.672 1114.75C180.169 1114.68 180.572 1114.63 180.881 1114.6C181.194 1114.57 181.421 1114.51 181.563 1114.43C181.709 1114.35 181.782 1114.2 181.782 1114V1113.96C181.782 1113.43 181.638 1113.02 181.35 1112.73C181.066 1112.44 180.635 1112.3 180.056 1112.3C179.456 1112.3 178.985 1112.43 178.644 1112.69C178.303 1112.95 178.064 1113.23 177.925 1113.53L176.732 1113.11C176.945 1112.61 177.229 1112.22 177.584 1111.94C177.943 1111.66 178.333 1111.47 178.756 1111.36C179.182 1111.25 179.601 1111.19 180.013 1111.19C180.276 1111.19 180.578 1111.22 180.919 1111.28C181.263 1111.34 181.595 1111.47 181.915 1111.66C182.238 1111.85 182.506 1112.14 182.719 1112.53C182.932 1112.92 183.039 1113.44 183.039 1114.09V1119.48H181.782V1118.37H181.718C181.632 1118.55 181.49 1118.74 181.292 1118.94C181.093 1119.14 180.828 1119.31 180.498 1119.46C180.168 1119.6 179.765 1119.67 179.289 1119.67ZM179.48 1118.54C179.978 1118.54 180.397 1118.44 180.738 1118.25C181.082 1118.05 181.341 1117.8 181.515 1117.49C181.693 1117.18 181.782 1116.86 181.782 1116.52V1115.36C181.728 1115.43 181.611 1115.49 181.43 1115.54C181.252 1115.59 181.047 1115.63 180.812 1115.67C180.581 1115.71 180.356 1115.74 180.136 1115.77C179.919 1115.79 179.743 1115.82 179.608 1115.83C179.282 1115.88 178.976 1115.95 178.692 1116.04C178.412 1116.13 178.184 1116.27 178.01 1116.46C177.84 1116.65 177.755 1116.9 177.755 1117.22C177.755 1117.66 177.916 1117.99 178.239 1118.21C178.566 1118.43 178.98 1118.54 179.48 1118.54ZM187.187 1119.48L184.694 1111.29H186.015L187.783 1117.56H187.869L189.616 1111.29H190.958L192.684 1117.54H192.769L194.538 1111.29H195.859L193.366 1119.48H192.13L190.34 1113.19H190.212L188.423 1119.48H187.187Z" fill="white"/>
<rect x="124.184" y="1015.74" width="79.633" height="4.55046" rx="2.27523" fill="white" fill-opacity="0.16"/>
<rect x="124.184" y="1024.84" width="56.8807" height="4.55046" rx="2.27523" fill="white" fill-opacity="0.16"/>
<rect x="124.184" y="1033.95" width="34.1284" height="4.55046" rx="2.27523" fill="white" fill-opacity="0.16"/>
<rect x="140" y="925.444" width="3.41284" height="45.5046" rx="1.70642" transform="rotate(-90 140 925.444)" fill="#3961FB"/>
<circle cx="163.321" cy="923.737" r="6.25688" transform="rotate(-90 163.321 923.737)" fill="#2E3038"/>
<circle cx="163.321" cy="923.737" r="2.84404" transform="rotate(-90 163.321 923.737)" fill="white"/>
<path d="M162.494 832.875C162.85 833.23 163.426 833.23 163.781 832.875L169.573 827.083C169.928 826.728 169.928 826.152 169.573 825.796C169.218 825.441 168.641 825.441 168.286 825.796L163.138 830.944L157.989 825.796C157.634 825.441 157.058 825.441 156.702 825.796C156.347 826.152 156.347 826.728 156.702 827.083L162.494 832.875ZM162.228 791.231L162.228 832.231L164.048 832.231L164.048 791.231L162.228 791.231Z" fill="#BCBCC3"/>
<rect x="0.568807" y="365.569" width="324.862" height="419.862" rx="22.1835" fill="#1E2232" stroke="#3961FB" stroke-width="1.13761" stroke-dasharray="6.83 6.83"/>
<rect x="171.569" y="703.569" width="138.862" height="51.8624" rx="15.3578" stroke="white" stroke-opacity="0.3" stroke-width="1.13761" stroke-dasharray="4.55 4.55"/>
<rect x="175" y="708" width="132" height="44" rx="11.3761" fill="white" fill-opacity="0.1"/>
<path d="M189.796 725.242V723.636H199.364V725.242H195.507V736H193.648V725.242H189.796ZM200.371 736V726.727H202.116V728.2H202.212C202.381 727.701 202.679 727.309 203.106 727.023C203.537 726.733 204.023 726.588 204.567 726.588C204.679 726.588 204.812 726.592 204.965 726.6C205.122 726.609 205.245 726.619 205.333 726.631V728.357C205.261 728.337 205.132 728.315 204.947 728.291C204.762 728.263 204.577 728.249 204.392 728.249C203.965 728.249 203.585 728.339 203.251 728.52C202.921 728.697 202.659 728.945 202.466 729.263C202.273 729.577 202.176 729.935 202.176 730.337V736H200.371ZM209.511 736.205C208.923 736.205 208.392 736.097 207.917 735.879C207.442 735.658 207.066 735.338 206.788 734.919C206.515 734.501 206.378 733.988 206.378 733.38C206.378 732.857 206.479 732.426 206.68 732.088C206.881 731.75 207.153 731.482 207.495 731.285C207.837 731.088 208.219 730.939 208.642 730.838C209.064 730.738 209.495 730.661 209.934 730.609C210.489 730.545 210.94 730.492 211.286 730.452C211.632 730.408 211.884 730.337 212.041 730.241C212.197 730.144 212.276 729.987 212.276 729.77V729.728C212.276 729.2 212.127 728.792 211.829 728.502C211.535 728.212 211.097 728.067 210.513 728.067C209.905 728.067 209.427 728.202 209.076 728.472C208.73 728.738 208.491 729.033 208.358 729.359L206.662 728.973C206.863 728.41 207.157 727.955 207.543 727.609C207.933 727.259 208.382 727.005 208.889 726.848C209.396 726.687 209.93 726.607 210.489 726.607C210.859 726.607 211.252 726.651 211.666 726.739C212.085 726.824 212.475 726.981 212.837 727.21C213.204 727.44 213.503 727.768 213.737 728.194C213.97 728.617 214.087 729.166 214.087 729.842V736H212.324V734.732H212.252C212.135 734.966 211.96 735.195 211.727 735.42C211.493 735.646 211.193 735.833 210.827 735.982C210.461 736.131 210.022 736.205 209.511 736.205ZM209.903 734.756C210.403 734.756 210.829 734.658 211.183 734.461C211.541 734.263 211.813 734.006 211.998 733.688C212.187 733.366 212.282 733.022 212.282 732.656V731.46C212.218 731.525 212.093 731.585 211.908 731.641C211.727 731.694 211.519 731.74 211.286 731.78C211.052 731.816 210.825 731.851 210.604 731.883C210.382 731.911 210.197 731.935 210.048 731.955C209.698 732 209.378 732.074 209.088 732.179C208.803 732.283 208.573 732.434 208.4 732.631C208.231 732.825 208.147 733.082 208.147 733.404C208.147 733.851 208.312 734.189 208.642 734.418C208.972 734.644 209.392 734.756 209.903 734.756ZM218.296 730.494V736H216.491V726.727H218.224V728.237H218.339C218.552 727.746 218.886 727.351 219.341 727.053C219.799 726.755 220.377 726.607 221.073 726.607C221.705 726.607 222.259 726.739 222.733 727.005C223.208 727.267 223.577 727.657 223.838 728.176C224.1 728.695 224.231 729.337 224.231 730.102V736H222.426V730.319C222.426 729.647 222.25 729.122 221.9 728.744C221.55 728.361 221.069 728.17 220.458 728.17C220.039 728.17 219.667 728.261 219.341 728.442C219.019 728.623 218.763 728.888 218.574 729.239C218.389 729.585 218.296 730.003 218.296 730.494ZM233.6 728.991L231.964 729.281C231.895 729.072 231.787 728.872 231.638 728.683C231.493 728.494 231.296 728.339 231.046 728.218C230.797 728.098 230.485 728.037 230.111 728.037C229.599 728.037 229.173 728.152 228.831 728.381C228.489 728.607 228.318 728.899 228.318 729.257C228.318 729.567 228.432 729.816 228.662 730.005C228.891 730.194 229.261 730.349 229.773 730.47L231.246 730.808C232.099 731.005 232.735 731.309 233.153 731.72C233.572 732.13 233.781 732.664 233.781 733.32C233.781 733.875 233.62 734.37 233.298 734.805C232.98 735.235 232.535 735.573 231.964 735.819C231.396 736.064 230.738 736.187 229.99 736.187C228.951 736.187 228.104 735.966 227.448 735.523C226.792 735.076 226.39 734.442 226.241 733.621L227.986 733.356C228.094 733.811 228.318 734.155 228.656 734.388C228.994 734.618 229.434 734.732 229.978 734.732C230.569 734.732 231.042 734.609 231.396 734.364C231.751 734.114 231.928 733.811 231.928 733.452C231.928 733.163 231.819 732.919 231.602 732.722C231.388 732.525 231.06 732.376 230.618 732.275L229.048 731.931C228.183 731.734 227.543 731.42 227.128 730.989C226.718 730.559 226.513 730.013 226.513 729.353C226.513 728.806 226.665 728.327 226.971 727.917C227.277 727.506 227.7 727.186 228.239 726.957C228.778 726.723 229.396 726.607 230.092 726.607C231.095 726.607 231.883 726.824 232.459 727.259C233.034 727.689 233.415 728.267 233.6 728.991ZM238.464 736.205C237.877 736.205 237.345 736.097 236.87 735.879C236.396 735.658 236.019 735.338 235.742 734.919C235.468 734.501 235.331 733.988 235.331 733.38C235.331 732.857 235.432 732.426 235.633 732.088C235.834 731.75 236.106 731.482 236.448 731.285C236.79 731.088 237.172 730.939 237.595 730.838C238.017 730.738 238.448 730.661 238.887 730.609C239.442 730.545 239.893 730.492 240.239 730.452C240.585 730.408 240.837 730.337 240.994 730.241C241.151 730.144 241.229 729.987 241.229 729.77V729.728C241.229 729.2 241.08 728.792 240.782 728.502C240.489 728.212 240.05 728.067 239.466 728.067C238.859 728.067 238.38 728.202 238.03 728.472C237.683 728.738 237.444 729.033 237.311 729.359L235.615 728.973C235.816 728.41 236.11 727.955 236.496 727.609C236.887 727.259 237.335 727.005 237.842 726.848C238.349 726.687 238.883 726.607 239.442 726.607C239.812 726.607 240.205 726.651 240.619 726.739C241.038 726.824 241.428 726.981 241.791 727.21C242.157 727.44 242.457 727.768 242.69 728.194C242.923 728.617 243.04 729.166 243.04 729.842V736H241.277V734.732H241.205C241.088 734.966 240.913 735.195 240.68 735.42C240.446 735.646 240.146 735.833 239.78 735.982C239.414 736.131 238.975 736.205 238.464 736.205ZM238.857 734.756C239.356 734.756 239.782 734.658 240.136 734.461C240.495 734.263 240.766 734.006 240.951 733.688C241.141 733.366 241.235 733.022 241.235 732.656V731.46C241.171 731.525 241.046 731.585 240.861 731.641C240.68 731.694 240.472 731.74 240.239 731.78C240.006 731.816 239.778 731.851 239.557 731.883C239.336 731.911 239.15 731.935 239.001 731.955C238.651 732 238.331 732.074 238.042 732.179C237.756 732.283 237.526 732.434 237.353 732.631C237.184 732.825 237.1 733.082 237.1 733.404C237.1 733.851 237.265 734.189 237.595 734.418C237.925 734.644 238.345 734.756 238.857 734.756ZM249.35 736.187C248.453 736.187 247.68 735.984 247.032 735.577C246.388 735.167 245.893 734.601 245.547 733.881C245.201 733.161 245.028 732.336 245.028 731.406C245.028 730.464 245.205 729.633 245.559 728.913C245.913 728.188 246.412 727.623 247.056 727.216C247.7 726.81 248.459 726.607 249.332 726.607C250.036 726.607 250.664 726.737 251.216 726.999C251.767 727.257 252.212 727.619 252.55 728.086C252.892 728.552 253.095 729.098 253.16 729.722H251.403C251.306 729.287 251.085 728.913 250.739 728.599C250.397 728.285 249.938 728.128 249.362 728.128C248.859 728.128 248.419 728.261 248.04 728.526C247.666 728.788 247.374 729.162 247.165 729.649C246.956 730.132 246.851 730.704 246.851 731.364C246.851 732.04 246.954 732.623 247.159 733.114C247.364 733.605 247.654 733.986 248.028 734.255C248.407 734.525 248.851 734.66 249.362 734.66C249.704 734.66 250.014 734.597 250.292 734.473C250.574 734.344 250.809 734.161 250.998 733.923C251.192 733.686 251.326 733.4 251.403 733.066H253.16C253.095 733.666 252.9 734.201 252.574 734.672C252.248 735.143 251.811 735.513 251.264 735.783C250.721 736.052 250.083 736.187 249.35 736.187ZM259.418 726.727V728.176H254.353V726.727H259.418ZM255.712 724.506H257.517V733.277C257.517 733.627 257.569 733.891 257.674 734.068C257.778 734.241 257.913 734.36 258.078 734.424C258.247 734.485 258.43 734.515 258.628 734.515C258.772 734.515 258.899 734.505 259.008 734.485C259.117 734.465 259.201 734.449 259.261 734.436L259.587 735.928C259.483 735.968 259.334 736.008 259.141 736.048C258.947 736.093 258.706 736.117 258.416 736.121C257.941 736.129 257.499 736.044 257.088 735.867C256.678 735.69 256.346 735.416 256.092 735.046C255.838 734.676 255.712 734.211 255.712 733.652V724.506ZM261.415 736V726.727H263.22V736H261.415ZM262.327 725.297C262.013 725.297 261.743 725.192 261.518 724.983C261.296 724.769 261.186 724.516 261.186 724.222C261.186 723.924 261.296 723.671 261.518 723.461C261.743 723.248 262.013 723.141 262.327 723.141C262.641 723.141 262.908 723.248 263.13 723.461C263.355 723.671 263.468 723.924 263.468 724.222C263.468 724.516 263.355 724.769 263.13 724.983C262.908 725.192 262.641 725.297 262.327 725.297ZM269.554 736.187C268.685 736.187 267.926 735.988 267.278 735.589C266.63 735.191 266.127 734.634 265.769 733.917C265.411 733.201 265.232 732.364 265.232 731.406C265.232 730.444 265.411 729.603 265.769 728.882C266.127 728.162 266.63 727.603 267.278 727.204C267.926 726.806 268.685 726.607 269.554 726.607C270.424 726.607 271.182 726.806 271.83 727.204C272.478 727.603 272.981 728.162 273.34 728.882C273.698 729.603 273.877 730.444 273.877 731.406C273.877 732.364 273.698 733.201 273.34 733.917C272.981 734.634 272.478 735.191 271.83 735.589C271.182 735.988 270.424 736.187 269.554 736.187ZM269.56 734.672C270.124 734.672 270.591 734.523 270.961 734.225C271.331 733.927 271.605 733.531 271.782 733.036C271.963 732.541 272.054 731.996 272.054 731.4C272.054 730.808 271.963 730.265 271.782 729.77C271.605 729.271 271.331 728.87 270.961 728.569C270.591 728.267 270.124 728.116 269.56 728.116C268.993 728.116 268.522 728.267 268.148 728.569C267.778 728.87 267.502 729.271 267.321 729.77C267.144 730.265 267.055 730.808 267.055 731.4C267.055 731.996 267.144 732.541 267.321 733.036C267.502 733.531 267.778 733.927 268.148 734.225C268.522 734.523 268.993 734.672 269.56 734.672ZM277.697 730.494V736H275.892V726.727H277.624V728.237H277.739C277.952 727.746 278.286 727.351 278.741 727.053C279.2 726.755 279.777 726.607 280.474 726.607C281.106 726.607 281.659 726.739 282.134 727.005C282.609 727.267 282.977 727.657 283.239 728.176C283.5 728.695 283.631 729.337 283.631 730.102V736H281.826V730.319C281.826 729.647 281.651 729.122 281.301 728.744C280.951 728.361 280.47 728.17 279.858 728.17C279.439 728.17 279.067 728.261 278.741 728.442C278.419 728.623 278.164 728.888 277.974 729.239C277.789 729.585 277.697 730.003 277.697 730.494ZM293 728.991L291.364 729.281C291.296 729.072 291.187 728.872 291.038 728.683C290.893 728.494 290.696 728.339 290.447 728.218C290.197 728.098 289.885 728.037 289.511 728.037C289 728.037 288.573 728.152 288.231 728.381C287.889 728.607 287.718 728.899 287.718 729.257C287.718 729.567 287.833 729.816 288.062 730.005C288.292 730.194 288.662 730.349 289.173 730.47L290.646 730.808C291.499 731.005 292.135 731.309 292.554 731.72C292.972 732.13 293.181 732.664 293.181 733.32C293.181 733.875 293.02 734.37 292.698 734.805C292.381 735.235 291.936 735.573 291.364 735.819C290.797 736.064 290.139 736.187 289.39 736.187C288.352 736.187 287.505 735.966 286.849 735.523C286.193 735.076 285.79 734.442 285.641 733.621L287.386 733.356C287.495 733.811 287.718 734.155 288.056 734.388C288.394 734.618 288.835 734.732 289.378 734.732C289.97 734.732 290.443 734.609 290.797 734.364C291.151 734.114 291.328 733.811 291.328 733.452C291.328 733.163 291.219 732.919 291.002 732.722C290.789 732.525 290.461 732.376 290.018 732.275L288.448 731.931C287.583 731.734 286.943 731.42 286.529 730.989C286.118 730.559 285.913 730.013 285.913 729.353C285.913 728.806 286.066 728.327 286.372 727.917C286.678 727.506 287.1 727.186 287.64 726.957C288.179 726.723 288.797 726.607 289.493 726.607C290.495 726.607 291.284 726.824 291.859 727.259C292.435 727.689 292.815 728.267 293 728.991Z" fill="white"/>
<rect x="15.5688" y="703.569" width="138.862" height="51.8624" rx="15.3578" stroke="white" stroke-opacity="0.3" stroke-width="1.13761" stroke-dasharray="4.55 4.55"/>
<rect x="19" y="708" width="132" height="44" rx="11.3761" fill="white" fill-opacity="0.1"/>
<path d="M47.7295 723.636L51.5931 734.533H51.7018L55.5654 723.636H56.7487L52.2512 736H51.0438L46.5463 723.636H47.7295ZM60.3708 736.211C59.8114 736.211 59.3003 736.103 58.8374 735.885C58.3746 735.664 58.0064 735.346 57.7327 734.931C57.459 734.513 57.3222 734.006 57.3222 733.41C57.3222 732.951 57.4087 732.565 57.5818 732.251C57.7548 731.937 58.0003 731.68 58.3183 731.478C58.6362 731.277 59.0125 731.118 59.4472 731.001C59.8818 730.885 60.3608 730.794 60.884 730.73C61.4031 730.665 61.8418 730.609 62.2 730.561C62.5622 730.512 62.8379 730.436 63.0271 730.331C63.2162 730.227 63.3108 730.058 63.3108 729.824V729.607C63.3108 728.975 63.1217 728.478 62.7433 728.116C62.3691 727.75 61.8298 727.566 61.1254 727.566C60.4574 727.566 59.912 727.713 59.4894 728.007C59.0709 728.301 58.7771 728.647 58.608 729.045L57.5878 728.677C57.7971 728.17 58.0869 727.766 58.4571 727.464C58.8274 727.158 59.2419 726.939 59.7007 726.806C60.1595 726.669 60.6244 726.6 61.0953 726.6C61.4494 726.6 61.8177 726.647 62.2 726.739C62.5864 726.832 62.9446 726.993 63.2746 727.222C63.6046 727.448 63.8722 727.764 64.0775 728.17C64.2828 728.573 64.3854 729.084 64.3854 729.703V736H63.3108V734.533H63.2444C63.1156 734.807 62.9244 735.072 62.6709 735.33C62.4173 735.587 62.0994 735.799 61.7171 735.964C61.3347 736.129 60.886 736.211 60.3708 736.211ZM60.5157 735.227C61.0872 735.227 61.5822 735.1 62.0008 734.847C62.4194 734.593 62.7413 734.257 62.9667 733.839C63.1961 733.416 63.3108 732.951 63.3108 732.444V731.104C63.2303 731.181 63.0955 731.249 62.9063 731.309C62.7212 731.37 62.5059 731.424 62.2604 731.472C62.0189 731.517 61.7774 731.555 61.536 731.587C61.2945 731.619 61.0771 731.647 60.884 731.672C60.3608 731.736 59.914 731.837 59.5438 731.973C59.1735 732.11 58.8898 732.299 58.6926 732.541C58.4954 732.778 58.3968 733.084 58.3968 733.458C58.3968 734.022 58.598 734.459 59.0004 734.768C59.4029 735.074 59.908 735.227 60.5157 735.227ZM67.2439 736V726.727H68.2883V728.152H68.3667C68.5519 727.685 68.8738 727.309 69.3327 727.023C69.7955 726.733 70.3187 726.588 70.9023 726.588C70.9908 726.588 71.0894 726.59 71.1981 726.594C71.3067 726.598 71.3973 726.603 71.4697 726.607V727.699C71.4214 727.691 71.3369 727.679 71.2162 727.663C71.0954 727.647 70.9646 727.639 70.8238 727.639C70.3408 727.639 69.9102 727.741 69.5319 727.947C69.1576 728.148 68.8618 728.428 68.6444 728.786C68.4271 729.144 68.3184 729.553 68.3184 730.011V736H67.2439ZM79.5154 733.706V733.145C79.5154 732.682 79.608 732.265 79.7931 731.895C79.9783 731.521 80.2419 731.225 80.584 731.007C80.9261 730.79 81.3326 730.681 81.8034 730.681C82.2784 730.681 82.6848 730.79 83.0229 731.007C83.361 731.225 83.6206 731.521 83.8017 731.895C83.9828 732.265 84.0733 732.682 84.0733 733.145V733.706C84.0733 734.169 83.9808 734.585 83.7956 734.956C83.6145 735.326 83.3549 735.622 83.0169 735.843C82.6788 736.06 82.2743 736.169 81.8034 736.169C81.3245 736.169 80.914 736.06 80.5719 735.843C80.2338 735.622 79.9722 735.326 79.7871 734.956C79.606 734.585 79.5154 734.169 79.5154 733.706ZM80.4632 733.145V733.706C80.4632 734.161 80.5739 734.549 80.7953 734.871C81.0207 735.189 81.3567 735.348 81.8034 735.348C82.2381 735.348 82.5661 735.189 82.7875 734.871C83.0088 734.549 83.1195 734.161 83.1195 733.706V733.145C83.1195 732.69 83.0108 732.303 82.7935 731.985C82.5762 731.663 82.2462 731.502 81.8034 731.502C81.3648 731.502 81.0307 731.663 80.8013 731.985C80.5759 732.303 80.4632 732.69 80.4632 733.145ZM73.2853 726.492V725.93C73.2853 725.468 73.3779 725.051 73.563 724.681C73.7482 724.31 74.0118 724.017 74.3539 723.799C74.696 723.578 75.1025 723.467 75.5733 723.467C76.0482 723.467 76.4547 723.578 76.7928 723.799C77.1309 724.017 77.3904 724.31 77.5716 724.681C77.7527 725.051 77.8432 725.468 77.8432 725.93V726.492C77.8432 726.955 77.7507 727.373 77.5655 727.748C77.3844 728.118 77.1248 728.412 76.7868 728.629C76.4487 728.846 76.0442 728.955 75.5733 728.955C75.0944 728.955 74.6839 728.846 74.3418 728.629C74.0037 728.412 73.7421 728.118 73.557 727.748C73.3759 727.373 73.2853 726.955 73.2853 726.492ZM74.2331 725.93V726.492C74.2331 726.947 74.3438 727.335 74.5652 727.657C74.7905 727.975 75.1266 728.134 75.5733 728.134C76.008 728.134 76.336 727.975 76.5574 727.657C76.7787 727.335 76.8894 726.947 76.8894 726.492V725.93C76.8894 725.476 76.7807 725.089 76.5634 724.771C76.3461 724.449 76.016 724.288 75.5733 724.288C75.1346 724.288 74.8006 724.449 74.5712 724.771C74.3458 725.089 74.2331 725.476 74.2331 725.93ZM73.8407 736L82.3347 723.636H83.4032L74.9093 736H73.8407ZM92.4194 723.636L95.8604 733.706H95.9993L99.4403 723.636H101.457L97.0075 736H94.8523L90.4031 723.636H92.4194ZM113.368 729.818C113.368 731.138 113.126 732.273 112.643 733.223C112.16 734.169 111.498 734.897 110.657 735.408C109.82 735.915 108.868 736.169 107.801 736.169C106.731 736.169 105.775 735.915 104.934 735.408C104.097 734.897 103.437 734.167 102.954 733.217C102.471 732.267 102.229 731.134 102.229 729.818C102.229 728.498 102.471 727.365 102.954 726.419C103.437 725.47 104.097 724.741 104.934 724.234C105.775 723.723 106.731 723.467 107.801 723.467C108.868 723.467 109.82 723.723 110.657 724.234C111.498 724.741 112.16 725.47 112.643 726.419C113.126 727.365 113.368 728.498 113.368 729.818ZM111.52 729.818C111.52 728.812 111.357 727.965 111.031 727.277C110.709 726.584 110.267 726.061 109.703 725.707C109.144 725.349 108.51 725.17 107.801 725.17C107.089 725.17 106.453 725.349 105.894 725.707C105.334 726.061 104.892 726.584 104.566 727.277C104.244 727.965 104.083 728.812 104.083 729.818C104.083 730.824 104.244 731.674 104.566 732.366C104.892 733.054 105.334 733.577 105.894 733.935C106.453 734.29 107.089 734.467 107.801 734.467C108.51 734.467 109.144 734.29 109.703 733.935C110.267 733.577 110.709 733.054 111.031 732.366C111.357 731.674 111.52 730.824 111.52 729.818ZM115.693 736V723.636H117.559V734.394H123.161V736H115.693Z" fill="white"/>
<path d="M162.356 654.356C162.712 654.001 163.288 654.001 163.644 654.356L169.435 660.148C169.791 660.504 169.791 661.08 169.435 661.435C169.08 661.791 168.504 661.791 168.148 661.435L163 656.287L157.852 661.435C157.496 661.791 156.92 661.791 156.565 661.435C156.209 661.08 156.209 660.504 156.565 660.148L162.356 654.356ZM241 679.5V678.59H241.91V679.5H241ZM163 679.5V680.41H162.09V679.5H163ZM240.09 702V679.5H241.91V702H240.09ZM241 680.41H163V678.59H241V680.41ZM162.09 679.5V655H163.91V679.5H162.09Z" fill="#BCBCC3"/>
<path d="M85 702V679.5H163V655" stroke="#BCBCC3" stroke-width="1.82018"/>
<rect x="95" y="502" width="136" height="146" rx="22.7523" fill="#3961FB"/>
<rect x="122.046" y="501.286" width="81.9083" height="3.41284" rx="1.70642" fill="white"/>
<path d="M117.351 551.475V549.019H131.986V551.475H126.086V567.928H123.242V551.475H117.351ZM138.072 549.019V567.928H135.22V549.019H138.072ZM157.933 555.168H155.052C154.941 554.553 154.735 554.011 154.433 553.543C154.132 553.075 153.762 552.678 153.325 552.352C152.888 552.026 152.399 551.78 151.857 551.614C151.322 551.447 150.752 551.364 150.149 551.364C149.06 551.364 148.084 551.638 147.222 552.186C146.367 552.734 145.69 553.537 145.191 554.596C144.699 555.655 144.452 556.947 144.452 558.474C144.452 560.013 144.699 561.311 145.191 562.37C145.69 563.429 146.37 564.229 147.232 564.771C148.093 565.312 149.063 565.583 150.14 565.583C150.737 565.583 151.303 565.503 151.839 565.343C152.38 565.177 152.87 564.934 153.307 564.614C153.744 564.294 154.113 563.903 154.415 563.441C154.723 562.973 154.935 562.438 155.052 561.834L157.933 561.844C157.779 562.773 157.48 563.629 157.037 564.41C156.6 565.186 156.037 565.857 155.347 566.423C154.664 566.983 153.882 567.417 153.002 567.725C152.122 568.033 151.162 568.187 150.121 568.187C148.484 568.187 147.025 567.799 145.745 567.023C144.465 566.242 143.455 565.124 142.717 563.672C141.984 562.219 141.618 560.486 141.618 558.474C141.618 556.455 141.987 554.722 142.726 553.276C143.465 551.823 144.474 550.709 145.754 549.933C147.035 549.151 148.49 548.761 150.121 548.761C151.125 548.761 152.06 548.905 152.928 549.195C153.802 549.478 154.587 549.896 155.283 550.45C155.978 550.998 156.554 551.669 157.009 552.463C157.465 553.251 157.773 554.153 157.933 555.168ZM161.346 567.928V549.019H164.199V558.049H164.43L172.361 549.019H175.953L168.327 557.532L175.981 567.928H172.546L166.434 559.48L164.199 562.047V567.928H161.346ZM178.612 567.928V549.019H190.467V551.475H181.465V557.236H189.849V559.683H181.465V565.472H190.578V567.928H178.612ZM194.278 567.928V549.019H201.018C202.483 549.019 203.699 549.271 204.665 549.776C205.638 550.281 206.364 550.98 206.844 551.872C207.324 552.758 207.564 553.783 207.564 554.947C207.564 556.104 207.321 557.123 206.835 558.003C206.355 558.877 205.628 559.557 204.656 560.043C203.69 560.53 202.474 560.773 201.009 560.773H195.903V558.317H200.75C201.674 558.317 202.425 558.184 203.003 557.92C203.588 557.655 204.016 557.27 204.287 556.766C204.557 556.261 204.693 555.655 204.693 554.947C204.693 554.233 204.554 553.614 204.277 553.091C204.007 552.568 203.579 552.168 202.994 551.891C202.415 551.607 201.655 551.466 200.713 551.466H197.131V567.928H194.278ZM203.613 559.397L208.284 567.928H205.034L200.455 559.397H203.613ZM127.069 601.928V583.019H133.809C135.28 583.019 136.499 583.287 137.465 583.822C138.432 584.358 139.155 585.09 139.635 586.02C140.115 586.943 140.355 587.983 140.355 589.141C140.355 590.304 140.112 591.35 139.626 592.28C139.146 593.203 138.419 593.936 137.447 594.477C136.481 595.013 135.265 595.28 133.8 595.28H129.165V592.861H133.541C134.471 592.861 135.225 592.701 135.803 592.381C136.382 592.055 136.807 591.612 137.078 591.052C137.348 590.492 137.484 589.855 137.484 589.141C137.484 588.427 137.348 587.793 137.078 587.239C136.807 586.685 136.379 586.251 135.794 585.937C135.216 585.623 134.452 585.466 133.504 585.466H129.922V601.928H127.069ZM143.7 601.928V583.019H150.44C151.905 583.019 153.121 583.271 154.087 583.776C155.06 584.281 155.786 584.98 156.266 585.872C156.746 586.758 156.986 587.783 156.986 588.947C156.986 590.104 156.743 591.123 156.257 592.003C155.777 592.877 155.05 593.557 154.078 594.043C153.111 594.53 151.896 594.773 150.431 594.773H145.325V592.317H150.172C151.096 592.317 151.847 592.184 152.425 591.92C153.01 591.655 153.438 591.27 153.708 590.766C153.979 590.261 154.115 589.655 154.115 588.947C154.115 588.233 153.976 587.614 153.699 587.091C153.428 586.568 153.001 586.168 152.416 585.891C151.837 585.607 151.077 585.466 150.135 585.466H146.553V601.928H143.7ZM153.034 593.397L157.706 601.928H154.456L149.877 593.397H153.034ZM163.311 583.019V601.928H160.458V583.019H163.311ZM183.171 589.168H180.29C180.179 588.553 179.973 588.011 179.672 587.543C179.37 587.075 179.001 586.678 178.564 586.352C178.127 586.026 177.637 585.78 177.096 585.614C176.56 585.447 175.991 585.364 175.387 585.364C174.298 585.364 173.322 585.638 172.461 586.186C171.605 586.734 170.928 587.537 170.429 588.596C169.937 589.655 169.691 590.947 169.691 592.474C169.691 594.013 169.937 595.311 170.429 596.37C170.928 597.429 171.608 598.229 172.47 598.771C173.332 599.312 174.301 599.583 175.378 599.583C175.975 599.583 176.542 599.503 177.077 599.343C177.619 599.177 178.108 598.934 178.545 598.614C178.982 598.294 179.351 597.903 179.653 597.441C179.961 596.973 180.173 596.438 180.29 595.834L183.171 595.844C183.017 596.773 182.718 597.629 182.275 598.41C181.838 599.186 181.275 599.857 180.586 600.423C179.902 600.983 179.121 601.417 178.24 601.725C177.36 602.033 176.4 602.187 175.36 602.187C173.722 602.187 172.264 601.799 170.983 601.023C169.703 600.242 168.694 599.124 167.955 597.672C167.222 596.219 166.856 594.486 166.856 592.474C166.856 590.455 167.226 588.722 167.964 587.276C168.703 585.823 169.712 584.709 170.993 583.933C172.273 583.151 173.729 582.761 175.36 582.761C176.363 582.761 177.299 582.905 178.167 583.195C179.041 583.478 179.825 583.896 180.521 584.45C181.217 584.998 181.792 585.669 182.248 586.463C182.703 587.251 183.011 588.153 183.171 589.168ZM186.585 601.928V583.019H198.44V585.475H189.438V591.236H197.821V593.683H189.438V599.472H198.551V601.928H186.585Z" fill="white"/>
<rect x="171.569" y="395.569" width="138.862" height="51.8624" rx="15.3578" stroke="white" stroke-opacity="0.3" stroke-width="1.13761" stroke-dasharray="4.55 4.55"/>
<rect x="175" y="400" width="132" height="44" rx="11.3761" fill="white" fill-opacity="0.1"/>
<path d="M192.783 415.636L196.646 426.533H196.755L200.619 415.636H201.802L197.304 428H196.097L191.599 415.636H192.783ZM205.424 428.211C204.865 428.211 204.354 428.103 203.891 427.885C203.428 427.664 203.06 427.346 202.786 426.931C202.512 426.513 202.375 426.006 202.375 425.41C202.375 424.951 202.462 424.565 202.635 424.251C202.808 423.937 203.054 423.68 203.371 423.478C203.689 423.277 204.066 423.118 204.5 423.001C204.935 422.885 205.414 422.794 205.937 422.73C206.456 422.665 206.895 422.609 207.253 422.561C207.615 422.512 207.891 422.436 208.08 422.331C208.269 422.227 208.364 422.058 208.364 421.824V421.607C208.364 420.975 208.175 420.478 207.797 420.116C207.422 419.75 206.883 419.566 206.179 419.566C205.511 419.566 204.965 419.713 204.543 420.007C204.124 420.301 203.83 420.647 203.661 421.045L202.641 420.677C202.85 420.17 203.14 419.766 203.51 419.464C203.881 419.158 204.295 418.939 204.754 418.806C205.213 418.669 205.678 418.6 206.148 418.6C206.503 418.6 206.871 418.647 207.253 418.739C207.64 418.832 207.998 418.993 208.328 419.222C208.658 419.448 208.925 419.764 209.131 420.17C209.336 420.573 209.439 421.084 209.439 421.703V428H208.364V426.533H208.298C208.169 426.807 207.978 427.072 207.724 427.33C207.471 427.587 207.153 427.799 206.77 427.964C206.388 428.129 205.939 428.211 205.424 428.211ZM205.569 427.227C206.14 427.227 206.635 427.1 207.054 426.847C207.473 426.593 207.795 426.257 208.02 425.839C208.249 425.416 208.364 424.951 208.364 424.444V423.104C208.284 423.181 208.149 423.249 207.96 423.309C207.774 423.37 207.559 423.424 207.314 423.472C207.072 423.517 206.831 423.555 206.589 423.587C206.348 423.619 206.13 423.647 205.937 423.672C205.414 423.736 204.967 423.837 204.597 423.973C204.227 424.11 203.943 424.299 203.746 424.541C203.549 424.778 203.45 425.084 203.45 425.458C203.45 426.022 203.651 426.459 204.054 426.768C204.456 427.074 204.961 427.227 205.569 427.227ZM212.297 428V418.727H213.341V420.152H213.42C213.605 419.685 213.927 419.309 214.386 419.023C214.849 418.733 215.372 418.588 215.955 418.588C216.044 418.588 216.143 418.59 216.251 418.594C216.36 418.598 216.451 418.603 216.523 418.607V419.699C216.475 419.691 216.39 419.679 216.269 419.663C216.149 419.647 216.018 419.639 215.877 419.639C215.394 419.639 214.963 419.741 214.585 419.947C214.211 420.148 213.915 420.428 213.698 420.786C213.48 421.144 213.372 421.553 213.372 422.011V428H212.297ZM224.569 425.706V425.145C224.569 424.682 224.661 424.265 224.846 423.895C225.032 423.521 225.295 423.225 225.637 423.007C225.979 422.79 226.386 422.681 226.857 422.681C227.332 422.681 227.738 422.79 228.076 423.007C228.414 423.225 228.674 423.521 228.855 423.895C229.036 424.265 229.127 424.682 229.127 425.145V425.706C229.127 426.169 229.034 426.585 228.849 426.956C228.668 427.326 228.408 427.622 228.07 427.843C227.732 428.06 227.328 428.169 226.857 428.169C226.378 428.169 225.967 428.06 225.625 427.843C225.287 427.622 225.025 427.326 224.84 426.956C224.659 426.585 224.569 426.169 224.569 425.706ZM225.516 425.145V425.706C225.516 426.161 225.627 426.549 225.849 426.871C226.074 427.189 226.41 427.348 226.857 427.348C227.291 427.348 227.619 427.189 227.841 426.871C228.062 426.549 228.173 426.161 228.173 425.706V425.145C228.173 424.69 228.064 424.303 227.847 423.985C227.629 423.663 227.299 423.502 226.857 423.502C226.418 423.502 226.084 423.663 225.855 423.985C225.629 424.303 225.516 424.69 225.516 425.145ZM218.339 418.492V417.93C218.339 417.468 218.431 417.051 218.616 416.681C218.801 416.31 219.065 416.017 219.407 415.799C219.749 415.578 220.156 415.467 220.627 415.467C221.101 415.467 221.508 415.578 221.846 415.799C222.184 416.017 222.444 416.31 222.625 416.681C222.806 417.051 222.896 417.468 222.896 417.93V418.492C222.896 418.955 222.804 419.373 222.619 419.748C222.438 420.118 222.178 420.412 221.84 420.629C221.502 420.846 221.097 420.955 220.627 420.955C220.148 420.955 219.737 420.846 219.395 420.629C219.057 420.412 218.795 420.118 218.61 419.748C218.429 419.373 218.339 418.955 218.339 418.492ZM219.286 417.93V418.492C219.286 418.947 219.397 419.335 219.618 419.657C219.844 419.975 220.18 420.134 220.627 420.134C221.061 420.134 221.389 419.975 221.611 419.657C221.832 419.335 221.943 418.947 221.943 418.492V417.93C221.943 417.476 221.834 417.089 221.617 416.771C221.399 416.449 221.069 416.288 220.627 416.288C220.188 416.288 219.854 416.449 219.624 416.771C219.399 417.089 219.286 417.476 219.286 417.93ZM218.894 428L227.388 415.636H228.456L219.962 428H218.894ZM236.392 415.636H238.656L242.592 425.247H242.737L246.673 415.636H248.937V428H247.162V419.053H247.047L243.401 427.982H241.928L238.282 419.047H238.167V428H236.392V415.636ZM254.202 428.205C253.615 428.205 253.084 428.097 252.609 427.879C252.134 427.658 251.758 427.338 251.48 426.919C251.206 426.501 251.069 425.988 251.069 425.38C251.069 424.857 251.17 424.426 251.371 424.088C251.572 423.75 251.844 423.482 252.186 423.285C252.528 423.088 252.911 422.939 253.333 422.838C253.756 422.738 254.186 422.661 254.625 422.609C255.18 422.545 255.631 422.492 255.977 422.452C256.323 422.408 256.575 422.337 256.732 422.241C256.889 422.144 256.967 421.987 256.967 421.77V421.728C256.967 421.2 256.818 420.792 256.521 420.502C256.227 420.212 255.788 420.067 255.205 420.067C254.597 420.067 254.118 420.202 253.768 420.472C253.422 420.738 253.182 421.033 253.049 421.359L251.353 420.973C251.554 420.41 251.848 419.955 252.234 419.609C252.625 419.259 253.074 419.005 253.581 418.848C254.088 418.687 254.621 418.607 255.18 418.607C255.551 418.607 255.943 418.651 256.358 418.739C256.776 418.824 257.167 418.981 257.529 419.21C257.895 419.44 258.195 419.768 258.428 420.194C258.662 420.617 258.778 421.166 258.778 421.842V428H257.016V426.732H256.943C256.827 426.966 256.651 427.195 256.418 427.42C256.185 427.646 255.885 427.833 255.519 427.982C255.152 428.131 254.714 428.205 254.202 428.205ZM254.595 426.756C255.094 426.756 255.521 426.658 255.875 426.461C256.233 426.263 256.505 426.006 256.69 425.688C256.879 425.366 256.973 425.022 256.973 424.656V423.46C256.909 423.525 256.784 423.585 256.599 423.641C256.418 423.694 256.211 423.74 255.977 423.78C255.744 423.816 255.516 423.851 255.295 423.883C255.074 423.911 254.889 423.935 254.74 423.955C254.39 424 254.07 424.074 253.78 424.179C253.494 424.283 253.265 424.434 253.092 424.631C252.923 424.825 252.838 425.082 252.838 425.404C252.838 425.851 253.003 426.189 253.333 426.418C253.663 426.644 254.084 426.756 254.595 426.756ZM261.183 428V418.727H262.927V420.2H263.024C263.193 419.701 263.491 419.309 263.917 419.023C264.348 418.733 264.835 418.588 265.378 418.588C265.491 418.588 265.624 418.592 265.777 418.6C265.934 418.609 266.056 418.619 266.145 418.631V420.357C266.073 420.337 265.944 420.315 265.759 420.291C265.574 420.263 265.388 420.249 265.203 420.249C264.777 420.249 264.396 420.339 264.062 420.52C263.732 420.697 263.471 420.945 263.277 421.263C263.084 421.577 262.988 421.935 262.988 422.337V428H261.183ZM269.367 424.855L269.355 422.651H269.669L273.364 418.727H275.525L271.311 423.195H271.027L269.367 424.855ZM267.707 428V415.636H269.512V428H267.707ZM273.563 428L270.243 423.593L271.486 422.331L275.778 428H273.563ZM280.785 428.187C279.871 428.187 279.084 427.992 278.424 427.602C277.768 427.207 277.261 426.654 276.903 425.941C276.549 425.225 276.372 424.386 276.372 423.424C276.372 422.474 276.549 421.637 276.903 420.913C277.261 420.188 277.76 419.623 278.4 419.216C279.044 418.81 279.797 418.607 280.658 418.607C281.181 418.607 281.688 418.693 282.179 418.866C282.67 419.039 283.111 419.311 283.501 419.681C283.892 420.051 284.199 420.532 284.425 421.124C284.65 421.712 284.763 422.426 284.763 423.267V423.907H277.392V422.555H282.994C282.994 422.08 282.898 421.659 282.704 421.293C282.511 420.923 282.239 420.631 281.889 420.418C281.543 420.204 281.137 420.098 280.67 420.098C280.163 420.098 279.72 420.222 279.342 420.472C278.967 420.717 278.678 421.039 278.472 421.438C278.271 421.832 278.171 422.261 278.171 422.724V423.78C278.171 424.4 278.279 424.927 278.497 425.362C278.718 425.797 279.026 426.129 279.42 426.358C279.815 426.583 280.275 426.696 280.803 426.696C281.145 426.696 281.457 426.648 281.738 426.551C282.02 426.451 282.264 426.302 282.469 426.104C282.674 425.907 282.831 425.664 282.94 425.374L284.648 425.682C284.511 426.185 284.266 426.626 283.912 427.004C283.562 427.378 283.121 427.67 282.59 427.879C282.062 428.085 281.461 428.187 280.785 428.187ZM291.094 418.727V420.176H286.029V418.727H291.094ZM287.387 416.506H289.193V425.277C289.193 425.627 289.245 425.891 289.349 426.068C289.454 426.241 289.589 426.36 289.754 426.424C289.923 426.485 290.106 426.515 290.303 426.515C290.448 426.515 290.575 426.505 290.684 426.485C290.792 426.465 290.877 426.449 290.937 426.436L291.263 427.928C291.159 427.968 291.01 428.008 290.816 428.048C290.623 428.093 290.382 428.117 290.092 428.121C289.617 428.129 289.174 428.044 288.764 427.867C288.353 427.69 288.021 427.416 287.768 427.046C287.514 426.676 287.387 426.211 287.387 425.652V416.506Z" fill="white"/>
<path d="M85 449L85 471.65H163V496" stroke="#BCBCC3" stroke-width="1.82018"/>
<rect x="15.5688" y="395.569" width="138.862" height="51.8624" rx="15.3578" stroke="white" stroke-opacity="0.3" stroke-width="1.13761" stroke-dasharray="4.55 4.55"/>
<rect x="19" y="400" width="132" height="44" rx="11.3761" fill="white" fill-opacity="0.1"/>
<path d="M46.1709 416.563L50.0345 427.46H50.1432L54.0068 416.563H55.1901L50.6926 428.927H49.4852L44.9877 416.563H46.1709ZM58.8122 429.138C58.2528 429.138 57.7417 429.029 57.2789 428.812C56.816 428.59 56.4478 428.273 56.1741 427.858C55.9004 427.439 55.7636 426.932 55.7636 426.337C55.7636 425.878 55.8501 425.491 56.0232 425.178C56.1962 424.864 56.4417 424.606 56.7597 424.405C57.0776 424.204 57.4539 424.045 57.8886 423.928C58.3232 423.811 58.8022 423.721 59.3254 423.656C59.8445 423.592 60.2832 423.536 60.6414 423.487C61.0036 423.439 61.2793 423.362 61.4685 423.258C61.6576 423.153 61.7522 422.984 61.7522 422.751V422.533C61.7522 421.902 61.5631 421.404 61.1847 421.042C60.8105 420.676 60.2712 420.493 59.5669 420.493C58.8988 420.493 58.3534 420.64 57.9308 420.934C57.5123 421.227 57.2185 421.574 57.0494 421.972L56.0292 421.604C56.2385 421.097 56.5283 420.692 56.8985 420.39C57.2688 420.084 57.6833 419.865 58.1421 419.732C58.6009 419.595 59.0658 419.527 59.5367 419.527C59.8908 419.527 60.2591 419.573 60.6414 419.666C61.0278 419.758 61.386 419.919 61.716 420.149C62.046 420.374 62.3137 420.69 62.5189 421.097C62.7242 421.499 62.8268 422.01 62.8268 422.63V428.927H61.7522V427.46H61.6858C61.557 427.733 61.3659 427.999 61.1123 428.256C60.8588 428.514 60.5408 428.725 60.1585 428.89C59.7761 429.055 59.3274 429.138 58.8122 429.138ZM58.9571 428.154C59.5286 428.154 60.0236 428.027 60.4422 427.773C60.8608 427.52 61.1827 427.184 61.4081 426.765C61.6375 426.343 61.7522 425.878 61.7522 425.371V424.031C61.6717 424.107 61.5369 424.175 61.3477 424.236C61.1626 424.296 60.9473 424.351 60.7018 424.399C60.4603 424.443 60.2188 424.481 59.9774 424.514C59.7359 424.546 59.5186 424.574 59.3254 424.598C58.8022 424.662 58.3554 424.763 57.9852 424.9C57.6149 425.037 57.3312 425.226 57.134 425.467C56.9368 425.705 56.8382 426.011 56.8382 426.385C56.8382 426.948 57.0394 427.385 57.4419 427.695C57.8443 428.001 58.3494 428.154 58.9571 428.154ZM65.6853 428.927V419.654H66.7297V421.079H66.8081C66.9933 420.612 67.3153 420.235 67.7741 419.95C68.2369 419.66 68.7601 419.515 69.3437 419.515C69.4322 419.515 69.5308 419.517 69.6395 419.521C69.7481 419.525 69.8387 419.529 69.9111 419.533V420.626C69.8628 420.618 69.7783 420.606 69.6576 420.59C69.5368 420.573 69.406 420.565 69.2652 420.565C68.7822 420.565 68.3516 420.668 67.9733 420.873C67.599 421.074 67.3032 421.354 67.0858 421.712C66.8685 422.071 66.7599 422.479 66.7599 422.938V428.927H65.6853ZM77.9569 426.632V426.071C77.9569 425.608 78.0494 425.192 78.2346 424.821C78.4197 424.447 78.6833 424.151 79.0254 423.934C79.3675 423.717 79.774 423.608 80.2449 423.608C80.7198 423.608 81.1262 423.717 81.4643 423.934C81.8024 424.151 82.062 424.447 82.2431 424.821C82.4242 425.192 82.5147 425.608 82.5147 426.071V426.632C82.5147 427.095 82.4222 427.512 82.237 427.882C82.0559 428.252 81.7963 428.548 81.4583 428.77C81.1202 428.987 80.7157 429.096 80.2449 429.096C79.7659 429.096 79.3554 428.987 79.0133 428.77C78.6752 428.548 78.4136 428.252 78.2285 427.882C78.0474 427.512 77.9569 427.095 77.9569 426.632ZM78.9047 426.071V426.632C78.9047 427.087 79.0153 427.476 79.2367 427.798C79.4621 428.116 79.7981 428.275 80.2449 428.275C80.6795 428.275 81.0075 428.116 81.2289 427.798C81.4502 427.476 81.5609 427.087 81.5609 426.632V426.071C81.5609 425.616 81.4522 425.23 81.2349 424.912C81.0176 424.59 80.6876 424.429 80.2449 424.429C79.8062 424.429 79.4721 424.59 79.2427 424.912C79.0173 425.23 78.9047 425.616 78.9047 426.071ZM71.7267 419.418V418.857C71.7267 418.394 71.8193 417.978 72.0044 417.607C72.1896 417.237 72.4532 416.943 72.7953 416.726C73.1374 416.505 73.5439 416.394 74.0147 416.394C74.4896 416.394 74.8961 416.505 75.2342 416.726C75.5723 416.943 75.8319 417.237 76.013 417.607C76.1941 417.978 76.2846 418.394 76.2846 418.857V419.418C76.2846 419.881 76.1921 420.3 76.0069 420.674C75.8258 421.044 75.5662 421.338 75.2282 421.555C74.8901 421.773 74.4856 421.881 74.0147 421.881C73.5358 421.881 73.1253 421.773 72.7832 421.555C72.4451 421.338 72.1835 421.044 71.9984 420.674C71.8173 420.3 71.7267 419.881 71.7267 419.418ZM72.6745 418.857V419.418C72.6745 419.873 72.7852 420.262 73.0066 420.583C73.2319 420.901 73.568 421.06 74.0147 421.06C74.4494 421.06 74.7774 420.901 74.9988 420.583C75.2201 420.262 75.3308 419.873 75.3308 419.418V418.857C75.3308 418.402 75.2221 418.016 75.0048 417.698C74.7875 417.376 74.4574 417.215 74.0147 417.215C73.5761 417.215 73.242 417.376 73.0126 417.698C72.7872 418.016 72.6745 418.402 72.6745 418.857ZM72.2821 428.927L80.7761 416.563H81.8446L73.3507 428.927H72.2821ZM94.0649 428.927H90.0624V416.563H94.1917C95.4031 416.563 96.4434 416.81 97.3128 417.305C98.1821 417.796 98.8482 418.503 99.311 419.424C99.7778 420.342 100.011 421.443 100.011 422.727C100.011 424.014 99.7758 425.121 99.305 426.047C98.8381 426.973 98.162 427.685 97.2765 428.184C96.3911 428.679 95.3206 428.927 94.0649 428.927ZM91.9278 427.297H93.9623C94.904 427.297 95.6868 427.119 96.3106 426.765C96.9345 426.407 97.4013 425.89 97.7112 425.214C98.0211 424.534 98.176 423.705 98.176 422.727C98.176 421.757 98.0211 420.934 97.7112 420.257C97.4053 419.581 96.9485 419.068 96.3408 418.718C95.7331 418.368 94.9785 418.193 94.077 418.193H91.9278V427.297ZM102.761 428.927H100.781L105.23 416.563H107.385L111.835 428.927H109.854L106.359 418.809H106.263L102.761 428.927ZM103.093 424.085H109.516V425.654H103.093V424.085ZM123.779 422.745C123.779 424.065 123.537 425.2 123.054 426.15C122.571 427.095 121.909 427.824 121.068 428.335C120.231 428.842 119.279 429.096 118.213 429.096C117.142 429.096 116.186 428.842 115.345 428.335C114.508 427.824 113.848 427.093 113.365 426.143C112.882 425.194 112.641 424.061 112.641 422.745C112.641 421.425 112.882 420.292 113.365 419.346C113.848 418.396 114.508 417.668 115.345 417.161C116.186 416.649 117.142 416.394 118.213 416.394C119.279 416.394 120.231 416.649 121.068 417.161C121.909 417.668 122.571 418.396 123.054 419.346C123.537 420.292 123.779 421.425 123.779 422.745ZM121.931 422.745C121.931 421.739 121.768 420.891 121.442 420.203C121.12 419.511 120.678 418.988 120.114 418.634C119.555 418.275 118.921 418.096 118.213 418.096C117.5 418.096 116.864 418.275 116.305 418.634C115.746 418.988 115.303 419.511 114.977 420.203C114.655 420.891 114.494 421.739 114.494 422.745C114.494 423.751 114.655 424.6 114.977 425.292C115.303 425.98 115.746 426.504 116.305 426.862C116.864 427.216 117.5 427.393 118.213 427.393C118.921 427.393 119.555 427.216 120.114 426.862C120.678 426.504 121.12 425.98 121.442 425.292C121.768 424.6 121.931 423.751 121.931 422.745Z" fill="white"/>
<path d="M162.356 496.644C162.712 496.999 163.288 496.999 163.644 496.644L169.435 490.852C169.791 490.496 169.791 489.92 169.435 489.565C169.08 489.209 168.504 489.209 168.148 489.565L163 494.713L157.852 489.565C157.496 489.209 156.92 489.209 156.565 489.565C156.209 489.92 156.209 490.496 156.565 490.852L162.356 496.644ZM241 471.651V472.561H241.91V471.651H241ZM163 471.651V470.741H162.09V471.651H163ZM240.09 449V471.651H241.91V449H240.09ZM241 470.741H163V472.561H241V470.741ZM162.09 471.651V496H163.91V471.651H162.09Z" fill="#BCBCC3"/>
<rect x="140" y="367.449" width="3.41284" height="45.5046" rx="1.70642" transform="rotate(-90 140 367.449)" fill="#3961FB"/>
<circle cx="163.321" cy="365.743" r="6.25688" transform="rotate(-90 163.321 365.743)" fill="#2E3038"/>
<circle cx="163.321" cy="365.743" r="2.84404" transform="rotate(-90 163.321 365.743)" fill="white"/>
<rect x="140" y="787.449" width="3.41284" height="45.5046" rx="1.70642" transform="rotate(-90 140 787.449)" fill="#3961FB"/>
<circle cx="163.321" cy="785.743" r="6.25688" transform="rotate(-90 163.321 785.743)" fill="#2E3038"/>
<circle cx="163.321" cy="785.743" r="2.84404" transform="rotate(-90 163.321 785.743)" fill="white"/>
</svg>
