<svg width="170" height="169" viewBox="0 0 170 169" fill="none" xmlns="http://www.w3.org/2000/svg">
 <path
  d="M78.1419 20.4921C82.0139 13.1557 92.8186 14.1457 95.2929 22.0635L105.862 55.8831C109.782 68.4301 109.258 81.9452 104.376 94.1503L97.2904 111.863C83.5956 146.1 50.4362 168.55 13.5619 168.55C7.4044 168.55 3.4561 162.002 6.33015 156.556L78.1419 20.4921Z"
  fill="url(#paint0_linear_3364_9617)" />
 <path
  d="M108.798 93.47C111.355 87.3043 119.828 86.646 123.306 92.3428L161.864 155.493C165.328 161.167 161.245 168.445 154.597 168.445H144.168C132.167 168.445 120.997 162.313 114.554 152.188L106.136 138.96C99.9881 129.299 98.939 117.247 103.325 106.669L108.798 93.47Z"
  fill="url(#paint1_linear_3364_9617)" />
 <path
  d="M90.6746 132.484C92.5493 129.408 97.4347 129.502 98.9421 132.774C103.081 141.758 106.885 148.25 111.332 154.906C115.178 160.663 111.211 168.445 104.288 168.445H57.4523C54.6767 168.445 53.826 163.974 56.314 162.744C69.5786 156.185 82.1756 146.431 90.6746 132.484Z"
  fill="url(#paint2_linear_3364_9617)" />
 <defs>
  <linearGradient id="paint0_linear_3364_9617" x1="92.2201" y1="48.4431" x2="5.68811" y2="212.935"
   gradientUnits="userSpaceOnUse">
   <stop offset="0.168487" stop-color="#8990B4" />
   <stop offset="1" stop-color="#8990B4" />
  </linearGradient>
  <linearGradient id="paint1_linear_3364_9617" x1="118.122" y1="86.5707" x2="134.293" y2="168.217"
   gradientUnits="userSpaceOnUse">
   <stop stop-color="#8990B4" />
   <stop offset="1" stop-color="#8990B4" />
  </linearGradient>
  <linearGradient id="paint2_linear_3364_9617" x1="104.084" y1="101.505" x2="134.082" y2="168.022"
   gradientUnits="userSpaceOnUse">
   <stop stop-color="#8990B4" />
   <stop offset="1" stop-color="#8990B4" />
  </linearGradient>
 </defs>
</svg>
 