<svg width="20" height="18" viewBox="0 0 20 18" fill="none" xmlns="http://www.w3.org/2000/svg">
<path d="M16.494 3.48482C15.267 2.93473 13.9689 2.54387 12.6341 2.32257C12.4678 2.61059 12.2736 2.99799 12.1396 3.30618C10.7004 3.09883 9.27446 3.09883 7.86174 3.30618C7.72784 2.99806 7.5292 2.61059 7.3614 2.32257C6.02526 2.54397 4.72608 2.93583 3.49851 3.48769C1.05573 7.02471 0.393506 10.4738 0.72458 13.874C2.34479 15.0333 3.91494 15.7376 5.45864 16.1985C5.84229 15.6929 6.18142 15.1577 6.47254 14.5984C5.91829 14.3962 5.38397 14.1471 4.87594 13.8539C5.00963 13.7589 5.14017 13.66 5.26738 13.5572C8.34585 14.9368 11.6908 14.9368 14.7326 13.5572C14.8603 13.6593 14.9908 13.7582 15.1239 13.8539C14.6151 14.1478 14.0798 14.3975 13.5244 14.5999C13.8172 15.1615 14.1557 15.6972 14.5383 16.1999C16.0835 15.7391 17.6551 15.0348 19.2753 13.874C19.6638 9.93233 18.6117 6.51491 16.494 3.48482ZM6.89198 11.7829C5.96782 11.7829 5.20993 10.9563 5.20993 9.94962C5.20993 8.94298 5.95167 8.1149 6.89198 8.1149C7.83236 8.1149 8.59017 8.94151 8.57402 9.94962C8.57548 10.9563 7.83236 11.7829 6.89198 11.7829ZM13.1079 11.7829C12.1837 11.7829 11.4259 10.9563 11.4259 9.94962C11.4259 8.94298 12.1676 8.1149 13.1079 8.1149C14.0483 8.1149 14.8061 8.94151 14.7899 9.94962C14.7899 10.9563 14.0483 11.7829 13.1079 11.7829Z" fill="#DCE0E6"/>
</svg>
