<svg width="20" height="18" viewBox="0 0 20 18" fill="none" xmlns="http://www.w3.org/2000/svg">
<path d="M16.7188 7.875H11.25C10.7527 7.875 10.2758 7.69721 9.92417 7.38074C9.57254 7.06428 9.375 6.63505 9.375 6.1875V1.26562C9.375 1.22833 9.35854 1.19256 9.32924 1.16619C9.29993 1.13982 9.26019 1.125 9.21875 1.125H5.625C4.96196 1.125 4.32607 1.36205 3.85723 1.78401C3.38839 2.20597 3.125 2.77826 3.125 3.375V14.625C3.125 15.2217 3.38839 15.794 3.85723 16.216C4.32607 16.6379 4.96196 16.875 5.625 16.875H14.375C15.038 16.875 15.6739 16.6379 16.1428 16.216C16.6116 15.794 16.875 15.2217 16.875 14.625V8.01562C16.875 7.97833 16.8585 7.94256 16.8292 7.91619C16.7999 7.88982 16.7602 7.875 16.7188 7.875Z" fill="#DCE0E6"/>
<path d="M16.3758 6.63013L10.7582 1.57431C10.7473 1.56454 10.7334 1.55789 10.7183 1.5552C10.7032 1.55251 10.6875 1.5539 10.6733 1.5592C10.659 1.5645 10.6469 1.57346 10.6383 1.58497C10.6297 1.59648 10.6251 1.61002 10.625 1.62388V6.18751C10.625 6.3367 10.6908 6.47977 10.8081 6.58526C10.9253 6.69075 11.0842 6.75001 11.25 6.75001H16.3207C16.3361 6.74996 16.3511 6.7458 16.3639 6.73807C16.3767 6.73034 16.3867 6.71938 16.3926 6.70657C16.3985 6.69376 16.4 6.67967 16.397 6.66607C16.394 6.65246 16.3866 6.63996 16.3758 6.63013Z" fill="#DCE0E6"/>
</svg>
