<svg width="139" height="36" viewBox="0 0 139 36" fill="none" xmlns="http://www.w3.org/2000/svg">
<path d="M49.2963 7.11146H53.0987V21.9903C53.0918 23.3542 52.8025 24.5286 52.2308 25.5137C51.659 26.4918 50.86 27.2461 49.8336 27.7765C48.8141 28.3 47.6259 28.5618 46.2689 28.5618C45.029 28.5618 43.9131 28.3413 42.9212 27.9005C41.9361 27.4527 41.1543 26.7915 40.5757 25.9166C39.9971 25.0418 39.7077 23.9535 39.7077 22.6516H43.5204C43.5273 23.2233 43.6513 23.7158 43.8924 24.1291C44.1404 24.5424 44.4814 24.8593 44.9153 25.0797C45.3493 25.3001 45.8487 25.4104 46.4135 25.4104C47.0266 25.4104 47.5467 25.2829 47.9738 25.028C48.4008 24.7663 48.7246 24.3805 48.945 23.8708C49.1723 23.3611 49.2894 22.7342 49.2963 21.9903V7.11146ZM67.2077 21.5977V12.4017H70.9481V28.2725H67.3214V25.4517H67.1561C66.7979 26.3403 66.2089 27.067 65.3892 27.6318C64.5764 28.1967 63.5741 28.4791 62.3825 28.4791C61.3423 28.4791 60.4227 28.2484 59.6237 27.7868C58.8315 27.3184 58.2116 26.6399 57.7638 25.7513C57.3161 24.8558 57.0922 23.7744 57.0922 22.5069V12.4017H60.8326V21.9283C60.8326 22.934 61.1081 23.733 61.6592 24.3254C62.2102 24.9178 62.9335 25.214 63.829 25.214C64.3801 25.214 64.9139 25.0797 65.4305 24.8111C65.9472 24.5424 66.3708 24.1429 66.7014 23.6125C67.039 23.0752 67.2077 22.4036 67.2077 21.5977ZM74.7944 34.224V12.4017H78.4728V15.0262H78.6898C78.8826 14.6404 79.1547 14.2306 79.506 13.7966C79.8573 13.3557 80.3326 12.9803 80.9319 12.6704C81.5312 12.3535 82.2958 12.1951 83.2257 12.1951C84.4519 12.1951 85.5574 12.5085 86.5425 13.1353C87.5344 13.7553 88.3197 14.6749 88.8983 15.8941C89.4838 17.1065 89.7765 18.5943 89.7765 20.3578C89.7765 22.1005 89.4907 23.5815 88.9189 24.8007C88.3472 26.02 87.5688 26.9499 86.5838 27.5905C85.5988 28.2311 84.4829 28.5514 83.2361 28.5514C82.3268 28.5514 81.5725 28.3999 80.9732 28.0968C80.374 27.7937 79.8918 27.4286 79.5267 27.0016C79.1685 26.5676 78.8895 26.1577 78.6898 25.772H78.5348V34.224H74.7944ZM78.4624 20.3371C78.4624 21.3634 78.6071 22.2624 78.8964 23.0339C79.1926 23.8054 79.6162 24.4081 80.1673 24.8421C80.7253 25.2691 81.4003 25.4827 82.1925 25.4827C83.0191 25.4827 83.7114 25.2623 84.2693 24.8214C84.8273 24.3737 85.2475 23.764 85.5299 22.9925C85.8192 22.2142 85.9638 21.329 85.9638 20.3371C85.9638 19.3521 85.8226 18.4772 85.5402 17.7126C85.2578 16.948 84.8376 16.3487 84.2796 15.9148C83.7217 15.4808 83.026 15.2638 82.1925 15.2638C81.3934 15.2638 80.7149 15.4739 80.157 15.8941C79.599 16.3143 79.1754 16.9032 78.8861 17.661C78.6036 18.4187 78.4624 19.3107 78.4624 20.3371ZM92.9796 28.2725V12.4017H96.72V28.2725H92.9796ZM94.8601 10.1492C94.2677 10.1492 93.758 9.95291 93.3309 9.56027C92.9039 9.16074 92.6903 8.682 92.6903 8.12405C92.6903 7.5592 92.9039 7.08046 93.3309 6.68783C93.758 6.2883 94.2677 6.08854 94.8601 6.08854C95.4594 6.08854 95.9692 6.2883 96.3894 6.68783C96.8164 7.08046 97.03 7.5592 97.03 8.12405C97.03 8.682 96.8164 9.16074 96.3894 9.56027C95.9692 9.95291 95.4594 10.1492 94.8601 10.1492ZM108.491 12.4017V15.2948H99.3677V12.4017H108.491ZM101.62 8.59935H105.361V23.4988C105.361 24.0017 105.436 24.3874 105.588 24.6561C105.746 24.9178 105.953 25.0969 106.208 25.1934C106.463 25.2898 106.745 25.338 107.055 25.338C107.289 25.338 107.503 25.3208 107.696 25.2864C107.895 25.2519 108.047 25.2209 108.15 25.1934L108.781 28.1175C108.581 28.1864 108.295 28.2621 107.923 28.3448C107.558 28.4274 107.11 28.4757 106.58 28.4894C105.643 28.517 104.799 28.3758 104.048 28.0658C103.298 27.7489 102.702 27.2599 102.261 26.5986C101.827 25.9373 101.613 25.1107 101.62 24.1188V8.59935ZM118.475 28.5824C116.884 28.5824 115.51 28.2518 114.352 27.5905C113.202 26.9223 112.317 25.9786 111.697 24.7594C111.077 23.5333 110.767 22.0902 110.767 20.4301C110.767 18.7975 111.077 17.3648 111.697 16.1318C112.324 14.8918 113.199 13.9275 114.321 13.2386C115.444 12.5429 116.763 12.1951 118.279 12.1951C119.257 12.1951 120.18 12.3535 121.048 12.6704C121.923 12.9803 122.694 13.4625 123.362 14.1169C124.037 14.7713 124.568 15.6048 124.954 16.6174C125.339 17.6231 125.532 18.8217 125.532 20.2131V21.36H112.524V18.8389H121.947C121.94 18.1225 121.785 17.4853 121.482 16.9274C121.179 16.3625 120.755 15.9182 120.211 15.5945C119.674 15.2707 119.047 15.1088 118.33 15.1088C117.566 15.1088 116.894 15.2948 116.316 15.6668C115.737 16.0319 115.286 16.5141 114.962 17.1133C114.645 17.7057 114.483 18.3567 114.476 19.0662V21.267C114.476 22.1901 114.645 22.9822 114.983 23.6435C115.32 24.2979 115.792 24.8007 116.398 25.152C117.004 25.4965 117.714 25.6687 118.527 25.6687C119.071 25.6687 119.563 25.5929 120.004 25.4414C120.445 25.2829 120.827 25.0522 121.151 24.7491C121.475 24.446 121.72 24.0706 121.885 23.6228L125.377 24.0155C125.157 24.9385 124.737 25.7444 124.117 26.4333C123.504 27.1152 122.718 27.6456 121.761 28.0245C120.803 28.3965 119.708 28.5824 118.475 28.5824ZM128.697 28.2725V12.4017H132.323V15.0468H132.489C132.778 14.1307 133.274 13.4246 133.976 12.9287C134.686 12.4258 135.495 12.1744 136.405 12.1744C136.611 12.1744 136.842 12.1847 137.097 12.2054C137.359 12.2192 137.576 12.2433 137.748 12.2777V15.7185C137.589 15.6633 137.338 15.6151 136.994 15.5738C136.656 15.5256 136.329 15.5015 136.012 15.5015C135.33 15.5015 134.717 15.6496 134.173 15.9458C133.636 16.2351 133.212 16.638 132.902 17.1547C132.592 17.6713 132.437 18.2671 132.437 18.9422V28.2725H128.697Z" fill="white"/>
<g clip-path="url(#clip0_17681_11172)">
<mask id="mask0_17681_11172" style="mask-type:luminance" maskUnits="userSpaceOnUse" x="0" y="1" width="34" height="34">
<path d="M33.5365 1.50586H0.575684V34.1755H33.5365V1.50586Z" fill="white"/>
</mask>
<g mask="url(#mask0_17681_11172)">
<g filter="url(#filter0_d_17681_11172)">
<path d="M3.7312 27.1992C5.11142 29.1191 6.88187 30.7254 8.92645 31.913C10.9711 33.1006 13.2435 33.8426 15.595 34.0904C14.3852 32.2698 12.6267 30.595 10.4313 29.3199C8.23597 28.0447 5.91106 27.3482 3.7312 27.1992Z" fill="white"/>
<path d="M13.3812 24.2421C9.15167 21.7849 4.57381 21.1586 1.29822 22.2649C1.61444 23.31 2.03147 24.322 2.54346 25.2864C5.38939 25.2205 8.49666 25.9934 11.388 27.6728C14.2793 29.3521 16.4908 31.6698 17.844 34.1752C18.936 34.1417 20.0222 34.0026 21.0875 33.7599C20.4252 30.367 17.6098 26.6999 13.3812 24.2421Z" fill="white"/>
<path d="M33.5364 14.2683C32.9987 12.081 32.0256 10.0245 30.6755 8.22155C29.3253 6.4186 27.6256 4.90622 25.678 3.77471C23.7304 2.6432 21.5747 1.91577 19.3398 1.63583C17.1048 1.3559 14.8363 1.52922 12.6698 2.14543C16.2892 2.58838 20.3067 3.94712 24.2467 6.23605C28.1867 8.52498 31.3599 11.3416 33.5364 14.2683Z" fill="white"/>
<path d="M28.2705 22.2896C26.4178 19.2128 23.2442 16.2667 19.3345 13.9955C15.425 11.7243 11.2945 10.427 7.70722 10.3412C4.55122 10.2664 2.18256 11.1839 1.21029 12.8577C1.20476 12.8676 1.197 12.877 1.19091 12.887C1.10343 13.2009 1.02813 13.5154 0.959473 13.831C2.31711 13.2951 3.89012 12.9966 5.63921 12.9634C9.52884 12.8904 13.8819 14.1345 17.8989 16.4682C21.9158 18.802 25.1554 21.9685 27.018 25.3825C27.853 26.9206 28.374 28.435 28.5805 29.8817C28.8209 29.6669 29.0567 29.4449 29.2854 29.214C29.2915 29.2035 29.2954 29.1924 29.3014 29.1814C30.2737 27.5059 29.8977 24.9943 28.2705 22.2896Z" fill="white"/>
<path d="M16.3601 19.1154C10.3731 15.6372 3.75715 15.0924 0.575684 17.5197C0.581933 18.2795 0.640019 19.0379 0.749539 19.7898C1.68542 19.5061 2.64997 19.3275 3.62537 19.2572C7.18058 18.9897 11.1001 19.9803 14.657 22.0477C18.2138 24.1152 21.0177 27.031 22.5469 30.2494C22.9697 31.1312 23.2921 32.0576 23.5081 33.0112C24.2157 32.7338 24.9037 32.4088 25.5673 32.0384C26.0999 28.0718 22.3488 22.5942 16.3601 19.1154Z" fill="white"/>
<path d="M31.3498 17.1405C29.4762 14.067 26.2748 11.1125 22.3375 8.82638C18.4003 6.54022 14.2537 5.22245 10.6548 5.11669C7.91132 5.03752 5.78628 5.70249 4.68445 6.9588C9.25953 6.18364 15.2941 7.48646 21.1432 10.8844C26.9924 14.2824 31.1151 18.8802 32.7064 23.2382C33.2518 21.6596 32.7773 19.4842 31.3498 17.1405Z" fill="white"/>
</g>
</g>
</g>
<defs>
<filter id="filter0_d_17681_11172" x="-20.71" y="-17.6512" width="75.5321" height="75.2403" filterUnits="userSpaceOnUse" color-interpolation-filters="sRGB">
<feFlood flood-opacity="0" result="BackgroundImageFix"/>
<feColorMatrix in="SourceAlpha" type="matrix" values="0 0 0 0 0 0 0 0 0 0 0 0 0 0 0 0 0 0 127 0" result="hardAlpha"/>
<feOffset dy="2.12858"/>
<feGaussianBlur stdDeviation="10.6428"/>
<feComposite in2="hardAlpha" operator="out"/>
<feColorMatrix type="matrix" values="0 0 0 0 0 0 0 0 0 0 0 0 0 0 0 0 0 0 0.1 0"/>
<feBlend mode="normal" in2="BackgroundImageFix" result="effect1_dropShadow_17681_11172"/>
<feBlend mode="normal" in="SourceGraphic" in2="effect1_dropShadow_17681_11172" result="shape"/>
</filter>
<clipPath id="clip0_17681_11172">
<rect width="33.6905" height="32.7547" fill="white" transform="translate(0.575684 1.50586)"/>
</clipPath>
</defs>
</svg>
