<svg width="545" height="212" viewBox="0 0 545 212" fill="none" xmlns="http://www.w3.org/2000/svg">
 <path
  d="M242.677 180C232.026 180 223.565 177.447 217.291 172.341C211.018 167.089 207.881 157.824 207.881 144.548V90.933H189.28V71.4564H207.881L210.726 43.8829H231.078V71.4564H261.715V90.933H231.078V144.548C231.078 150.53 232.318 154.688 234.798 157.022C237.424 159.21 241.874 160.305 248.148 160.305H260.621V180H242.677ZM267.969 180V88.8234H285.432L287.087 106.103C290.273 100.098 294.685 95.3798 300.322 91.9484C306.082 88.3945 313.006 86.6175 321.094 86.6175V107.022H315.763C310.371 107.022 305.53 107.941 301.241 109.779C297.075 111.495 293.704 114.497 291.131 118.787C288.68 122.953 287.454 128.774 287.454 136.25V180H267.969ZM335.962 71.544C332.286 71.544 329.222 70.441 326.771 68.2351C324.443 65.9067 323.279 63.0268 323.279 59.5954C323.279 56.164 324.443 53.3454 326.771 51.1395C329.222 48.8111 332.286 47.6469 335.962 47.6469C339.639 47.6469 342.641 48.8111 344.97 51.1395C347.421 53.3454 348.646 56.164 348.646 59.5954C348.646 63.0268 347.421 65.9067 344.97 68.2351C342.641 70.441 339.639 71.544 335.962 71.544ZM326.22 180V88.8234H345.705V180H326.22ZM389.442 182.206C381.722 182.206 375.349 180.919 370.325 178.346C365.3 175.772 361.562 172.402 359.111 168.235C356.66 163.946 355.435 159.289 355.435 154.265C355.435 145.441 358.866 138.456 365.729 133.309C372.592 128.162 382.396 125.588 395.141 125.588H419.038V123.934C419.038 116.826 417.077 111.495 413.155 107.941C409.356 104.387 404.393 102.61 398.266 102.61C392.874 102.61 388.155 103.958 384.111 106.654C380.19 109.228 377.8 113.088 376.942 118.235H357.457C358.07 111.618 360.275 105.98 364.075 101.323C367.996 96.544 372.898 92.9288 378.78 90.4778C384.785 87.9043 391.342 86.6175 398.45 86.6175C411.195 86.6175 421.06 89.9876 428.045 96.7278C435.03 103.345 438.523 112.414 438.523 123.934V180H421.611L419.957 164.375C417.383 169.399 413.646 173.627 408.744 177.059C403.842 180.49 397.408 182.206 389.442 182.206ZM393.302 166.397C398.572 166.397 402.984 165.172 406.538 162.721C410.214 160.147 413.033 156.777 414.994 152.61C417.077 148.444 418.364 143.848 418.854 138.823H397.163C389.442 138.823 383.927 140.172 380.619 142.868C377.432 145.564 375.839 148.934 375.839 152.978C375.839 157.145 377.371 160.453 380.435 162.904C383.621 165.233 387.91 166.397 393.302 166.397ZM489.919 182.206C481.096 182.206 473.314 180.123 466.573 175.956C459.833 171.789 454.564 166.091 450.765 158.86C446.966 151.63 445.066 143.419 445.066 134.228C445.066 125.037 446.966 116.887 450.765 109.779C454.564 102.549 459.833 96.9116 466.573 92.8675C473.436 88.7009 481.279 86.6175 490.103 86.6175C497.333 86.6175 503.645 88.0268 509.037 90.8455C514.552 93.6641 518.841 97.6469 521.904 102.794V47.6469H541.39V180H523.927L521.904 165.846C518.963 170.135 514.919 173.934 509.772 177.243C504.625 180.551 498.007 182.206 489.919 182.206ZM493.412 165.294C501.745 165.294 508.547 162.414 513.816 156.654C519.208 150.895 521.904 143.48 521.904 134.412C521.904 125.221 519.208 117.806 513.816 112.169C508.547 106.409 501.745 103.529 493.412 103.529C485.078 103.529 478.216 106.409 472.824 112.169C467.431 117.806 464.735 125.221 464.735 134.412C464.735 140.417 465.961 145.748 468.412 150.404C470.863 155.061 474.233 158.738 478.522 161.434C482.934 164.007 487.897 165.294 493.412 165.294Z"
  fill="white" />
 <path
  d="M78.1419 36.4921C82.0139 29.1557 92.8186 30.1457 95.2929 38.0635L105.862 71.8831C109.782 84.4301 109.258 97.9452 104.376 110.15L97.2904 127.863C83.5956 162.1 50.4362 184.55 13.5619 184.55C7.4044 184.55 3.4561 178.002 6.33015 172.556L78.1419 36.4921Z"
  fill="url(#paint0_linear_3375_28660)" />
 <path
  d="M108.798 109.47C111.355 103.304 119.828 102.646 123.306 108.343L161.864 171.493C165.328 177.167 161.245 184.445 154.597 184.445H144.168C132.167 184.445 120.997 178.313 114.554 168.188L106.136 154.96C99.9881 145.299 98.939 133.247 103.325 122.669L108.798 109.47Z"
  fill="url(#paint1_linear_3375_28660)" />
 <path
  d="M90.6746 148.484C92.5493 145.408 97.4347 145.502 98.9421 148.774C103.081 157.758 106.885 164.25 111.332 170.906C115.178 176.663 111.211 184.445 104.288 184.445H57.4523C54.6767 184.445 53.826 179.974 56.314 178.744C69.5786 172.185 82.1756 162.431 90.6746 148.484Z"
  fill="url(#paint2_linear_3375_28660)" />
 <defs>
  <linearGradient id="paint0_linear_3375_28660" x1="92.2201" y1="64.4431" x2="5.68811" y2="228.935"
   gradientUnits="userSpaceOnUse">
   <stop offset="0.168487" stop-color="#3958E3" />
   <stop offset="1" stop-color="#617EFD" />
  </linearGradient>
  <linearGradient id="paint1_linear_3375_28660" x1="118.122" y1="102.571" x2="134.293" y2="184.217"
   gradientUnits="userSpaceOnUse">
   <stop stop-color="#1A3AC7" />
   <stop offset="1" stop-color="#4363F2" />
  </linearGradient>
  <linearGradient id="paint2_linear_3375_28660" x1="104.084" y1="117.505" x2="134.082" y2="184.022"
   gradientUnits="userSpaceOnUse">
   <stop stop-color="#1A3AC7" />
   <stop offset="1" stop-color="#4363F2" />
  </linearGradient>
 </defs>
</svg>
 