<svg width="60" height="12" viewBox="0 0 60 12" fill="none" xmlns="http://www.w3.org/2000/svg">
<path d="M5.54908 1.242V2.278H1.30708V5.568H4.75108V6.604H1.30708V11H0.0330782V1.242H5.54908ZM7.74577 2.082C7.5031 2.082 7.29777 1.998 7.12977 1.83C6.96177 1.662 6.87777 1.45667 6.87777 1.214C6.87777 0.971333 6.96177 0.766 7.12977 0.598C7.29777 0.43 7.5031 0.345999 7.74577 0.345999C7.9791 0.345999 8.1751 0.43 8.33377 0.598C8.50177 0.766 8.58577 0.971333 8.58577 1.214C8.58577 1.45667 8.50177 1.662 8.33377 1.83C8.1751 1.998 7.9791 2.082 7.74577 2.082ZM8.36177 3.328V11H7.08777V3.328H8.36177ZM11.8071 4.574C12.0311 4.13533 12.3484 3.79467 12.7591 3.552C13.1791 3.30933 13.6877 3.188 14.2851 3.188V4.504H13.9491C12.5211 4.504 11.8071 5.27867 11.8071 6.828V11H10.5331V3.328H11.8071V4.574ZM22.7557 6.87C22.7557 7.11267 22.7417 7.36933 22.7137 7.64H16.5817C16.6284 8.396 16.8851 8.98867 17.3517 9.418C17.8277 9.838 18.4017 10.048 19.0737 10.048C19.6244 10.048 20.0817 9.922 20.4457 9.67C20.8191 9.40867 21.0804 9.06333 21.2297 8.634H22.6017C22.3964 9.37133 21.9857 9.97333 21.3697 10.44C20.7537 10.8973 19.9884 11.126 19.0737 11.126C18.3457 11.126 17.6924 10.9627 17.1137 10.636C16.5444 10.3093 16.0964 9.84733 15.7697 9.25C15.4431 8.64333 15.2797 7.94333 15.2797 7.15C15.2797 6.35667 15.4384 5.66133 15.7557 5.064C16.0731 4.46667 16.5164 4.00933 17.0857 3.692C17.6644 3.36533 18.3271 3.202 19.0737 3.202C19.8017 3.202 20.4457 3.36067 21.0057 3.678C21.5657 3.99533 21.9951 4.434 22.2937 4.994C22.6017 5.54467 22.7557 6.17 22.7557 6.87ZM21.4397 6.604C21.4397 6.11867 21.3324 5.70333 21.1177 5.358C20.9031 5.00333 20.6091 4.73733 20.2357 4.56C19.8717 4.37333 19.4657 4.28 19.0177 4.28C18.3737 4.28 17.8231 4.48533 17.3657 4.896C16.9177 5.30667 16.6611 5.876 16.5957 6.604H21.4397ZM25.9914 4.378V8.9C25.9914 9.27333 26.0707 9.53933 26.2294 9.698C26.388 9.84733 26.6634 9.922 27.0554 9.922H27.9934V11H26.8454C26.136 11 25.604 10.8367 25.2494 10.51C24.8947 10.1833 24.7174 9.64667 24.7174 8.9V4.378H23.7234V3.328H24.7174V1.396H25.9914V3.328H27.9934V4.378H25.9914ZM33.345 3.188C33.9237 3.188 34.4463 3.314 34.913 3.566C35.3797 3.80867 35.7437 4.17733 36.005 4.672C36.2757 5.16667 36.411 5.76867 36.411 6.478V11H35.151V6.66C35.151 5.89467 34.9597 5.31133 34.577 4.91C34.1943 4.49933 33.6717 4.294 33.009 4.294C32.337 4.294 31.8003 4.504 31.399 4.924C31.007 5.344 30.811 5.95533 30.811 6.758V11H29.537V0.64H30.811V4.42C31.063 4.028 31.4083 3.72467 31.847 3.51C32.295 3.29533 32.7943 3.188 33.345 3.188ZM39.7661 4.574C39.9901 4.13533 40.3074 3.79467 40.7181 3.552C41.1381 3.30933 41.6467 3.188 42.2441 3.188V4.504H41.9081C40.4801 4.504 39.7661 5.27867 39.7661 6.828V11H38.4921V3.328H39.7661V4.574ZM50.7147 6.87C50.7147 7.11267 50.7007 7.36933 50.6727 7.64H44.5407C44.5874 8.396 44.8441 8.98867 45.3107 9.418C45.7867 9.838 46.3607 10.048 47.0327 10.048C47.5834 10.048 48.0407 9.922 48.4047 9.67C48.7781 9.40867 49.0394 9.06333 49.1887 8.634H50.5607C50.3554 9.37133 49.9447 9.97333 49.3287 10.44C48.7127 10.8973 47.9474 11.126 47.0327 11.126C46.3047 11.126 45.6514 10.9627 45.0727 10.636C44.5034 10.3093 44.0554 9.84733 43.7287 9.25C43.4021 8.64333 43.2387 7.94333 43.2387 7.15C43.2387 6.35667 43.3974 5.66133 43.7147 5.064C44.0321 4.46667 44.4754 4.00933 45.0447 3.692C45.6234 3.36533 46.2861 3.202 47.0327 3.202C47.7607 3.202 48.4047 3.36067 48.9647 3.678C49.5247 3.99533 49.9541 4.434 50.2527 4.994C50.5607 5.54467 50.7147 6.17 50.7147 6.87ZM49.3987 6.604C49.3987 6.11867 49.2914 5.70333 49.0767 5.358C48.8621 5.00333 48.5681 4.73733 48.1947 4.56C47.8307 4.37333 47.4247 4.28 46.9767 4.28C46.3327 4.28 45.7821 4.48533 45.3247 4.896C44.8767 5.30667 44.6201 5.876 44.5547 6.604H49.3987ZM59.3964 6.87C59.3964 7.11267 59.3824 7.36933 59.3544 7.64H53.2224C53.269 8.396 53.5257 8.98867 53.9924 9.418C54.4684 9.838 55.0424 10.048 55.7144 10.048C56.265 10.048 56.7224 9.922 57.0864 9.67C57.4597 9.40867 57.721 9.06333 57.8704 8.634H59.2424C59.037 9.37133 58.6264 9.97333 58.0104 10.44C57.3944 10.8973 56.629 11.126 55.7144 11.126C54.9864 11.126 54.333 10.9627 53.7544 10.636C53.185 10.3093 52.737 9.84733 52.4104 9.25C52.0837 8.64333 51.9204 7.94333 51.9204 7.15C51.9204 6.35667 52.079 5.66133 52.3964 5.064C52.7137 4.46667 53.157 4.00933 53.7264 3.692C54.305 3.36533 54.9677 3.202 55.7144 3.202C56.4424 3.202 57.0864 3.36067 57.6464 3.678C58.2064 3.99533 58.6357 4.434 58.9344 4.994C59.2424 5.54467 59.3964 6.17 59.3964 6.87ZM58.0804 6.604C58.0804 6.11867 57.973 5.70333 57.7584 5.358C57.5437 5.00333 57.2497 4.73733 56.8764 4.56C56.5124 4.37333 56.1064 4.28 55.6584 4.28C55.0144 4.28 54.4637 4.48533 54.0064 4.896C53.5584 5.30667 53.3017 5.876 53.2364 6.604H58.0804Z" fill="url(#paint0_linear_2083_8499)"/>
<defs>
<linearGradient id="paint0_linear_2083_8499" x1="61.5549" y1="-4.84054" x2="47.9622" y2="28.2648" gradientUnits="userSpaceOnUse">
<stop offset="0.118018" stop-color="#F2BE47"/>
<stop offset="0.598583" stop-color="#EA7938"/>
<stop offset="1" stop-color="#E13D2F"/>
</linearGradient>
</defs>
</svg>
