<svg width="125" height="43" viewBox="0 0 125 43" fill="none" xmlns="http://www.w3.org/2000/svg">
<g clip-path="url(#clip0_17681_11836)">
<path d="M47.3915 24.7686V21.9002H54.1863C55.2253 21.9002 56.0361 21.6049 56.6178 21.0144C57.1992 20.4239 57.4903 19.6454 57.4903 18.6829C57.4903 17.7204 57.1992 16.9266 56.6178 16.3514C56.0361 15.7762 55.2253 15.4886 54.1863 15.4886H45.228V29.4833H42.2954V12.5225H54.1863C55.164 12.5225 56.0361 12.6663 56.8052 12.9538C57.5724 13.2415 58.2208 13.646 58.7488 14.1675C59.2768 14.6891 59.6802 15.3218 59.9596 16.0676C60.2389 16.8135 60.3786 17.6533 60.3786 18.587C60.3786 19.5208 60.2389 20.3395 59.9596 21.0949C59.6802 21.8484 59.2768 22.4984 58.7488 23.043C58.2208 23.5875 57.5743 24.0112 56.8052 24.3141C56.0383 24.6171 55.164 24.7686 54.1863 24.7686H47.3915Z" fill="white"/>
<path d="M70.003 29.4795V23.041L61.022 12.5225H65.0008L71.587 20.3357L78.1945 12.5225H81.9647L72.9587 23.041V29.4795H70.003Z" fill="white"/>
<path d="M92.1545 29.4795V15.4847H84.3718V12.5225H102.904V15.4847H95.1098V29.4795H92.1545Z" fill="white"/>
<path d="M121.393 12.5225H124.337V29.4795H121.393V12.5225Z" fill="white"/>
<path d="M108.69 29.4795V22.1399H119.643V19.515H108.69V12.5225H105.746V29.4795H108.69Z" fill="white"/>
<path d="M21.1478 16.9561C21.1478 19.2972 19.254 21.1953 16.9182 21.1953V25.4346C21.5897 25.4346 25.3773 21.6383 25.3773 16.9561C25.3773 12.2739 21.5897 8.47754 16.9182 8.47754C15.3783 8.47754 13.9321 8.8898 12.6887 9.61262C10.1598 11.0775 8.45917 13.8174 8.45917 16.9561V38.1525L12.2621 41.9639L12.6887 42.3917V16.9561C12.6887 14.615 14.5825 12.7168 16.9182 12.7168C19.254 12.7168 21.1478 14.615 21.1478 16.9561Z" fill="white"/>
<path d="M16.9179 0C13.8362 0 10.9476 0.826377 8.45883 2.27014C6.86535 3.19239 5.43829 4.36773 4.22929 5.74247C1.59707 8.73159 -0.000244141 12.6583 -0.000244141 16.9571V29.6748L4.22929 33.9141V16.9571C4.22929 13.1914 5.86297 9.80725 8.45883 7.47766C9.6793 6.38479 11.1121 5.52196 12.6884 4.96594C14.0102 4.49426 15.4354 4.23926 16.9179 4.23926C23.9251 4.23926 29.6066 9.93378 29.6066 16.9571C29.6066 23.9803 23.9251 29.6748 16.9179 29.6748V33.9141C26.2627 33.9141 33.8361 26.3214 33.8361 16.9571C33.8361 7.59269 26.2627 0 16.9179 0Z" fill="white"/>
</g>
<rect x="0.018925" y="0.018925" width="124.299" height="42.354" stroke="#13141A" stroke-width="0.0378499"/>
<defs>
<clipPath id="clip0_17681_11836">
<rect width="124.337" height="42.3919" fill="white"/>
</clipPath>
</defs>
</svg>
