<svg width="72" height="25" viewBox="0 0 72 25" fill="none" xmlns="http://www.w3.org/2000/svg">
<g clip-path="url(#clip0_5529_6185)">
<path d="M27.269 14.3302V12.6807H31.1765C31.7739 12.6807 32.2402 12.5109 32.5747 12.1713C32.909 11.8317 33.0764 11.384 33.0764 10.8305C33.0764 10.277 32.909 9.82052 32.5747 9.48974C32.2402 9.15895 31.7739 8.99357 31.1765 8.99357H26.0248V17.0415H24.3384V7.28784H31.1765C31.7387 7.28784 32.2402 7.37053 32.6825 7.53591C33.1237 7.70131 33.4965 7.93397 33.8002 8.23387C34.1038 8.53378 34.3358 8.89763 34.4965 9.32655C34.6571 9.75546 34.7374 10.2384 34.7374 10.7754C34.7374 11.3124 34.6571 11.7832 34.4965 12.2176C34.3358 12.6509 34.1038 13.0247 33.8002 13.3378C33.4965 13.651 33.1248 13.8947 32.6825 14.0688C32.2415 14.2431 31.7387 14.3302 31.1765 14.3302H27.269Z" fill="#E6DAFE"/>
<path d="M40.2716 17.0393V13.3367L35.1069 7.28784H37.395L41.1825 11.781L44.9823 7.28784H47.1504L41.9714 13.3367V17.0393H40.2716Z" fill="#E6DAFE"/>
<path d="M53.0107 17.0393V8.99135H48.5352V7.28784H59.1921V8.99135H54.7102V17.0393H53.0107Z" fill="#E6DAFE"/>
<path d="M69.8245 7.28784H71.5174V17.0393H69.8245V7.28784Z" fill="#E6DAFE"/>
<path d="M62.5194 17.0393V12.8185H68.8181V11.309H62.5194V7.28784H60.8264V17.0393H62.5194Z" fill="#E6DAFE"/>
<path d="M12.1767 9.83739C12.1767 11.1837 11.0876 12.2753 9.74442 12.2753V14.7131C12.4308 14.7131 14.609 12.53 14.609 9.83739C14.609 7.14485 12.4308 4.96167 9.74442 4.96167C8.85886 4.96167 8.02721 5.19875 7.31215 5.61442C5.85786 6.45681 4.87988 8.03243 4.87988 9.83739V22.0267L7.06684 24.2186L7.31215 24.4646V9.83739C7.31215 8.49111 8.40122 7.39953 9.74442 7.39953C11.0876 7.39953 12.1767 8.49111 12.1767 9.83739Z" fill="#E6DAFE"/>
<path d="M9.74471 0.0861816C7.97249 0.0861816 6.31138 0.561404 4.88016 1.39167C3.9638 1.92202 3.14315 2.59792 2.44789 3.38849C0.93419 5.10743 0.015625 7.36557 0.015625 9.83763V17.1512L2.44789 19.5891V9.83763C2.44789 7.6721 3.38737 5.72601 4.88016 4.38634C5.58201 3.75786 6.40597 3.26168 7.31245 2.94193C8.07259 2.67068 8.89215 2.52404 9.74471 2.52404C13.7743 2.52404 17.0415 5.79877 17.0415 9.83763C17.0415 13.8765 13.7743 17.1512 9.74471 17.1512V19.5891C15.1186 19.5891 19.4738 15.2227 19.4738 9.83763C19.4738 4.45249 15.1186 0.0861816 9.74471 0.0861816Z" fill="#E6DAFE"/>
</g>
<defs>
<clipPath id="clip0_5529_6185">
<rect width="71.6192" height="24.7236" fill="white"/>
</clipPath>
</defs>
</svg>
