<svg width="726" height="17" viewBox="0 0 726 17" fill="none" xmlns="http://www.w3.org/2000/svg">
<path d="M0.491425 4.38623C0.478404 4.28206 0.452362 4.19092 0.4133 4.11279C0.387258 4.02165 0.354706 3.92399 0.315643 3.81982C0.250539 3.66357 0.191945 3.4943 0.139862 3.31201C0.0877787 3.12972 0.0617371 2.91488 0.0617371 2.66748C0.0877787 2.53727 0.120331 2.44613 0.159393 2.39404C0.198456 2.32894 0.237518 2.27686 0.276581 2.23779L0.354706 1.88623H0.647675C0.751841 1.89925 0.856008 1.90576 0.960175 1.90576C1.07736 1.90576 1.18804 1.90576 1.29221 1.90576C1.787 1.90576 2.29481 1.88623 2.81564 1.84717C3.33648 1.80811 3.87033 1.76253 4.41721 1.71045C5.01616 1.63232 5.6607 1.57373 6.3508 1.53467C6.4159 1.39144 6.45497 1.30029 6.46799 1.26123C6.49403 1.22217 6.52007 1.1766 6.54611 1.12451L6.76096 1.00732C7.06043 0.994303 7.26877 1.03337 7.38596 1.12451C7.50314 1.20264 7.59429 1.28076 7.65939 1.35889C7.99793 1.33285 8.34299 1.30029 8.69455 1.26123C9.04611 1.20915 9.4107 1.15706 9.7883 1.10498C10.3091 1.03988 10.8365 0.974772 11.3703 0.909668C11.9042 0.844564 12.425 0.812012 12.9328 0.812012C13.1542 0.812012 13.3625 0.818522 13.5578 0.831543C13.7531 0.844564 13.9419 0.864095 14.1242 0.890137L14.3586 1.06592C14.4107 1.15706 14.4758 1.2417 14.5539 1.31982C14.632 1.39795 14.7232 1.47607 14.8274 1.5542C15.0227 1.71045 15.2115 1.90576 15.3938 2.14014C15.5891 2.37451 15.6607 2.71956 15.6086 3.17529L15.511 3.37061C15.4589 3.42269 15.3938 3.47477 15.3156 3.52686L15.1203 3.78076H14.9055C14.7753 3.78076 14.6776 3.79378 14.6125 3.81982C14.5474 3.83285 14.4693 3.85889 14.3781 3.89795C14.3261 3.92399 14.2675 3.95003 14.2024 3.97607C14.1373 3.9891 14.0656 4.00863 13.9875 4.03467C13.8443 4.02165 13.7336 4.01514 13.6555 4.01514C13.5774 4.01514 13.4862 4.01514 13.382 4.01514C12.9914 4.01514 12.5682 4.04118 12.1125 4.09326C11.6568 4.14535 11.2141 4.20394 10.7844 4.26904C10.4719 4.30811 10.1724 4.34717 9.88596 4.38623C9.5995 4.41227 9.33908 4.43831 9.10471 4.46436C8.9745 4.8029 8.85731 5.10238 8.75314 5.36279C8.64898 5.62321 8.5383 5.88363 8.42111 6.14404C8.30392 6.40446 8.19325 6.67139 8.08908 6.94482C7.98491 7.20524 7.88726 7.49821 7.79611 7.82373C7.63986 8.05811 7.50965 8.28597 7.40549 8.50732C7.30132 8.71566 7.21668 8.95654 7.15158 9.22998C6.95627 9.45133 6.81304 9.69222 6.72189 9.95264C6.64377 10.2131 6.57215 10.4344 6.50705 10.6167L6.42892 10.9097C6.33778 11.0008 6.27918 11.0724 6.25314 11.1245C6.24012 11.1766 6.20757 11.2352 6.15549 11.3003C6.11642 11.4696 6.06434 11.6323 5.99924 11.7886C5.9732 11.8537 5.94715 11.9253 5.92111 12.0034C5.89507 12.0685 5.88856 12.1206 5.90158 12.1597C5.87554 12.3029 5.83648 12.4136 5.78439 12.4917C5.78439 12.5698 5.77788 12.6479 5.76486 12.7261C5.75184 12.8042 5.73882 12.8823 5.7258 12.9604C5.69976 13.0516 5.68023 13.1362 5.66721 13.2144C5.65418 13.2795 5.6607 13.3446 5.68674 13.4097C5.7258 13.4618 5.76486 13.5138 5.80392 13.5659C5.84299 13.618 5.87554 13.6831 5.90158 13.7612C5.92762 13.7873 5.96017 13.8068 5.99924 13.8198C6.0383 13.8328 6.07085 13.8524 6.09689 13.8784C6.20106 13.9696 6.29872 14.0216 6.38986 14.0347L6.58517 14.269C6.6633 14.7378 6.59168 15.1024 6.37033 15.3628C6.13596 15.6623 5.74533 15.812 5.19846 15.812L4.92502 15.7925C4.83387 15.7013 4.78179 15.6427 4.76877 15.6167C4.65158 15.5646 4.55392 15.519 4.4758 15.48C4.39767 15.4539 4.32606 15.3953 4.26096 15.3042C4.23491 15.2782 4.20236 15.2651 4.1633 15.2651C4.12424 15.2521 4.09168 15.2326 4.06564 15.2065C3.93543 15.1675 3.83127 15.1219 3.75314 15.0698L3.5383 14.9526C3.55132 14.8224 3.55783 14.7313 3.55783 14.6792C3.45366 14.536 3.36903 14.3797 3.30392 14.2104C3.25184 14.0412 3.20627 13.8654 3.16721 13.6831C3.12814 13.5399 3.08908 13.4097 3.05002 13.2925C3.02398 13.1753 2.9784 13.0711 2.9133 12.98C2.88726 12.0685 2.97189 11.3068 3.16721 10.6948C3.36252 10.0698 3.57736 9.46436 3.81174 8.87842C3.94195 8.56592 4.06564 8.24691 4.18283 7.92139C4.30002 7.59587 4.40418 7.26383 4.49533 6.92529L4.71017 6.71045C4.80132 6.63232 4.85991 6.58675 4.88596 6.57373C4.88596 6.40446 4.91851 6.2417 4.98361 6.08545C5.04872 5.91618 5.12033 5.74691 5.19846 5.57764C5.25054 5.47347 5.29611 5.3693 5.33517 5.26514C5.38726 5.16097 5.41981 5.06982 5.43283 4.9917C5.34168 4.9917 5.25705 4.99821 5.17892 5.01123C5.11382 5.01123 5.04221 5.01774 4.96408 5.03076C4.79481 5.06982 4.63205 5.08936 4.4758 5.08936C4.35861 5.08936 4.27398 5.08285 4.22189 5.06982C4.11773 5.12191 4.02007 5.15446 3.92892 5.16748C3.83778 5.16748 3.74663 5.16748 3.65549 5.16748H3.42111H3.18674C3.03049 5.16748 2.90679 5.18701 2.81564 5.22607C2.63335 5.22607 2.51616 5.22607 2.46408 5.22607C2.412 5.22607 2.3534 5.22607 2.2883 5.22607H2.05392H1.81955C1.71538 5.22607 1.5982 5.21956 1.46799 5.20654C1.33778 5.1805 1.20106 5.12842 1.05783 5.05029L0.921112 4.89404C0.842987 4.75081 0.771372 4.67269 0.706268 4.65967L0.491425 4.60107V4.38623ZM31.557 13.7222C31.4919 13.7352 31.4334 13.6896 31.3813 13.5854C31.3292 13.4683 31.2706 13.3576 31.2055 13.2534H31.4203C31.3292 12.967 31.3031 12.7065 31.3422 12.4722C31.3943 12.2248 31.4529 11.9904 31.518 11.769C31.5831 11.5347 31.6352 11.3133 31.6742 11.105C31.7263 10.8836 31.7068 10.6558 31.6156 10.4214C31.6807 10.4604 31.7263 10.4474 31.7524 10.3823C31.7914 10.3042 31.8175 10.2131 31.8305 10.1089C31.8565 9.9917 31.863 9.87451 31.85 9.75732C31.85 9.62712 31.8435 9.52295 31.8305 9.44482C31.9998 9.04118 32.13 8.62451 32.2211 8.19482C32.3253 7.76514 32.4164 7.34196 32.4945 6.92529C32.5727 6.49561 32.6573 6.08545 32.7485 5.69482C32.8526 5.29118 32.9828 4.91357 33.1391 4.56201C33.3214 4.53597 33.5102 4.56201 33.7055 4.64014C33.9138 4.70524 34.0505 4.78988 34.1156 4.89404C34.5193 4.58154 34.8774 4.20394 35.1899 3.76123C35.5024 3.31852 35.8149 2.88883 36.1274 2.47217C36.4529 2.04248 36.8175 1.66488 37.2211 1.33936C37.6248 1.01383 38.1261 0.818522 38.725 0.753418C39.0375 0.974772 39.3891 1.21566 39.7797 1.47607C40.1703 1.72347 40.4893 2.03597 40.7367 2.41357C40.8409 2.47868 40.9386 2.55029 41.0297 2.62842C41.1339 2.69352 41.238 2.75863 41.3422 2.82373V3.1167C41.5245 3.28597 41.6742 3.48779 41.7914 3.72217C41.9216 3.94352 42.0323 4.18441 42.1235 4.44482C42.2276 4.69222 42.3253 4.94613 42.4164 5.20654C42.5076 5.46696 42.6117 5.70785 42.7289 5.9292C42.7029 6.00732 42.6899 6.07894 42.6899 6.14404C42.7029 6.19613 42.7159 6.25472 42.7289 6.31982C42.755 6.37191 42.7745 6.43701 42.7875 6.51514C42.8005 6.58024 42.807 6.66488 42.807 6.76904C42.755 7.45915 42.5271 8.01904 42.1235 8.44873C41.7328 8.8654 41.2511 9.21045 40.6781 9.48389C40.1182 9.7443 39.5193 9.97217 38.8813 10.1675C38.2432 10.3498 37.6638 10.5516 37.143 10.7729C37.143 10.825 37.169 10.8511 37.2211 10.8511C37.2862 10.8511 37.3057 10.8901 37.2797 10.9683C37.6703 11.2026 37.9698 11.3914 38.1781 11.5347C38.3995 11.6779 38.6013 11.8016 38.7836 11.9058C38.9789 11.9969 39.1873 12.075 39.4086 12.1401C39.643 12.2052 39.962 12.2834 40.3656 12.3745C40.7693 12.4657 41.0818 12.5438 41.3031 12.6089C41.5375 12.661 41.7459 12.7065 41.9281 12.7456C42.1104 12.7716 42.3057 12.7977 42.5141 12.8237C42.7224 12.8498 43.0024 12.8823 43.3539 12.9214C43.4972 13.0646 43.6143 13.2339 43.7055 13.4292C43.7966 13.6245 43.8617 13.8198 43.9008 14.0151C43.9399 14.2104 43.9464 14.3993 43.9203 14.5815C43.9073 14.7508 43.8552 14.8875 43.7641 14.9917C43.7771 15.0438 43.8097 15.0698 43.8617 15.0698C43.9268 15.0568 43.9919 15.0568 44.057 15.0698C43.9659 15.1349 43.8878 15.2131 43.8227 15.3042C43.7576 15.3953 43.6925 15.4865 43.6274 15.5776C43.5623 15.6688 43.4841 15.7534 43.393 15.8315C43.3149 15.9097 43.2107 15.9552 43.0805 15.9683C42.6117 16.1506 42.0128 16.1571 41.2836 15.9878C40.5544 15.8185 39.6235 15.519 38.4906 15.0894C37.9307 14.881 37.475 14.6922 37.1235 14.5229C36.7719 14.3537 36.4659 14.1909 36.2055 14.0347C35.9451 13.8654 35.7042 13.6896 35.4828 13.5073C35.2615 13.312 35.0076 13.0841 34.7211 12.8237C34.682 12.8368 34.656 12.8628 34.643 12.9019C34.643 12.9409 34.6235 12.967 34.5844 12.98C34.5193 13.5008 34.4151 13.924 34.2719 14.2495C34.1417 14.575 33.9464 14.9071 33.686 15.2456C33.4776 15.2065 33.3344 15.2261 33.2563 15.3042C33.1912 15.3823 33.1065 15.4539 33.0024 15.519C32.8722 15.5451 32.7745 15.5386 32.7094 15.4995C32.6443 15.4735 32.5857 15.4409 32.5336 15.4019C32.4815 15.3628 32.4229 15.3237 32.3578 15.2847C32.2927 15.2456 32.1886 15.2326 32.0453 15.2456C32.0063 15.1284 31.9672 15.0177 31.9281 14.9136C31.8891 14.7964 31.7849 14.7443 31.6156 14.7573C31.6547 14.6401 31.6677 14.5425 31.6547 14.4644C31.6417 14.3732 31.6222 14.2951 31.5961 14.23C31.5701 14.1519 31.544 14.0737 31.518 13.9956C31.505 13.9175 31.518 13.8263 31.557 13.7222ZM38.0805 4.79639C37.9112 5.04378 37.7224 5.27165 37.5141 5.47998C37.3057 5.67529 37.0974 5.88363 36.8891 6.10498C36.6938 6.31331 36.518 6.54769 36.3617 6.80811C36.2055 7.0555 36.0948 7.35498 36.0297 7.70654C36.5766 7.64144 37.1495 7.4917 37.7485 7.25732C38.3474 7.00993 38.9138 6.77555 39.4477 6.5542C39.3826 6.07243 39.2133 5.68831 38.9399 5.40186C38.6664 5.10238 38.38 4.90055 38.0805 4.79639ZM62.232 13.5464L62.486 13.3511L62.5055 12.9409C62.831 12.1466 63.163 11.3849 63.5016 10.6558C63.8531 9.9266 64.2177 9.1779 64.5953 8.40967C64.7125 8.16227 64.8297 7.91488 64.9469 7.66748C65.0771 7.42008 65.2008 7.16618 65.318 6.90576C65.305 6.85368 65.2985 6.8016 65.2985 6.74951C65.2985 6.68441 65.3115 6.61279 65.3375 6.53467C65.5198 6.27425 65.663 6.03988 65.7672 5.83154C65.8844 5.62321 65.9951 5.40837 66.0992 5.18701C66.2164 4.9266 66.3401 4.66618 66.4703 4.40576C66.6136 4.14535 66.7893 3.89144 66.9977 3.64404L67.1344 3.44873L67.3492 3.46826C67.4013 3.44222 67.4534 3.42269 67.5055 3.40967C67.5706 3.38363 67.6487 3.37061 67.7399 3.37061L68.0914 3.4292C68.5211 3.23389 68.8987 2.95394 69.2242 2.58936C69.5628 2.21175 69.9013 1.76253 70.2399 1.2417L70.4742 0.909668L70.7867 1.10498C70.8518 1.14404 70.956 1.18311 71.0992 1.22217C71.2425 1.26123 71.3922 1.3068 71.5485 1.35889C71.8219 1.42399 72.0888 1.50212 72.3492 1.59326C72.6097 1.67139 72.8115 1.78206 72.9547 1.92529L73.0524 2.10107C73.0784 2.2443 73.0979 2.37451 73.111 2.4917C73.137 2.60889 73.163 2.72607 73.1891 2.84326C73.2412 3.1167 73.2867 3.39014 73.3258 3.66357C73.3649 3.92399 73.3909 4.21696 73.4039 4.54248C73.469 4.8029 73.5276 5.06982 73.5797 5.34326C73.6448 5.60368 73.7034 5.8641 73.7555 6.12451C73.8206 6.50212 73.8922 6.8667 73.9703 7.21826C74.0485 7.5568 74.1526 7.88232 74.2828 8.19482C74.413 8.19482 74.4912 8.20133 74.5172 8.21436C74.6735 8.14925 74.8557 8.11019 75.0641 8.09717L75.318 8.07764L75.3961 8.31201C75.4222 8.35107 75.4547 8.39014 75.4938 8.4292C75.5328 8.46826 75.5784 8.50732 75.6305 8.54639C75.8388 8.55941 75.9886 8.60498 76.0797 8.68311C76.1839 8.74821 76.2685 8.81331 76.3336 8.87842C76.3597 8.90446 76.3922 8.93701 76.4313 8.97607C76.4703 9.00212 76.5029 9.02165 76.5289 9.03467L76.8805 9.17139L76.6852 9.54248C76.5419 9.81592 76.3206 10.0828 76.0211 10.3433C75.7347 10.6037 75.4091 10.8185 75.0445 10.9878C75.0706 11.0789 75.0836 11.1636 75.0836 11.2417C75.0966 11.3198 75.1162 11.411 75.1422 11.5151C75.1943 11.7756 75.2334 12.049 75.2594 12.3354C75.2985 12.6089 75.2985 12.8953 75.2594 13.1948C75.1292 13.5334 74.9729 13.8394 74.7906 14.1128C74.6214 14.3732 74.413 14.6141 74.1656 14.8354C73.9313 15.0438 73.6643 15.2196 73.3649 15.3628C73.0654 15.493 72.7529 15.5646 72.4274 15.5776C72.2451 15.5386 72.1084 15.493 72.0172 15.4409C71.9391 15.3888 71.8675 15.3368 71.8024 15.2847C71.6982 15.2065 71.6136 15.1545 71.5485 15.1284L71.2945 15.0112L71.3727 14.7183C71.4117 14.6141 71.4052 14.5229 71.3531 14.4448C71.3141 14.3667 71.2229 14.2625 71.0797 14.1323C71.0276 14.0933 70.982 14.0542 70.943 14.0151C70.9039 13.9631 70.8584 13.911 70.8063 13.8589L70.4156 13.4097L71.0602 13.2339C71.4508 13.1297 71.7112 12.9995 71.8414 12.8433C71.9716 12.674 72.0237 12.381 71.9977 11.9644C71.6722 11.8993 71.4052 11.8927 71.1969 11.9448C70.9886 11.9839 70.7802 12.0295 70.5719 12.0815C70.2724 12.1597 69.9794 12.2313 69.693 12.2964C69.4065 12.3485 69.094 12.3745 68.7555 12.3745C68.5341 12.3745 68.2998 12.355 68.0524 12.3159L67.8375 12.2964L67.7789 12.0815C67.7789 12.0555 67.7594 12.0295 67.7203 12.0034C67.6943 11.9644 67.6682 11.9318 67.6422 11.9058C67.5771 11.8276 67.499 11.7235 67.4078 11.5933C67.3167 11.4631 67.2972 11.3003 67.3492 11.105C67.2581 10.9618 67.206 10.812 67.193 10.6558C67.1409 10.7599 67.0953 10.8641 67.0563 10.9683C67.0302 11.0594 67.0042 11.1506 66.9781 11.2417L66.9 11.4956L66.6461 11.5347C66.6201 11.5607 66.594 11.5998 66.568 11.6519C66.555 11.7039 66.555 11.743 66.568 11.769L66.6461 11.9839L66.4508 12.1597C66.4248 12.1987 66.3922 12.2313 66.3531 12.2573C66.3141 12.2834 66.2815 12.3094 66.2555 12.3354C66.2294 12.4787 66.1904 12.6154 66.1383 12.7456C66.0992 12.8758 66.0537 13.006 66.0016 13.1362C65.9365 13.3446 65.8714 13.5464 65.8063 13.7417C65.7542 13.937 65.7281 14.1323 65.7281 14.3276L65.65 14.5815C65.5849 14.6857 65.5003 14.7638 65.3961 14.8159C65.305 14.868 65.2138 14.9136 65.1227 14.9526C64.9925 15.0047 64.9013 15.0568 64.8492 15.1089L64.7906 15.3628L64.4977 15.4019C64.3284 15.4409 64.2047 15.467 64.1266 15.48C64.0615 15.493 63.9834 15.4995 63.8922 15.4995L63.6383 15.48C63.482 15.3237 63.3518 15.2065 63.2477 15.1284C63.1565 15.0373 63.0459 14.9591 62.9156 14.894L62.7985 14.7378C62.7464 14.6336 62.7138 14.5425 62.7008 14.4644C62.6878 14.3732 62.6682 14.2821 62.6422 14.1909C62.6162 14.0216 62.5771 13.9045 62.525 13.8394L62.232 13.5464ZM68.4625 8.46826C68.2802 8.72868 68.1044 9.00212 67.9352 9.28857C68.0263 9.27555 68.111 9.26904 68.1891 9.26904C68.2802 9.26904 68.3714 9.26253 68.4625 9.24951C68.9182 9.22347 69.3414 9.19092 69.732 9.15186C70.1227 9.11279 70.5459 9.04769 71.0016 8.95654C70.8974 8.47477 70.7802 7.98649 70.65 7.4917C70.5328 6.98389 70.4026 6.47607 70.2594 5.96826L70.1617 6.16357C69.8362 6.51514 69.5237 6.89274 69.2242 7.29639C68.9248 7.70003 68.6774 8.08415 68.482 8.44873L68.4625 8.46826ZM97.4969 15.6167C97.1193 15.5256 96.8263 15.3758 96.618 15.1675C96.4227 14.9461 96.2729 14.6922 96.1688 14.4058C96.0776 14.1063 96.0125 13.7808 95.9734 13.4292C95.9474 13.0776 95.9149 12.7131 95.8758 12.3354C95.9279 12.1662 95.993 12.0229 96.0711 11.9058C96.1623 11.7886 96.2013 11.6258 96.1883 11.4175C96.3315 11.0008 96.4617 10.5972 96.5789 10.2065C96.6961 9.81592 96.7742 9.41227 96.8133 8.99561C96.8914 8.87842 96.9695 8.80029 97.0477 8.76123C97.1518 8.01904 97.1649 7.25732 97.0867 6.47607C97.0086 5.69482 96.8784 4.97217 96.6961 4.30811C96.7091 4.16488 96.7287 4.06071 96.7547 3.99561C96.7807 3.91748 96.7807 3.85238 96.7547 3.80029C96.7287 3.68311 96.7677 3.62451 96.8719 3.62451C96.9761 3.62451 97.0802 3.62451 97.1844 3.62451C97.1844 3.39014 97.1388 3.16227 97.0477 2.94092C96.9695 2.70654 96.8914 2.43962 96.8133 2.14014C96.9175 1.90576 96.9891 1.6779 97.0281 1.45654C97.0672 1.23519 97.1388 1.03337 97.243 0.851074C97.6596 0.981283 98.0698 1.13102 98.4734 1.30029C98.8771 1.46956 99.2742 1.63883 99.6649 1.80811C100.055 1.96436 100.44 2.12061 100.817 2.27686C101.195 2.42008 101.566 2.53727 101.93 2.62842C102.49 3.03206 103.063 3.43571 103.649 3.83936C104.248 4.22998 104.789 4.66618 105.27 5.14795C105.765 5.6167 106.175 6.15706 106.501 6.76904C106.826 7.38102 107.015 8.10368 107.067 8.93701C107.041 9.01514 107.022 9.08024 107.009 9.13232C106.996 9.18441 106.983 9.23649 106.97 9.28857C106.957 9.34066 106.95 9.39925 106.95 9.46436C106.95 9.52946 106.95 9.62061 106.95 9.73779C106.481 10.5581 105.889 11.2482 105.173 11.8081C104.457 12.368 103.675 12.8628 102.829 13.2925C101.983 13.7222 101.097 14.1193 100.173 14.4839C99.2612 14.8354 98.3693 15.2131 97.4969 15.6167ZM99.4109 4.54248C99.2938 4.54248 99.2091 4.56852 99.157 4.62061C99.3133 5.20654 99.4305 5.75993 99.5086 6.28076C99.5867 6.8016 99.6258 7.32243 99.6258 7.84326C99.6388 8.3641 99.6128 8.89795 99.5477 9.44482C99.4826 9.9917 99.3914 10.5841 99.2742 11.2222C99.4435 11.2091 99.5932 11.1766 99.7234 11.1245C99.8537 11.0724 99.9839 11.0138 100.114 10.9487C100.257 10.8836 100.401 10.825 100.544 10.7729C100.7 10.7209 100.876 10.6883 101.071 10.6753C101.123 10.5711 101.188 10.493 101.266 10.4409C101.358 10.3758 101.436 10.3107 101.501 10.2456C101.826 10.1154 102.152 9.97868 102.477 9.83545C102.803 9.69222 103.102 9.52946 103.376 9.34717C103.649 9.16488 103.897 8.95654 104.118 8.72217C104.339 8.48779 104.522 8.20785 104.665 7.88232C104.561 7.68701 104.43 7.52425 104.274 7.39404C104.131 7.25081 103.975 7.1141 103.805 6.98389C103.649 6.84066 103.493 6.69743 103.337 6.5542C103.194 6.39795 103.076 6.22217 102.985 6.02686C102.777 6.00081 102.595 5.94873 102.438 5.87061C102.282 5.77946 102.132 5.69482 101.989 5.6167C101.846 5.52555 101.69 5.44092 101.52 5.36279C101.364 5.28467 101.175 5.2391 100.954 5.22607C100.615 5.04378 100.309 4.92008 100.036 4.85498C99.7625 4.77686 99.5542 4.67269 99.4109 4.54248ZM127.059 14.7378C126.954 14.6336 126.876 14.5099 126.824 14.3667C126.785 14.2235 126.681 14.1063 126.512 14.0151C126.486 13.8198 126.447 13.5985 126.395 13.3511C126.355 13.0907 126.31 12.8302 126.258 12.5698C126.219 12.2964 126.186 12.0295 126.16 11.769C126.147 11.4956 126.16 11.2482 126.199 11.0269C126.225 10.9097 126.264 10.799 126.316 10.6948C126.382 10.5907 126.44 10.493 126.492 10.4019C126.557 10.2977 126.603 10.1935 126.629 10.0894C126.668 9.98519 126.674 9.88102 126.648 9.77686C126.727 9.76383 126.772 9.72477 126.785 9.65967C126.811 9.58154 126.876 9.5555 126.98 9.58154C127.072 9.29508 127.169 9.02816 127.273 8.78076C127.378 8.53337 127.488 8.29248 127.605 8.05811C127.723 7.82373 127.84 7.58936 127.957 7.35498C128.087 7.10758 128.204 6.83415 128.309 6.53467C128.087 6.32633 127.924 6.10498 127.82 5.87061C127.729 5.62321 127.658 5.37581 127.605 5.12842C127.553 4.88102 127.514 4.63363 127.488 4.38623C127.462 4.12581 127.41 3.8654 127.332 3.60498C127.488 3.37061 127.677 3.1818 127.898 3.03857C128.12 2.88232 128.361 2.75863 128.621 2.66748C128.895 2.56331 129.188 2.48519 129.5 2.43311C129.813 2.368 130.145 2.29639 130.496 2.21826C131.121 2.02295 131.681 1.87321 132.176 1.76904C132.671 1.65186 133.152 1.56071 133.621 1.49561C134.09 1.41748 134.578 1.35238 135.086 1.30029C135.594 1.23519 136.18 1.14404 136.844 1.02686C136.857 1.06592 136.876 1.08545 136.902 1.08545C136.941 1.08545 136.987 1.08545 137.039 1.08545C137.078 1.1766 137.15 1.22217 137.254 1.22217C137.254 1.18311 137.247 1.15055 137.234 1.12451C137.234 1.08545 137.234 1.0529 137.234 1.02686C137.26 1.02686 137.293 1.03337 137.332 1.04639C137.384 1.05941 137.423 1.07243 137.449 1.08545C137.488 1.09847 137.521 1.09847 137.547 1.08545C137.573 1.05941 137.579 1.01383 137.566 0.94873C137.723 1.22217 137.924 1.45003 138.172 1.63232C138.419 1.8016 138.693 1.95133 138.992 2.08154C139.005 2.19873 139.005 2.28337 138.992 2.33545C138.992 2.38753 138.986 2.43962 138.973 2.4917C138.96 2.53076 138.953 2.58285 138.953 2.64795C138.953 2.70003 138.966 2.77816 138.992 2.88232C138.784 3.23389 138.543 3.50732 138.27 3.70264C138.009 3.89795 137.729 4.04769 137.43 4.15186C137.13 4.25602 136.811 4.33415 136.473 4.38623C136.147 4.43831 135.809 4.49691 135.457 4.56201C135.119 4.6141 134.773 4.69222 134.422 4.79639C134.07 4.90055 133.725 5.0568 133.387 5.26514C133.283 5.22607 133.185 5.21305 133.094 5.22607C133.016 5.22607 132.931 5.2391 132.84 5.26514C132.749 5.29118 132.645 5.31722 132.527 5.34326C132.423 5.3693 132.293 5.3693 132.137 5.34326C132.033 5.43441 131.909 5.49951 131.766 5.53857C131.635 5.57764 131.499 5.6167 131.355 5.65576C131.421 5.79899 131.447 5.94222 131.434 6.08545C131.434 6.22868 131.453 6.35238 131.492 6.45654C132.039 6.50863 132.645 6.50863 133.309 6.45654C133.973 6.39144 134.624 6.34587 135.262 6.31982C135.275 6.38493 135.268 6.4305 135.242 6.45654C135.216 6.48258 135.203 6.52816 135.203 6.59326C135.32 6.67139 135.431 6.76904 135.535 6.88623C135.639 7.00342 135.744 7.12061 135.848 7.23779C135.965 7.34196 136.082 7.43311 136.199 7.51123C136.316 7.57633 136.453 7.60238 136.609 7.58936C136.674 7.71956 136.72 7.85628 136.746 7.99951C136.772 8.14274 136.753 8.29248 136.688 8.44873C136.427 8.618 136.173 8.79378 135.926 8.97607C135.678 9.14535 135.418 9.3016 135.145 9.44482C134.884 9.58805 134.598 9.70524 134.285 9.79639C133.973 9.88753 133.634 9.9266 133.27 9.91357C133.204 9.91357 133.146 9.91357 133.094 9.91357C133.055 9.91357 133.003 9.88753 132.938 9.83545C132.807 9.90055 132.632 9.9266 132.41 9.91357C132.202 9.88753 132.026 9.90706 131.883 9.97217C131.701 9.90706 131.486 9.87451 131.238 9.87451C131.004 9.87451 130.796 9.84196 130.613 9.77686C130.379 10.1154 130.158 10.4735 129.949 10.8511C129.741 11.2157 129.559 11.6063 129.402 12.0229C129.936 12.1011 130.379 12.1336 130.73 12.1206C131.082 12.1076 131.414 12.0815 131.727 12.0425C132.039 12.0034 132.358 11.9644 132.684 11.9253C133.022 11.8862 133.432 11.8732 133.914 11.8862C134.24 11.73 134.611 11.6258 135.027 11.5737C135.457 11.5086 135.854 11.4175 136.219 11.3003C136.349 11.3394 136.46 11.4175 136.551 11.5347C136.642 11.6388 136.727 11.7495 136.805 11.8667C136.896 11.9709 136.987 12.062 137.078 12.1401C137.169 12.2183 137.286 12.2443 137.43 12.2183C137.495 12.2834 137.534 12.3615 137.547 12.4526C137.573 12.5438 137.592 12.6284 137.605 12.7065C137.632 12.7847 137.664 12.8498 137.703 12.9019C137.742 12.9409 137.814 12.9539 137.918 12.9409C137.671 13.4487 137.391 13.8394 137.078 14.1128C136.779 14.3862 136.434 14.6011 136.043 14.7573C135.665 14.9006 135.236 15.0112 134.754 15.0894C134.285 15.1545 133.758 15.2391 133.172 15.3433C133.029 15.3693 132.905 15.3693 132.801 15.3433C132.71 15.3042 132.612 15.2847 132.508 15.2847C132.143 15.3498 131.707 15.4149 131.199 15.48C130.704 15.5451 130.203 15.5711 129.695 15.5581C129.188 15.5451 128.699 15.48 128.23 15.3628C127.762 15.2456 127.371 15.0373 127.059 14.7378ZM191.179 12.5619H185.359L184.359 15.4019H181.979L186.959 1.48185H189.599L194.579 15.4019H192.179L191.179 12.5619ZM190.539 10.7019L188.279 4.24185L185.999 10.7019H190.539ZM226.965 15.4019H224.685L217.825 5.02185V15.4019H215.545V1.48185H217.825L224.685 11.8419V1.48185H226.965V15.4019ZM259.059 1.50185L254.459 10.3619V15.4019H252.179V10.3619L247.559 1.50185H250.099L253.319 8.32186L256.539 1.50185H259.059ZM288.648 1.50185V3.36185H284.948V15.4019H282.668V3.36185H278.948V1.50185H288.648ZM320.857 1.50185V15.4019H318.577V9.32186H312.037V15.4019H309.757V1.50185H312.037V7.46186H318.577V1.50185H320.857ZM344.939 1.50185V15.4019H342.659V1.50185H344.939ZM378.152 15.4019H375.872L369.012 5.02185V15.4019H366.732V1.48185H369.012L375.872 11.8419V1.48185H378.152V15.4019ZM410.006 5.50185C409.646 4.80852 409.146 4.28852 408.506 3.94186C407.866 3.58186 407.126 3.40185 406.286 3.40185C405.366 3.40185 404.546 3.60852 403.826 4.02186C403.106 4.43519 402.539 5.02185 402.126 5.78185C401.726 6.54185 401.526 7.42186 401.526 8.42186C401.526 9.42186 401.726 10.3085 402.126 11.0819C402.539 11.8419 403.106 12.4285 403.826 12.8419C404.546 13.2552 405.366 13.4619 406.286 13.4619C407.526 13.4619 408.533 13.1152 409.306 12.4219C410.079 11.7285 410.553 10.7885 410.726 9.60186H405.506V7.78186H413.166V9.56185C413.019 10.6419 412.633 11.6352 412.006 12.5419C411.393 13.4485 410.586 14.1752 409.586 14.7219C408.599 15.2552 407.499 15.5219 406.286 15.5219C404.979 15.5219 403.786 15.2219 402.706 14.6219C401.626 14.0085 400.766 13.1619 400.126 12.0819C399.499 11.0019 399.186 9.78186 399.186 8.42186C399.186 7.06185 399.499 5.84185 400.126 4.76186C400.766 3.68185 401.626 2.84185 402.706 2.24185C403.799 1.62852 404.993 1.32185 406.286 1.32185C407.766 1.32185 409.079 1.68852 410.226 2.42185C411.386 3.14185 412.226 4.16852 412.746 5.50185H410.006ZM466.39 1.50185V3.36185H460.49V7.46186H465.09V9.32186H460.49V15.4019H458.21V1.50185H466.39ZM494.523 15.4019L491.323 9.84185H489.583V15.4019H487.303V1.50185H492.103C493.17 1.50185 494.07 1.68852 494.803 2.06185C495.55 2.43519 496.103 2.93519 496.463 3.56186C496.836 4.18852 497.023 4.88852 497.023 5.66186C497.023 6.56852 496.756 7.39519 496.223 8.14186C495.703 8.87519 494.896 9.37519 493.803 9.64186L497.243 15.4019H494.523ZM489.583 8.02186H492.103C492.956 8.02186 493.596 7.80852 494.023 7.38186C494.463 6.95519 494.683 6.38185 494.683 5.66186C494.683 4.94186 494.47 4.38186 494.043 3.98185C493.616 3.56852 492.97 3.36185 492.103 3.36185H489.583V8.02186ZM525.08 15.5419C523.787 15.5419 522.593 15.2419 521.5 14.6419C520.42 14.0285 519.56 13.1819 518.92 12.1019C518.293 11.0085 517.98 9.78186 517.98 8.42186C517.98 7.06185 518.293 5.84185 518.92 4.76186C519.56 3.68185 520.42 2.84185 521.5 2.24185C522.593 1.62852 523.787 1.32185 525.08 1.32185C526.387 1.32185 527.58 1.62852 528.66 2.24185C529.753 2.84185 530.613 3.68185 531.24 4.76186C531.867 5.84185 532.18 7.06185 532.18 8.42186C532.18 9.78186 531.867 11.0085 531.24 12.1019C530.613 13.1819 529.753 14.0285 528.66 14.6419C527.58 15.2419 526.387 15.5419 525.08 15.5419ZM525.08 13.5619C526 13.5619 526.82 13.3552 527.54 12.9419C528.26 12.5152 528.82 11.9152 529.22 11.1419C529.633 10.3552 529.84 9.44852 529.84 8.42186C529.84 7.39519 529.633 6.49519 529.22 5.72185C528.82 4.94852 528.26 4.35519 527.54 3.94186C526.82 3.52852 526 3.32185 525.08 3.32185C524.16 3.32185 523.34 3.52852 522.62 3.94186C521.9 4.35519 521.333 4.94852 520.92 5.72185C520.52 6.49519 520.32 7.39519 520.32 8.42186C520.32 9.44852 520.52 10.3552 520.92 11.1419C521.333 11.9152 521.9 12.5152 522.62 12.9419C523.34 13.3552 524.16 13.5619 525.08 13.5619ZM567.863 1.50185V15.4019H565.583V5.88186L561.343 15.4019H559.763L555.503 5.88186V15.4019H553.223V1.50185H555.683L560.563 12.4019L565.423 1.50185H567.863ZM613.679 14.0151C613.614 13.8719 613.549 13.7352 613.484 13.605C613.419 13.4748 613.353 13.3576 613.288 13.2534C613.132 12.9409 612.995 12.661 612.878 12.4136C612.761 12.1662 612.65 11.8797 612.546 11.5542C612.585 11.3328 612.65 10.9618 612.741 10.4409C612.846 9.92008 612.963 9.35368 613.093 8.7417C613.223 8.1167 613.36 7.48519 613.503 6.84717C613.659 6.20915 613.816 5.66227 613.972 5.20654C614.115 4.8029 614.271 4.37321 614.441 3.91748C614.623 3.46175 614.818 3.04508 615.027 2.66748C615.248 2.27686 615.482 1.94482 615.73 1.67139C615.977 1.39795 616.244 1.23519 616.531 1.18311C616.609 1.28727 616.693 1.37191 616.784 1.43701C616.876 1.4891 616.96 1.52816 617.038 1.5542C617.26 1.8667 617.475 2.13363 617.683 2.35498C617.891 2.56331 618.139 2.77165 618.425 2.97998C618.347 3.37061 618.23 3.8068 618.073 4.28857C617.93 4.75732 617.774 5.23258 617.605 5.71436C617.448 6.19613 617.292 6.66488 617.136 7.12061C616.98 7.56331 616.856 7.94743 616.765 8.27295C616.687 8.53337 616.609 8.83285 616.531 9.17139C616.465 9.45785 616.394 9.8029 616.316 10.2065C616.251 10.6102 616.185 11.0529 616.12 11.5347C616.303 11.4826 616.504 11.3784 616.726 11.2222C616.96 11.0659 617.175 10.9032 617.37 10.7339C617.605 10.5386 617.833 10.3302 618.054 10.1089C618.353 9.80941 618.607 9.53597 618.816 9.28857C619.024 9.04118 619.213 8.78727 619.382 8.52686C619.564 8.25342 619.747 7.96045 619.929 7.64795C620.124 7.32243 620.352 6.93831 620.613 6.49561C620.847 6.118 621.088 5.71436 621.335 5.28467C621.596 4.85498 621.856 4.44482 622.116 4.0542C622.377 3.66357 622.631 3.3055 622.878 2.97998C623.126 2.64144 623.353 2.38102 623.562 2.19873C623.705 2.34196 623.868 2.4917 624.05 2.64795C624.245 2.8042 624.454 2.91488 624.675 2.97998C624.766 3.12321 624.851 3.25342 624.929 3.37061C625.02 3.47477 625.105 3.57894 625.183 3.68311C625.287 3.82633 625.378 3.95654 625.456 4.07373C625.547 4.19092 625.626 4.32113 625.691 4.46436C625.678 4.56852 625.652 4.70524 625.613 4.87451C625.587 5.04378 625.554 5.23258 625.515 5.44092C625.476 5.63623 625.43 5.83805 625.378 6.04639C625.339 6.25472 625.3 6.45654 625.261 6.65186C625.131 7.23779 625.033 7.6805 624.968 7.97998C624.903 8.27946 624.857 8.51383 624.831 8.68311C624.805 8.85238 624.786 8.99561 624.773 9.11279C624.773 9.22998 624.773 9.39274 624.773 9.60107C624.773 9.75732 624.786 9.91357 624.812 10.0698C624.838 10.2131 624.864 10.3628 624.89 10.519C624.929 10.6623 624.994 10.799 625.085 10.9292L626.023 10.2065C626.283 10.0112 626.531 9.73779 626.765 9.38623C627.012 9.02165 627.247 8.61149 627.468 8.15576C627.702 7.68701 627.93 7.18571 628.152 6.65186C628.373 6.10498 628.594 5.54508 628.816 4.97217C628.972 4.5555 629.128 4.14535 629.284 3.7417C629.454 3.32503 629.623 2.93441 629.792 2.56982C629.962 2.19222 630.124 1.85368 630.281 1.5542C630.45 1.2417 630.613 0.981283 630.769 0.772949C631.12 0.994303 631.42 1.21566 631.667 1.43701C631.928 1.65837 632.149 1.90576 632.331 2.1792C632.527 2.43962 632.676 2.74561 632.781 3.09717C632.898 3.43571 632.982 3.83936 633.034 4.30811C632.748 4.85498 632.481 5.41488 632.234 5.98779C631.986 6.56071 631.739 7.14014 631.491 7.72607C631.179 8.48128 630.853 9.23649 630.515 9.9917C630.189 10.7339 629.825 11.4435 629.421 12.1206C629.017 12.7977 628.562 13.4227 628.054 13.9956C627.559 14.5555 626.986 15.0308 626.335 15.4214C626.153 15.3823 625.997 15.3628 625.866 15.3628C625.723 15.3628 625.6 15.3823 625.495 15.4214C625.404 15.4604 625.32 15.5125 625.241 15.5776C624.708 15.3302 624.278 14.9657 623.952 14.4839C623.627 13.9891 623.308 13.4422 622.995 12.8433C622.956 12.7521 622.911 12.6675 622.859 12.5894C622.82 12.4982 622.774 12.4071 622.722 12.3159L622.39 11.7104L622.195 11.3394L621.921 11.5933L621.511 11.9644L621.277 12.1987C620.873 12.5763 620.463 12.9474 620.046 13.312C619.629 13.6636 619.193 13.9891 618.738 14.2886C618.282 14.575 617.794 14.8094 617.273 14.9917C616.765 15.174 616.218 15.2716 615.632 15.2847C615.528 15.2326 615.43 15.187 615.339 15.1479C615.261 15.1089 615.183 15.0698 615.105 15.0308C614.805 14.8875 614.558 14.7508 614.363 14.6206C614.167 14.4904 613.939 14.2886 613.679 14.0151ZM651.932 14.7378C651.828 14.6336 651.75 14.5099 651.698 14.3667C651.659 14.2235 651.554 14.1063 651.385 14.0151C651.359 13.8198 651.32 13.5985 651.268 13.3511C651.229 13.0907 651.183 12.8302 651.131 12.5698C651.092 12.2964 651.06 12.0295 651.034 11.769C651.021 11.4956 651.034 11.2482 651.073 11.0269C651.099 10.9097 651.138 10.799 651.19 10.6948C651.255 10.5907 651.314 10.493 651.366 10.4019C651.431 10.2977 651.476 10.1935 651.502 10.0894C651.541 9.98519 651.548 9.88102 651.522 9.77686C651.6 9.76383 651.646 9.72477 651.659 9.65967C651.685 9.58154 651.75 9.5555 651.854 9.58154C651.945 9.29508 652.043 9.02816 652.147 8.78076C652.251 8.53337 652.362 8.29248 652.479 8.05811C652.596 7.82373 652.713 7.58936 652.83 7.35498C652.961 7.10758 653.078 6.83415 653.182 6.53467C652.961 6.32633 652.798 6.10498 652.694 5.87061C652.603 5.62321 652.531 5.37581 652.479 5.12842C652.427 4.88102 652.388 4.63363 652.362 4.38623C652.336 4.12581 652.284 3.8654 652.205 3.60498C652.362 3.37061 652.55 3.1818 652.772 3.03857C652.993 2.88232 653.234 2.75863 653.495 2.66748C653.768 2.56331 654.061 2.48519 654.373 2.43311C654.686 2.368 655.018 2.29639 655.37 2.21826C655.995 2.02295 656.554 1.87321 657.049 1.76904C657.544 1.65186 658.026 1.56071 658.495 1.49561C658.963 1.41748 659.452 1.35238 659.959 1.30029C660.467 1.23519 661.053 1.14404 661.717 1.02686C661.73 1.06592 661.75 1.08545 661.776 1.08545C661.815 1.08545 661.86 1.08545 661.912 1.08545C661.952 1.1766 662.023 1.22217 662.127 1.22217C662.127 1.18311 662.121 1.15055 662.108 1.12451C662.108 1.08545 662.108 1.0529 662.108 1.02686C662.134 1.02686 662.166 1.03337 662.205 1.04639C662.258 1.05941 662.297 1.07243 662.323 1.08545C662.362 1.09847 662.394 1.09847 662.42 1.08545C662.446 1.05941 662.453 1.01383 662.44 0.94873C662.596 1.22217 662.798 1.45003 663.045 1.63232C663.293 1.8016 663.566 1.95133 663.866 2.08154C663.879 2.19873 663.879 2.28337 663.866 2.33545C663.866 2.38753 663.859 2.43962 663.846 2.4917C663.833 2.53076 663.827 2.58285 663.827 2.64795C663.827 2.70003 663.84 2.77816 663.866 2.88232C663.657 3.23389 663.416 3.50732 663.143 3.70264C662.883 3.89795 662.603 4.04769 662.303 4.15186C662.004 4.25602 661.685 4.33415 661.346 4.38623C661.021 4.43831 660.682 4.49691 660.33 4.56201C659.992 4.6141 659.647 4.69222 659.295 4.79639C658.944 4.90055 658.599 5.0568 658.26 5.26514C658.156 5.22607 658.058 5.21305 657.967 5.22607C657.889 5.22607 657.804 5.2391 657.713 5.26514C657.622 5.29118 657.518 5.31722 657.401 5.34326C657.297 5.3693 657.166 5.3693 657.01 5.34326C656.906 5.43441 656.782 5.49951 656.639 5.53857C656.509 5.57764 656.372 5.6167 656.229 5.65576C656.294 5.79899 656.32 5.94222 656.307 6.08545C656.307 6.22868 656.327 6.35238 656.366 6.45654C656.912 6.50863 657.518 6.50863 658.182 6.45654C658.846 6.39144 659.497 6.34587 660.135 6.31982C660.148 6.38493 660.142 6.4305 660.116 6.45654C660.09 6.48258 660.077 6.52816 660.077 6.59326C660.194 6.67139 660.304 6.76904 660.409 6.88623C660.513 7.00342 660.617 7.12061 660.721 7.23779C660.838 7.34196 660.955 7.43311 661.073 7.51123C661.19 7.57633 661.327 7.60238 661.483 7.58936C661.548 7.71956 661.593 7.85628 661.62 7.99951C661.646 8.14274 661.626 8.29248 661.561 8.44873C661.3 8.618 661.047 8.79378 660.799 8.97607C660.552 9.14535 660.291 9.3016 660.018 9.44482C659.758 9.58805 659.471 9.70524 659.159 9.79639C658.846 9.88753 658.508 9.9266 658.143 9.91357C658.078 9.91357 658.019 9.91357 657.967 9.91357C657.928 9.91357 657.876 9.88753 657.811 9.83545C657.681 9.90055 657.505 9.9266 657.284 9.91357C657.075 9.88753 656.899 9.90706 656.756 9.97217C656.574 9.90706 656.359 9.87451 656.112 9.87451C655.877 9.87451 655.669 9.84196 655.487 9.77686C655.252 10.1154 655.031 10.4735 654.823 10.8511C654.614 11.2157 654.432 11.6063 654.276 12.0229C654.81 12.1011 655.252 12.1336 655.604 12.1206C655.955 12.1076 656.287 12.0815 656.6 12.0425C656.912 12.0034 657.231 11.9644 657.557 11.9253C657.896 11.8862 658.306 11.8732 658.787 11.8862C659.113 11.73 659.484 11.6258 659.901 11.5737C660.33 11.5086 660.728 11.4175 661.092 11.3003C661.222 11.3394 661.333 11.4175 661.424 11.5347C661.515 11.6388 661.6 11.7495 661.678 11.8667C661.769 11.9709 661.86 12.062 661.952 12.1401C662.043 12.2183 662.16 12.2443 662.303 12.2183C662.368 12.2834 662.407 12.3615 662.42 12.4526C662.446 12.5438 662.466 12.6284 662.479 12.7065C662.505 12.7847 662.537 12.8498 662.577 12.9019C662.616 12.9409 662.687 12.9539 662.791 12.9409C662.544 13.4487 662.264 13.8394 661.952 14.1128C661.652 14.3862 661.307 14.6011 660.916 14.7573C660.539 14.9006 660.109 15.0112 659.627 15.0894C659.159 15.1545 658.631 15.2391 658.045 15.3433C657.902 15.3693 657.778 15.3693 657.674 15.3433C657.583 15.3042 657.485 15.2847 657.381 15.2847C657.017 15.3498 656.58 15.4149 656.073 15.48C655.578 15.5451 655.077 15.5711 654.569 15.5581C654.061 15.5451 653.573 15.48 653.104 15.3628C652.635 15.2456 652.245 15.0373 651.932 14.7378ZM683.798 5.96826C683.252 5.74691 682.796 5.43441 682.431 5.03076C682.08 4.62712 681.793 4.15186 681.572 3.60498C681.702 3.25342 681.91 2.96045 682.197 2.72607C682.483 2.47868 682.802 2.27035 683.154 2.10107C683.519 1.9318 683.903 1.79508 684.306 1.69092C684.71 1.58675 685.101 1.49561 685.478 1.41748C685.556 1.44352 685.595 1.44352 685.595 1.41748C685.595 1.39144 685.628 1.40446 685.693 1.45654C686.162 1.31331 686.702 1.1766 687.314 1.04639C687.926 0.903158 688.577 0.851074 689.267 0.890137C689.358 0.838053 689.469 0.812012 689.599 0.812012C689.729 0.798991 689.866 0.79248 690.009 0.79248C690.153 0.79248 690.289 0.79248 690.42 0.79248C690.55 0.77946 690.66 0.753418 690.752 0.714355C690.83 0.805501 690.947 0.864095 691.103 0.890137C691.259 0.903158 691.422 0.968262 691.591 1.08545C691.644 1.09847 691.644 1.07894 691.591 1.02686C691.539 0.961751 691.546 0.916178 691.611 0.890137C691.78 0.890137 691.93 0.929199 692.06 1.00732C692.19 1.08545 692.308 1.1766 692.412 1.28076C692.529 1.37191 692.633 1.45654 692.724 1.53467C692.828 1.61279 692.939 1.65186 693.056 1.65186C693.173 1.79508 693.31 1.9318 693.466 2.06201C693.636 2.1792 693.792 2.3029 693.935 2.43311C694.091 2.56331 694.215 2.70654 694.306 2.86279C694.41 3.01904 694.463 3.19482 694.463 3.39014C694.45 3.46826 694.476 3.51383 694.541 3.52686C694.606 3.53988 694.651 3.57894 694.677 3.64404C694.69 4.12581 694.612 4.54248 694.443 4.89404C694.287 5.24561 694.085 5.57113 693.838 5.87061C693.59 6.15706 693.323 6.4305 693.037 6.69092C692.763 6.95133 692.509 7.23128 692.275 7.53076C692.431 7.72607 692.607 7.90837 692.802 8.07764C693.011 8.23389 693.219 8.39014 693.427 8.54639C693.636 8.70264 693.831 8.87191 694.013 9.0542C694.209 9.22347 694.371 9.41878 694.502 9.64014C694.541 9.71826 694.625 9.77035 694.755 9.79639C694.795 9.95264 694.847 10.1154 694.912 10.2847C694.99 10.4409 695.061 10.5972 695.127 10.7534C695.192 10.8966 695.231 11.0269 695.244 11.144C695.257 11.2612 695.224 11.3589 695.146 11.437C695.237 11.4891 695.289 11.5737 695.302 11.6909C695.315 11.7951 695.315 11.8797 695.302 11.9448C695.016 12.2964 694.821 12.5438 694.716 12.687C694.612 12.8302 694.534 12.9344 694.482 12.9995C694.43 13.0646 694.378 13.1232 694.326 13.1753C694.274 13.2274 694.157 13.3315 693.974 13.4878C693.284 13.9045 692.561 14.2821 691.806 14.6206C691.064 14.9461 690.289 15.1675 689.482 15.2847C689.417 15.3758 689.319 15.4474 689.189 15.4995C689.072 15.5646 688.935 15.6167 688.779 15.6558C688.623 15.6948 688.453 15.7274 688.271 15.7534C688.102 15.7795 687.946 15.8055 687.802 15.8315C687.737 15.8055 687.698 15.7599 687.685 15.6948C687.685 15.6427 687.653 15.6037 687.588 15.5776C687.575 15.7339 687.503 15.812 687.373 15.812C687.255 15.825 687.106 15.799 686.923 15.7339C686.741 15.6688 686.552 15.5776 686.357 15.4604C686.162 15.3433 685.992 15.2326 685.849 15.1284C685.784 15.2456 685.7 15.3693 685.595 15.4995C685.504 15.6297 685.407 15.7209 685.302 15.7729C685.12 15.7469 684.983 15.7274 684.892 15.7144C684.814 15.7013 684.736 15.7339 684.658 15.812C684.554 15.7599 684.476 15.7013 684.423 15.6362C684.371 15.5841 684.319 15.5256 684.267 15.4604C684.215 15.4084 684.157 15.3628 684.091 15.3237C684.026 15.2716 683.929 15.2261 683.798 15.187C683.825 15.1219 683.805 15.0243 683.74 14.894C683.675 14.7508 683.584 14.6662 683.466 14.6401C683.532 14.536 683.505 14.4058 683.388 14.2495C683.271 14.0802 683.18 13.8914 683.115 13.6831C683.128 13.592 683.134 13.5008 683.134 13.4097C683.147 13.3055 683.16 13.2144 683.173 13.1362C683.2 13.0451 683.232 12.967 683.271 12.9019C683.31 12.8368 683.375 12.7912 683.466 12.7651C683.453 12.5959 683.401 12.4331 683.31 12.2769C683.427 12.1857 683.505 12.075 683.545 11.9448C683.584 11.8016 683.616 11.6584 683.642 11.5151C683.681 11.3719 683.727 11.2352 683.779 11.105C683.831 10.9618 683.916 10.8446 684.033 10.7534C684.007 10.7144 683.981 10.6818 683.955 10.6558C683.929 10.6297 683.916 10.5841 683.916 10.519C684.111 10.1935 684.248 9.92008 684.326 9.69873C684.404 9.46436 684.463 9.243 684.502 9.03467C684.554 8.81331 684.606 8.57894 684.658 8.33154C684.71 8.08415 684.814 7.77165 684.97 7.39404C684.957 7.15967 684.983 6.95133 685.048 6.76904C685.114 6.58675 685.179 6.41097 685.244 6.2417C685.322 6.05941 685.38 5.87061 685.42 5.67529C685.459 5.47998 685.452 5.25212 685.4 4.9917C685.179 5.01774 685.016 5.09587 684.912 5.22607C684.821 5.35628 684.762 5.53206 684.736 5.75342C684.619 5.85758 684.469 5.90967 684.287 5.90967C684.104 5.89665 683.942 5.91618 683.798 5.96826ZM692.392 9.73779C691.897 9.46436 691.442 9.3016 691.025 9.24951C690.621 9.19743 690.231 9.20394 689.853 9.26904C689.489 9.32113 689.137 9.39925 688.798 9.50342C688.46 9.60758 688.121 9.68571 687.783 9.73779C687.614 10.1805 687.438 10.6688 687.255 11.2026C687.073 11.7365 686.897 12.2573 686.728 12.7651C687.197 12.7 687.627 12.6024 688.017 12.4722C688.408 12.342 688.785 12.1987 689.15 12.0425C689.515 11.8732 689.873 11.7104 690.224 11.5542C690.576 11.3849 690.94 11.2287 691.318 11.0854C691.357 10.9292 691.442 10.8055 691.572 10.7144C691.702 10.6232 691.832 10.5386 691.963 10.4604C692.093 10.3693 692.203 10.2716 692.295 10.1675C692.386 10.0633 692.418 9.92008 692.392 9.73779ZM691.025 3.62451C690.218 3.59847 689.423 3.67008 688.642 3.83936C687.861 4.00863 687.203 4.25602 686.67 4.58154C686.93 4.8029 687.197 4.99821 687.47 5.16748C687.757 5.33675 687.972 5.56462 688.115 5.85107C688.74 5.60368 689.287 5.29118 689.755 4.91357C690.224 4.52295 690.647 4.09326 691.025 3.62451ZM715.411 2.12061C716.127 1.97738 716.837 1.83415 717.54 1.69092C718.243 1.53467 718.946 1.40446 719.649 1.30029C720.365 1.19613 721.094 1.12451 721.837 1.08545C722.579 1.04639 723.36 1.06592 724.18 1.14404C724.506 1.48258 724.792 1.85368 725.04 2.25732C725.287 2.64795 725.522 3.05811 725.743 3.48779C725.717 3.57894 725.697 3.67008 725.684 3.76123C725.684 3.85238 725.671 3.95003 725.645 4.0542C725.58 4.22347 725.489 4.37972 725.372 4.52295C725.268 4.65316 725.183 4.80941 725.118 4.9917C724.792 5.17399 724.48 5.3693 724.18 5.57764C723.894 5.78597 723.608 6.00081 723.321 6.22217C723.087 6.32633 722.839 6.42399 722.579 6.51514C722.331 6.59326 722.143 6.74951 722.012 6.98389C722.442 7.16618 722.82 7.38753 723.145 7.64795C723.471 7.90837 723.757 8.20133 724.005 8.52686C724.252 8.85238 724.467 9.20394 724.649 9.58154C724.831 9.95915 724.994 10.3498 725.137 10.7534C725.111 10.9487 725.079 11.1506 725.04 11.3589C725.001 11.5672 725.001 11.743 725.04 11.8862C724.949 12.1597 724.825 12.381 724.669 12.5503C724.525 12.7065 724.382 12.9214 724.239 13.1948C723.783 13.3901 723.412 13.6636 723.126 14.0151C722.996 14.0151 722.93 13.9891 722.93 13.937C722.527 14.2104 722.058 14.4448 721.524 14.6401C720.99 14.8224 720.417 14.9657 719.805 15.0698C719.193 15.174 718.549 15.2326 717.872 15.2456C717.195 15.2586 716.518 15.2326 715.841 15.1675C715.788 15.1284 715.743 15.0828 715.704 15.0308C715.665 14.9787 715.587 14.9591 715.469 14.9722C715.417 14.842 715.346 14.7313 715.255 14.6401C715.177 14.536 715.111 14.4188 715.059 14.2886C715.19 14.0802 715.274 13.8394 715.313 13.5659C715.365 13.2925 715.417 13.0321 715.469 12.7847C715.535 12.5243 715.619 12.2964 715.723 12.1011C715.828 11.8927 716.003 11.743 716.251 11.6519C716.355 11.6388 716.413 11.6714 716.427 11.7495C716.44 11.8276 716.479 11.8797 716.544 11.9058C717.052 11.9058 717.559 11.8993 718.067 11.8862C718.575 11.8602 719.057 11.8146 719.512 11.7495C719.968 11.6714 720.391 11.5607 720.782 11.4175C721.186 11.2743 721.531 11.0724 721.817 10.812C721.427 10.4995 720.971 10.2651 720.45 10.1089C719.929 9.93962 719.421 9.77686 718.927 9.62061C718.445 9.46436 718.015 9.26904 717.637 9.03467C717.26 8.78727 717.012 8.4292 716.895 7.96045C716.96 7.66097 717.006 7.39404 717.032 7.15967C717.058 6.92529 717.091 6.71045 717.13 6.51514C717.169 6.31982 717.227 6.13753 717.305 5.96826C717.397 5.78597 717.54 5.61019 717.735 5.44092C717.67 5.40186 717.572 5.39535 717.442 5.42139C717.325 5.43441 717.195 5.46696 717.052 5.51904C716.908 5.55811 716.765 5.61019 716.622 5.67529C716.492 5.72738 716.381 5.77295 716.29 5.81201C716.016 5.74691 715.736 5.70785 715.45 5.69482C715.177 5.66878 714.923 5.58415 714.688 5.44092C714.662 5.29769 714.63 5.14144 714.591 4.97217C714.552 4.78988 714.525 4.60758 714.512 4.42529C714.499 4.243 714.512 4.06071 714.552 3.87842C714.591 3.69613 714.682 3.52686 714.825 3.37061C714.799 3.27946 714.779 3.18831 714.766 3.09717C714.753 3.00602 714.727 2.9279 714.688 2.86279C714.831 2.74561 714.981 2.62842 715.137 2.51123C715.307 2.39404 715.398 2.26383 715.411 2.12061Z" fill="white"/>
</svg>
