<svg width="332" height="37" viewBox="0 0 332 37" fill="none" xmlns="http://www.w3.org/2000/svg">
<path d="M1.2825 3.1875C1.27208 3.10417 1.25125 3.03125 1.22 2.96875C1.19917 2.89583 1.17313 2.81771 1.14188 2.73438C1.08979 2.60938 1.04292 2.47396 1.00125 2.32812C0.959585 2.18229 0.938751 2.01042 0.938751 1.8125C0.959585 1.70833 0.985626 1.63542 1.01688 1.59375C1.04813 1.54167 1.07938 1.5 1.11063 1.46875L1.17313 1.1875H1.4075C1.49083 1.19792 1.57417 1.20312 1.6575 1.20312C1.75125 1.20312 1.83979 1.20312 1.92313 1.20312C2.31896 1.20312 2.72521 1.1875 3.14188 1.15625C3.55854 1.125 3.98563 1.08854 4.42313 1.04688C4.90229 0.984375 5.41792 0.9375 5.97 0.90625C6.02208 0.791667 6.05333 0.71875 6.06375 0.6875C6.08458 0.65625 6.10542 0.619792 6.12625 0.578125L6.29813 0.484375C6.53771 0.473958 6.70438 0.505208 6.79813 0.578125C6.89188 0.640625 6.96479 0.703125 7.01688 0.765625C7.28771 0.744792 7.56375 0.71875 7.845 0.6875C8.12625 0.645833 8.41792 0.604167 8.72 0.5625C9.13667 0.510417 9.55854 0.458333 9.98563 0.40625C10.4127 0.354167 10.8294 0.328125 11.2356 0.328125C11.4127 0.328125 11.5794 0.333333 11.7356 0.34375C11.8919 0.354167 12.0429 0.369792 12.1888 0.390625L12.3763 0.53125C12.4179 0.604167 12.47 0.671875 12.5325 0.734375C12.595 0.796875 12.6679 0.859375 12.7513 0.921875C12.9075 1.04688 13.0585 1.20312 13.2044 1.39062C13.3606 1.57812 13.4179 1.85417 13.3763 2.21875L13.2981 2.375C13.2565 2.41667 13.2044 2.45833 13.1419 2.5L12.9856 2.70312H12.8138C12.7096 2.70312 12.6315 2.71354 12.5794 2.73438C12.5273 2.74479 12.4648 2.76562 12.3919 2.79688C12.3502 2.81771 12.3033 2.83854 12.2513 2.85938C12.1992 2.86979 12.1419 2.88542 12.0794 2.90625C11.9648 2.89583 11.8763 2.89062 11.8138 2.89062C11.7513 2.89062 11.6783 2.89062 11.595 2.89062C11.2825 2.89062 10.944 2.91146 10.5794 2.95312C10.2148 2.99479 9.86063 3.04167 9.51688 3.09375C9.26688 3.125 9.02729 3.15625 8.79813 3.1875C8.56896 3.20833 8.36063 3.22917 8.17313 3.25C8.06896 3.52083 7.97521 3.76042 7.89188 3.96875C7.80854 4.17708 7.72 4.38542 7.62625 4.59375C7.5325 4.80208 7.44396 5.01562 7.36063 5.23438C7.27729 5.44271 7.19917 5.67708 7.12625 5.9375C7.00125 6.125 6.89708 6.30729 6.81375 6.48438C6.73042 6.65104 6.66271 6.84375 6.61063 7.0625C6.45438 7.23958 6.33979 7.43229 6.26688 7.64062C6.20438 7.84896 6.14708 8.02604 6.095 8.17188L6.0325 8.40625C5.95958 8.47917 5.91271 8.53646 5.89188 8.57812C5.88146 8.61979 5.85542 8.66667 5.81375 8.71875C5.7825 8.85417 5.74083 8.98438 5.68875 9.10938C5.66792 9.16146 5.64708 9.21875 5.62625 9.28125C5.60542 9.33333 5.60021 9.375 5.61063 9.40625C5.58979 9.52083 5.55854 9.60938 5.51688 9.67188C5.51688 9.73438 5.51167 9.79688 5.50125 9.85938C5.49083 9.92188 5.48042 9.98438 5.47 10.0469C5.44917 10.1198 5.43354 10.1875 5.42313 10.25C5.41271 10.3021 5.41792 10.3542 5.43875 10.4062C5.47 10.4479 5.50125 10.4896 5.5325 10.5312C5.56375 10.5729 5.58979 10.625 5.61063 10.6875C5.63146 10.7083 5.6575 10.724 5.68875 10.7344C5.72 10.7448 5.74604 10.7604 5.76688 10.7812C5.85021 10.8542 5.92833 10.8958 6.00125 10.9062L6.1575 11.0938C6.22 11.4688 6.16271 11.7604 5.98563 11.9688C5.79813 12.2083 5.48563 12.3281 5.04813 12.3281L4.82938 12.3125C4.75646 12.2396 4.71479 12.1927 4.70438 12.1719C4.61063 12.1302 4.5325 12.0938 4.47 12.0625C4.4075 12.0417 4.35021 11.9948 4.29813 11.9219C4.27729 11.901 4.25125 11.8906 4.22 11.8906C4.18875 11.8802 4.16271 11.8646 4.14188 11.8438C4.03771 11.8125 3.95438 11.776 3.89188 11.7344L3.72 11.6406C3.73042 11.5365 3.73563 11.4635 3.73563 11.4219C3.65229 11.3073 3.58458 11.1823 3.5325 11.0469C3.49083 10.9115 3.45438 10.7708 3.42313 10.625C3.39188 10.5104 3.36063 10.4062 3.32938 10.3125C3.30854 10.2188 3.27208 10.1354 3.22 10.0625C3.19917 9.33333 3.26688 8.72396 3.42313 8.23438C3.57938 7.73438 3.75125 7.25 3.93875 6.78125C4.04292 6.53125 4.14188 6.27604 4.23563 6.01562C4.32938 5.75521 4.41271 5.48958 4.48563 5.21875L4.6575 5.04688C4.73042 4.98438 4.77729 4.94792 4.79813 4.9375C4.79813 4.80208 4.82417 4.67188 4.87625 4.54688C4.92833 4.41146 4.98563 4.27604 5.04813 4.14062C5.08979 4.05729 5.12625 3.97396 5.1575 3.89062C5.19917 3.80729 5.22521 3.73438 5.23563 3.67188C5.16271 3.67188 5.095 3.67708 5.0325 3.6875C4.98042 3.6875 4.92313 3.69271 4.86063 3.70312C4.72521 3.73438 4.595 3.75 4.47 3.75C4.37625 3.75 4.30854 3.74479 4.26688 3.73438C4.18354 3.77604 4.10542 3.80208 4.0325 3.8125C3.95958 3.8125 3.88667 3.8125 3.81375 3.8125H3.62625H3.43875C3.31375 3.8125 3.21479 3.82812 3.14188 3.85938C2.99604 3.85938 2.90229 3.85938 2.86063 3.85938C2.81896 3.85938 2.77208 3.85938 2.72 3.85938H2.5325H2.345C2.26167 3.85938 2.16792 3.85417 2.06375 3.84375C1.95958 3.82292 1.85021 3.78125 1.73563 3.71875L1.62625 3.59375C1.56375 3.47917 1.50646 3.41667 1.45438 3.40625L1.2825 3.35938V3.1875ZM26.135 10.6562C26.0829 10.6667 26.036 10.6302 25.9944 10.5469C25.9527 10.4531 25.9058 10.3646 25.8538 10.2812H26.0256C25.9527 10.0521 25.9319 9.84375 25.9631 9.65625C26.0048 9.45833 26.0517 9.27083 26.1038 9.09375C26.1558 8.90625 26.1975 8.72917 26.2288 8.5625C26.2704 8.38542 26.2548 8.20312 26.1819 8.01562C26.234 8.04688 26.2704 8.03646 26.2913 7.98438C26.3225 7.92188 26.3433 7.84896 26.3538 7.76562C26.3746 7.67188 26.3798 7.57812 26.3694 7.48438C26.3694 7.38021 26.3642 7.29688 26.3538 7.23438C26.4892 6.91146 26.5933 6.57812 26.6663 6.23438C26.7496 5.89062 26.8225 5.55208 26.885 5.21875C26.9475 4.875 27.0152 4.54688 27.0881 4.23438C27.1715 3.91146 27.2756 3.60938 27.4006 3.32812C27.5465 3.30729 27.6975 3.32812 27.8538 3.39062C28.0204 3.44271 28.1298 3.51042 28.1819 3.59375C28.5048 3.34375 28.7913 3.04167 29.0413 2.6875C29.2913 2.33333 29.5413 1.98958 29.7913 1.65625C30.0517 1.3125 30.3433 1.01042 30.6663 0.75C30.9892 0.489583 31.3902 0.333333 31.8694 0.28125C32.1194 0.458333 32.4006 0.651042 32.7131 0.859375C33.0256 1.05729 33.2808 1.30729 33.4788 1.60938C33.5621 1.66146 33.6402 1.71875 33.7131 1.78125C33.7965 1.83333 33.8798 1.88542 33.9631 1.9375V2.17188C34.109 2.30729 34.2288 2.46875 34.3225 2.65625C34.4267 2.83333 34.5152 3.02604 34.5881 3.23438C34.6715 3.43229 34.7496 3.63542 34.8225 3.84375C34.8954 4.05208 34.9788 4.24479 35.0725 4.42188C35.0517 4.48438 35.0413 4.54167 35.0413 4.59375C35.0517 4.63542 35.0621 4.68229 35.0725 4.73438C35.0933 4.77604 35.109 4.82812 35.1194 4.89062C35.1298 4.94271 35.135 5.01042 35.135 5.09375C35.0933 5.64583 34.911 6.09375 34.5881 6.4375C34.2756 6.77083 33.8902 7.04688 33.4319 7.26562C32.984 7.47396 32.5048 7.65625 31.9944 7.8125C31.484 7.95833 31.0204 8.11979 30.6038 8.29688C30.6038 8.33854 30.6246 8.35938 30.6663 8.35938C30.7183 8.35938 30.734 8.39062 30.7131 8.45312C31.0256 8.64062 31.2652 8.79167 31.4319 8.90625C31.609 9.02083 31.7704 9.11979 31.9163 9.20312C32.0725 9.27604 32.2392 9.33854 32.4163 9.39062C32.6038 9.44271 32.859 9.50521 33.1819 9.57812C33.5048 9.65104 33.7548 9.71354 33.9319 9.76562C34.1194 9.80729 34.286 9.84375 34.4319 9.875C34.5777 9.89583 34.734 9.91667 34.9006 9.9375C35.0673 9.95833 35.2913 9.98438 35.5725 10.0156C35.6871 10.1302 35.7808 10.2656 35.8538 10.4219C35.9267 10.5781 35.9788 10.7344 36.01 10.8906C36.0413 11.0469 36.0465 11.1979 36.0256 11.3438C36.0152 11.4792 35.9735 11.5885 35.9006 11.6719C35.911 11.7135 35.9371 11.7344 35.9788 11.7344C36.0308 11.724 36.0829 11.724 36.135 11.7344C36.0621 11.7865 35.9996 11.849 35.9475 11.9219C35.8954 11.9948 35.8433 12.0677 35.7913 12.1406C35.7392 12.2135 35.6767 12.2812 35.6038 12.3438C35.5413 12.4062 35.4579 12.4427 35.3538 12.4531C34.9788 12.599 34.4996 12.6042 33.9163 12.4688C33.3329 12.3333 32.5881 12.0938 31.6819 11.75C31.234 11.5833 30.8694 11.4323 30.5881 11.2969C30.3069 11.1615 30.0621 11.0312 29.8538 10.9062C29.6454 10.7708 29.4527 10.6302 29.2756 10.4844C29.0985 10.3281 28.8954 10.1458 28.6663 9.9375C28.635 9.94792 28.6142 9.96875 28.6038 10C28.6038 10.0312 28.5881 10.0521 28.5569 10.0625C28.5048 10.4792 28.4215 10.8177 28.3069 11.0781C28.2027 11.3385 28.0465 11.6042 27.8381 11.875C27.6715 11.8438 27.5569 11.8594 27.4944 11.9219C27.4423 11.9844 27.3746 12.0417 27.2913 12.0938C27.1871 12.1146 27.109 12.1094 27.0569 12.0781C27.0048 12.0573 26.9579 12.0312 26.9163 12C26.8746 11.9688 26.8277 11.9375 26.7756 11.9062C26.7235 11.875 26.6402 11.8646 26.5256 11.875C26.4944 11.7812 26.4631 11.6927 26.4319 11.6094C26.4006 11.5156 26.3173 11.474 26.1819 11.4844C26.2131 11.3906 26.2235 11.3125 26.2131 11.25C26.2027 11.1771 26.1871 11.1146 26.1663 11.0625C26.1454 11 26.1246 10.9375 26.1038 10.875C26.0933 10.8125 26.1038 10.7396 26.135 10.6562ZM31.3538 3.51562C31.2183 3.71354 31.0673 3.89583 30.9006 4.0625C30.734 4.21875 30.5673 4.38542 30.4006 4.5625C30.2444 4.72917 30.1038 4.91667 29.9788 5.125C29.8538 5.32292 29.7652 5.5625 29.7131 5.84375C30.1506 5.79167 30.609 5.67188 31.0881 5.48438C31.5673 5.28646 32.0204 5.09896 32.4475 4.92188C32.3954 4.53646 32.26 4.22917 32.0413 4C31.8225 3.76042 31.5933 3.59896 31.3538 3.51562ZM50.675 10.5156L50.8781 10.3594L50.8938 10.0312C51.1542 9.39583 51.4198 8.78646 51.6906 8.20312C51.9719 7.61979 52.2635 7.02083 52.5656 6.40625C52.6594 6.20833 52.7531 6.01042 52.8469 5.8125C52.951 5.61458 53.05 5.41146 53.1438 5.20312C53.1333 5.16146 53.1281 5.11979 53.1281 5.07812C53.1281 5.02604 53.1385 4.96875 53.1594 4.90625C53.3052 4.69792 53.4198 4.51042 53.5031 4.34375C53.5969 4.17708 53.6854 4.00521 53.7688 3.82812C53.8625 3.61979 53.9615 3.41146 54.0656 3.20312C54.1802 2.99479 54.3208 2.79167 54.4875 2.59375L54.5969 2.4375L54.7688 2.45312C54.8104 2.43229 54.8521 2.41667 54.8938 2.40625C54.9458 2.38542 55.0083 2.375 55.0813 2.375L55.3625 2.42188C55.7063 2.26562 56.0083 2.04167 56.2688 1.75C56.5396 1.44792 56.8104 1.08854 57.0813 0.671875L57.2688 0.40625L57.5188 0.5625C57.5708 0.59375 57.6542 0.625 57.7688 0.65625C57.8833 0.6875 58.0031 0.723958 58.1281 0.765625C58.3469 0.817708 58.5604 0.880208 58.7688 0.953125C58.9771 1.01562 59.1385 1.10417 59.2531 1.21875L59.3313 1.35938C59.3521 1.47396 59.3677 1.57812 59.3781 1.67188C59.399 1.76562 59.4198 1.85938 59.4406 1.95312C59.4823 2.17188 59.5188 2.39062 59.55 2.60938C59.5813 2.81771 59.6021 3.05208 59.6125 3.3125C59.6646 3.52083 59.7115 3.73438 59.7531 3.95312C59.8052 4.16146 59.8521 4.36979 59.8938 4.57812C59.9458 4.88021 60.0031 5.17188 60.0656 5.45312C60.1281 5.72396 60.2115 5.98438 60.3156 6.23438C60.4198 6.23438 60.4823 6.23958 60.5031 6.25C60.6281 6.19792 60.774 6.16667 60.9406 6.15625L61.1438 6.14062L61.2063 6.32812C61.2271 6.35938 61.2531 6.39062 61.2844 6.42188C61.3156 6.45312 61.3521 6.48438 61.3938 6.51562C61.5604 6.52604 61.6802 6.5625 61.7531 6.625C61.8365 6.67708 61.9042 6.72917 61.9563 6.78125C61.9771 6.80208 62.0031 6.82812 62.0344 6.85938C62.0656 6.88021 62.0917 6.89583 62.1125 6.90625L62.3938 7.01562L62.2375 7.3125C62.1229 7.53125 61.9458 7.74479 61.7063 7.95312C61.4771 8.16146 61.2167 8.33333 60.925 8.46875C60.9458 8.54167 60.9563 8.60938 60.9563 8.67188C60.9667 8.73438 60.9823 8.80729 61.0031 8.89062C61.0448 9.09896 61.076 9.31771 61.0969 9.54688C61.1281 9.76562 61.1281 9.99479 61.0969 10.2344C60.9927 10.5052 60.8677 10.75 60.7219 10.9688C60.5865 11.1771 60.4198 11.3698 60.2219 11.5469C60.0344 11.7135 59.8208 11.8542 59.5813 11.9688C59.3417 12.0729 59.0917 12.1302 58.8313 12.1406C58.6854 12.1094 58.576 12.0729 58.5031 12.0312C58.4406 11.9896 58.3833 11.9479 58.3313 11.9062C58.2479 11.8438 58.1802 11.8021 58.1281 11.7812L57.925 11.6875L57.9875 11.4531C58.0188 11.3698 58.0135 11.2969 57.9719 11.2344C57.9406 11.1719 57.8677 11.0885 57.7531 10.9844C57.7115 10.9531 57.675 10.9219 57.6438 10.8906C57.6125 10.849 57.576 10.8073 57.5344 10.7656L57.2219 10.4062L57.7375 10.2656C58.05 10.1823 58.2583 10.0781 58.3625 9.95312C58.4667 9.81771 58.5083 9.58333 58.4875 9.25C58.2271 9.19792 58.0135 9.19271 57.8469 9.23438C57.6802 9.26562 57.5135 9.30208 57.3469 9.34375C57.1073 9.40625 56.8729 9.46354 56.6438 9.51562C56.4146 9.55729 56.1646 9.57812 55.8938 9.57812C55.7167 9.57812 55.5292 9.5625 55.3313 9.53125L55.1594 9.51562L55.1125 9.34375C55.1125 9.32292 55.0969 9.30208 55.0656 9.28125C55.0448 9.25 55.024 9.22396 55.0031 9.20312C54.951 9.14062 54.8885 9.05729 54.8156 8.95312C54.7427 8.84896 54.7271 8.71875 54.7688 8.5625C54.6958 8.44792 54.6542 8.32812 54.6438 8.20312C54.6021 8.28646 54.5656 8.36979 54.5344 8.45312C54.5135 8.52604 54.4927 8.59896 54.4719 8.67188L54.4094 8.875L54.2063 8.90625C54.1854 8.92708 54.1646 8.95833 54.1438 9C54.1333 9.04167 54.1333 9.07292 54.1438 9.09375L54.2063 9.26562L54.05 9.40625C54.0292 9.4375 54.0031 9.46354 53.9719 9.48438C53.9406 9.50521 53.9146 9.52604 53.8938 9.54688C53.8729 9.66146 53.8417 9.77083 53.8 9.875C53.7688 9.97917 53.7323 10.0833 53.6906 10.1875C53.6385 10.3542 53.5865 10.5156 53.5344 10.6719C53.4927 10.8281 53.4719 10.9844 53.4719 11.1406L53.4094 11.3438C53.3573 11.4271 53.2896 11.4896 53.2063 11.5312C53.1333 11.5729 53.0604 11.6094 52.9875 11.6406C52.8833 11.6823 52.8104 11.724 52.7688 11.7656L52.7219 11.9688L52.4875 12C52.3521 12.0312 52.2531 12.0521 52.1906 12.0625C52.1385 12.0729 52.076 12.0781 52.0031 12.0781L51.8 12.0625C51.675 11.9375 51.5708 11.8438 51.4875 11.7812C51.4146 11.7083 51.326 11.6458 51.2219 11.5938L51.1281 11.4688C51.0865 11.3854 51.0604 11.3125 51.05 11.25C51.0396 11.1771 51.024 11.1042 51.0031 11.0312C50.9823 10.8958 50.951 10.8021 50.9094 10.75L50.675 10.5156ZM55.6594 6.45312C55.5135 6.66146 55.3729 6.88021 55.2375 7.10938C55.3104 7.09896 55.3781 7.09375 55.4406 7.09375C55.5135 7.09375 55.5865 7.08854 55.6594 7.07812C56.024 7.05729 56.3625 7.03125 56.675 7C56.9875 6.96875 57.326 6.91667 57.6906 6.84375C57.6073 6.45833 57.5135 6.06771 57.4094 5.67188C57.3156 5.26562 57.2115 4.85938 57.0969 4.45312L57.0188 4.60938C56.7583 4.89062 56.5083 5.19271 56.2688 5.51562C56.0292 5.83854 55.8313 6.14583 55.675 6.4375L55.6594 6.45312ZM78.8869 12.1719C78.5848 12.099 78.3504 11.9792 78.1838 11.8125C78.0275 11.6354 77.9077 11.4323 77.8244 11.2031C77.7515 10.9635 77.6994 10.7031 77.6681 10.4219C77.6473 10.1406 77.6213 9.84896 77.59 9.54688C77.6317 9.41146 77.6838 9.29688 77.7463 9.20312C77.8192 9.10938 77.8504 8.97917 77.84 8.8125C77.9546 8.47917 78.0588 8.15625 78.1525 7.84375C78.2463 7.53125 78.3088 7.20833 78.34 6.875C78.4025 6.78125 78.465 6.71875 78.5275 6.6875C78.6108 6.09375 78.6213 5.48438 78.5588 4.85938C78.4963 4.23438 78.3921 3.65625 78.2463 3.125C78.2567 3.01042 78.2723 2.92708 78.2931 2.875C78.314 2.8125 78.314 2.76042 78.2931 2.71875C78.2723 2.625 78.3035 2.57812 78.3869 2.57812C78.4702 2.57812 78.5535 2.57812 78.6369 2.57812C78.6369 2.39062 78.6004 2.20833 78.5275 2.03125C78.465 1.84375 78.4025 1.63021 78.34 1.39062C78.4233 1.20312 78.4806 1.02083 78.5119 0.84375C78.5431 0.666667 78.6004 0.505208 78.6838 0.359375C79.0171 0.463542 79.3452 0.583333 79.6681 0.71875C79.991 0.854167 80.3088 0.989583 80.6213 1.125C80.9338 1.25 81.241 1.375 81.5431 1.5C81.8452 1.61458 82.1421 1.70833 82.4338 1.78125C82.8817 2.10417 83.34 2.42708 83.8088 2.75C84.2879 3.0625 84.7202 3.41146 85.1056 3.79688C85.5015 4.17188 85.8296 4.60417 86.09 5.09375C86.3504 5.58333 86.5015 6.16146 86.5431 6.82812C86.5223 6.89062 86.5067 6.94271 86.4963 6.98438C86.4858 7.02604 86.4754 7.06771 86.465 7.10938C86.4546 7.15104 86.4494 7.19792 86.4494 7.25C86.4494 7.30208 86.4494 7.375 86.4494 7.46875C86.0744 8.125 85.6004 8.67708 85.0275 9.125C84.4546 9.57292 83.8296 9.96875 83.1525 10.3125C82.4754 10.6562 81.7671 10.974 81.0275 11.2656C80.2983 11.5469 79.5848 11.849 78.8869 12.1719ZM80.4181 3.3125C80.3244 3.3125 80.2567 3.33333 80.215 3.375C80.34 3.84375 80.4338 4.28646 80.4963 4.70312C80.5588 5.11979 80.59 5.53646 80.59 5.95312C80.6004 6.36979 80.5796 6.79688 80.5275 7.23438C80.4754 7.67188 80.4025 8.14583 80.3088 8.65625C80.4442 8.64583 80.564 8.61979 80.6681 8.57812C80.7723 8.53646 80.8765 8.48958 80.9806 8.4375C81.0952 8.38542 81.2098 8.33854 81.3244 8.29688C81.4494 8.25521 81.59 8.22917 81.7463 8.21875C81.7879 8.13542 81.84 8.07292 81.9025 8.03125C81.9754 7.97917 82.0379 7.92708 82.09 7.875C82.3504 7.77083 82.6108 7.66146 82.8713 7.54688C83.1317 7.43229 83.3713 7.30208 83.59 7.15625C83.8088 7.01042 84.0067 6.84375 84.1838 6.65625C84.3608 6.46875 84.5067 6.24479 84.6213 5.98438C84.5379 5.82812 84.4338 5.69792 84.3088 5.59375C84.1942 5.47917 84.0692 5.36979 83.9338 5.26562C83.8088 5.15104 83.6838 5.03646 83.5588 4.92188C83.4442 4.79688 83.3504 4.65625 83.2775 4.5C83.1108 4.47917 82.965 4.4375 82.84 4.375C82.715 4.30208 82.5952 4.23438 82.4806 4.17188C82.366 4.09896 82.241 4.03125 82.1056 3.96875C81.9806 3.90625 81.8296 3.86979 81.6525 3.85938C81.3817 3.71354 81.1369 3.61458 80.9181 3.5625C80.6994 3.5 80.5327 3.41667 80.4181 3.3125ZM102.536 11.4688C102.453 11.3854 102.39 11.2865 102.349 11.1719C102.318 11.0573 102.234 10.9635 102.099 10.8906C102.078 10.7344 102.047 10.5573 102.005 10.3594C101.974 10.151 101.937 9.94271 101.896 9.73438C101.864 9.51562 101.838 9.30208 101.818 9.09375C101.807 8.875 101.818 8.67708 101.849 8.5C101.87 8.40625 101.901 8.31771 101.943 8.23438C101.995 8.15104 102.041 8.07292 102.083 8C102.135 7.91667 102.172 7.83333 102.193 7.75C102.224 7.66667 102.229 7.58333 102.208 7.5C102.271 7.48958 102.307 7.45833 102.318 7.40625C102.338 7.34375 102.39 7.32292 102.474 7.34375C102.547 7.11458 102.625 6.90104 102.708 6.70312C102.791 6.50521 102.88 6.3125 102.974 6.125C103.068 5.9375 103.161 5.75 103.255 5.5625C103.359 5.36458 103.453 5.14583 103.536 4.90625C103.359 4.73958 103.229 4.5625 103.146 4.375C103.073 4.17708 103.015 3.97917 102.974 3.78125C102.932 3.58333 102.901 3.38542 102.88 3.1875C102.859 2.97917 102.818 2.77083 102.755 2.5625C102.88 2.375 103.031 2.22396 103.208 2.10938C103.385 1.98438 103.578 1.88542 103.786 1.8125C104.005 1.72917 104.239 1.66667 104.489 1.625C104.739 1.57292 105.005 1.51562 105.286 1.45312C105.786 1.29688 106.234 1.17708 106.63 1.09375C107.026 1 107.411 0.927083 107.786 0.875C108.161 0.8125 108.552 0.760417 108.958 0.71875C109.364 0.666667 109.833 0.59375 110.364 0.5C110.375 0.53125 110.39 0.546875 110.411 0.546875C110.443 0.546875 110.479 0.546875 110.521 0.546875C110.552 0.619792 110.609 0.65625 110.693 0.65625C110.693 0.625 110.687 0.598958 110.677 0.578125C110.677 0.546875 110.677 0.520833 110.677 0.5C110.698 0.5 110.724 0.505208 110.755 0.515625C110.797 0.526042 110.828 0.536458 110.849 0.546875C110.88 0.557292 110.906 0.557292 110.927 0.546875C110.948 0.526042 110.953 0.489583 110.943 0.4375C111.068 0.65625 111.229 0.838542 111.427 0.984375C111.625 1.11979 111.844 1.23958 112.083 1.34375C112.094 1.4375 112.094 1.50521 112.083 1.54688C112.083 1.58854 112.078 1.63021 112.068 1.67188C112.057 1.70312 112.052 1.74479 112.052 1.79688C112.052 1.83854 112.062 1.90104 112.083 1.98438C111.916 2.26562 111.724 2.48438 111.505 2.64062C111.297 2.79688 111.073 2.91667 110.833 3C110.594 3.08333 110.338 3.14583 110.068 3.1875C109.807 3.22917 109.536 3.27604 109.255 3.32812C108.984 3.36979 108.708 3.43229 108.427 3.51562C108.146 3.59896 107.87 3.72396 107.599 3.89062C107.515 3.85938 107.437 3.84896 107.364 3.85938C107.302 3.85938 107.234 3.86979 107.161 3.89062C107.088 3.91146 107.005 3.93229 106.911 3.95312C106.828 3.97396 106.724 3.97396 106.599 3.95312C106.515 4.02604 106.416 4.07812 106.302 4.10938C106.198 4.14062 106.088 4.17188 105.974 4.20312C106.026 4.31771 106.047 4.43229 106.036 4.54688C106.036 4.66146 106.052 4.76042 106.083 4.84375C106.521 4.88542 107.005 4.88542 107.536 4.84375C108.068 4.79167 108.588 4.75521 109.099 4.73438C109.109 4.78646 109.104 4.82292 109.083 4.84375C109.062 4.86458 109.052 4.90104 109.052 4.95312C109.146 5.01562 109.234 5.09375 109.318 5.1875C109.401 5.28125 109.484 5.375 109.568 5.46875C109.661 5.55208 109.755 5.625 109.849 5.6875C109.943 5.73958 110.052 5.76042 110.177 5.75C110.229 5.85417 110.265 5.96354 110.286 6.07812C110.307 6.19271 110.291 6.3125 110.239 6.4375C110.031 6.57292 109.828 6.71354 109.63 6.85938C109.432 6.99479 109.224 7.11979 109.005 7.23438C108.797 7.34896 108.568 7.44271 108.318 7.51562C108.068 7.58854 107.797 7.61979 107.505 7.60938C107.453 7.60938 107.406 7.60938 107.364 7.60938C107.333 7.60938 107.291 7.58854 107.239 7.54688C107.135 7.59896 106.995 7.61979 106.818 7.60938C106.651 7.58854 106.51 7.60417 106.396 7.65625C106.25 7.60417 106.078 7.57812 105.88 7.57812C105.693 7.57812 105.526 7.55208 105.38 7.5C105.193 7.77083 105.015 8.05729 104.849 8.35938C104.682 8.65104 104.536 8.96354 104.411 9.29688C104.838 9.35938 105.193 9.38542 105.474 9.375C105.755 9.36458 106.021 9.34375 106.271 9.3125C106.521 9.28125 106.776 9.25 107.036 9.21875C107.307 9.1875 107.635 9.17708 108.021 9.1875C108.281 9.0625 108.578 8.97917 108.911 8.9375C109.255 8.88542 109.573 8.8125 109.864 8.71875C109.969 8.75 110.057 8.8125 110.13 8.90625C110.203 8.98958 110.271 9.07812 110.333 9.17188C110.406 9.25521 110.479 9.32812 110.552 9.39062C110.625 9.45312 110.719 9.47396 110.833 9.45312C110.885 9.50521 110.916 9.56771 110.927 9.64062C110.948 9.71354 110.963 9.78125 110.974 9.84375C110.995 9.90625 111.021 9.95833 111.052 10C111.083 10.0312 111.14 10.0417 111.224 10.0312C111.026 10.4375 110.802 10.75 110.552 10.9688C110.312 11.1875 110.036 11.3594 109.724 11.4844C109.422 11.599 109.078 11.6875 108.693 11.75C108.318 11.8021 107.896 11.8698 107.427 11.9531C107.312 11.974 107.213 11.974 107.13 11.9531C107.057 11.9219 106.979 11.9062 106.896 11.9062C106.604 11.9583 106.255 12.0104 105.849 12.0625C105.453 12.1146 105.052 12.1354 104.646 12.125C104.239 12.1146 103.849 12.0625 103.474 11.9688C103.099 11.875 102.786 11.7083 102.536 11.4688ZM153.833 9.728H149.177L148.377 12H146.473L150.457 0.863999H152.569L156.553 12H154.633L153.833 9.728ZM153.321 8.24L151.513 3.072L149.689 8.24H153.321ZM182.461 12H180.637L175.149 3.696V12H173.325V0.863999H175.149L180.637 9.152V0.863999H182.461V12ZM208.136 0.879999L204.456 7.968V12H202.632V7.968L198.936 0.879999H200.968L203.544 6.336L206.12 0.879999H208.136ZM231.808 0.879999V2.368H228.848V12H227.024V2.368H224.048V0.879999H231.808ZM257.575 0.879999V12H255.751V7.136H250.519V12H248.695V0.879999H250.519V5.648H255.751V0.879999H257.575ZM276.84 0.879999V12H275.016V0.879999H276.84ZM303.411 12H301.587L296.099 3.696V12H294.275V0.863999H296.099L301.587 9.152V0.863999H303.411V12ZM328.894 4.08C328.606 3.52533 328.206 3.10933 327.694 2.832C327.182 2.544 326.59 2.4 325.918 2.4C325.182 2.4 324.526 2.56533 323.95 2.896C323.374 3.22667 322.921 3.696 322.59 4.304C322.27 4.912 322.11 5.616 322.11 6.416C322.11 7.216 322.27 7.92533 322.59 8.544C322.921 9.152 323.374 9.62133 323.95 9.952C324.526 10.2827 325.182 10.448 325.918 10.448C326.91 10.448 327.716 10.1707 328.334 9.616C328.953 9.06133 329.332 8.30933 329.47 7.36H325.294V5.904H331.422V7.328C331.305 8.192 330.996 8.98667 330.494 9.712C330.004 10.4373 329.358 11.0187 328.558 11.456C327.769 11.8827 326.889 12.096 325.918 12.096C324.873 12.096 323.918 11.856 323.054 11.376C322.19 10.8853 321.502 10.208 320.99 9.344C320.489 8.48 320.238 7.504 320.238 6.416C320.238 5.328 320.489 4.352 320.99 3.488C321.502 2.624 322.19 1.952 323.054 1.472C323.929 0.981332 324.884 0.735999 325.918 0.735999C327.102 0.735999 328.153 1.02933 329.07 1.616C329.998 2.192 330.67 3.01333 331.086 4.08H328.894ZM74.0527 24.88V26.368H69.3327V29.648H73.0127V31.136H69.3327V36H67.5087V24.88H74.0527ZM96.5591 36L93.9991 31.552H92.6071V36H90.7831V24.88H94.6231C95.4765 24.88 96.1965 25.0293 96.7831 25.328C97.3805 25.6267 97.8231 26.0267 98.1111 26.528C98.4098 27.0293 98.5591 27.5893 98.5591 28.208C98.5591 28.9333 98.3458 29.5947 97.9191 30.192C97.5031 30.7787 96.8578 31.1787 95.9831 31.392L98.7351 36H96.5591ZM92.6071 30.096H94.6231C95.3058 30.096 95.8178 29.9253 96.1591 29.584C96.5111 29.2427 96.6871 28.784 96.6871 28.208C96.6871 27.632 96.5165 27.184 96.1751 26.864C95.8338 26.5333 95.3165 26.368 94.6231 26.368H92.6071V30.096ZM121.004 36.112C119.97 36.112 119.015 35.872 118.14 35.392C117.276 34.9013 116.588 34.224 116.076 33.36C115.575 32.4853 115.324 31.504 115.324 30.416C115.324 29.328 115.575 28.352 116.076 27.488C116.588 26.624 117.276 25.952 118.14 25.472C119.015 24.9813 119.97 24.736 121.004 24.736C122.05 24.736 123.004 24.9813 123.868 25.472C124.743 25.952 125.431 26.624 125.932 27.488C126.434 28.352 126.684 29.328 126.684 30.416C126.684 31.504 126.434 32.4853 125.932 33.36C125.431 34.224 124.743 34.9013 123.868 35.392C123.004 35.872 122.05 36.112 121.004 36.112ZM121.004 34.528C121.74 34.528 122.396 34.3627 122.972 34.032C123.548 33.6907 123.996 33.2107 124.316 32.592C124.647 31.9627 124.812 31.2373 124.812 30.416C124.812 29.5947 124.647 28.8747 124.316 28.256C123.996 27.6373 123.548 27.1627 122.972 26.832C122.396 26.5013 121.74 26.336 121.004 26.336C120.268 26.336 119.612 26.5013 119.036 26.832C118.46 27.1627 118.007 27.6373 117.676 28.256C117.356 28.8747 117.196 29.5947 117.196 30.416C117.196 31.2373 117.356 31.9627 117.676 32.592C118.007 33.2107 118.46 33.6907 119.036 34.032C119.612 34.3627 120.268 34.528 121.004 34.528ZM155.231 24.88V36H153.407V28.384L150.015 36H148.751L145.343 28.384V36H143.519V24.88H145.487L149.391 33.6L153.279 24.88H155.231ZM191.884 34.8906C191.832 34.776 191.78 34.6667 191.727 34.5625C191.675 34.4583 191.623 34.3646 191.571 34.2812C191.446 34.0312 191.337 33.8073 191.243 33.6094C191.149 33.4115 191.061 33.1823 190.977 32.9219C191.009 32.7448 191.061 32.4479 191.134 32.0312C191.217 31.6146 191.311 31.1615 191.415 30.6719C191.519 30.1719 191.629 29.6667 191.743 29.1562C191.868 28.6458 191.993 28.2083 192.118 27.8438C192.233 27.5208 192.358 27.1771 192.493 26.8125C192.639 26.4479 192.795 26.1146 192.962 25.8125C193.139 25.5 193.326 25.2344 193.524 25.0156C193.722 24.7969 193.936 24.6667 194.165 24.625C194.227 24.7083 194.295 24.776 194.368 24.8281C194.441 24.8698 194.509 24.901 194.571 24.9219C194.748 25.1719 194.92 25.3854 195.087 25.5625C195.254 25.7292 195.451 25.8958 195.681 26.0625C195.618 26.375 195.524 26.724 195.399 27.1094C195.285 27.4844 195.16 27.8646 195.024 28.25C194.899 28.6354 194.774 29.0104 194.649 29.375C194.524 29.7292 194.425 30.0365 194.352 30.2969C194.29 30.5052 194.227 30.7448 194.165 31.0156C194.113 31.2448 194.056 31.5208 193.993 31.8438C193.941 32.1667 193.889 32.5208 193.837 32.9062C193.983 32.8646 194.144 32.7812 194.321 32.6562C194.509 32.5312 194.681 32.401 194.837 32.2656C195.024 32.1094 195.207 31.9427 195.384 31.7656C195.623 31.526 195.826 31.3073 195.993 31.1094C196.16 30.9115 196.311 30.7083 196.446 30.5C196.592 30.2812 196.738 30.0469 196.884 29.7969C197.04 29.5365 197.222 29.2292 197.431 28.875C197.618 28.5729 197.811 28.25 198.009 27.9062C198.217 27.5625 198.425 27.2344 198.634 26.9219C198.842 26.6094 199.045 26.3229 199.243 26.0625C199.441 25.7917 199.623 25.5833 199.79 25.4375C199.905 25.5521 200.035 25.6719 200.181 25.7969C200.337 25.9219 200.504 26.0104 200.681 26.0625C200.754 26.1771 200.821 26.2812 200.884 26.375C200.957 26.4583 201.024 26.5417 201.087 26.625C201.17 26.7396 201.243 26.8438 201.306 26.9375C201.379 27.0312 201.441 27.1354 201.493 27.25C201.483 27.3333 201.462 27.4427 201.431 27.5781C201.41 27.7135 201.384 27.8646 201.352 28.0312C201.321 28.1875 201.285 28.349 201.243 28.5156C201.212 28.6823 201.181 28.8438 201.149 29C201.045 29.4688 200.967 29.8229 200.915 30.0625C200.863 30.3021 200.826 30.4896 200.806 30.625C200.785 30.7604 200.769 30.875 200.759 30.9688C200.759 31.0625 200.759 31.1927 200.759 31.3594C200.759 31.4844 200.769 31.6094 200.79 31.7344C200.811 31.849 200.832 31.9688 200.852 32.0938C200.884 32.2083 200.936 32.3177 201.009 32.4219L201.759 31.8438C201.967 31.6875 202.165 31.4688 202.352 31.1875C202.55 30.8958 202.738 30.5677 202.915 30.2031C203.102 29.8281 203.285 29.4271 203.462 29C203.639 28.5625 203.816 28.1146 203.993 27.6562C204.118 27.3229 204.243 26.9948 204.368 26.6719C204.504 26.3385 204.639 26.026 204.774 25.7344C204.91 25.4323 205.04 25.1615 205.165 24.9219C205.3 24.6719 205.431 24.4635 205.556 24.2969C205.837 24.474 206.076 24.651 206.274 24.8281C206.483 25.0052 206.66 25.2031 206.806 25.4219C206.962 25.6302 207.082 25.875 207.165 26.1562C207.259 26.4271 207.326 26.75 207.368 27.125C207.139 27.5625 206.925 28.0104 206.727 28.4688C206.53 28.9271 206.332 29.3906 206.134 29.8594C205.884 30.4635 205.623 31.0677 205.352 31.6719C205.092 32.2656 204.8 32.8333 204.477 33.375C204.155 33.9167 203.79 34.4167 203.384 34.875C202.988 35.3229 202.53 35.7031 202.009 36.0156C201.863 35.9844 201.738 35.9688 201.634 35.9688C201.519 35.9688 201.42 35.9844 201.337 36.0156C201.264 36.0469 201.196 36.0885 201.134 36.1406C200.707 35.9427 200.363 35.651 200.102 35.2656C199.842 34.8698 199.587 34.4323 199.337 33.9531C199.306 33.8802 199.269 33.8125 199.227 33.75C199.196 33.6771 199.16 33.6042 199.118 33.5312L198.852 33.0469L198.696 32.75L198.477 32.9531L198.149 33.25L197.962 33.4375C197.639 33.7396 197.311 34.0365 196.977 34.3281C196.644 34.6094 196.295 34.8698 195.931 35.1094C195.566 35.3385 195.175 35.526 194.759 35.6719C194.352 35.8177 193.915 35.8958 193.446 35.9062C193.363 35.8646 193.285 35.8281 193.212 35.7969C193.149 35.7656 193.087 35.7344 193.024 35.7031C192.785 35.5885 192.587 35.4792 192.431 35.375C192.274 35.2708 192.092 35.1094 191.884 34.8906ZM222.486 35.4688C222.403 35.3854 222.34 35.2865 222.299 35.1719C222.268 35.0573 222.184 34.9635 222.049 34.8906C222.028 34.7344 221.997 34.5573 221.955 34.3594C221.924 34.151 221.887 33.9427 221.846 33.7344C221.814 33.5156 221.788 33.3021 221.768 33.0938C221.757 32.875 221.768 32.6771 221.799 32.5C221.82 32.4062 221.851 32.3177 221.893 32.2344C221.945 32.151 221.991 32.0729 222.033 32C222.085 31.9167 222.122 31.8333 222.143 31.75C222.174 31.6667 222.179 31.5833 222.158 31.5C222.221 31.4896 222.257 31.4583 222.268 31.4062C222.288 31.3438 222.34 31.3229 222.424 31.3438C222.497 31.1146 222.575 30.901 222.658 30.7031C222.741 30.5052 222.83 30.3125 222.924 30.125C223.018 29.9375 223.111 29.75 223.205 29.5625C223.309 29.3646 223.403 29.1458 223.486 28.9062C223.309 28.7396 223.179 28.5625 223.096 28.375C223.023 28.1771 222.965 27.9792 222.924 27.7812C222.882 27.5833 222.851 27.3854 222.83 27.1875C222.809 26.9792 222.768 26.7708 222.705 26.5625C222.83 26.375 222.981 26.224 223.158 26.1094C223.335 25.9844 223.528 25.8854 223.736 25.8125C223.955 25.7292 224.189 25.6667 224.439 25.625C224.689 25.5729 224.955 25.5156 225.236 25.4531C225.736 25.2969 226.184 25.1771 226.58 25.0938C226.976 25 227.361 24.9271 227.736 24.875C228.111 24.8125 228.502 24.7604 228.908 24.7188C229.314 24.6667 229.783 24.5938 230.314 24.5C230.325 24.5312 230.34 24.5469 230.361 24.5469C230.393 24.5469 230.429 24.5469 230.471 24.5469C230.502 24.6198 230.559 24.6562 230.643 24.6562C230.643 24.625 230.637 24.599 230.627 24.5781C230.627 24.5469 230.627 24.5208 230.627 24.5C230.648 24.5 230.674 24.5052 230.705 24.5156C230.747 24.526 230.778 24.5365 230.799 24.5469C230.83 24.5573 230.856 24.5573 230.877 24.5469C230.898 24.526 230.903 24.4896 230.893 24.4375C231.018 24.6562 231.179 24.8385 231.377 24.9844C231.575 25.1198 231.794 25.2396 232.033 25.3438C232.044 25.4375 232.044 25.5052 232.033 25.5469C232.033 25.5885 232.028 25.6302 232.018 25.6719C232.007 25.7031 232.002 25.7448 232.002 25.7969C232.002 25.8385 232.012 25.901 232.033 25.9844C231.866 26.2656 231.674 26.4844 231.455 26.6406C231.247 26.7969 231.023 26.9167 230.783 27C230.544 27.0833 230.288 27.1458 230.018 27.1875C229.757 27.2292 229.486 27.276 229.205 27.3281C228.934 27.3698 228.658 27.4323 228.377 27.5156C228.096 27.599 227.82 27.724 227.549 27.8906C227.465 27.8594 227.387 27.849 227.314 27.8594C227.252 27.8594 227.184 27.8698 227.111 27.8906C227.038 27.9115 226.955 27.9323 226.861 27.9531C226.778 27.974 226.674 27.974 226.549 27.9531C226.465 28.026 226.366 28.0781 226.252 28.1094C226.148 28.1406 226.038 28.1719 225.924 28.2031C225.976 28.3177 225.997 28.4323 225.986 28.5469C225.986 28.6615 226.002 28.7604 226.033 28.8438C226.471 28.8854 226.955 28.8854 227.486 28.8438C228.018 28.7917 228.538 28.7552 229.049 28.7344C229.059 28.7865 229.054 28.8229 229.033 28.8438C229.012 28.8646 229.002 28.901 229.002 28.9531C229.096 29.0156 229.184 29.0938 229.268 29.1875C229.351 29.2812 229.434 29.375 229.518 29.4688C229.611 29.5521 229.705 29.625 229.799 29.6875C229.893 29.7396 230.002 29.7604 230.127 29.75C230.179 29.8542 230.215 29.9635 230.236 30.0781C230.257 30.1927 230.241 30.3125 230.189 30.4375C229.981 30.5729 229.778 30.7135 229.58 30.8594C229.382 30.9948 229.174 31.1198 228.955 31.2344C228.747 31.349 228.518 31.4427 228.268 31.5156C228.018 31.5885 227.747 31.6198 227.455 31.6094C227.403 31.6094 227.356 31.6094 227.314 31.6094C227.283 31.6094 227.241 31.5885 227.189 31.5469C227.085 31.599 226.945 31.6198 226.768 31.6094C226.601 31.5885 226.46 31.6042 226.346 31.6562C226.2 31.6042 226.028 31.5781 225.83 31.5781C225.643 31.5781 225.476 31.5521 225.33 31.5C225.143 31.7708 224.965 32.0573 224.799 32.3594C224.632 32.651 224.486 32.9635 224.361 33.2969C224.788 33.3594 225.143 33.3854 225.424 33.375C225.705 33.3646 225.971 33.3438 226.221 33.3125C226.471 33.2812 226.726 33.25 226.986 33.2188C227.257 33.1875 227.585 33.1771 227.971 33.1875C228.231 33.0625 228.528 32.9792 228.861 32.9375C229.205 32.8854 229.523 32.8125 229.814 32.7188C229.919 32.75 230.007 32.8125 230.08 32.9062C230.153 32.9896 230.221 33.0781 230.283 33.1719C230.356 33.2552 230.429 33.3281 230.502 33.3906C230.575 33.4531 230.669 33.474 230.783 33.4531C230.835 33.5052 230.866 33.5677 230.877 33.6406C230.898 33.7135 230.913 33.7812 230.924 33.8438C230.945 33.9062 230.971 33.9583 231.002 34C231.033 34.0312 231.09 34.0417 231.174 34.0312C230.976 34.4375 230.752 34.75 230.502 34.9688C230.262 35.1875 229.986 35.3594 229.674 35.4844C229.372 35.599 229.028 35.6875 228.643 35.75C228.268 35.8021 227.846 35.8698 227.377 35.9531C227.262 35.974 227.163 35.974 227.08 35.9531C227.007 35.9219 226.929 35.9062 226.846 35.9062C226.554 35.9583 226.205 36.0104 225.799 36.0625C225.403 36.1146 225.002 36.1354 224.596 36.125C224.189 36.1146 223.799 36.0625 223.424 35.9688C223.049 35.875 222.736 35.7083 222.486 35.4688ZM247.979 28.4531C247.542 28.276 247.177 28.026 246.886 27.7031C246.604 27.3802 246.375 27 246.198 26.5625C246.302 26.2812 246.469 26.0469 246.698 25.8594C246.927 25.6615 247.182 25.4948 247.464 25.3594C247.755 25.224 248.063 25.1146 248.386 25.0312C248.709 24.9479 249.021 24.875 249.323 24.8125C249.386 24.8333 249.417 24.8333 249.417 24.8125C249.417 24.7917 249.443 24.8021 249.495 24.8438C249.87 24.7292 250.302 24.6198 250.792 24.5156C251.281 24.401 251.802 24.3594 252.354 24.3906C252.427 24.349 252.516 24.3281 252.62 24.3281C252.724 24.3177 252.834 24.3125 252.948 24.3125C253.063 24.3125 253.172 24.3125 253.276 24.3125C253.38 24.3021 253.469 24.2812 253.542 24.25C253.604 24.3229 253.698 24.3698 253.823 24.3906C253.948 24.401 254.078 24.4531 254.214 24.5469C254.255 24.5573 254.255 24.5417 254.214 24.5C254.172 24.4479 254.177 24.4115 254.229 24.3906C254.365 24.3906 254.485 24.4219 254.589 24.4844C254.693 24.5469 254.787 24.6198 254.87 24.7031C254.964 24.776 255.047 24.8438 255.12 24.9062C255.203 24.9688 255.292 25 255.386 25C255.479 25.1146 255.589 25.224 255.714 25.3281C255.849 25.4219 255.974 25.5208 256.089 25.625C256.214 25.7292 256.313 25.8438 256.386 25.9688C256.469 26.0938 256.511 26.2344 256.511 26.3906C256.5 26.4531 256.521 26.4896 256.573 26.5C256.625 26.5104 256.662 26.5417 256.682 26.5938C256.693 26.9792 256.63 27.3125 256.495 27.5938C256.37 27.875 256.209 28.1354 256.011 28.375C255.813 28.6042 255.599 28.8229 255.37 29.0312C255.151 29.2396 254.948 29.4635 254.761 29.7031C254.886 29.8594 255.026 30.0052 255.182 30.1406C255.349 30.2656 255.516 30.3906 255.682 30.5156C255.849 30.6406 256.005 30.776 256.151 30.9219C256.307 31.0573 256.438 31.2135 256.542 31.3906C256.573 31.4531 256.641 31.4948 256.745 31.5156C256.776 31.6406 256.818 31.7708 256.87 31.9062C256.932 32.0312 256.99 32.1562 257.042 32.2812C257.094 32.3958 257.125 32.5 257.136 32.5938C257.146 32.6875 257.12 32.7656 257.057 32.8281C257.13 32.8698 257.172 32.9375 257.182 33.0312C257.193 33.1146 257.193 33.1823 257.182 33.2344C256.953 33.5156 256.797 33.7135 256.714 33.8281C256.63 33.9427 256.568 34.026 256.526 34.0781C256.485 34.1302 256.443 34.1771 256.401 34.2188C256.36 34.2604 256.266 34.3438 256.12 34.4688C255.568 34.8021 254.99 35.1042 254.386 35.375C253.792 35.6354 253.172 35.8125 252.526 35.9062C252.474 35.9792 252.396 36.0365 252.292 36.0781C252.198 36.1302 252.089 36.1719 251.964 36.2031C251.839 36.2344 251.703 36.2604 251.557 36.2812C251.422 36.3021 251.297 36.3229 251.182 36.3438C251.13 36.3229 251.099 36.2865 251.089 36.2344C251.089 36.1927 251.063 36.1615 251.011 36.1406C251 36.2656 250.943 36.3281 250.839 36.3281C250.745 36.3385 250.625 36.3177 250.479 36.2656C250.334 36.2135 250.182 36.1406 250.026 36.0469C249.87 35.9531 249.735 35.8646 249.62 35.7812C249.568 35.875 249.5 35.974 249.417 36.0781C249.344 36.1823 249.266 36.2552 249.182 36.2969C249.037 36.276 248.927 36.2604 248.854 36.25C248.792 36.2396 248.729 36.2656 248.667 36.3281C248.584 36.2865 248.521 36.2396 248.479 36.1875C248.438 36.1458 248.396 36.099 248.354 36.0469C248.313 36.0052 248.266 35.9688 248.214 35.9375C248.162 35.8958 248.084 35.8594 247.979 35.8281C248 35.776 247.985 35.6979 247.932 35.5938C247.88 35.4792 247.807 35.4115 247.714 35.3906C247.766 35.3073 247.745 35.2031 247.651 35.0781C247.557 34.9427 247.485 34.7917 247.432 34.625C247.443 34.5521 247.448 34.4792 247.448 34.4062C247.459 34.3229 247.469 34.25 247.479 34.1875C247.5 34.1146 247.526 34.0521 247.557 34C247.589 33.9479 247.641 33.9115 247.714 33.8906C247.703 33.7552 247.662 33.625 247.589 33.5C247.682 33.4271 247.745 33.3385 247.776 33.2344C247.807 33.1198 247.834 33.0052 247.854 32.8906C247.886 32.776 247.922 32.6667 247.964 32.5625C248.005 32.4479 248.073 32.3542 248.167 32.2812C248.146 32.25 248.125 32.224 248.104 32.2031C248.084 32.1823 248.073 32.1458 248.073 32.0938C248.229 31.8333 248.339 31.6146 248.401 31.4375C248.464 31.25 248.511 31.0729 248.542 30.9062C248.584 30.7292 248.625 30.5417 248.667 30.3438C248.709 30.1458 248.792 29.8958 248.917 29.5938C248.906 29.4062 248.927 29.2396 248.979 29.0938C249.031 28.9479 249.084 28.8073 249.136 28.6719C249.198 28.526 249.245 28.375 249.276 28.2188C249.307 28.0625 249.302 27.8802 249.261 27.6719C249.084 27.6927 248.953 27.7552 248.87 27.8594C248.797 27.9635 248.75 28.1042 248.729 28.2812C248.636 28.3646 248.516 28.4062 248.37 28.4062C248.224 28.3958 248.094 28.4115 247.979 28.4531ZM254.854 31.4688C254.459 31.25 254.094 31.1198 253.761 31.0781C253.438 31.0365 253.125 31.0417 252.823 31.0938C252.531 31.1354 252.25 31.1979 251.979 31.2812C251.709 31.3646 251.438 31.4271 251.167 31.4688C251.031 31.8229 250.891 32.2135 250.745 32.6406C250.599 33.0677 250.459 33.4844 250.323 33.8906C250.698 33.8385 251.042 33.7604 251.354 33.6562C251.667 33.5521 251.969 33.4375 252.261 33.3125C252.552 33.1771 252.839 33.0469 253.12 32.9219C253.401 32.7865 253.693 32.6615 253.995 32.5469C254.026 32.4219 254.094 32.3229 254.198 32.25C254.302 32.1771 254.406 32.1094 254.511 32.0469C254.615 31.974 254.703 31.8958 254.776 31.8125C254.849 31.7292 254.875 31.6146 254.854 31.4688ZM253.761 26.5781C253.115 26.5573 252.479 26.6146 251.854 26.75C251.229 26.8854 250.703 27.0833 250.276 27.3438C250.485 27.5208 250.698 27.6771 250.917 27.8125C251.146 27.9479 251.318 28.1302 251.432 28.3594C251.932 28.1615 252.37 27.9115 252.745 27.6094C253.12 27.2969 253.459 26.9531 253.761 26.5781ZM273.269 25.375C273.842 25.2604 274.41 25.1458 274.973 25.0312C275.535 24.9062 276.098 24.8021 276.66 24.7188C277.233 24.6354 277.816 24.5781 278.41 24.5469C279.004 24.5156 279.629 24.5312 280.285 24.5938C280.545 24.8646 280.775 25.1615 280.973 25.4844C281.17 25.7969 281.358 26.125 281.535 26.4688C281.514 26.5417 281.499 26.6146 281.488 26.6875C281.488 26.7604 281.478 26.8385 281.457 26.9219C281.405 27.0573 281.332 27.1823 281.238 27.2969C281.155 27.401 281.087 27.526 281.035 27.6719C280.775 27.8177 280.525 27.974 280.285 28.1406C280.056 28.3073 279.827 28.4792 279.598 28.6562C279.41 28.7396 279.212 28.8177 279.004 28.8906C278.806 28.9531 278.655 29.0781 278.551 29.2656C278.894 29.4115 279.196 29.5885 279.457 29.7969C279.717 30.0052 279.946 30.2396 280.144 30.5C280.342 30.7604 280.514 31.0417 280.66 31.3438C280.806 31.6458 280.936 31.9583 281.051 32.2812C281.03 32.4375 281.004 32.599 280.973 32.7656C280.941 32.9323 280.941 33.0729 280.973 33.1875C280.9 33.4062 280.801 33.5833 280.676 33.7188C280.561 33.8438 280.446 34.0156 280.332 34.2344C279.967 34.3906 279.67 34.6094 279.441 34.8906C279.337 34.8906 279.285 34.8698 279.285 34.8281C278.962 35.0469 278.587 35.2344 278.16 35.3906C277.733 35.5365 277.275 35.651 276.785 35.7344C276.295 35.8177 275.78 35.8646 275.238 35.875C274.696 35.8854 274.155 35.8646 273.613 35.8125C273.571 35.7812 273.535 35.7448 273.504 35.7031C273.473 35.6615 273.41 35.6458 273.316 35.6562C273.275 35.5521 273.217 35.4635 273.144 35.3906C273.082 35.3073 273.03 35.2135 272.988 35.1094C273.092 34.9427 273.16 34.75 273.191 34.5312C273.233 34.3125 273.275 34.1042 273.316 33.9062C273.368 33.6979 273.436 33.5156 273.519 33.3594C273.603 33.1927 273.743 33.0729 273.941 33C274.025 32.9896 274.071 33.0156 274.082 33.0781C274.092 33.1406 274.124 33.1823 274.176 33.2031C274.582 33.2031 274.988 33.1979 275.394 33.1875C275.801 33.1667 276.186 33.1302 276.551 33.0781C276.915 33.0156 277.254 32.9271 277.566 32.8125C277.889 32.6979 278.165 32.5365 278.394 32.3281C278.082 32.0781 277.717 31.8906 277.301 31.7656C276.884 31.6302 276.478 31.5 276.082 31.375C275.696 31.25 275.353 31.0938 275.051 30.9062C274.749 30.7083 274.551 30.4219 274.457 30.0469C274.509 29.8073 274.545 29.5938 274.566 29.4062C274.587 29.2188 274.613 29.0469 274.644 28.8906C274.676 28.7344 274.723 28.5885 274.785 28.4531C274.858 28.3073 274.973 28.1667 275.129 28.0312C275.077 28 274.999 27.9948 274.894 28.0156C274.801 28.026 274.696 28.0521 274.582 28.0938C274.467 28.125 274.353 28.1667 274.238 28.2188C274.134 28.2604 274.045 28.2969 273.973 28.3281C273.754 28.276 273.53 28.2448 273.301 28.2344C273.082 28.2135 272.879 28.1458 272.691 28.0312C272.67 27.9167 272.644 27.7917 272.613 27.6562C272.582 27.5104 272.561 27.3646 272.551 27.2188C272.54 27.0729 272.551 26.9271 272.582 26.7812C272.613 26.6354 272.686 26.5 272.801 26.375C272.78 26.3021 272.764 26.2292 272.754 26.1562C272.743 26.0833 272.723 26.0208 272.691 25.9688C272.806 25.875 272.926 25.7812 273.051 25.6875C273.186 25.5938 273.259 25.4896 273.269 25.375Z" fill="white"/>
</svg>
