<svg width="175" height="18" viewBox="0 0 175 18" fill="none" xmlns="http://www.w3.org/2000/svg">
<g clip-path="url(#clip0_5529_6193)">
<g filter="url(#filter0_d_5529_6193)">
<path d="M38.9147 3.41235H36.5136L34.3676 11.621L32.2817 3.41235H29.8206L33.1071 14.2172H35.6282L38.9147 3.41235Z" fill="white"/>
<path d="M47.7923 14.2169V10.4803L51.1237 3.41211H48.7527L46.7117 8.0342L44.6709 3.41211H42.2998L45.6313 10.4803V14.2169H47.7923Z" fill="white"/>
<path d="M55.395 3.41211V14.2169H60.9775C62.238 14.2169 63.1084 13.3466 63.1084 12.086V10.3152C63.1084 9.66988 62.7933 9.05462 62.043 8.69447C62.7332 8.28931 62.9883 7.71907 62.9883 7.07372V5.54308C62.9883 4.28247 62.118 3.41211 60.8575 3.41211H55.395ZM57.5559 7.73407V5.42303H60.3172C60.6474 5.42303 60.8274 5.60311 60.8274 5.93324V7.22378C60.8274 7.64404 60.7074 7.73407 60.3172 7.73407H57.5559ZM57.5559 12.206V9.65487H60.2571C60.6774 9.65487 60.9475 9.68489 60.9475 10.1351V11.6958C60.9475 12.0259 60.7674 12.206 60.4372 12.206H57.5559Z" fill="white"/>
<path d="M68.1418 3.41211V14.2169H75.21V12.176H70.3027V9.7149H74.2792V7.67405H70.3027V5.45304H75.21V3.41211H68.1418Z" fill="white"/>
<path d="M93.3733 3.41211V10.7804L89.3958 3.41211H87.0698V14.2169H89.0957V6.84862L93.0732 14.2169H95.3991V3.41211H93.3733Z" fill="white"/>
<path d="M100.769 3.41211V14.2169H107.838V12.176H102.93V9.7149H106.907V7.67405H102.93V5.45304H107.838V3.41211H100.769Z" fill="white"/>
<path d="M119.733 5.42303V3.41211H111.929V5.42303H114.75V14.2169H116.912V5.42303H119.733Z" fill="white"/>
<path d="M133.784 14.2169L136.47 3.41211H134.249L132.779 11.3056L130.828 3.41211H129.117L127.166 11.3056L125.695 3.41211H123.384L126.07 14.2169H128.201L129.972 7.10373L131.743 14.2169H133.784Z" fill="white"/>
<path d="M142.63 3.35205C141.369 3.35205 140.5 4.22241 140.5 5.48302V12.146C140.5 13.4066 141.369 14.2769 142.63 14.2769H146.246C147.507 14.2769 148.378 13.4066 148.378 12.146V5.48302C148.378 4.22241 147.507 3.35205 146.246 3.35205H142.63ZM146.217 11.7258C146.217 12.0559 146.037 12.236 145.706 12.236H143.17C142.84 12.236 142.66 12.0559 142.66 11.7258V5.9032C142.66 5.57306 142.84 5.39298 143.17 5.39298H145.706C146.037 5.39298 146.217 5.57306 146.217 5.9032V11.7258Z" fill="white"/>
<path d="M161.469 14.2169L159.669 10.1201C160.569 9.86496 161.14 9.09964 161.14 8.07922V5.54308C161.14 4.28247 160.269 3.41211 159.008 3.41211H153.501V14.2169H155.662V10.2102H157.403L159.143 14.2169H161.469ZM158.978 7.68906C158.978 8.01919 158.799 8.19927 158.468 8.19927H155.662V5.45304H158.468C158.799 5.45304 158.978 5.63312 158.978 5.96325V7.68906Z" fill="white"/>
<path d="M169.909 9.51982L172.4 14.2169H174.832L171.35 7.67405L174.667 3.41211H172.131L168.394 8.48439V3.41211H166.262V14.2169H168.394V11.4557L169.909 9.51982Z" fill="white"/>
</g>
<g filter="url(#filter1_d_5529_6193)">
<path d="M17.5309 0.466309L8.79883 13.8585L10.8181 16.9567L21.576 0.466309H17.5309Z" fill="url(#paint0_linear_5529_6193)"/>
<path d="M5.87785 0.466309H0.067627L2.96936 4.92374L5.87785 0.466309Z" fill="white"/>
<path d="M6.47954 1.37866L3.57104 5.8361L5.59029 8.93423L8.4987 4.4702L6.47954 1.37866Z" fill="url(#paint1_linear_5529_6193)"/>
<path d="M12.3028 0.466309L4.16577 12.9457L6.18502 16.0439L16.3344 0.466309H12.3028Z" fill="url(#paint2_linear_5529_6193)"/>
</g>
</g>
<defs>
<filter id="filter0_d_5529_6193" x="21.5754" y="-4.89314" width="161.502" height="27.4152" filterUnits="userSpaceOnUse" color-interpolation-filters="sRGB">
<feFlood flood-opacity="0" result="BackgroundImageFix"/>
<feColorMatrix in="SourceAlpha" type="matrix" values="0 0 0 0 0 0 0 0 0 0 0 0 0 0 0 0 0 0 127 0" result="hardAlpha"/>
<feOffset/>
<feGaussianBlur stdDeviation="4.1226"/>
<feComposite in2="hardAlpha" operator="out"/>
<feColorMatrix type="matrix" values="0 0 0 0 1 0 0 0 0 1 0 0 0 0 1 0 0 0 0.2 0"/>
<feBlend mode="normal" in2="BackgroundImageFix" result="effect1_dropShadow_5529_6193"/>
<feBlend mode="normal" in="SourceGraphic" in2="effect1_dropShadow_5529_6193" result="shape"/>
</filter>
<filter id="filter1_d_5529_6193" x="-8.17756" y="-7.77888" width="37.9987" height="32.9809" filterUnits="userSpaceOnUse" color-interpolation-filters="sRGB">
<feFlood flood-opacity="0" result="BackgroundImageFix"/>
<feColorMatrix in="SourceAlpha" type="matrix" values="0 0 0 0 0 0 0 0 0 0 0 0 0 0 0 0 0 0 127 0" result="hardAlpha"/>
<feOffset/>
<feGaussianBlur stdDeviation="4.1226"/>
<feComposite in2="hardAlpha" operator="out"/>
<feColorMatrix type="matrix" values="0 0 0 0 1 0 0 0 0 1 0 0 0 0 1 0 0 0 0.2 0"/>
<feBlend mode="normal" in2="BackgroundImageFix" result="effect1_dropShadow_5529_6193"/>
<feBlend mode="normal" in="SourceGraphic" in2="effect1_dropShadow_5529_6193" result="shape"/>
</filter>
<linearGradient id="paint0_linear_5529_6193" x1="20.2322" y1="0.466309" x2="6.78346" y2="19.2703" gradientUnits="userSpaceOnUse">
<stop stop-color="white"/>
<stop offset="0.9999" stop-color="white" stop-opacity="0.421875"/>
<stop offset="1" stop-color="white" stop-opacity="0"/>
</linearGradient>
<linearGradient id="paint1_linear_5529_6193" x1="8.52962" y1="2.14208" x2="1.3018" y2="12.0586" gradientUnits="userSpaceOnUse">
<stop stop-color="white"/>
<stop offset="1" stop-color="white" stop-opacity="0.56"/>
</linearGradient>
<linearGradient id="paint2_linear_5529_6193" x1="10.2017" y1="7.29135" x2="-2.51768" y2="30.7653" gradientUnits="userSpaceOnUse">
<stop stop-color="white"/>
<stop offset="1" stop-color="white" stop-opacity="0"/>
</linearGradient>
<clipPath id="clip0_5529_6193">
<rect width="175" height="16.8269" fill="white" transform="translate(0 0.298096)"/>
</clipPath>
</defs>
</svg>
